<?xml version="1.0" encoding="utf-8"?>
<!-- Generator: Adobe Illustrator 24.0.2, SVG Export Plug-In . SVG Version: 6.00 Build 0)  -->
<svg version="1.1" id="Layer_1" xmlns="http://www.w3.org/2000/svg" xmlns:xlink="http://www.w3.org/1999/xlink" x="0px" y="0px"
	 viewBox="0 0 150 150" style="enable-background:new 0 0 150 150;" xml:space="preserve">
<style type="text/css">
	.st0{fill:none;stroke:#000;stroke-width:6;stroke-miterlimit:10;}
	.st1{fill:#000;}
</style>
<g>
	<path pointer-events="all" class="st0" d="M75,4.3v98 M104.1,93.4c4.5-1.9,9.8-0.7,12.8,2.9c3,3.6,3,8.7,0,12.2
		c-3,3.6-8.3,4.8-12.8,2.9L46,93.4c-4.5-1.9-9.8-0.7-12.8,2.9c-3,3.6-3,8.7,0,12.2c3,3.6,8.3,4.8,12.8,2.9L104.1,93.4z"/>
</g>
<g>
	<path class="st1" d="M144,6v122.1c0,8.8-7.1,15.9-15.9,15.9H21.9C13.1,144,6,136.9,6,128.1V6H144 M144.3,0H5.7C2.6,0,0,2.6,0,5.7
		v122.4C0,140.2,9.8,150,21.9,150h106.2c12.1,0,21.9-9.8,21.9-21.9V5.7C150,2.6,147.4,0,144.3,0L144.3,0z"/>
</g>
</svg>
