<?xml version="1.0" encoding="utf-8"?>
<!-- Generator: Adobe Illustrator 24.0.2, SVG Export Plug-In . SVG Version: 6.00 Build 0)  -->
<svg version="1.1" id="Layer_1" xmlns="http://www.w3.org/2000/svg" xmlns:xlink="http://www.w3.org/1999/xlink" x="0px" y="0px"
	 viewBox="0 0 150 150" style="enable-background:new 0 0 150 150;" xml:space="preserve">
<style type="text/css">
	.st0{fill:#000000;}
</style>
<g>
	<path class="st0" d="M126.1,146.6H3.9c-1.2,0-2.3-0.7-2.8-1.8c-0.5-1.1-0.3-2.4,0.6-3.3L26.1,115c1.1-1.2,3.1-1.3,4.3-0.2
		c1.2,1.1,1.3,3.1,0.2,4.3l-19.7,21.3h108.2l-19.7-21.3c-1.1-1.2,0.7-2.3,1.9-3.4c1.2-1.1,1.4-2,2.6-0.7l24.4,26.5
		c0.8,0.9,1,2.2,0.6,3.3C128.4,145.8,127.3,146.6,126.1,146.6z"/>
	<path class="st0" d="M65.5,132.5c-6.4,0-12.8-0.9-19.1-2.9c-23.4-7.2-40.3-26.7-44.4-50.8c-0.3-1.7,0.8-3.2,2.5-3.5
		c1.7-0.3,3.2,0.8,3.5,2.5c3.6,21.8,19,39.4,40.1,45.9c21.1,6.5,43.8,0.7,59.1-15.3c15.3-16,20.2-38.8,12.7-59.7
		c-0.3-0.9-0.2-2,0.4-2.8c0.6-0.8,1.5-1.3,2.5-1.3h20.5V10.1H65C36.8,10.3,12.8,30.6,8.1,58.5c-0.3,1.7-1.9,2.8-3.5,2.5
		c-1.7-0.3-2.8-1.9-2.5-3.5C7.3,26.7,33.7,4.2,65,4h81.5c1.7,0,3.1,1.4,3.1,3.1v40.7c0,1.7-1.4,3.1-3.1,3.1h-19.3
		c6.2,21.9,0.5,45.2-15.4,61.8C99.4,125.6,82.7,132.5,65.5,132.5z"/>
	<path class="st0" d="M65.1,91.6c-8.2,0-16.1-4.3-20.3-11.7c-0.8-1.5-0.3-3.3,1.1-4.2c1.5-0.8,3.3-0.3,4.2,1.1
		C54,83.6,62,86.9,69.6,84.9c7.6-2,12.8-8.9,12.8-16.7c0-7.8-5.3-14.7-12.8-16.7c-7.6-2-15.6,1.3-19.5,8.1c-0.8,1.5-2.7,2-4.2,1.1
		c-1.5-0.8-2-2.7-1.1-4.2c5.3-9.2,16.1-13.7,26.3-10.9c10.2,2.7,17.4,12,17.4,22.6c0,10.6-7.1,19.9-17.4,22.6
		C69.2,91.3,67.1,91.6,65.1,91.6z"/>
</g>
</svg>
