<?xml version="1.0" encoding="utf-8"?>
<!-- Generator: Adobe Illustrator 24.0.2, SVG Export Plug-In . SVG Version: 6.00 Build 0)  -->
<svg version="1.1" id="Layer_1" xmlns="http://www.w3.org/2000/svg" xmlns:xlink="http://www.w3.org/1999/xlink" x="0px" y="0px"
	 viewBox="0 0 150 150" style="enable-background:new 0 0 150 150;" xml:space="preserve">
<style type="text/css">
	.st0{fill:#000000;}
</style>
<g>
	<path class="st0" d="M144,6v138H6V6H144 M150,0H0v150h150V0L150,0z"/>
</g>
<g>
	<rect x="72" y="2.1" class="st0" width="6" height="3.5"/>
	<path class="st0" d="M78,137.1h-6v-7.3h6V137.1z M78,122.5h-6v-7.3h6V122.5z M78,107.9h-6v-7.3h6V107.9z M78,93.3h-6V86h6V93.3z
		 M78,78.7h-6v-7.3h6V78.7z M78,64h-6v-7.3h6V64z M78,49.4h-6v-7.3h6V49.4z M78,34.8h-6v-7.3h6V34.8z M78,20.2h-6v-7.3h6V20.2z"/>
	<rect x="72" y="144.4" class="st0" width="6" height="3.5"/>
</g>
<rect x="37" y="25.3" class="st0" width="6" height="99.4"/>
<rect x="108" y="25.3" class="st0" width="6" height="99.4"/>
</svg>
