<?xml version="1.0" encoding="utf-8"?>
<!-- Generator: Adobe Illustrator 24.0.2, SVG Export Plug-In . SVG Version: 6.00 Build 0)  -->
<svg version="1.1" id="Layer_1" xmlns="http://www.w3.org/2000/svg" xmlns:xlink="http://www.w3.org/1999/xlink" x="0px" y="0px"
	 viewBox="0 0 500 500" style="enable-background:new 0 0 500 500;" xml:space="preserve">
<style type="text/css">
	.st0{fill:#1A171B;}
	.st1{fill:#1B181C;}
	.st2{fill:#EF8805;}
	.st3{fill:#E2BF3E;}
	.st4{fill:#0067A3;}
	.st5{fill:#E4C332;}
	.st6{fill:#E3C232;}
	.st7{fill:#E4C232;}
	.st8{fill:#FEEC44;}
	.st9{fill:#FEEF6C;}
	.st10{fill:#FEEF71;}
	.st11{fill:#E5C332;}
	.st12{fill:#FDF290;}
	.st13{fill:#FEF07C;}
	.st14{fill:#FEF07B;}
	.st15{fill:#FEF07E;}
	.st16{fill:#E1C132;}
	.st17{fill:#E2C132;}
	.st18{fill:#FFFFFF;}
	.st19{fill:#E5C432;}
	.st20{fill:#E6C432;}
	.st21{fill:#E0BF32;}
	.st22{fill:#E1BF33;}
	.st23{fill:#E0BF33;}
	.st24{fill:#E4C333;}
	.st25{fill:#E3C133;}
	.st26{fill:#025D94;}
	.st27{fill:#E0BF34;}
	.st28{fill:#E2C133;}
	.st29{fill:#005D95;}
	.st30{fill:#DDBC34;}
	.st31{fill:#DFBE33;}
	.st32{fill:#DCBC32;}
	.st33{fill:#DEBE32;}
	.st34{fill:#DCBB34;}
	.st35{fill:#E4C233;}
	.st36{fill:#D7B835;}
	.st37{fill:#E5C331;}
	.st38{fill:#D8B835;}
	.st39{fill:#DCBD32;}
	.st40{fill:#E6E6E6;}
	.st41{fill:#006099;}
	.st42{fill:#00619A;}
	.st43{fill:#AAACAD;}
	.st44{fill:#D2D3D4;}
	.st45{fill:#1C181C;}
	.st46{fill:#1C191C;}
	.st47{fill:#1C191D;}
	.st48{fill:#1C1B1D;}
	.st49{fill:#FEEA18;}
	.st50{fill:#FEEB2C;}
	.st51{fill:#FFE911;}
	.st52{fill:#FEEB3B;}
	.st53{fill:#FEEB2D;}
	.st54{fill:#EF8405;}
	.st55{fill:#FDEB33;}
	.st56{fill:#FEEB25;}
	.st57{fill:#FDFDFD;}
	.st58{fill:#FCFDFD;}
	.st59{fill:#FBFBFC;}
	.st60{fill:#F6F6F6;}
	.st61{fill:#008F39;}
	.st62{fill:#018D39;}
</style>
<g>
	<g>
		<path class="st0" d="M175.1,427.5c0.9-2.2,1.8-4.2,2.6-6.2c2.3-5.5,4.6-11,6.7-16.5c0.2-0.6,0.5-1.2,0.6-1.8
			c0.3-1.1,0-1.4-1.1-1.6c-0.4-0.1-0.8-0.1-1.3-0.1c-0.2,0-0.4,0-0.6-0.1c-0.2,0-0.4-0.2-0.4-0.4c0-0.2,0.2-0.3,0.4-0.4
			c0.2,0,0.3-0.1,0.5-0.1c0.2,0,0.3,0,0.5,0c4.5,0.3,9-0.1,13.5,0.1c5.5,0.2,10.9,0.1,16.4,0.1c0.9,0,1.8-0.2,2.7-0.4
			c0.6-0.1,0.8,0,0.7,0.5c-0.4,1.9-0.4,3.9-0.6,5.9c0,0.2-0.1,0.3-0.1,0.5c-0.1,0.3-0.2,0.5-0.6,0.4c-0.3,0-0.3-0.3-0.3-0.5
			c-0.1-0.4-0.1-0.9-0.2-1.3c-0.3-1.3-1.2-2-2.8-2.2c-1.4-0.2-2.9-0.2-4.3-0.2c-1.2,0-2.4-0.1-3.5-0.1c-0.7,0-0.7,0-0.7,0.7
			c0,3.7,0,7.5,0,11.2c0,0.7,0,0.7,0.7,0.7c2.8,0,5.7,0,8.5-0.2c0.9,0,1.7-0.3,2.3-1c0.1-0.2,0.3-0.4,0.6-0.3
			c0.3,0.1,0.3,0.4,0.3,0.7c-0.1,0.8-0.1,1.6-0.2,2.3c-0.2,1.4-0.3,2.7-0.4,4.1c0,0.2,0,0.5-0.1,0.7c-0.1,0.2-0.2,0.4-0.5,0.4
			c-0.3,0-0.4-0.2-0.4-0.5c0-0.4-0.1-0.8-0.1-1.3c-0.2-1.1-0.7-1.7-1.8-2c-0.3-0.1-0.7-0.2-1.1-0.2c-2.3-0.1-4.6-0.2-7-0.2
			c-0.8,0-0.8,0-0.8,0.8c0,3.5,0,6.9,0,10.4c0,0.2,0,0.5,0,0.7c0.1,1.7,1,2.7,2.7,3c1.6,0.3,3.2,0.4,4.8,0.3c0.9,0,1.8-0.1,2.7-0.3
			c1.5-0.3,2.4-1.1,2.8-2.5c0.1-0.4,0.2-0.8,0.3-1.2c0.1-0.3,0.1-0.8,0.6-0.7c0.5,0.1,0.4,0.5,0.4,0.9c0,0.3,0,0.6,0,0.9
			c-0.1,1.4-0.3,2.9-0.6,4.3c-0.3,1.2-0.6,1.5-1.9,1.5c-1.9,0-3.7,0-5.6,0c-5.2-0.2-10.3-0.3-15.5-0.1c-0.4,0-0.7,0-1.1,0
			c-0.3,0-0.5-0.2-0.5-0.5c0-0.3,0.2-0.5,0.5-0.5c0.5,0,1-0.1,1.6-0.1c1-0.1,1.5-0.7,1.7-1.6c0.3-1.2,0.3-2.3,0.3-3.5
			c0.1-8.5,0.1-17,0-25.5c0-0.1,0-0.2,0-0.3c-0.1-1.8-0.8-2.5-2.6-2.7c-0.3,0-0.5-0.1-0.8-0.1c-1.4-0.1-2.5,0.4-3.3,1.6
			c-0.7,1.1-1.2,2.3-1.7,3.4c-4.2,9.3-8.5,18.5-12.7,27.8c-0.3,0.7-0.6,1.4-1.1,2c-0.6,0.9-1.3,0.9-1.9,0c-0.4-0.6-0.7-1.3-1-2
			c-4.1-9.5-8.2-19.1-12.2-28.7c-0.3-0.7-0.6-1.4-1-2.1c-0.5-0.9-1.3-1.5-2.3-1.7c-1.3-0.4-2.5-0.4-3.8-0.2c-1.2,0.2-1.6,0.8-1.8,2
			c-0.1,0.8-0.1,1.6-0.1,2.4c0,8.5-0.2,17.1,0.1,25.6c0,0.6,0,1.2,0.2,1.8c0.3,1.1,0.7,1.6,1.9,1.7c0.7,0.1,1.5,0.1,2.2,0.2
			c0.2,0,0.5,0,0.7,0.1c0.2,0.1,0.3,0.2,0.3,0.4c0,0.2-0.2,0.4-0.4,0.4c-0.3,0.1-0.5,0.1-0.8,0.1c-2.3,0-4.6-0.1-6.9-0.1
			c-2.3,0-4.6,0.1-7,0.1c-0.3,0-0.6,0-0.9-0.1c-0.2,0-0.4-0.2-0.4-0.5c0-0.2,0.2-0.4,0.4-0.4c0.2,0,0.4-0.1,0.6,0
			c0.5,0,0.9-0.1,1.4-0.2c0.8-0.1,1.2-0.5,1.4-1.3c0.2-0.8,0.3-1.6,0.3-2.4c0-3.5,0.1-7,0.1-10.5c0-5.4,0-10.9-0.1-16.3
			c0-2.4-0.6-3-3-3.2c-0.3,0-0.6,0-0.9-0.1c-0.2,0-0.3-0.2-0.3-0.4c0-0.2,0.1-0.3,0.3-0.4c0.4-0.1,0.8-0.1,1.2-0.1
			c2.2,0,4.5,0.2,6.7,0.1c4.9-0.2,9.8,0,14.7,0c1.6,0,3.3-0.1,4.9-0.1c0.3,0,0.7,0,1,0.1c0.3,0,0.6,0.1,0.6,0.5
			c0,0.3-0.3,0.4-0.6,0.4c-0.4,0-0.8,0.1-1.2,0.1c-1.2,0.2-1.5,0.6-1.3,1.8c0.1,0.7,0.4,1.3,0.6,2c2.8,7.2,5.6,14.4,8.4,21.6
			C174.8,427,174.9,427.2,175.1,427.5z"/>
		<path class="st0" d="M55.3,410.1c0-3.4,0-6.9,0-10.3c0-0.8,0-1.6-0.2-2.4c-0.2-1-0.8-1.7-1.8-2c-0.7-0.2-1.5-0.2-2.2-0.2
			c-0.3,0-0.7,0-1-0.1c-0.2-0.1-0.3-0.2-0.3-0.4c0-0.2,0.1-0.4,0.3-0.4c0.2,0,0.4-0.1,0.6-0.1c0.2,0,0.5,0,0.7,0
			c4.8,0.2,9.6,0.2,14.3,0c0.4,0,0.8,0,1.2,0.1c0.2,0.1,0.4,0.2,0.4,0.4c0,0.3-0.2,0.4-0.4,0.5c-0.2,0-0.4,0.1-0.7,0.1
			c-0.3,0-0.6,0-0.9,0.1c-1.7,0.2-2.4,0.9-2.5,2.6c-0.1,1-0.2,2-0.2,3c0,6.1,0,12.1,0,18.2c0,2.4,0.2,4.7,0.8,7
			c0.6,2.3,1.7,4.4,3.6,5.9c2.3,1.9,5,2.4,7.9,2.2c1.5-0.1,3-0.6,4.4-1.3c2.7-1.5,4.2-3.8,4.8-6.8c0.4-1.6,0.5-3.2,0.6-4.9
			c0.1-7.1,0.1-14.3,0-21.4c0-0.6-0.1-1.2-0.1-1.8c-0.1-1.9-1.2-2.5-2.8-2.7c-0.5-0.1-1,0-1.5-0.1c-0.3,0-0.5-0.1-0.8-0.2
			c-0.4-0.2-0.4-0.6,0-0.7c0.2-0.1,0.4-0.1,0.6-0.2c0.3,0,0.5,0,0.8,0c4,0.1,8,0.2,12,0c0.4,0,0.8,0,1.2,0.1
			c0.2,0.1,0.4,0.2,0.4,0.5c0,0.2-0.2,0.3-0.4,0.4c-0.4,0.1-0.7,0.1-1.1,0.1c-2.3,0.1-3,0.8-3.2,3.1c-0.1,1.7-0.1,3.4-0.1,5.1
			c0,5.1,0,10.1,0,15.2c0,2.4-0.3,4.8-0.9,7.2c-1.4,5.6-5.1,9.1-10.5,10.6c-4.4,1.2-8.8,1.1-13.1-0.4c-4.7-1.6-7.5-4.9-8.8-9.6
			c-0.7-2.6-0.9-5.3-0.9-8.1C55.4,415.5,55.4,412.8,55.3,410.1C55.4,410.1,55.4,410.1,55.3,410.1z"/>
		<path class="st0" d="M101.9,410.5c0,0.7,0,1.2,0,1.7c0.2,5.8,0.3,11.6,0.5,17.5c0,1.2,0.1,2.3,0.4,3.5c0.3,1.2,0.9,1.9,2.2,2
			c0.5,0,1,0.1,1.6,0.1c0.2,0,0.3,0,0.5,0c0.2,0.1,0.4,0.2,0.4,0.5c0,0.3-0.2,0.4-0.4,0.5c-0.2,0-0.4,0-0.6,0c-0.6,0-1.2,0-1.9,0
			c-3.2-0.1-6.4,0-9.6,0c-0.3,0-0.7,0-1,0c-0.2,0-0.4-0.2-0.4-0.4c0-0.3,0.1-0.4,0.4-0.5c0.2-0.1,0.4-0.1,0.6-0.1
			c0.5-0.1,1-0.1,1.5-0.2c1.2-0.2,1.6-0.5,1.8-1.7c0.2-1,0.2-1.9,0.3-2.9c0.2-9.7,0.3-19.3,0.4-29c0-0.4,0-0.8,0.1-1.3
			c0.3-0.7,0.7-0.9,1.4-0.5c0.2,0.1,0.4,0.3,0.5,0.4c0.3,0.3,0.6,0.6,0.9,0.9c8.3,8.3,16.6,16.7,25,25c0.3,0.3,0.4,0.6,0.6,0.8
			c0.5-0.2,0.3-0.5,0.3-0.7c-0.1-4.6-0.2-9.3-0.3-13.9c0-2.1-0.1-4.2-0.1-6.3c0-0.7-0.1-1.4-0.2-2.2c-0.2-1.6-0.9-2.2-2.5-2.4
			c-0.6-0.1-1.2-0.1-1.8-0.1c-0.3,0-0.6-0.1-0.6-0.4c0-0.4,0.3-0.5,0.6-0.5c0.3-0.1,0.5-0.1,0.8-0.1c1.3,0,2.7,0,4,0.1
			c2.2,0.1,4.4-0.1,6.6-0.1c0.4,0,0.7,0,1.1,0.1c0.2,0.1,0.4,0.2,0.3,0.4c0,0.2-0.1,0.4-0.4,0.4c-0.4,0.1-0.8,0.1-1.3,0.1
			c-1.6,0.2-2.2,0.8-2.4,2.5c-0.1,1.2-0.1,2.4-0.2,3.5c-0.2,9.1-0.3,18.3-0.5,27.4c0,0.4,0,0.9-0.1,1.3c-0.2,0.7-0.6,0.9-1.3,0.7
			c-0.5-0.2-1-0.5-1.4-0.9c-8.2-7.8-16.5-15.4-24.2-23.7C103.2,411.6,102.6,411.1,101.9,410.5z"/>
		<path class="st0" d="M346.9,452.8c3.2,0.1,6.7,0.5,10.1,1.2c0.6,0.1,1.3,0.2,1.9,0.3c0.6,0.1,0.8,0.3,0.7,0.8
			c-0.4,3.1-0.2,6.1-0.4,9.2c0,0.1,0,0.3-0.1,0.4c-0.1,0.3-0.3,0.6-0.7,0.6c-0.4,0-0.5-0.3-0.5-0.6c0-0.8-0.1-1.6-0.4-2.4
			c-0.6-2-1.8-3.6-3.7-4.6c-2-1.1-4.3-1.7-6.5-1.9c-2.1-0.2-4.3-0.2-6.5,0.1c-5.2,0.8-8.6,3.8-10.6,8.5c-0.8,1.8-1.1,3.7-1.3,5.7
			c-0.4,4.2-0.2,8.4,1.6,12.3c2.5,5.5,6.7,9,12.5,10.5c0.8,0.2,1.6,0.3,2.4,0.3c2.1,0,4.3,0,6.3-0.4c3.4-0.7,5.5-2.9,6.5-6.1
			c0.1-0.3,0.1-0.6,0.2-0.9c0.1-0.3,0.3-0.5,0.6-0.5c0.3,0.1,0.4,0.3,0.4,0.6c0,0.3,0,0.5,0,0.8c-0.3,2.2-0.6,4.5-1.1,6.7
			c-0.2,1-0.8,1.6-1.8,2c-1.4,0.5-2.9,0.7-4.4,0.9c-2.6,0.3-5.3,0.5-7.9,0.3c-3.7-0.3-7.3-0.8-10.7-2.3c-6.8-3-11.1-8.1-12.5-15.5
			c-0.9-5.2-0.4-10.3,2.3-15c2.9-5.2,7.4-8.4,13.1-9.9C340,452.9,343.3,452.7,346.9,452.8z"/>
		<path class="st0" d="M17.3,453.7c3.5,0,7,0,10.4,0c1.3,0,2.6,0,3.8-0.5c0.4-0.2,0.7,0,0.7,0.5c0,0.1,0,0.3,0,0.4
			c-0.4,1.7-0.5,3.4-0.5,5.1c0,0.5-0.1,1-0.1,1.6c0,0.3-0.1,0.7-0.5,0.7c-0.5,0-0.5-0.4-0.6-0.8c0-0.2,0-0.3,0-0.5
			c0.1-2.2-1.2-3.2-3.4-3.3c-1.8-0.1-3.7-0.1-5.5-0.2c-1.1,0-2.2,0-3.3,0c-0.7,0-0.8,0.1-0.8,0.8c0,0.4,0,0.8,0,1.2c0,4,0,8,0,12
			c0,0.2,0,0.4,0,0.6c0,0.4,0.1,0.7,0.6,0.7c3.2-0.1,6.5,0.1,9.7-0.1c0.9-0.1,1.6-0.4,2.2-1.1c0.1-0.1,0.1-0.2,0.2-0.2
			c0.2-0.1,0.3-0.2,0.5-0.1c0.2,0.1,0.3,0.3,0.2,0.5c0,0.4-0.1,0.8-0.1,1.2c-0.4,2.1-0.4,4.2-0.5,6.4c0,0.4,0.1,1-0.5,1
			c-0.6,0-0.5-0.6-0.5-1c-0.2-1.4-0.6-2.7-2.1-3.3c-0.5-0.2-0.9-0.3-1.4-0.3c-2.4-0.1-4.8-0.2-7.3-0.2c-0.9,0-1,0-1,0.9
			c0,4.3,0,8.5,0.1,12.8c0,1.3,0.1,2.7,0.3,4c0.3,1.6,0.9,2.2,2.6,2.3c0.8,0.1,1.6,0.1,2.4,0.2c0.3,0,0.6,0,0.7,0.4
			c0,0.4-0.3,0.5-0.6,0.6c-0.3,0-0.5,0-0.8,0c-2.5,0-5-0.1-7.5-0.1c-2.6-0.1-5.1,0.1-7.7,0.1c-0.3,0-0.6,0-0.9,0
			c-0.3,0-0.5-0.2-0.5-0.5c0-0.3,0.3-0.4,0.5-0.4c0.6,0,1.2-0.1,1.8-0.2c1.1-0.1,1.6-0.7,1.9-1.7c0.2-0.9,0.3-1.9,0.4-2.8
			c0.1-2.3,0.2-4.6,0.2-7c0-7.1,0-14.2,0-21.3c0-1.4-0.1-2.8-0.2-4.2c-0.1-2.1-1.1-2.6-2.8-2.9c-0.6-0.1-1.2,0-1.9-0.1
			c-0.3,0-0.8,0-0.8-0.5c0-0.4,0.5-0.5,0.8-0.5c0.3,0,0.7,0,1,0C10,453.5,13.7,453.9,17.3,453.7z"/>
		<path class="st0" d="M433.2,436.2c-3.5-0.2-6.9,0-10.4,0.1c-0.3,0-0.7,0-1-0.1c-0.2,0-0.4-0.2-0.4-0.4c0-0.3,0.1-0.4,0.4-0.5
			c0.2,0,0.4,0,0.6,0c0.4,0,0.8-0.1,1.2-0.1c1-0.1,1.4-0.7,1.6-1.6c0.2-1.1,0.3-2.1,0.3-3.2c0.1-1,0.1-2,0.1-3c0-7.3,0-14.6,0-21.9
			c0-0.5,0-0.9,0-1.4c-0.1-1.6-0.5-2.2-2.3-2.6c-0.5-0.1-1-0.1-1.6-0.1c-0.2,0-0.5,0-0.7-0.1c-0.2-0.1-0.3-0.2-0.3-0.4
			c0-0.2,0.1-0.3,0.3-0.3c0.3-0.1,0.7-0.1,1.1-0.1c1.7,0,3.3,0.1,5,0.1c4.9,0,9.9,0,14.8,0c1,0,1.9-0.2,2.9-0.4
			c0.5-0.1,0.7,0,0.6,0.5c0,0.5-0.2,1-0.2,1.5c-0.1,1.4-0.2,2.7-0.4,4.1c0,0.3-0.1,0.6-0.2,1c-0.1,0.2-0.3,0.4-0.5,0.3
			c-0.2,0-0.3-0.3-0.3-0.5c0-0.3,0-0.5-0.1-0.8c-0.3-1.8-1.1-2.5-2.8-2.7c-1-0.1-2-0.2-3-0.2c-1.6,0-3.2-0.1-4.8-0.1
			c-0.8,0-0.8,0-0.8,0.7c0,3.7,0,7.4,0,11.1c0,0.7,0,0.8,0.8,0.8c2.8,0,5.6,0,8.4-0.2c0.9,0,1.7-0.2,2.3-0.9
			c0.2-0.2,0.4-0.4,0.7-0.3c0.3,0.1,0.3,0.4,0.2,0.7c-0.1,0.8-0.1,1.7-0.3,2.5c-0.2,1.2-0.2,2.5-0.3,3.7c0,0.1,0,0.3,0,0.4
			c0,0.4-0.1,0.8-0.5,0.8c-0.6,0-0.4-0.5-0.5-0.8c0-0.1,0-0.1,0-0.2c-0.1-2.1-0.9-2.8-2.8-2.9c-2.4-0.2-4.8-0.3-7.3-0.2
			c-0.5,0-0.7,0.2-0.7,0.7c0,3.7,0,7.3,0,11c0,2,0.9,2.9,2.8,3.3c2.4,0.4,4.8,0.4,7.2,0c1.7-0.3,2.7-1.3,3.1-2.9
			c0.1-0.4,0.2-0.8,0.3-1.1c0.1-0.3,0.2-0.5,0.5-0.5c0.3,0,0.4,0.3,0.4,0.6c0,0.2,0,0.5,0,0.7c0,1.6-0.3,3.3-0.6,4.9
			c-0.3,1.2-0.6,1.5-1.8,1.5c-2.1,0-4.1,0-6.2,0C436.4,436.3,434.8,436.3,433.2,436.2z"/>
		<path class="st0" d="M118.9,495.8c-2.9-0.2-5.9-0.1-9,0c-0.7,0-1.3,0-2,0c-0.4,0-0.7-0.1-0.7-0.5c0-0.3,0.3-0.5,0.6-0.5
			c0.1,0,0.3,0,0.4,0c0.4,0,0.8-0.1,1.2-0.1c0.8-0.1,1.3-0.6,1.5-1.3c0.2-0.6,0.3-1.2,0.3-1.8c0.1-1.6,0.2-3.3,0.2-4.9
			c0-6.9,0-13.8,0-20.7c0-0.8,0-1.6-0.1-2.4c-0.1-1.6-0.8-2.3-2.4-2.5c-0.5-0.1-1-0.1-1.5-0.1c-0.2,0-0.5,0-0.7-0.1
			c-0.2,0-0.3-0.2-0.3-0.4c0-0.2,0.1-0.3,0.3-0.4c0.3-0.1,0.6-0.1,0.9-0.1c0.9,0,1.8,0,2.7,0c5.8,0.2,11.5,0.1,17.3,0.1
			c1,0,2-0.2,3-0.4c0.5-0.1,0.8,0,0.7,0.6c-0.4,1.8-0.4,3.7-0.6,5.6c0,0.3-0.1,0.6-0.2,0.9c-0.1,0.2-0.3,0.4-0.5,0.3
			c-0.3,0-0.3-0.2-0.3-0.4c0-0.2,0-0.3,0-0.5c-0.2-2-1-2.8-3-3c-1.1-0.1-2.2-0.2-3.3-0.2c-1.5,0-2.9-0.1-4.4-0.1
			c-0.7,0-0.7,0-0.7,0.7c0,0.7,0,1.3,0,2c0,2.9,0,5.8,0,8.6c0,0.2,0,0.5,0,0.7c0,0.5,0.2,0.7,0.7,0.6c0.1,0,0.3,0,0.4,0
			c2.5,0,5-0.1,7.6-0.1c1.1,0,2.2-0.1,3-1.1c0.1-0.1,0.3-0.3,0.5-0.2c0.2,0.1,0.3,0.3,0.3,0.6c-0.1,0.6-0.1,1.2-0.2,1.9
			c-0.2,1.6-0.4,3.1-0.4,4.7c0,0.2,0,0.4-0.1,0.6c-0.1,0.3-0.2,0.5-0.5,0.4c-0.3,0-0.3-0.2-0.4-0.5c0-0.4-0.1-0.7-0.1-1.1
			c-0.1-1.2-0.7-1.9-1.9-2.2c-0.3-0.1-0.6-0.2-1-0.2c-2.4-0.1-4.8-0.2-7.2-0.2c-0.7,0-0.7,0-0.7,0.7c0,3.2,0,6.4,0,9.6
			c0,0.3,0,0.6,0,0.9c0.1,2.6,0.9,3.5,3.4,3.8c2.2,0.3,4.4,0.3,6.6-0.1c1.7-0.3,2.7-1.2,3.1-2.9c0.1-0.4,0.2-0.8,0.3-1.1
			c0.1-0.3,0.2-0.5,0.5-0.5c0.4,0,0.4,0.4,0.5,0.6c0,0.3,0.1,0.7,0,1c-0.1,1.4-0.3,2.9-0.6,4.3c-0.3,1.4-0.6,1.7-2,1.7
			c-3.1,0.1-6.2-0.1-9.2-0.2C120.1,495.7,119.6,495.8,118.9,495.8z"/>
		<path class="st0" d="M46.9,495.7c-2.8-0.3-6.3,0-9.8,0c-0.3,0-0.6,0-0.9,0c-0.2,0-0.5-0.2-0.5-0.4c0-0.3,0.2-0.5,0.5-0.5
			c0.5-0.1,1-0.1,1.6-0.1c1.1-0.1,1.6-0.7,1.7-1.7c0.1-0.6,0.2-1.3,0.2-1.9c0.2-9,0.2-18.1,0.1-27.1c0-2.1-0.7-2.8-2.8-3
			c-0.5-0.1-1-0.1-1.6-0.1c-0.3,0-0.5-0.2-0.5-0.5c0-0.3,0.3-0.3,0.5-0.4c0.4-0.1,0.8-0.1,1.3-0.1c6.2,0.2,12.5,0.1,18.8,0.2
			c1.2,0,2.3-0.1,3.5-0.4c0.7-0.2,0.9,0,0.7,0.6c-0.3,1.6-0.4,3.3-0.5,5c0,0.4-0.1,0.8-0.2,1.2c-0.1,0.3-0.2,0.6-0.6,0.5
			c-0.3,0-0.3-0.3-0.4-0.6c0-0.4,0-0.8-0.1-1.2c-0.4-1.4-1.2-2-2.8-2.2c-1.5-0.2-3.1-0.2-4.6-0.2c-1,0-2.1-0.1-3.1-0.1
			c-0.8,0-0.9,0-0.9,0.9c0,2.9,0,5.9,0,8.8c0,0.7,0,1.4,0,2.2c0,0.7,0.1,0.7,0.7,0.7c2.8,0,5.7,0,8.5-0.2c0.9,0,1.7-0.3,2.3-1
			c0.2-0.2,0.4-0.4,0.7-0.2c0.3,0.2,0.3,0.4,0.2,0.7c-0.3,2.2-0.6,4.3-0.6,6.5c0,0.2-0.1,0.4-0.1,0.6c-0.1,0.2-0.2,0.3-0.5,0.3
			c-0.2,0-0.4-0.1-0.4-0.4c0-0.4-0.1-0.8-0.1-1.2c-0.1-1.2-0.7-1.9-1.8-2.2c-0.3-0.1-0.6-0.2-1-0.2c-2.4-0.1-4.8-0.3-7.2-0.2
			c-0.7,0-0.8,0-0.8,0.8c0,3.4,0,6.9,0,10.3c0,0.3,0.1,0.7,0.1,1c0.2,1.7,1,2.6,2.6,2.9c2.5,0.4,4.9,0.4,7.4,0
			c1.6-0.3,2.6-1.2,3-2.8c0.1-0.4,0.2-0.8,0.3-1.2c0.1-0.3,0.2-0.5,0.5-0.5c0.4,0,0.4,0.3,0.4,0.6c0,0.3,0.1,0.7,0,1
			c-0.1,1.4-0.2,2.7-0.5,4.1c-0.1,0.3-0.1,0.6-0.2,1c-0.2,0.6-0.5,0.9-1.1,0.9c-0.4,0-0.8,0.1-1.3,0.1
			C54.4,496,50.9,495.8,46.9,495.7z"/>
		<path class="st0" d="M289.9,436.3c-2.2,0-4.3,0-6.5,0c-0.3,0-0.5,0-0.8,0c-0.4,0-0.7-0.1-0.7-0.5c0-0.4,0.3-0.5,0.7-0.5
			c0.5,0,1-0.1,1.6-0.1c0.9-0.1,1.4-0.7,1.5-1.5c0.1-0.7,0.2-1.4,0.2-2c0.3-8.8,0.1-17.5,0.1-26.3c0-0.5,0-1-0.1-1.6
			c-0.2-1.4-0.8-2-2.2-2.2c-0.5-0.1-1-0.1-1.5-0.2c-0.3,0-0.5-0.1-0.5-0.5c0-0.3,0.3-0.4,0.5-0.4c0.3,0,0.6-0.1,1-0.1
			c4.1,0.1,8.2,0.2,12.3,0c0.4,0,0.7,0,1.1,0.1c0.2,0.1,0.3,0.2,0.3,0.3c0,0.2-0.1,0.4-0.3,0.4c-0.2,0.1-0.5,0.1-0.7,0.1
			c-0.5,0.1-1.1,0.1-1.6,0.3c-0.7,0.2-1.1,0.6-1.2,1.3c-0.1,0.5-0.2,1-0.2,1.6c0,1.7-0.1,3.3-0.1,5c0,6.9-0.1,13.7,0.1,20.6
			c0,1,0,2,0.2,2.9c0.2,1.4,0.7,1.9,2.1,2.1c0.7,0.1,1.4,0.1,2.2,0.2c0.1,0,0.2,0,0.3,0c0.3,0,0.6,0.1,0.6,0.5
			c0,0.3-0.3,0.4-0.5,0.5c-0.3,0-0.5,0-0.8,0C294.5,436.2,292.2,436.3,289.9,436.3z"/>
		<path class="st1" d="M483.5,451.8c-1.8,0-3.4,0.5-5.1,1c-2,0.6-3.8,1.4-5.7,2.4c-0.3,0.2-0.8,0.7-1.1,0.2c-0.3-0.4,0.3-0.7,0.6-1
			c2.2-2,4.6-3.8,7.1-5.6c0.7-0.5,1.4-1,2.1-1.4c0.9-0.5,1.2-0.4,1.6,0.4c0.5,1,1.1,2.1,1.5,3.2c0.4,0.8,0.3,0.9-0.7,0.9
			C483.7,451.8,483.6,451.8,483.5,451.8z"/>
		<path class="st0" d="M494.5,494.8c-1.8,0-3-0.8-4-2.3c-0.4-0.7-0.9-1.4-1.2-2.1c-0.7-1.5-1.4-3.1-2-4.7
			c-3.5-8.3-7.1-16.6-10.6-24.9c-0.2-0.4-0.4-0.8-0.5-1.2c-0.2-0.5-0.5-0.9-1.1-0.9c-0.7,0-0.9,0.5-1.1,0.9
			c-0.2,0.3-0.3,0.6-0.4,0.9c-4.3,10-8.6,20-12.9,30.1c-0.3,0.7-0.6,1.4-1,2.1c-0.2,0.3-0.4,0.4-0.7,0.1c-0.5-0.5-1.1-0.9-1.6-1.5
			c-3.8-3.9-7.2-8.2-10.7-12.5c0.6-0.6,1.3-1.1,1.9-1.6c1.5-1.3,2.8-2.8,3.8-4.5c1-1.8,1.4-3.7,1-5.8c-0.7-3.4-2.9-5.5-6.2-6.4
			c-2-0.6-4-0.7-6-0.7c-2,0-3.9,0.1-5.9,0.1c-2.8,0.1-5.7-0.1-8.5-0.1c-0.4,0-0.7,0-1.1,0.1c-0.2,0.1-0.5,0.2-0.4,0.4
			c0,0.2,0.2,0.4,0.5,0.4c0.5,0,1,0.1,1.6,0.1c2.2,0.2,2.8,0.9,2.8,3.1c0.1,6.7,0.1,13.4,0,20.1c0,2.2,0,4.4-0.1,6.6
			c0,0.9-0.1,1.8-0.4,2.7c-0.2,0.5-0.5,1-1,1.1c-2.4,0.5-4.7,0.4-6.2-2c-0.7-1.1-1.3-2.3-1.8-3.5c-2.2-5-4.3-10.1-6.5-15.1
			c-1.9-4.4-3.8-8.8-5.7-13.2c-0.2-0.5-0.4-1-0.7-1.4c-0.5-0.7-1.2-0.7-1.7,0c-0.3,0.4-0.5,0.9-0.7,1.4c-3.1,7.2-6.2,14.4-9.3,21.6
			c-1.3,2.9-2.5,5.8-3.8,8.7c-0.4,0.9-0.8,1.8-1.6,2.6c-0.6,0.6-1.3,1-2.3,1c0.3-1,0.3-2,0.5-3c0.1-0.8,0.2-1.7,0.1-2.5
			c0-0.3,0-0.7-0.4-0.8c-0.5-0.1-0.5,0.4-0.6,0.7c-0.1,0.3-0.1,0.6-0.2,1c-0.4,1.6-1.4,2.5-3,2.8c-0.9,0.2-1.8,0.2-2.6,0.2
			c-1.6,0.1-3.2,0-4.8-0.3c-1.6-0.3-2.3-1.1-2.6-2.7c0-0.3-0.1-0.5-0.1-0.8c0-3.6,0-7.2,0-10.8c0-0.7,0-0.7,0.7-0.7
			c2.4,0,4.8,0.1,7.2,0.2c0.3,0,0.6,0.1,1,0.2c1.1,0.3,1.7,1,1.9,2.1c0,0.4,0,0.7,0.1,1.1c0,0.3,0.1,0.5,0.4,0.6
			c0.4,0,0.5-0.2,0.6-0.5c0-0.1,0-0.3,0-0.4c0.1-1.4,0.2-2.9,0.4-4.3c0.1-0.7,0.2-1.5,0.2-2.2c0-0.3,0-0.6-0.3-0.7
			c-0.3-0.1-0.4,0.1-0.6,0.3c-0.6,0.7-1.4,0.9-2.3,1c-2.8,0.2-5.7,0.2-8.5,0.2c-0.7,0-0.7-0.1-0.7-0.7c0-3.7,0-7.5,0-11.2
			c0-0.6,0.1-0.7,0.8-0.7c1.7,0,3.3,0.1,5,0.1c1,0,2,0.1,2.9,0.2c1.8,0.2,2.7,1.1,2.8,2.9c0,0.1,0,0.3,0,0.4c0,0.3,0,0.6,0.3,0.6
			c0.4,0.1,0.5-0.2,0.6-0.5c0-0.1,0.1-0.3,0.1-0.4c0.3-1.9,0.3-3.9,0.6-5.9c0.1-0.6-0.1-0.7-0.7-0.6c-1.3,0.3-2.6,0.4-3.9,0.4
			c-6.2,0-12.3,0-18.5-0.2c-0.4,0-0.9-0.1-1.3,0.1c-0.2,0.1-0.5,0.1-0.5,0.4c0,0.3,0.2,0.4,0.5,0.5c0.6,0.1,1.1,0.1,1.7,0.1
			c2,0.2,2.7,1,2.7,2.9c0,1.3,0,2.6,0,3.8c0,5.9,0,11.8,0,17.7c0,1.7,0,3.5-0.1,5.2c0,0.9-0.1,1.8-0.3,2.7c-0.2,0.8-0.6,1.3-1.5,1.3
			c-0.4,0-0.8,0.1-1.2,0.1c-0.2,0-0.4,0-0.6,0c-0.3,0-0.4,0.2-0.5,0.4c0,0.3,0.2,0.5,0.5,0.5c0.3,0,0.5,0,0.8,0
			c2.4,0,4.8-0.2,7.2-0.1c5.9,0.1,11.8,0.5,17.7,0.1c2.3-0.1,4.6-0.1,7,0c0.6,0,1.1,0,1.7,0c0.4,0,0.7-0.1,0.7-0.5
			c0-0.4-0.3-0.5-0.7-0.5c-0.5,0-1,0-1.6-0.1c-0.9-0.2-1.2-0.6-1.1-1.5c0.1-0.7,0.2-1.4,0.5-2c0.9-2.2,1.8-4.5,2.7-6.7
			c0.2-0.4,0.4-0.6,0.9-0.6c3.6,0,7.2,0,10.8,0c0.5,0,0.8,0.2,1,0.7c1.2,3,2.4,5.9,3.5,8.9c0.3,0.8,0.2,0.9-0.6,1.3
			c-0.2,0.1-0.3,0.2-0.3,0.4c0,0.3,0.2,0.3,0.5,0.4c0.6,0.1,1.1,0.1,1.7,0.1c8,0.2,15.9-0.2,23.9,0c0.1,0,0.2,0,0.3,0
			c0.1,0,0.2,0,0.3,0c0.3-0.1,0.5-0.2,0.5-0.5c0-0.3-0.2-0.5-0.5-0.5c-0.1,0-0.3,0-0.4,0c-0.7-0.1-1.4-0.1-2.1-0.2
			c-1-0.1-1.5-0.6-1.8-1.6c-0.1-0.3-0.1-0.6-0.2-0.9c-0.3-3.5-0.2-7-0.3-10.5c0-0.5,0.2-0.7,0.7-0.7c1.1,0,2.3,0.1,3.4,0
			c0.9,0,1.5,0.3,2,1c1.7,2.4,3.3,4.8,5.1,7.2c1.1,1.4,2.2,2.7,3.4,4c1.1,1.1,2.5,1.7,3.8,2.5c0.7,0.4,1.7,0.1,2.5,0.1
			c0.5,0,0.9,0,1.4,0c2.7,0,5.3,0,8,0c0.4,0,0.7,0,0.7-0.5c0-0.4-0.3-0.5-0.7-0.5c-0.6,0-1.1,0-1.7-0.1c-0.8-0.2-1-0.5-1-1.3
			c0-1,0.3-1.9,0.7-2.7c0.8-2,1.7-4,2.5-6c0.2-0.6,0.5-0.8,1.1-0.8c3.5,0,7,0,10.5,0c0.7,0,1,0.2,1.2,0.9c1.1,2.8,2.2,5.6,3.4,8.5
			c0.1,0.2,0.2,0.4,0.2,0.6c0.2,0.5,0,0.8-0.4,0.9c-0.1,0.1-0.3,0.1-0.4,0.1c-0.2,0.1-0.2,0.2-0.2,0.4c0,0.2,0.2,0.3,0.3,0.3
			c0.5,0.1,0.9,0.1,1.4,0.2c3.4,0,6.7,0,10.1,0.1c0.4,0,0.8,0,1.1-0.2c0-0.2,0-0.4,0-0.6C495.2,494.7,494.9,494.8,494.5,494.8z
			 M400.4,481.1c0.7-2.2,1.6-4.3,2.5-6.4c0.8-2.1,1.6-4.2,2.5-6.3c0.6,1.2,4.7,11.9,4.9,12.7C407,481.1,403.7,481.1,400.4,481.1z
			 M445.2,476.6c-1.1,1.2-2.3,2-4,1.9c-0.3,0-0.7,0-1,0c-0.9,0-1.9,0-2.8-0.2c-0.9-0.2-1.1-0.3-1.1-1.3c0-4.5,0-9,0-13.4
			c0-0.9,0-0.9,0.9-1.1c1.4-0.2,2.9-0.2,4.3,0.1c2.3,0.6,4,1.9,4.9,4.2c1,2.6,1,5.2,0,7.9C446.1,475.4,445.7,476,445.2,476.6z
			 M468.6,481.2c1.7-4.3,3.3-8.5,5.1-12.9c1.7,4.4,3.3,8.6,4.9,12.9C475.2,481.2,472,481.2,468.6,481.2z"/>
		<path class="st0" d="M230.1,488.4c-0.1-0.4-0.6-0.4-0.8,0c-0.1,0.2-0.1,0.5-0.2,0.8c-0.5,2.4-1.7,3.5-4.2,3.8
			c-2.2,0.2-4.4,0.1-6.6-0.1c-0.5,0-1-0.2-1.4-0.3c-1.1-0.2-1.8-1-1.9-2.1c-0.1-0.7-0.2-1.4-0.2-2c-0.1-2.8-0.1-5.7-0.1-8.5
			c0-5.4-0.1-10.7,0.1-16.1c0-0.5,0.1-0.9,0.2-1.4c0.2-0.7,0.6-1.1,1.3-1.3c0.6-0.2,1.3-0.2,1.9-0.3c0.2,0,0.4,0,0.6,0
			c0.3,0,0.5-0.1,0.6-0.4c0-0.4-0.3-0.5-0.6-0.5c-0.2,0-0.5,0-0.7,0c-4.5,0.1-8.9,0.2-13.4,0c-0.3,0-0.6,0-0.9,0.1
			c-0.2,0-0.5,0.1-0.4,0.4c0,0.3,0.2,0.4,0.5,0.4c0.4,0,0.8,0.1,1.3,0.1c2.2,0.3,2.8,0.9,2.8,3.1c0.2,6.2,0.1,12.4,0.1,18.7
			c0,2.6-0.1,5.2-0.1,7.9c0,0.9-0.1,1.9-0.4,2.8c-0.2,0.7-0.7,1.1-1.4,1.3c-0.9,0.2-1.9,0.1-2.8,0c-0.9-0.1-1.5-0.5-2.1-1.1
			c-0.5-0.5-0.9-1.1-1.3-1.7c-0.6-0.9-1-1.9-1.4-2.9c-2.2-5.2-4.4-10.3-6.6-15.5c-1.8-4.3-3.6-8.5-5.5-12.8
			c-0.2-0.4-0.3-0.7-0.5-1.1c-0.6-1.1-1.4-1.1-2.1-0.1c-0.2,0.4-0.4,0.8-0.6,1.1c-3.1,7.2-6.2,14.5-9.3,21.7
			c-1.2,2.9-2.4,5.7-3.7,8.5c-0.3,0.8-0.7,1.6-1.3,2.3c-4.8-4.2-8.5-9.4-12.6-14.3c1.2-0.9,2.2-1.8,3.2-2.8c1.2-1.3,2.3-2.6,3-4.2
			c1.4-3.2,0.7-6.6-1.7-9.1c-1.6-1.6-3.6-2.2-5.7-2.6c-2.5-0.4-5.1-0.4-7.6-0.3c-2.7,0.1-5.4,0.1-8.1,0c-1,0-2.1,0-3.1-0.1
			c-0.3,0-0.6,0-0.9,0.1c-0.2,0.1-0.4,0.2-0.3,0.4c0,0.2,0.2,0.4,0.4,0.4c0.2,0,0.5,0.1,0.7,0.1c0.5,0,1,0.1,1.5,0.1
			c1.6,0.2,2.3,1,2.4,2.6c0,0.5,0,0.9,0,1.4c0,7.5,0,15.1,0,22.6c0,1.5,0,3.1-0.2,4.6c-0.3,2.3-0.8,2.4-2.7,2.6
			c-0.3,0-0.6,0-0.9,0.1c-0.2,0-0.3,0.2-0.3,0.4c0,0.2,0.1,0.4,0.3,0.4c0.3,0.1,0.6,0.1,1,0.1c4.2-0.1,8.3-0.1,12.5,0
			c0.3,0,0.6,0,0.9,0c0.2,0,0.3,0,0.5,0c0.3-0.1,0.5-0.2,0.5-0.5c0-0.2-0.2-0.4-0.5-0.4c-0.2,0-0.3,0-0.5,0
			c-0.7-0.1-1.4-0.1-2.1-0.2c-0.9-0.1-1.5-0.6-1.7-1.5c-0.1-0.3-0.1-0.5-0.1-0.8c-0.3-2-0.2-4-0.3-6.1c-0.1-1.5,0-2.9,0-4.4
			c0-0.8,0-0.8,0.8-0.8c0.9,0,1.7,0,2.6,0c2.2,0,1.9-0.2,3.2,1.7c1.9,2.8,3.9,5.6,6.1,8.2c1.5,1.8,3,3.5,5.2,4.3
			c0.1,0,0.2,0.1,0.2,0.1c0.3,0.4,0.7,0.4,1,0.4c1.4,0,2.7,0,4.1,0c2.3,0,4.6,0,7,0c0.4,0,0.8,0,0.8-0.5c0-0.4-0.4-0.5-0.7-0.5
			c-0.5,0-1,0-1.6-0.1c-0.9-0.2-1.2-0.7-1.1-1.6c0.1-0.8,0.3-1.5,0.6-2.3c0.9-2.1,1.7-4.2,2.6-6.3c0.2-0.5,0.5-0.8,1.1-0.8
			c3.5,0,7.1,0,10.6,0c0.6,0,0.9,0.2,1.2,0.8c1.1,2.9,2.3,5.8,3.5,8.7c0.3,0.9,0.3,1-0.5,1.4c-0.2,0.1-0.3,0.2-0.3,0.4
			c0,0.2,0.2,0.3,0.4,0.3c0.5,0,1,0.1,1.6,0.1c3.1,0,6.2,0,9.2,0.1c3.8,0.1,7.6-0.2,11.4-0.1c3.7,0.2,7.4,0.2,11.1,0.2
			c0.6,0,1.2,0,1.9-0.1c0.9,0,1.5-0.5,1.7-1.5c0.4-1.7,0.5-3.4,0.7-5.2C230.3,488.9,230.2,488.6,230.1,488.4z M154.9,476.7
			c-1,1.2-2.3,1.9-3.9,1.8c-1.2,0-2.5,0-3.7-0.2c-1.1-0.2-1.2-0.3-1.2-1.4c0-2.2,0-4.4,0-6.7c0-2.2,0-4.4,0-6.6c0-1,0-1.1,1-1.2
			c1.4-0.2,2.8-0.2,4.2,0.1c2.3,0.6,4,2,4.9,4.2c1,2.5,1,5.1,0,7.7C156,475.3,155.5,476,154.9,476.7z M178.5,481.2
			c0.1-0.8,4.3-11.5,5-12.7c1.6,4.3,3.2,8.4,4.9,12.8C185,481.2,181.8,481.2,178.5,481.2z"/>
		<path class="st0" d="M415.7,408.6c-2.5-4-6.2-6.2-10.6-7.3c-3.1-0.8-6.3-0.9-9.5-0.9c-5.5,0-11.1,0.2-16.6,0c-0.3,0-0.6,0-0.9,0.1
			c-0.2,0-0.5,0.1-0.5,0.4c0,0.3,0.2,0.5,0.5,0.5c0.5,0,0.9,0.1,1.4,0.1c2.3,0.2,3,0.9,3,3.2c0,4.4,0,8.7,0,13.1c0,0,0,0,0,0
			c0,4,0,7.9,0,11.9c0,1.1-0.1,2.3-0.2,3.4c-0.2,1.6-0.7,2.1-2.2,2.2c-2.3,0.3-4.3-0.3-5.5-2.5c-0.5-1-1.1-1.9-1.5-3
			c-1.9-4.5-3.8-8.9-5.7-13.4c-2.1-5-4.3-10-6.4-15c-0.2-0.4-0.4-0.8-0.6-1.2c-0.6-1-1.4-1-2-0.1c-0.2,0.4-0.4,0.8-0.6,1.2
			c-4.2,9.8-8.4,19.6-12.6,29.4c-0.4,0.9-0.7,1.7-1.2,2.6c-0.8,1.3-1.9,2-3.5,2.1c-0.3,0-0.6,0-0.9,0c-0.4,0-0.7,0.1-0.7,0.5
			c0,0.4,0.4,0.5,0.7,0.5c0.3,0,0.6,0,0.9,0c2.5,0.1,4.9-0.2,7.4-0.1c0.9,0.1,1.8,0.1,2.6,0c0.4,0,1.1,0.3,1.2-0.5
			c0.1-0.4-0.2-0.5-1.1-0.5c-0.3,0-0.6,0-0.9-0.1c-1.1-0.2-1.5-0.7-1.3-1.8c0.1-0.7,0.3-1.5,0.6-2.2c0.9-2.1,1.7-4.2,2.6-6.3
			c0.2-0.5,0.5-0.7,1-0.7c3.6,0,7.1,0,10.7,0c0.6,0,0.9,0.2,1.1,0.8c1.1,2.9,2.3,5.8,3.5,8.7c0.4,0.9,0.4,1-0.6,1.5
			c-0.2,0.1-0.3,0.3-0.3,0.5c0,0.2,0.2,0.3,0.4,0.3c0.5,0.1,1,0.1,1.5,0.1c4.6,0,9.3,0.2,13.9,0c3.4-0.1,6.9,0.2,10.3,0.4
			c4.1,0.3,8.2,0.1,12.1-1.1c4.2-1.3,7.7-3.6,10.2-7.4c1.7-2.6,2.6-5.5,2.8-8.6C418.4,415.6,417.7,411.9,415.7,408.6z M353,421.7
			c-0.2-0.2-0.1-0.4,0-0.6c1.6-3.9,3.1-7.9,4.7-11.8c0-0.1,0.1-0.1,0.2-0.2c1.6,4.2,3.2,8.4,4.9,12.7
			C359.4,421.7,356.2,421.7,353,421.7z M410.3,425.3c-1.2,4.7-4.5,7.3-9.1,8.4c-1.5,0.4-3.1,0.5-4.7,0.5c-1.4,0-2.9,0-4.3-0.5
			c-0.4-0.1-0.7-0.2-1.1-0.4c-1-0.4-1.6-1.1-1.7-2.3c-0.2-1.5-0.2-3-0.2-4.5c-0.1-7.2-0.1-14.3,0-21.5c0-1.8,0-1.9,1.8-2
			c4.3-0.4,8.4,0.1,12.3,2.1c3.7,1.9,6.1,4.9,7.1,8.9C411.3,417.8,411.3,421.6,410.3,425.3z"/>
		<path class="st0" d="M277.5,422.2c-0.8-2.3-2.5-4-4.5-5.5c-1.5-1.2-3.2-2.1-4.9-3c-1.4-0.8-2.7-1.6-3.9-2.6
			c-2.5-2.2-2.4-6.6,1.4-8.2c1.8-0.8,3.7-0.9,5.6-0.5c2.8,0.6,4.3,2.4,4.7,5.3c0,0.1,0,0.1,0,0.2c0,0.2,0.2,0.4,0.4,0.5
			c0.3,0,0.4-0.1,0.5-0.4c0.2-0.4,0.2-0.8,0.2-1.3c0-1.6,0-3.2,0.1-4.8c0.1-1.1,0-1.3-1.1-1.5c-3.1-0.6-6.3-0.9-9.5-0.4
			c-2.2,0.3-4.3,1.1-6.1,2.5c-1.5,1.2-2.7,2.7-3.1,4.6c-0.8,3.5,0.1,6.7,2.6,9.3c1.3,1.3,2.8,2.4,4.3,3.3c1.2,0.7,2.4,1.4,3.5,2.1
			c1.1,0.6,2.1,1.4,3,2.3c2.8,2.7,2.3,8.6-2.8,10c-1.8,0.5-3.6,0.4-5.3-0.1c-3.1-0.8-4.8-2.8-5.1-6.1c0-0.3-0.1-0.6-0.1-1
			c0-0.3-0.2-0.4-0.4-0.5c-0.3,0-0.5,0.1-0.5,0.4c-0.1,0.4-0.2,0.8-0.2,1.2c-0.1,1.9-0.3,3.9-0.3,5.8c0,0.3,0.1,0.6-0.1,0.8
			c-0.3,0-0.6-0.2-0.8-0.3c-1.3-0.7-2.3-1.7-3.4-2.7c-3-3-5.6-6.3-8.3-9.6c-0.7-0.9-1.4-1.7-2.1-2.6c0.4-0.3,0.7-0.6,1-0.9
			c1.8-1.5,3.5-3.2,4.6-5.3c1-1.8,1.4-3.7,1-5.8c-0.7-3.4-2.9-5.5-6.2-6.4c-2-0.6-4.1-0.8-6.1-0.7c-4.8,0.1-9.6,0.2-14.4,0
			c-0.3,0-0.6,0-0.9,0.1c-0.2,0-0.5,0.1-0.5,0.4c0,0.3,0.2,0.5,0.5,0.5c0.6,0.1,1.1,0.1,1.7,0.1c2,0.2,2.7,0.9,2.7,2.9
			c0,0.4,0,0.7,0,1.1c0,6.3,0,12.6,0,19c0,2.3,0,4.5-0.1,6.8c0,0.9-0.1,1.9-0.4,2.8c-0.2,0.6-0.6,1.1-1.3,1.2
			c-0.4,0.1-0.8,0.1-1.3,0.2c-0.2,0-0.4,0-0.6,0c-0.3,0-0.5,0.2-0.5,0.5c0,0.3,0.2,0.4,0.5,0.4c0.3,0,0.6,0,0.9,0
			c2.1,0,4.3-0.1,6.4-0.1c2.3,0,4.5,0.1,6.8,0.1c0.3,0,0.5,0,0.8-0.1c0.2,0,0.4-0.2,0.4-0.4c0-0.3-0.2-0.4-0.4-0.5
			c-0.2,0-0.4,0-0.6,0c-0.7-0.1-1.4-0.1-2.1-0.2c-0.9-0.1-1.5-0.6-1.6-1.4c-0.1-0.3-0.1-0.6-0.2-0.9c-0.3-3.5-0.2-7.1-0.3-10.6
			c0-0.7,0-0.7,0.8-0.7c1.2,0,2.4,0.1,3.6,0c0.7,0,1.2,0.3,1.6,0.9c0.8,1.2,1.7,2.4,2.5,3.6c1.9,2.6,3.7,5.2,6,7.5
			c1.8,1.8,4,2.7,6.5,2.7c2,0,3.9,0,5.9,0c0.3,0,0.5,0,0.8,0c2.4,0.6,4.9,0.6,7.4,0.6c1.2,0,2.3-0.2,3.4-0.4
			C275.2,435.2,280.1,429.6,277.5,422.2z M239.9,417.3c-1,1.1-2.2,1.7-3.7,1.7c-1.3,0-2.7,0-4-0.3c-0.8-0.2-1-0.3-1-1.2
			c0-2.3,0-4.5,0-6.8c0,0,0,0,0,0c0-2.2,0-4.4,0-6.7c0-1,0-1,1-1.2c1.4-0.2,2.7-0.2,4.1,0.1c2.3,0.6,4.1,1.9,5,4.2
			c1,2.6,1,5.2,0,7.9C241,415.9,240.5,416.7,239.9,417.3z"/>
		<path class="st0" d="M103.6,474c-1-5.8-4.2-9.9-9.6-12.2c-2.6-1.1-5.5-1.6-8.3-1.8c-3.5-0.3-7-0.2-10.5-0.1
			c-1.9,0.1-3.7,0.1-5.6,0c-1.6,0-3.2-0.1-4.8-0.1c-0.3,0-0.7,0-1,0.1c-0.2,0-0.5,0.1-0.5,0.4c0,0.3,0.2,0.4,0.5,0.5
			c0.2,0,0.4,0,0.6,0c0.5,0,0.9,0.1,1.4,0.1c1.6,0.2,2.3,1,2.4,2.6c0,0.5,0,1,0,1.6c0,5.3,0,10.5,0,15.8c0,2.8,0,5.6-0.1,8.3
			c0,1.3-0.1,2.6-0.3,3.8c-0.2,0.9-0.7,1.5-1.6,1.5c-0.4,0-0.7,0.1-1.1,0.1c-0.2,0-0.4,0-0.6,0c-0.3,0-0.4,0.2-0.4,0.4
			c0,0.3,0.2,0.4,0.4,0.5c0.2,0,0.5,0,0.7,0c0.8,0,1.6,0,2.4,0c3.8-0.3,7.6,0.1,11.4,0.3c3.8,0.2,7.6,0.1,11.3-0.9
			c4.3-1.2,8-3.4,10.5-7.2C103.6,483.7,104.5,479,103.6,474z M96.1,485c-1.3,4.5-4.4,7.1-8.8,8.2c-2.8,0.7-5.6,0.7-8.4,0.3
			c-0.8-0.1-1.7-0.4-2.4-0.8c-0.7-0.4-1.1-0.9-1.3-1.8c-0.1-1-0.3-2.1-0.3-3.1c0-3.9,0-7.8,0-11.7c0,0,0,0,0,0c0-4,0-8,0-12.1
			c0-1,0.2-1.3,1.2-1.4c4.2-0.5,8.3-0.1,12.2,1.8c4.7,2.2,7.4,5.9,8.1,11C97.1,478.6,97,481.8,96.1,485z"/>
		<path class="st0" d="M341.5,414.7c-0.9-5.8-4-10-9.4-12.3c-2.8-1.2-5.7-1.7-8.7-1.9c-3.5-0.2-6.9-0.2-10.4-0.1
			c-2.6,0.1-5.2,0.1-7.9,0c-0.9,0-1.8,0-2.7,0c-0.3,0-0.6,0-0.9,0.1c-0.2,0.1-0.3,0.2-0.3,0.4c0,0.2,0.2,0.4,0.4,0.4
			c0.2,0,0.5,0.1,0.7,0.1c0.5,0,0.9,0.1,1.4,0.1c1.6,0.2,2.3,0.9,2.4,2.4c0.1,0.7,0.1,1.5,0.1,2.3c0,7,0,14,0,21
			c0,1.6-0.1,3.3-0.2,4.9c0,0.6-0.1,1.1-0.3,1.6c-0.2,0.8-0.7,1.3-1.5,1.4c-0.5,0.1-1,0.1-1.5,0.1c-0.4,0-0.7,0.1-0.7,0.5
			c0,0.4,0.4,0.5,0.7,0.5c0.2,0,0.4,0,0.6,0c0.7,0,1.3,0,2,0c3.8-0.2,7.6,0.1,11.5,0.3c3.8,0.2,7.6,0.1,11.3-0.9
			c5.4-1.5,9.7-4.5,12.1-9.8C341.7,422.3,342.2,418.6,341.5,414.7z M334.1,424.9c-1.2,4.8-4.4,7.6-9.1,8.7c-2.7,0.7-5.5,0.7-8.3,0.2
			c-0.7-0.1-1.4-0.3-2.1-0.6c-1-0.5-1.6-1.2-1.7-2.3c-0.1-1.3-0.2-2.6-0.2-3.9c0-3.4,0-6.8,0-10.2c0,0,0,0,0,0c0-4.1,0-8.2,0-12.4
			c0-1,0.2-1.3,1.2-1.4c4.2-0.5,8.3,0,12.2,1.7c4.9,2.3,7.5,6.1,8.3,11.4C334.9,419.1,334.8,422,334.1,424.9z"/>
		<path class="st0" d="M274.2,479c-0.7-4.7-3.2-8.1-7.5-10c-2.2-1-4.5-1.3-6.9-1.5c-2.7-0.2-5.4-0.2-8.1-0.1c-2.7,0.1-5.3,0-8-0.1
			c-0.4,0-0.8,0-1.2,0.1c-0.2,0-0.3,0.1-0.3,0.3c0,0.2,0.1,0.3,0.3,0.3c0.3,0,0.6,0.1,0.9,0.1c2.1,0.1,2.6,0.6,2.6,2.7
			c0.1,6.9,0.1,13.9,0,20.8c0,0.6-0.1,1.2-0.2,1.9c-0.1,0.8-0.5,1.3-1.4,1.3c-0.4,0-0.8,0.1-1.3,0.1c-0.2,0-0.3,0.1-0.3,0.3
			c0,0.2,0.1,0.4,0.3,0.4c0.3,0,0.7,0.1,1,0c3.8-0.3,7.6,0,11.4,0.3c2.8,0.2,5.6-0.1,8.2-0.9c3.1-0.9,5.8-2.5,7.7-5.1
			C273.9,486.7,274.7,483,274.2,479z M268.3,486.5c-0.9,4.3-4.1,6.6-7.7,7.2c-2.1,0.4-4.2,0.4-6.3,0c-0.2,0-0.4-0.1-0.7-0.2
			c-1.5-0.5-1.9-1-2-2.6c-0.1-2.4-0.2-4.8-0.2-7.3c0-1,0-2,0-3c0,0,0,0,0,0c0-3.3,0-6.7,0-10c0-1,0.2-1.2,1.1-1.3
			c3.1-0.2,6.2,0,9.1,1.3c4.2,1.9,6.5,5.2,6.9,9.7C268.8,482.4,268.7,484.5,268.3,486.5z"/>
		<path class="st0" d="M308.4,478.3c-0.8-5.3-4-8.7-9-10.4c-3.4-1.2-6.9-1.3-10.5-0.7c-3.1,0.5-5.8,1.7-8.1,3.9
			c-3.8,3.8-5.2,8.4-4.1,13.6c1,4.8,3.8,8.3,8.4,10.3c2.3,1,4.6,1.3,7.1,1.3c1.5,0,3-0.1,4.5-0.5
			C305.2,493.9,309.7,486.5,308.4,478.3z M301.8,488.7c-1.1,2.8-3,4.7-5.9,5.3c-4.3,0.8-7.9-0.5-10.6-3.9c-1.6-2-2.4-4.3-2.8-6.8
			c-0.4-2.8-0.3-5.5,0.6-8.2c1-3.1,3.1-5.2,6.4-5.9c4.6-0.9,8.9,1,11.3,4.9c1.6,2.6,2.1,5.4,2.1,8.4
			C302.8,484.5,302.6,486.6,301.8,488.7z"/>
	</g>
	<g>
		<path class="st0" d="M380.5,245.2c-0.7-4.3-2.1-8.4-3.4-12.5c-2.5-8.1-5-16.2-5.9-24.6c-0.7-6.6-0.5-13.2,2.2-19.4
			c0.2-0.4,0.3-0.8,0.4-1.3c0.3-1.3-0.2-2.3-1.2-3c-1.2-0.9-2.5-0.9-4,0.3c-4.9,3.7-9.6,7.7-13.4,12.6c-0.2,0.3-0.3,0.7-0.9,0.8
			c-1.2-2.5-2.4-5.1-3.5-7.7c-2.1-4.9-3.4-9.9-3.5-15.3c0-0.7-0.1-1.4-0.2-2.1c-0.2-1.3-1-2.1-2.2-2.5c-1.2-0.3-2.3-0.1-3.2,0.8
			c-0.6,0.6-1.1,1.4-1.4,2.2c-2.6,6.2-4,12.7-4.1,19.4c-0.1,6.9,1.1,13.6,2.8,20.2c0.1,0.4,0.3,0.7-0.1,1.1c-0.2,0-0.5-0.1-0.8-0.1
			c-2.2-0.2-4.3-0.4-6.5-0.5c-1.7-0.1-2.9,1-3.3,2.7c-0.1,0.4-0.2,0.9-0.2,1.3c-0.2,3.8-0.3,7.6-0.5,11.5c-0.2,3.3-0.3,6.5-0.9,9.8
			c-1.7,9.8-6,18.3-13.1,25.4c-0.3,0.3-0.5,0.7-0.9,0.8c0-2.4,0-4.7,0-7.1c0-0.9,0.3-1.7,0.8-2.4c4-5.4,6.4-11.4,7.5-18
			c0.7-4,0.7-8.1,0.9-12.1c0.5-10,0.9-20,1.3-30.1c0.5-11.4,1-22.7,1.4-34.1c0.4-9.8,0.9-19.6,1.3-29.4c0.3-6.8,0.6-13.5,0.9-20.3
			c0.1-2.5,0.2-5,0.3-7.5c0-0.7-0.1-1.1-0.8-1.1c-0.3,0-0.7-0.1-1-0.1c-2.4-0.3-4.8-0.7-7.2-0.9c-0.9-0.1-0.9-0.5-0.9-1.2
			c0.1-4.2,0.3-8.3,0.4-12.5c0-0.6,0.2-1,0.7-1.3c0.8-0.4,1.4-1.2,1.5-2.1c0.1-0.9,0.6-1.2,1.3-1.5c3.2-1.8,4.8-5.5,4-9.1
			c-0.8-3.8-3.3-6.1-7.1-6.6c-1-0.1-2-0.3-3-0.4c0-0.1,0-0.2,0-0.3c0.4-0.3,0.8-0.6,1.2-0.9c2.7-1.9,5.1-4.1,6.9-6.9
			c1.5-2.5,2.3-5.2,1.9-8.1c-0.3-2.5-1.4-4.8-3-6.7c-0.7-0.8-0.8-1.5-0.3-2.4c0.4-0.9,0.8-1.8,1.3-2.7c0.8-1.6,1.6-3.3,2.3-5
			c1.1-2.9,1.6-5.9,1.2-9c-0.2-1.8-0.8-3.5-1.4-5.1c-0.4-1.1-1.2-1.7-2.4-1.7c-1.1,0-1.9,0.7-2.4,2c-0.2,0.5-0.3,1-0.4,1.4
			c-0.6,1.8-1.7,3.1-3.3,4.2c-0.5-0.8-0.4-1.5-0.2-2.3c0.3-1.2,0.9-2.3,1.3-3.4c0.6-1.5,1.2-3.1,1.1-4.8c-0.1-5.1-2.9-8.8-6.3-12.1
			c-0.6,0-1.1,0-1.7,0c-1.7,0.7-2.3,1.5-2,3.3c0.3,1.8-0.1,3.4-0.6,5.1c-1.2,3.9-4,6.3-7.4,8.1c-2.8,1.5-5.3,3.4-7.3,5.9
			c-1.1,1.4-2.1,2.7-3.1,4.1c-0.4,0.6-0.7,0.9-1.5,0.5c-2.8-1.4-4.4-0.7-5,2.4c-0.5,2.7-1.6,4.9-3.3,7c-1.2,1.4-2.4,2.7-3.6,4.1
			c-2.9,3.5-3.2,7.9-0.8,11.7c2.1,3.2,4.5,6.2,7.2,8.9c0.6,0.6,1.8,1.2,1.6,2c-0.2,0.9-1.5,0.6-2.4,0.7c-6.4,1.2-9.5,8.5-5.7,13.8
			c1.5,2.1,3.8,3.7,5,6.1c0,0,0.1,0.1,0.1,0.1c0.7,0.6,0.9,1.3,0.9,2.2c0,2.3-0.1,4.7,0,7c0,1.4-0.6,1.8-1.8,1.7
			c-1.7-0.2-3.3-0.3-5-0.4c-3.1-0.2-6.2-0.3-9.3-0.3c-1.9,0-2-0.3-2-2.2c0-0.9,0-1.9,0-2.8c0-2.2-0.5-4.6,1.8-6.2
			c0.1-0.1,0.1-0.2,0.2-0.3c0.3-1.4,1.3-2.1,2.4-2.8c2.8-2.1,4-6,3.1-9.6c-0.9-3.4-3.5-5.7-7.2-6.3c-0.7-0.1-1.4-0.1-2.1-0.5
			c2.1-1.5,3.9-3,5.5-4.8c2.5-2.8,4.1-5.9,4-9.7c0-2.8-1-5.2-2.6-7.4c-1-1.3-1.1-2.6-0.3-4c0.7-1.3,1.4-2.7,2-4
			c2.4-5,3.3-10.1,1.3-15.4c-0.6-1.6-1.2-3.3-3.2-3.3c-2,0-2.7,1.6-3.2,3.3c-0.5,1.4-1.1,2.8-2.5,3.8c-0.5-0.8-0.1-1.3,0.1-1.9
			c0.4-1.2,0.9-2.4,1.4-3.6c1.4-3.6,1-7.1-0.8-10.4c-0.8-1.5-1.8-2.8-2.8-4.1c-0.6-0.8-1.4-1.4-2.4-1.7c-0.6,0-1.1,0-1.7,0
			c-1.7,0.7-2.2,1.4-1.9,3.3c0.1,0.9,0.1,1.8,0,2.6c-0.7,4.5-3,7.9-7,9.9c-4.8,2.4-8.5,6-11.2,10.5c-0.6,1-1.1,0.9-2,0.4
			c-1.9-1.2-3.8-0.4-4.4,1.8c-0.1,0.3-0.2,0.6-0.2,1c-0.3,2.6-1.5,4.8-3.2,6.8c-1.1,1.3-2.2,2.6-3.4,3.9c-2.9,3.3-3.5,7.2-1.4,11.1
			c1.9,3.8,4.7,6.9,7.8,9.9c0.6,0.5,1.6,1,1.3,1.9c-0.3,0.8-1.4,0.5-2.1,0.7c-3.7,0.6-6.3,2.7-7.3,6.4c-0.9,3.5,0.3,7.5,3.1,9.5
			c1.7,1.3,2.2,3.4,3.7,4.8c0.2,0.1,0.2,0.4,0.2,0.6c-0.1,2.2,0.3,4.4,0.4,6.6c0,1.3-0.4,2-1.7,2c-5.1,0.3-10.3,0.3-15.4,0.8
			c-0.8,0.1-1.3-0.3-1.3-1.2c0.3-3.8-0.9-7.9,2.2-11.2c0.1-0.2,0.2-0.4,0.3-0.6c0.2-0.7,0.7-1.2,1.4-1.6c3.1-2.1,4.7-5.8,3.9-9.4
			c-0.8-3.8-3.4-6.2-7.4-6.9c-0.8-0.1-1.6-0.2-2.5-0.6c1.9-1.3,3.4-2.6,4.8-4.1c5.2-5.4,6.3-12.1,1.7-18.2c-0.8-1-0.8-2-0.2-3.1
			c0.6-1.2,1.2-2.4,1.8-3.6c2-3.8,3-7.8,2.7-12.2c-0.2-2.1-0.7-4.2-1.8-6c-1.3-2.2-3.9-2-5,0.2c-0.4,0.8-0.6,1.7-1,2.5
			c-0.5,1.1-1.1,2-2.4,2.7c0.1-1.8,0.8-3.2,1.4-4.6c1.4-3.2,1.5-6.4,0.1-9.7c-0.9-2-2.1-3.9-3.5-5.6c-0.6-0.8-1.3-1.3-2.2-1.6
			c-0.6,0-1.1,0-1.7,0c-1.4,0.8-1.9,2-1.5,3.6c0.2,0.7,0.1,1.4,0,2.1c-0.6,4.7-3,8.3-7.2,10.5c-5,2.6-8.7,6.3-11.6,11.1
			c-0.2,0.4-0.3,0.9-0.6,0.9c-0.5-0.4-0.9-0.7-1.3-1c-1.6-1.3-3.7-0.5-4.1,1.4c0,0.2,0,0.3-0.1,0.5c-0.3,3-1.6,5.5-3.6,7.7
			c-1,1.1-2,2.3-3,3.4c-0.8,0.9-1.5,1.9-2,3c-1.5,3.5-0.7,6.6,1.3,9.6c2.3,3.5,5.1,6.6,8.2,9.4c0.3,0.3,0.7,0.6,1,0.9
			c0.3,0.3,0.2,0.6-0.2,0.7c-0.9,0.2-1.9,0.3-2.8,0.4c-3.5,0.6-6.1,2.9-6.8,6.2c-0.8,3.7,0.5,7.3,3.5,9.2c0.9,0.5,1.4,1.1,1.5,2.1
			c0.1,0.8,0.8,1.5,1.5,1.9c0.5,0.3,0.7,0.6,0.7,1.2c0.1,4.2,0.2,8.4,0.4,12.6c0,0.7-0.1,1-0.9,1.1c-2.5,0.3-4.9,0.6-7.4,1
			c-1.4,0.2-1.5,0.2-1.4,1.6c0.2,6,0.5,12.1,0.8,18.1c0.2,5.9,0.5,11.8,0.7,17.8c0.5,11.1,1,22.3,1.5,33.4
			c0.3,6.7,0.5,13.4,0.8,20.1c0.5,12.3,1.1,24.7,1.6,37c0.4,9,2.7,17.2,8.1,24.5c0.4,0.5,0.6,1,0.6,1.7c0.1,2.2,0.2,4.4,0.2,6.6
			c0,0.3,0.3,0.8-0.3,1c-8.1-7.8-12.6-17.4-14-28.5c-0.5-4.1-0.6-8.2-0.7-12.3c-0.1-2.3-0.2-4.7-0.3-7c-0.1-2.2-1.5-3.4-3.7-3.4
			c-0.8,0-1.7,0.1-2.5,0.2c-0.8,0.1-1.5,0.2-2.3,0.2c-0.8,0-1.6,0.3-2.5,0.1c0.1-0.3,0.1-0.5,0.1-0.7c1.4-5.4,2.5-10.9,2.8-16.5
			c0.5-8-0.9-15.7-3.9-23.1c-0.2-0.6-0.5-1.1-0.8-1.6c-1-1.5-2.5-2.2-4-1.7c-1.3,0.4-2.2,1.6-2.3,3.3c0,0.2,0,0.4,0,0.7
			c-0.2,3.5-0.6,7.1-1.6,10.5c-1.4,4.5-3.5,8.7-5.5,13c0,0.1-0.2,0-0.3,0.1c-3.7-5.1-8.4-9.2-13.4-13c-0.4-0.3-0.9-0.7-1.4-0.9
			c-2.2-1-4.5,0.6-4.3,3.1c0,0.7,0.3,1.3,0.5,1.9c2.1,4.9,2.6,10,2.4,15.3c-0.3,6.4-1.6,12.6-3.4,18.7c-1.7,5.9-3.5,11.9-5.2,17.8
			c-0.8,2.9-1.4,5.9-1.2,9c0.3,3.6,2.6,6.1,6.1,6.5c4.7,0.5,9.5,1,14.2,1.3c1.4,0.1,1.9,0.6,2.3,1.8c5.6,15.5,15.2,28,28.3,37.9
			c5.2,3.9,10.8,7.3,16.8,10c1.1,0.5,1.4,1.1,1.4,2.2c0,2.9,0.2,5.8,0.2,8.6c0,1.5,0,3,0.1,4.5c0,0.8-0.2,0.9-0.9,0.9
			c-1.4,0-2.8,0-4.2,0c-0.4,0-0.8,0-0.9,0.5c-0.6,2.8,0.8,5.7,3.4,7.1c2.7,1.4,2.7,0.9,2.7,4c0,2.2,0.9,3.9,3.2,4.6
			c0.5,0.2,0.8,0.5,1.1,1c3,4.5,9.4,4.5,12.4,0c0.3-0.5,0.7-0.8,1.2-1c2.1-0.8,3.2-2.3,2.9-4.5c-0.2-2.1,0.6-3.4,2.6-4
			c0.3-0.1,0.6-0.3,0.9-0.5c1.5-0.9,2.4-2.3,2.6-4.1c0.1-0.8,0-1.6,0.1-2.3c0-0.6-0.2-0.9-0.9-0.9c-1.5,0-3,0-4.5,0
			c-0.4,0-0.9,0.1-0.9-0.6c0.1-2.5,0.2-5.1,0.3-7.7c0.3,0,0.5,0.1,0.7,0.1c7.6,1.8,15.2,2.9,22.9,3.5c2.5,0.2,5,0.4,7.5,0.6
			c0.4,0,0.8,0,0.8,0.6c0.1,2.8,0.2,5.5,0.3,8.3c0,0.6-0.3,0.7-0.8,0.7c-1,0-2,0-3,0c-2.3,0.1-2.3,0.1-2.2,2.4
			c0.1,2.4,1.1,4.3,3.3,5.1c2.1,0.8,3,2.1,2.8,4.4c-0.2,1.9,0.9,3.4,2.7,4.1c0.7,0.3,1.2,0.7,1.6,1.3c2.7,4.2,9.3,4.2,12,0.1
			c0.4-0.7,0.9-1.1,1.7-1.4c1.7-0.7,2.8-2,2.6-3.8c-0.3-2.5,0.7-3.9,3-4.8c1.9-0.8,2.9-2.4,3-4.6c0-0.5,0.1-1,0.1-1.5
			c0.1-1.3,0.1-1.3-1.2-1.3c-1.4,0-2.9-0.1-4.3-0.1c-0.8,0-1-0.2-0.9-0.9c0.1-2.5,0.2-5.1,0.2-7.6c0-0.7,0.2-1,0.9-1
			c2.7-0.2,5.3-0.4,8-0.6c5.6-0.4,11.1-1.2,16.6-2.2c2.1-0.4,4.3-0.8,6.5-1.3c0.2,2.5,0.2,4.9,0.3,7.3c0,0.8-0.2,0.9-0.9,0.9
			c-1.4,0-2.8,0-4.2,0c-0.4,0-0.8,0-0.9,0.5c-0.6,2.9,0.7,5.7,3.4,7.1c3,1.5,2.6,1.1,2.6,4c0,2.2,1,3.8,3.2,4.5
			c0.5,0.2,0.8,0.5,1.1,1c3,4.5,9.4,4.5,12.4,0c0.3-0.4,0.5-0.8,1.1-1c2.3-0.7,3.3-2.4,3.1-4.7c-0.2-2,0.6-3.1,2.4-3.7
			c0.4-0.1,0.7-0.3,1-0.6c1.2-0.8,2-1.8,2.4-3.3c0.3-1,0.2-2.1,0.3-3.1c0.1-0.7-0.2-0.9-0.9-0.9c-1.4,0-2.9,0-4.3,0
			c-1.1,0-1.1,0-1-1.1c0.1-1.6,0.1-3.2,0.2-4.8c0.1-2.7,0.2-5.4,0.2-8.1c0-1,0.3-1.6,1.3-2c1.1-0.4,2.2-1,3.3-1.6
			c13.1-6.7,24.2-15.8,32.6-27.9c4.1-5.9,7.3-12.2,9.8-19c0.3-0.7,0.4-1.3,1.4-1.4c4.9-0.4,9.8-0.9,14.7-1.3c3.6-0.3,6-2.7,6.3-6.3
			C380.9,248.5,380.8,246.8,380.5,245.2z M235.9,283.7c-2.2,0.2-4.2-0.2-6.3-0.4c-7.1-0.7-14.1-1.8-21-3.9c-3.1-0.9-2.5-0.2-2.4-3.4
			c0-1.1,0.1-2.2,0.2-3.5c3.8,1.2,7.4,2.3,11.2,3c5.4,1.1,10.8,1.9,16.2,2.2c0.1,0,0.1,0,0.2,0c1.9,0.1,2,0.1,2,2.1
			C235.9,281.2,235.9,282.4,235.9,283.7z M287.9,279.1c-4,1.2-8,2.2-12.1,2.9c-4.8,0.9-9.6,1.4-14.5,1.7c-0.5,0-1,0-1.5,0
			c-0.5,0-0.8-0.1-0.8-0.7c0.1-1.5,0.1-3,0.2-4.5c0-0.6,0.4-0.6,0.8-0.6c1.7-0.3,3.4-0.3,5.1-0.5c7.7-0.8,15.3-2.2,22.7-4.6
			c0.3-0.1,0.5-0.2,1.1,0c0,1.6-0.1,3.2,0,4.8C289,278.6,288.6,278.9,287.9,279.1z"/>
		<path class="st2" d="M212.4,42.4c0.8-2.2,1.9-4.2,2.9-6.3c1-2.1,1.9-4.2,2.2-6.6c0.4-2.8,0-5.5-1.2-8.1c-1.7,4.3-2.2,4.9-6.1,7.7
			c-1.5,1.1-2.9,2.2-4.4,3.3c-0.5,0.3-0.8,0.9-1.4,1.1c0-1.6,1-3.4,2.3-4.6c1.1-1.1,1.1-1.1,0.6-2.5c-0.3-2.4,0.5-4.5,1.4-6.7
			c2-4.7,0.7-9.8-3.4-13.1c0,0.3,0,0.6,0,0.8c0,6.4-2.9,11.2-8.5,14.3c-0.7,0.4-1.4,0.8-2.2,1.2c-3.6,2.2-6.4,5.3-8.4,8.9h0
			c-1.6,1.9-2.2,4.4-3.5,6.8c-0.3-2.4-0.6-4.4-2.3-6c-0.6,3.9-1.4,5.9-3.9,8.8c-1.2,1.4-2.4,2.7-3.6,4.1c-2.3,2.8-2.5,5.5-0.6,8.6
			c2.4,3.9,5.5,7.2,8.9,10.2c0.3,0.2,0.5,0.6,1,0.3c0.9-0.5,2-0.4,3-0.8c0-0.2-0.1-0.3-0.3-0.4c-1.5-1.1-2.8-2.4-3.9-3.8
			c-3.1-4-4.5-8.3-2.2-13.3c1-2.2,1.8-4.5,2-7.2c0.6,1.6,1.2,3,1.7,4.5c0.5,1.5,0.4,2.7-0.8,3.9c-2.3,2.3-2.8,5.3-2.3,8.5
			c0.1,0.5,0.2,1.1,0.8,1.1c0.8,0,0.7-0.7,0.8-1.2c0.1-1.4,0.5-2.7,1.5-4c0,1.3,0,2.4,0.4,3.3c0.4,0.8,0.3,2.1,1.7,2.2
			c0.4-0.3,0.4-0.8,0.3-1.2c-0.4-3.5,0.9-6.3,3.4-8.8c1.7-1.7,3.5-3.2,4.8-5.2c0.9-1.5,1.5-3.1,1.7-4.8c0.1-0.7,0.4-1.7-0.4-1.9
			c-0.7-0.2-0.9,0.8-1.2,1.4c-1.5,3.3-3.9,5.7-7.2,7.3c1.9-4.2,4.5-7.8,8.1-10.6c0.8-0.6,1.5-1.3,2.1-2.1c0.2-0.3,0.6-0.7,0.4-1
			c0,0,0,0,0,0c0.6,0.1,1-0.3,1.4-0.7c3.7-3.3,6-7.3,6.5-12.3c0-0.1,0-0.1,0-0.1c-0.2,0,0.1-0.1,0,0.1c0.2,2.2,0,4.5-0.1,6.7
			c-0.2,0.1-0.3,0.4-0.3,0.6c-0.8,2.8-2.4,5-4.2,7.2c-0.4,0.5-0.9,0.9-0.7,1.7c0,0,0,0,0,0c-2.5,2-3.6,4.6-3.7,7.8
			c0.2,1.3,0.9,2.5,1.3,3.8c1.8,6.1,1.5,11.8-3,16.8c-0.3,0.4-0.7,0.7-0.5,1.3c1.6,0.1,3.3,0.1,4.9,0.2c0.2-0.7,0.7-1.1,1.2-1.6
			c4.4-4.7,7.2-10.1,7.3-16.7c3.4,3.2,4.3,6.7,2.5,10.5c-1.3,2.7-3.4,4.8-5.8,6.5c-0.5,0.3-1.3,0.5-1.1,1.4c1.3,0.5,2.8,0.3,4,0.9
			c0.3,0.2,0.6,0,0.9-0.2c3.1-2.1,6-4.4,7.7-7.8c1-2,1.4-4.2,0.9-6.4c-0.4-1.8-1.3-3.3-2.4-4.7C212.8,44.7,212.2,43.7,212.4,42.4
			C212.4,42.4,212.4,42.4,212.4,42.4z M204.8,40.5c-1.8,1.3-2.8,3.2-3.3,5.4c-0.4,1.8-0.2,3.6-0.3,5.7c-0.5-1.1-0.7-2.1-1-3.1
			c-1-4.2-0.4-8,2.9-11.2c0.4-0.3,0.8-0.7,0.6-1.3c0,0,0,0,0,0c1.6,0,2.6-1.2,3.9-1.8c2.2-1,4.3-2.3,5.9-3.8
			c-0.8,1.9-2.4,3.6-3.7,5.5c-0.4,0.5-0.9,1-0.9,1.7c0,0,0,0,0,0C207.3,38.1,206.2,39.5,204.8,40.5z"/>
		<path class="st3" d="M229.5,111.3c4,4.7,8,9.3,12,14c-2.4,2.1-4.7,4.1-7,6c-0.1,0.3,0.1,0.5,0.2,0.7c4.1,4.8,8.1,9.5,12.2,14.3
			c0.9,1,0.9,1,1.9,0.1c1.8-1.5,3.6-3.1,5.4-4.7c0.5-0.5,0.9-0.5,1.3,0.1c3.6,4.2,7.2,8.4,10.8,12.6c0.5,0.6,0.4,0.9-0.2,1.3
			c-1.9,1.6-3.8,3.3-5.7,4.9c-0.6,0.5-0.7,0.8-0.1,1.5c4.1,4.7,8.1,9.4,12.1,14.1c0.7,0.9,0.8,0.8,1.7,0.1c1.9-1.6,3.7-3.1,5.6-4.8
			c0.6-0.5,0.9-0.4,1.3,0.1c3.7,4.4,7.5,8.8,11.3,13.3c-0.8,0.7-1.6,1.5-2.5,2.2c-1.3,1.1-2.5,2.2-3.8,3.2c-0.9,0.8-0.9,0.8-0.1,1.7
			c2.7,3.2,5.5,6.4,8.2,9.6c1.3,1.5,2.6,2.9,3.8,4.4c0.5,0.7,0.9,0.8,1.6,0.2c1.9-1.7,3.8-3.3,5.7-4.9c0.2-0.2,0.4-0.3,0.7-0.5
			c2.8,3.3,5.7,6.6,8.5,9.9c0.9,1.1,1.8,2.1,2.7,3.2c0.8,0.9,0.8,0.9-0.1,1.7c-1.8,1.6-3.6,3.1-5.4,4.6c-0.3,0.2-0.5,0.5-0.7,0.7
			c0.2,0.7,0.7,1,1.1,1.5c2,2.3,4,4.6,5.9,6.9c0.4,0.5,0.8,1,0.7,1.8c-0.3,5.9-1.4,11.6-4.1,17c-3.8,7.6-9.6,13.2-17,17.3
			c-4.1,2.3-8.4,4-12.8,5.4c-1,0.3-1.6,0.1-2.3-0.7c-3.8-4.5-7.6-8.9-11.4-13.4c-0.9-1-0.9-1-1.9-0.2c-2,1.7-4,3.4-6.2,5.3
			c-4-4.7-8-9.3-12-14c2.4-2.1,4.8-4.1,7.2-6.2c-3.4-4-6.7-7.9-10-11.7c-0.9-1.1-1.9-2.2-2.8-3.3c-0.5-0.6-0.9-0.6-1.5-0.1
			c-1.8,1.6-3.6,3.1-5.4,4.7c-0.9,0.8-1,0.8-1.8-0.2c-3.5-4-6.9-8.1-10.4-12.1c-0.7-0.9-0.7-0.9,0.2-1.7c1.9-1.6,3.8-3.2,5.7-4.9
			c0.2-0.1,0.3-0.3,0.5-0.6c-4.5-5.2-8.9-10.4-13.4-15.7c-2.4,2.1-4.7,4-7.2,6.1c-4-4.6-7.9-9.2-11.9-13.8c0.2-0.6,0.7-0.9,1.1-1.2
			c1.6-1.4,3.2-2.7,4.8-4.1c1.1-0.9,1.1-1,0.2-2c-3.2-3.7-6.3-7.4-9.5-11.1c-0.8-0.9-1.5-1.8-2.3-2.7c-0.8-0.9-0.8-0.9-1.8-0.1
			c-1.6,1.4-3.2,2.7-4.8,4.1c-0.4,0.4-0.8,0.8-1.5,1.1c-3.9-4.6-7.9-9.2-11.9-13.9c1.9-1.6,3.7-3.2,5.5-4.7c0.3-0.3,0.6-0.5,0.9-0.8
			c0.7-0.5,0.7-0.8,0.1-1.5c-1.9-2.2-3.7-4.6-5.8-6.7c-1.8-1.9-2.8-3.9-2.8-6.6c0-4-0.3-8-0.5-12c-0.3-6.3-0.6-12.6-0.8-18.9
			c-0.1-1.2-0.1-1.3,1.1-1.5c3.1-0.4,6.1-0.8,9.2-1.2c3.6-0.4,7.1-0.8,10.7-1.2c2.8-0.3,5.5-0.5,8.3-0.8c2.3-0.2,4.5-0.3,6.8-0.6
			c1.1-0.1,1.8,0.1,2.6,1c3.6,4.3,7.3,8.5,10.9,12.8c0.3,0.3,0.6,0.7,0.9,1c0.4,0.6,0.9,0.5,1.4,0.1c1.3-1.1,2.6-2.2,3.9-3.4
			C227.8,112.7,228.6,112,229.5,111.3z"/>
		<g>
			<path class="st4" d="M321.7,105.5c-3.1-0.3-6.3-0.8-9.4-1.1c-3.6-0.4-7.3-0.8-10.9-1.2c-3.2-0.3-6.4-0.7-9.6-0.9
				c-2.4-0.1-4.8-0.6-7.3-0.4c-0.4,0-0.9,0-1.3,0c-0.5-0.3-1.2,0-1.7-0.2c-19.2-1.4-65.2-1.2-68.8,0.3c0,0.1,0,0.1,0,0.2
				c3,3.8,6.2,7.3,9.3,11c0.5,0.6,0.8,0.3,1.2-0.1c1.8-1.6,3.7-3.2,5.5-4.8c0.9-0.8,0.9-0.8,1.7,0.1c4.6,5.3,9.2,10.7,13.7,16
				c0.9,1.1,0.9,1.1-0.1,2.1c-1.8,1.5-3.5,3.1-5.3,4.5c-0.6,0.5-0.7,0.9-0.1,1.5c0.9,0.9,1.7,1.9,2.5,2.9c2.3,2.6,4.5,5.3,6.8,8
				c0.3-0.3,0.6-0.4,0.8-0.7c1.8-1.5,3.6-3.1,5.4-4.6c0.9-0.8,1-0.8,1.8,0.2c0.5,0.5,0.9,1.1,1.4,1.6c4.1,4.8,8.2,9.6,12.3,14.4
				c0.9,1,0.9,1-0.1,1.9c-1.2,1-2.5,2.1-3.7,3.1c-0.8,0.7-1.8,1.3-2.4,2.2c3.1,3.6,6.2,7.2,9.2,10.8c0.6,0.7,0.9,0.7,1.6,0.1
				c1.8-1.6,3.6-3.1,5.4-4.6c0.4-0.3,0.7-0.8,1.3-0.4c0.5,0.2,0.9,0.5,1,1.1c0,0.4,0.3,0.7,0.7,0.9c3.4,4.1,6.9,8.1,10.3,12.2
				c1,1.2,2,2.4,3.1,3.6c-2.1,1.8-4.1,3.5-6.2,5.3c-1,0.9-1,0.9-0.1,1.9c2.8,3.2,5.6,6.5,8.3,9.7c0.7,0.8,0.8,1,1.8,0.1
				c1.8-1.6,3.6-3.1,5.4-4.7c0.6-0.6,1-0.5,1.5,0.1c0.2,0.2,0.4,0.4,0.5,0.6c3.6,4.2,7.1,8.3,10.7,12.5c0.3,0.4,0.6,0.9,1.2,1
				c0.5-4.1,0.4-8.2,0.7-12.2c0.3-5,0.4-10,0.7-14.9c0.4-7.7,0.7-15.5,1-23.2c0.2-5,0.4-10,0.7-14.9c0.4-8.4,0.7-16.7,1.1-25.1
				c0.2-4.4,0.4-8.9,0.6-13.3C324.2,105.7,324.2,105.7,321.7,105.5z"/>
			<path class="st4" d="M270.7,260.1c-0.7-0.8-0.8-0.8-1.7,0c-1.8,1.5-3.7,3.1-5.4,4.6c-0.6,0.5-1,0.5-1.5-0.1
				c-0.9-1.1-1.9-2.2-2.8-3.3c-4-4.6-7.9-9.3-11.9-13.9c0.2-0.2,0.4-0.4,0.6-0.6c1.8-1.6,3.7-3.2,5.6-4.8c1-0.8,1-0.9,0.2-1.8
				c-2.8-3.3-5.6-6.6-8.4-9.8c-0.8-0.9-0.8-0.9-1.7-0.2c-1.8,1.5-3.6,3.1-5.4,4.7c-0.6,0.5-1,0.7-1.6,0c-4.6-5.5-9.3-10.9-13.9-16.3
				c-0.8-1-0.8-1,0.1-1.8c1.7-1.5,3.4-3,5.2-4.4c1.2-1,1.1-0.8,0.1-2c-2.8-3.3-5.5-6.5-8.3-9.7c-0.2-0.3-0.4-0.6-0.9-0.7
				c-1.8,1.5-3.7,3.1-5.5,4.7c-1.5,1.3-1.5,1.3-2.9-0.1c0,0-0.1-0.1-0.1-0.1c-0.9-0.3-1.4-1.1-1.6-2l0,0c-0.1-0.2-0.2-0.4-0.3-0.6
				c-2.8-3.3-5.7-6.6-8.5-10c-1.1-1.3-2.3-2.7-3.4-4c2.3-2.3,4.9-4,7.1-6.3c-3.2-3.7-6.2-7.3-9.3-10.9c-0.6-0.7-1-0.6-1.6,0
				c-0.8,0.8-1.6,1.5-2.5,2.2c-1.3,1-2.4,2.2-3.9,3.1c-4-4.7-7.9-9.2-11.9-13.8c-0.1-0.1-0.2-0.1-0.3-0.2c0,0-0.1,0-0.1,0
				c-0.2,0.1,0.1,0.2-0.2,0.1c0,0.5,0,0.9,0,1.3c0.2,4.7,0.4,9.4,0.6,14.1c0.3,6.1,0.5,12.2,0.7,18.3c0.3,7.7,0.7,15.5,1,23.2
				c0.1,3.3,0.2,6.6,0.4,10c0.2,3.1,0.3,6.2,0.9,9.2c1.5,7.4,4.6,13.8,9.9,19.2c5.8,6,12.9,9.8,20.7,12.4c1.8,0.8,3.6,1.3,5.5,1.7
				c8.5,2.2,17.3,3.3,26.1,3.6c6.4,0.2,12.7,0.2,19.1-0.2c6.2-0.4,12.4-1.2,18.6-2.4c1.1-0.2,1.9-0.7,2.6-1.6
				c-0.1-0.2-0.2-0.3-0.3-0.5C276.6,267,273.7,263.6,270.7,260.1z"/>
		</g>
		<path class="st5" d="M194.4,68.9c5.8,0.1,11.4,0.5,16.9,1.3c2.7,0.4,4.4,1.9,4.9,4.2c0.5,2.4-0.3,4.9-2.2,6.2
			c-0.8,0.5-1.6,0.8-2.6,0.6c-8.3-1.2-16.5-1.4-24.9-0.9c-3.2,0.2-6.3,0.5-9.4,1c-1.5,0.2-3.6-1.6-3.6-3.2c0-1.3,0-2.5,0-3.8
			c0-2.1,1-3.5,3.1-3.9c2.1-0.4,4.1-0.7,6.2-0.9C186.8,69.2,190.7,69,194.4,68.9z"/>
		<path class="st6" d="M300.7,68.9c5.7,0.1,11.3,0.5,16.8,1.3c2.3,0.3,4,1.4,4.7,3.7c0.7,2.2,0.4,4.3-1.2,6c-1,1.1-2.1,1.6-3.7,1.3
			c-8.2-1.2-16.5-1.3-24.9-0.9c-3,0.2-6.1,0.5-9.1,1c-1.6,0.3-3.7-1.5-3.7-3.2c0-1.2,0-2.4,0-3.7c0-2.3,1-3.6,3.3-4
			c2-0.4,4-0.7,6.1-0.9C292.9,69.2,296.9,69,300.7,68.9z"/>
		<path class="st5" d="M227.4,76c0-1.1,0.1-2.1,0-3.2c-0.1-1,0.4-1.5,1.2-1.9c0.8-0.4,1.6-0.5,2.4-0.6c8.2-1.3,16.5-1.6,24.8-1
			c3.1,0.2,6.3,0.5,9.4,1.2c2.5,0.5,4,2.3,4.3,4.9c0.3,2.4-1,4.8-3.1,5.8c-0.6,0.3-1.1,0.3-1.8,0.2c-8.4-1.3-16.7-1.4-25.2-0.9
			c-3.1,0.2-6.2,0.5-9.2,1c-1.5,0.2-2.8-0.9-2.9-2.4C227.4,78,227.4,77,227.4,76z"/>
		<path class="st5" d="M294.2,90.2c-0.6-1.1-1.3-1.5-2.3-1.4c-1,0.2-1.8,0.9-1.9,2c-0.1,0.9,0,1.9,0,2.8c0,1.4,0.1,2.9,0.1,4.3
			c0,0.3,0,0.7-0.1,0.8c-0.8,0.3-1.7,0-2.6,0c-0.5,0-0.5-0.5-0.5-0.9c-0.1-3.5-0.2-7-0.3-10.5c0-0.9,0.3-1.2,1.1-1.2
			c7.8-0.6,15.6-0.9,23.4-0.1c0.6,0.1,1.2,0.1,1.8,0.1c1.5,0.1,1.5,0.1,1.5,1.5c0,1.1,0,2.2-0.1,3.3c-0.1,2.9-0.2,5.9-0.3,8.8
			c0,0.4,0,0.9,0,1.4c-1.8,0.1-3.4-0.3-5-0.4c-0.4,0-0.5-0.3-0.5-0.7c0-2.5,0-5.1,0.1-7.6c0.1-1.3,0.7-1.8,2.5-2.1
			c-0.5-1.1-1.2-1.6-2.2-1.5c-1,0.1-1.8,0.8-2,1.7c-0.1,0.5-0.1,1-0.1,1.5c0,2.4,0,4.9-0.1,7.3c0,1.1,0,1.1-1.1,1.1
			c-1.4-0.1-2.9-0.2-4.3-0.4c-1.2-0.1-1.2-0.2-1.2-1.5c0-1.7,0-3.3,0-5c0-2.3,0.3-2.8,2.5-3.3c-0.6-1.2-1.4-1.6-2.4-1.4
			c-1.1,0.2-1.8,1-1.8,2.3c0,2.4,0,4.9,0,7.3c0,1.3,0,1.3-1.2,1.2c-1.4-0.1-2.9-0.3-4.3-0.4c-0.8,0-1.2-0.3-1.1-1.2
			c0-1.7-0.1-3.4-0.1-5.2c0-1.6,0.4-2.1,2.1-2.5C294,90.4,294.1,90.4,294.2,90.2z"/>
		<path class="st7" d="M196.7,90.3c-0.9-1.4-1.7-1.7-2.8-1.3c-1,0.4-1.5,1.1-1.5,2.5c0,2.5,0,5,0,7.5c0,0.9-0.2,1.3-1.1,1.3
			c-1.5,0.1-3,0.3-4.4,0.5c-0.6,0.1-1.1,0-1.1-0.8c0-2.4-0.1-4.9-0.1-7.3c0-1.5,0.6-1.9,2.5-2.3c-0.5-1.2-1.3-1.7-2.4-1.5
			c-1,0.2-1.8,1-1.9,2c-0.1,0.6,0,1.2,0,1.8c0.1,2.4,0.1,4.8,0.2,7.1c0,1.1,0,1.1-1.2,1.2c-0.5,0.1-1.1,0.1-1.7,0.1
			c-0.4-0.7-0.3-1.4-0.3-2.1c-0.1-3.9-0.2-7.9-0.4-11.8c0-0.8,0.2-1.1,1-1.2c5.6-0.4,11.3-0.8,16.9-0.5c2.8,0.2,5.6,0.3,8.5,0.5
			c1.4,0.1,1.5,0.1,1.4,1.6c-0.1,3.3-0.2,6.6-0.3,10c0,0.7-0.2,1.1-1,1.1c-1.2,0-2.4,0.2-3.6,0.3c-0.7,0.1-1-0.2-1-1
			c0.1-1.7,0.1-3.3,0.1-5c0.1-2,0.4-2.5,2.5-2.8c-0.3-1.1-0.8-1.4-1.8-1.5c-1-0.1-1.9,0.5-2.3,1.4c-0.2,0.5-0.2,1.1-0.2,1.6
			c0,2.2-0.1,4.3,0,6.5c0,0.7-0.2,1.1-1,1.1c-1.4,0.1-2.9,0.3-4.3,0.3c-1.3,0.1-1.3,0-1.3-1.2c0-1.7,0-3.4,0-5.2
			C194.1,91.3,194.5,90.8,196.7,90.3z"/>
		<path class="st8" d="M252.3,35c-1.1,1.1-1.6,2.6-2.3,4c-0.6,1.3-0.5,2.5,0,3.8c0.5,1.1,1,2.3,1.2,3.6c-0.9,0.7-2.1,0.6-3.1,1.1
			c-6.5,3-8.6,10.7-4.1,16.2c-1.7,0.5-3.4,0.2-5.1,0.4c-0.5,0.2-1,0.1-1.4-0.2c-3.8-3.2-6.6-7-7-12.2c-0.1-1.6,0.4-3.1,1-4.5
			c0.9-2.5,1.9-5,2.3-7.6c0.1-0.4,0.1-1,0.6-1.1c0.6-0.1,0.8,0.5,1,0.9c0.9,1.8,1.7,3.6,2.1,5.6c0.2,0.9,0.1,1.7-0.5,2.5
			c-3,3.8-3.1,4-3.1,8.7c0-1.5,0.4-2.8,1.2-4c0.3-0.5,0.6-1.2,1.3-1c0.6,0.2,0.5,0.9,0.5,1.5c0,1.4,0.3,2.7,0.7,3.6
			c-0.3-2.8,0.6-5.6,2.7-8c0.9-1.1,2-2.1,3-3.1c2.4-2.1,3.9-4.6,4.3-7.9c-1.3,3.4-3.6,5.8-6.7,7.5c-0.6,0.3-1.2,0.9-1.8,0.3
			c-0.5-0.5-0.2-1.2,0.1-1.7c1.9-3.7,4.2-7.2,7.6-9.8c1.8-1.6,3.6-3.2,5.3-4.9c2.8-2.8,4.4-6.3,5.3-10.1c0-0.2,0.1-0.3,0.1-0.5
			c0.2-0.4,0.2-0.9,0.8-0.9c0.9,0.8,0.8,1.9,0.9,2.9c0.1,4.8-1.6,9-4.8,12.5C253.8,33.3,253.4,34.5,252.3,35z"/>
		<path class="st5" d="M258.3,90.3c-1-1.4-1.8-1.7-2.8-1.3c-1,0.4-1.5,1.1-1.5,2.5c0,1.6-0.1,3.2,0,4.8c0,0.8-0.2,1.2-1.1,1.2
			c-1.5-0.1-3.1-0.1-4.7-0.1c-0.6,0-0.9-0.2-0.9-0.9c0-1.1,0-2.1,0-3.2c0-2.1,0.4-2.6,2.5-3c-0.5-1.1-1-1.5-2-1.5
			c-1,0-1.8,0.6-2.1,1.6c-0.2,0.5-0.1,1-0.1,1.5c0,1.5,0,3,0,4.5c0,0.6-0.1,1-0.8,1c-1.7,0-3.4,0-5.1,0c-0.5,0-0.7-0.2-0.7-0.7
			c0-1.4-0.1-2.9-0.1-4.3c0-0.9,0.6-1.5,1.4-1.9c0.3-0.2,0.8,0,1.1-0.3c-0.7-1.2-1.4-1.6-2.5-1.4c-1.1,0.2-1.8,1-1.8,2.3
			c0,1.7,0,3.4,0.1,5.1c0,0.8-0.1,1.2-1.1,1.2c-2,0-2,0.1-2.1-2c-0.1-2.7-0.2-5.3-0.2-8c0-1.2,0-1.2,1.2-1.3
			c7.2-0.6,14.4-0.8,21.6-0.3c1.3,0.1,2.6,0.2,4,0.3c0.8,0,1.1,0.3,1,1.1c-0.1,3.1-0.2,6.2-0.2,9.3c0,0.7-0.3,0.9-0.9,0.9
			c-1.3,0-2.5,0-3.8,0c-0.6,0-0.9-0.2-0.9-0.9c0-1.1,0-2.1,0-3.2C255.6,91.3,256,90.8,258.3,90.3z"/>
		<path class="st9" d="M291.2,57.6c0-1.3-0.3-2.5-0.1-3.8c0.4-2.1,1.2-4,2.6-5.6c0.8-0.9,1.7-1.7,2.6-2.6c1.1-1.1,2.2-2.2,3.1-3.4
			c0.9-0.7,1.8-1.4,3-0.6c0.5,1.5,1.2,2.9,1.6,4.5c1,3.7,1,7.4-0.1,11.1c-0.6,1.9-1.7,3.6-3,5.1c-0.4,0.5-0.9,0.8-1.2,1.4
			c-2.7,0.1-5.3,0.3-8,0.4c-0.5-0.1-1.1-0.1-1.3-0.7c-0.9-1.6-1.3-3.3-1.1-5.2c0.1-0.7,0.1-1.5,1.1-1.5c0.1,0.3,0.3,0.6,0.4,0.9
			C291,57.6,291.1,57.9,291.2,57.6z"/>
		<path class="st10" d="M184.7,57.6c0-1.4-0.4-2.7,0-4.1c0.5-2,1.2-3.8,2.6-5.3c0.8-0.9,1.7-1.7,2.6-2.6c1.1-1.1,2.2-2.1,3.1-3.4
			c0.9-0.5,1.8-1.4,3-0.6c0.5,1.8,1.4,3.6,1.8,5.4c0.9,3.9,0.7,7.6-0.8,11.3c-0.6,1.4-1.5,2.7-2.5,3.8c-0.4,0.5-0.9,0.8-1.2,1.4
			c-2.7,0.1-5.3,0.3-8,0.4c0,0,0-0.2,0-0.2c-0.8-1.2-1.2-2.4-1.5-3.8C183.7,59,183.9,58.2,184.7,57.6z"/>
		<path class="st2" d="M319.7,40.3c0.2-0.4,0.4-0.8,0.5-1.2c0.8-1.6,1.6-3.2,2.3-4.8c1.1-2.5,1.7-5,1.6-7.7
			c-0.1-1.8-0.5-3.5-1.4-5.3c-0.8,3.5-2.9,5.7-5.6,7.6c-2.1,1.5-4.3,3-6.2,4.7c-0.3-1,0.3-1.8,0.7-2.6c0.6-1,1.3-1.8,2.1-2.6
			c0.5-0.5,0.6-0.9,0.4-1.6c-0.6-1.4-0.5-2.8,0-4.2c0.4-1,0.8-2.1,1.2-3.1c0.6-1.4,1.1-2.9,1-4.5c-0.3-3.4-2.1-6-4.3-8.5
			c-0.1,0.2-0.2,0.2-0.2,0.2c0,0.2,0,0.4,0,0.7c0,6.5-2.8,11.2-8.5,14.4c-0.7,0.4-1.4,0.8-2,1.2c-3.7,2.2-6.5,5.3-8.6,9h0
			c-1.5,1.9-2.1,4.4-3.3,6.6c-1.1-4.5-1.1-4.5-2.5-5.8c-0.2,4.1-2.3,7.1-4.8,9.9c-1,1.1-1.9,2.1-2.8,3.3c-2,2.5-2.2,5.2-0.6,7.9
			c2.4,4,5.5,7.4,9,10.5c0.3,0.3,0.6,0.5,1,0.3c1-0.5,2.1-0.3,3.1-0.6c-0.3-0.5-0.9-0.7-1.2-1.1c-0.9-0.9-1.8-1.7-2.6-2.6
			c-3.2-3.9-4.9-8.1-2.7-13.2c1.1-2.5,2-5.1,2.1-7.8c0.6,1.6,1.3,3.1,1.8,4.7c0.5,1.5,0.2,2.7-0.9,3.9c-2.3,2.4-2.8,5.4-2.2,8.6
			c0.1,0.4,0.2,0.9,0.8,0.9c0.6,0,0.7-0.5,0.7-1c0.1-1.6,0.7-3,1.5-4.6c-0.1,1.8,0.2,3.4,0.9,4.9c0.2,0.4,0.4,0.8,0.8,1
			c0.2,0,0.3,0,0.5-0.1c0.2-0.3,0.3-0.7,0.2-1.1c-0.4-3.5,0.9-6.4,3.4-8.8c1.7-1.7,3.5-3.2,4.8-5.2c0.8-1.4,1.4-2.9,1.6-4.5
			c0.1-0.8,0.5-1.8-0.2-2.1c-0.9-0.4-1.1,0.8-1.4,1.5c-1.4,3.3-3.9,5.5-7.1,7.1c1.9-4.2,4.5-7.9,8.2-10.7c0.8-0.6,1.5-1.3,2.1-2.1
			c0.2-0.3,0.5-0.6,0.3-0.8c0,0,0,0,0,0c0.9,0,1.5-0.6,2.1-1.2c3.2-3.1,5.2-6.9,5.9-11.3c-0.1,0.3-0.1,0.5-0.1,0.8
			c0.5,4.2-0.6,7.8-3.1,11.2c-0.4,0.5-0.8,1-0.7,1.6c-1.7,0.7-2.3,2.3-3.2,3.7c-1.2,1.9-2.4,3.9-2.1,6.3c0.2,0.9,0.6,1.7,0.9,2.5
			c2.2,6.5,2.2,12.7-2.8,18.2c-0.3,0.3-0.6,0.7-0.4,1.2c1.5,0.1,3,0.1,4.6,0.2c0.3-0.5,0.8-0.9,1.3-1.3c4.6-4.7,7.5-10.2,7.6-16.9
			c3.3,3,4.2,6.4,2.7,10.1c-0.9,2.2-2.5,4-4.3,5.6c-1,0.8-2.3,1.3-2.8,2.7c1.3,0.4,2.7,0.4,4,1c0.4,0.2,0.7-0.1,1.1-0.3
			c2.6-1.7,4.9-3.6,6.7-6.1c2.9-4.1,2.9-8.4-0.2-12.3C318.8,44.2,318.6,42.4,319.7,40.3z"/>
		<path class="st6" d="M306.9,337.5c-0.3-0.6-0.5-1.3-0.9-1.9c-1.5-2-3.5-2.8-5.9-2.6c-2.3,0.3-4.2,1.3-5.1,3.6
			c-0.4,0.9-0.8,1-1.5,0.3c-0.3-0.3-0.4-0.8-0.5-1.2c0-0.4-0.1-0.8,0-1.2c0.3-2.6-1-4.2-3.3-5.2c-0.4-0.2-0.8-0.4-1.2-0.6
			c-0.5-0.3-0.9-1.7-0.6-2.2c0.1-0.2,0.3-0.3,0.6-0.3c2.4-0.1,4.7,0.1,6.2,2.4c0.5,0.8,1.2,1.4,1.9,2.1c0.3,0.3,0.5,0.5,1,0.2
			c0.5-0.3,0.6-0.6,0.3-1.1c-0.6-1.1-0.9-2.3-1.2-3.4c-0.2-0.7,0-1.3,0.4-1.8c1.3-1.5,3.4-2.9,5.8-1.3c1.8,1.2,2.2,2.1,1.6,4.1
			c-0.2,0.8-0.6,1.7-0.9,2.5c-0.2,0.4-0.1,0.7,0.3,1c0.4,0.3,0.7,0.2,1-0.1c0.7-0.8,1.4-1.5,2.1-2.4c1.1-1.4,2.6-2.1,4.3-2.1
			c1,0,2.1,0,3.1,0c0.1,1.3-0.6,2-1.5,2.5c-0.7,0.4-1.4,0.7-2.1,1c-1.5,0.8-2.4,2.1-2.3,3.9c0,0.6,0,1.2,0,1.8
			C308.4,336.7,308.1,337,306.9,337.5z"/>
		<path class="st11" d="M188.5,337.5c-1.1-0.1-1.6-0.9-1.7-1.8c-0.1-0.7-0.1-1.3,0-2c0.1-1.7-0.7-2.8-2.1-3.7
			c-0.6-0.3-1.2-0.6-1.8-0.9c-1.2-0.6-1.3-0.8-1.2-2.1c0-0.5,0.1-0.7,0.7-0.7c2.4-0.1,4.7,0.2,6.2,2.4c0.5,0.8,1.2,1.4,1.9,2.1
			c0.3,0.3,0.5,0.5,1,0.2c0.5-0.3,0.5-0.6,0.3-1.1c-0.5-1-0.8-2.2-1.1-3.3c-0.3-0.9,0-1.5,0.5-2.1c2.3-2.4,4.6-2.5,6.9-0.2
			c0.7,0.7,0.9,1.5,0.7,2.4c-0.3,1.1-0.6,2.1-1.1,3.1c-0.2,0.5-0.3,0.8,0.2,1.1c0.5,0.4,0.8,0,1.1-0.3c0.7-0.7,1.4-1.5,2-2.3
			c1-1.4,2.5-2,4.1-2.1c1,0,2.1,0,3.2,0c0.2,1.1-0.4,1.8-1.2,2.4c-0.7,0.4-1.4,0.7-2.1,1.1c-1.7,0.9-2.7,2.2-2.6,4.3
			c0,0.4,0,0.9,0,1.3c0,1-0.4,1.8-1.6,2.2c-1.1-3.2-3.4-4.8-6.8-4.5C191.2,333.2,189.3,334.7,188.5,337.5z"/>
		<path class="st11" d="M241.3,343c-0.9-0.2-1.4-0.8-1.4-1.8c0-0.7,0-1.3,0-2c0-1.7-0.8-3-2.3-3.8c-0.7-0.4-1.5-0.7-2.2-1.1
			c-0.8-0.5-1.5-1.1-1.4-2.3c1.5-0.2,3-0.1,4.5,0c1,0.1,1.8,0.7,2.5,1.5c0.8,0.9,1.5,1.8,2.3,2.6c0.3,0.3,0.6,0.7,1.1,0.3
			c0.6-0.4,0.4-0.8,0.2-1.3c-0.5-1.1-0.9-2.3-1.1-3.5c-0.1-0.6,0-1.1,0.4-1.5c0.8-1.1,2-1.8,3.3-2.1c1.4-0.4,4.4,1.5,4.6,3
			c0.1,0.5-0.1,1-0.2,1.5c-0.2,1-0.5,1.9-1,2.8c-0.2,0.4-0.3,0.8,0.2,1.1c0.5,0.4,0.8,0.1,1.1-0.3c0.6-0.7,1.2-1.3,1.7-2
			c1.2-1.6,2.7-2.4,4.7-2.3c0.7,0,1.3,0,2,0c1,0,1.1,0.4,0.7,1.2c-0.2,0.5-0.6,0.8-1,1.1c-0.3,0.2-0.7,0.4-1,0.5
			c-2.6,1-3.9,2.8-3.6,5.6c0,0.4,0,0.9-0.1,1.3c-0.1,0.5-0.3,0.8-0.7,1c-0.4,0.3-0.8,0.4-1-0.3c-0.3-1-0.8-1.8-1.6-2.5
			c-3.7-3.1-9.2-1.2-10.2,2.4C241.7,342.6,241.6,342.8,241.3,343z"/>
		<path class="st12" d="M244,63.6c-0.4-0.1-0.8-0.1-1.1-0.6c-1.9-3-1.9-6.2-1.3-9.6c0.2-0.8,0.9-1.2,1.2-1.9
			c1.2-2.4,3.3-3.8,5.6-4.9c0.9-0.4,1.8-0.5,2.8-0.4c1.1,4,1.1,8-0.5,12c-0.6,1.5-1.5,2.8-2.6,4c-0.4,0.4-0.9,0.8-1.2,1.4
			C246,63.7,245,63.7,244,63.6z"/>
		<path class="st13" d="M198.3,63.8c-0.1-0.3-0.5-0.1-0.6-0.4c5.4-5.1,9-11,8.6-18.7c3.3,2,5.9,6.9,3.3,11.8
			c-1.4,2.6-3.5,4.7-5.9,6.4c-0.4,0.3-0.9,0.7-1.3,1C201,63.9,199.6,63.9,198.3,63.8z"/>
		<path class="st14" d="M304.4,63.8c-0.1-0.2-0.6-0.4-0.1-0.8c2.4-1.8,4.1-4.2,5.6-6.7c1.7-2.9,2.7-6,3-9.4c0.1-0.8-0.2-1.6-0.2-2.6
			c2.5,2,4.1,4.3,4.5,7.3c0.2,2-0.4,3.9-1.5,5.7c-1.4,2.3-3.2,4-5.3,5.6c-0.5,0.4-1,0.7-1.5,1.1C307.3,63.9,305.9,63.9,304.4,63.8z"
			/>
		<path class="st15" d="M251.5,63.8c-0.2-0.2-0.5-0.3-0.1-0.7c2.2-1.9,4.1-4.2,5.5-6.7c1.7-3,2.8-6.2,2.9-9.7c0-0.7,0.1-1.3-0.2-2
			c2.1,1.3,3.4,3.2,4.1,5.4c0.8,2.5,0.2,4.8-1,7c-1.7,3-4.2,5.2-7.2,6.9C254.3,63.9,252.9,63.9,251.5,63.8z"/>
		<path class="st16" d="M194.5,81.9c5.4,0,10.5,0.2,15.6,1c0.6,0.1,1.1,0.1,1,0.9c-0.1,0.9-0.4,1.2-1.3,1.1
			c-1.6-0.1-3.2-0.3-4.8-0.4c-4.7-0.4-9.5-0.6-14.3-0.4c-3.8,0.2-7.5,0.3-11.3,0.8c-0.3,0-0.6,0-0.8,0c-0.7-0.1-0.9-0.5-1-1.1
			c0-0.7,0.4-0.8,0.9-0.9C184,82.1,189.4,81.8,194.5,81.9z"/>
		<path class="st17" d="M247.3,81.9c5.6,0,10.7,0.2,15.8,1c0.6,0.1,1.3,0,1.1,1c-0.1,0.8-0.4,1.1-1.4,1.1c-1.6-0.1-3.2-0.3-4.8-0.4
			c-4.8-0.4-9.6-0.6-14.4-0.4c-3.7,0.2-7.4,0.3-11.1,0.8c-0.5,0.1-1.1,0.2-1.5-0.4c-0.5-0.8-0.2-1.4,0.8-1.6
			C237.1,82.1,242.4,81.8,247.3,81.9z"/>
		<path class="st16" d="M300.8,81.9c5.2-0.1,10.3,0.2,15.4,0.9c0.6,0.1,1.1,0,1.1,0.9c-0.1,0.9-0.3,1.2-1.3,1.1
			c-1.5-0.1-3.1-0.3-4.6-0.4c-5-0.4-10-0.6-15.1-0.4c-3.5,0.2-7.1,0.3-10.6,0.8c-0.3,0-0.7,0-1,0c-0.7-0.1-0.8-0.6-0.8-1.2
			c0-0.6,0.4-0.6,0.9-0.7c4-0.6,8-0.9,12.1-1C298.2,81.8,299.5,81.9,300.8,81.9z"/>
		<g>
			<path class="st18" d="M360.7,220.8c0.1-1.6,0.1-1.7-1.6-1.8c-4.1-0.4-8.2-0.7-12.2-1c-4.8-0.4-9.6-0.8-14.4-1.2
				c-0.8-0.1-1.1,0.1-1.1,0.9c-0.1,1.9-0.1,3.9-0.3,5.8c-0.3,5.5-0.2,11.1-1.3,16.6c-2.1,11.3-7.4,20.8-16,28.4
				c-7.3,6.5-15.9,10.8-25.2,13.7c-9.5,3-19.2,4.3-29,4.9c-10,0.6-20,0.5-30.1-0.5c-5.7-0.6-11.3-1.4-16.8-2.7
				c-8.6-2-16.7-5.1-24.1-9.9c-8.6-5.6-15.3-12.8-19.6-22.3c-3.1-7-4.4-14.4-4.6-22c-0.1-3.9-0.3-7.9-0.5-11.8
				c-0.1-1.1-0.1-1.2-1.3-1.1c-2.9,0.3-5.8,0.5-8.8,0.8c-4.6,0.4-9.2,0.7-13.7,1.1c-1.3,0.1-2.6,0.2-4,0.3c-1.7,0.1-1.7,0.2-1.6,1.8
				c0.1,1.4,0.1,2.9,0.2,4.3c0.3,7.2,0.5,14.5,2,21.7c3.1,15.1,9.9,28.2,20.5,39.3c8.4,8.7,18.4,15.2,29.5,20
				c13.5,5.8,27.8,8.6,42.4,9.9c6.1,0.5,12.3,0.8,18.4,0.7c3.6-0.1,7.2-0.1,10.8-0.2c7.5-0.4,15-1.1,22.4-2.4
				c9-1.6,17.8-3.9,26.2-7.4c13.9-5.8,26-14,35.5-25.8c9.9-12.2,15.4-26.3,17.1-41.8C360.4,233,360.3,226.8,360.7,220.8z"/>
			<path class="st18" d="M377.2,244.3c-1-4.7-2.5-9.3-4-13.9c-0.7-2.3-1.2-4.7-2.2-6.9c0,0,0,0,0,0c0,0,0,0,0,0c0-0.1,0-0.2-0.1-0.3
				c-0.3-0.3,0-0.7-0.3-1c-0.4-0.7-0.3-1.5-0.5-2.2c-1.2-4.7-2.1-9.5-2.4-14.4c-0.3-4.1-0.1-8.1,0.8-12.1c0.5-2.2,1.2-4.3,2.1-6.7
				c-6.8,5.2-13.1,10.5-16.5,18.3c-0.1-0.1-0.3-0.2-0.3-0.3c-1.5-4.2-3.5-8.1-5.4-12.1c-2.3-5.1-3.9-10.3-4.3-15.9
				c-0.1-1.1-0.1-2.2-0.2-3.3c-0.6,0.2-0.7,0.7-0.9,1c-3.3,8-4.5,16.3-3.6,24.9c0.5,4.9,1.5,9.6,2.8,14.3c0.4,1.7,0.4,1.7,2.1,1.8
				c0.5,0.1,1.1,0.2,1.6,0.2c4.5,0.4,9,0.8,13.6,1.1c2.6,0.2,4.3,1.4,5.5,3.7c0.5,1,0.9,2.1,1.3,3.2c0.6,2.8,1.1,5.6,1.3,8.5
				c0.3,4.3,0.3,8.6,0.9,12.9c0.3,2.1,0.7,4.1,1.7,6c0.4,0.8,1,1.3,2,1.2c0.9-0.1,1.9,0,2.8,0c1.3,0,1.7-0.3,2.2-1.6
				c0.2-0.6,0.3-1.3,0.3-2C377.8,247.4,377.5,245.9,377.2,244.3z"/>
			<path class="st18" d="M127.2,237.5c0.1-1.9,0.2-3.8,0.4-5.6c0.3-3.5,0.8-7,2.2-10.3c1.2-2.9,3.3-4.7,6.6-4.6c0.3,0,0.7,0,1,0
				c1.8-0.3,3.8-0.1,5.6-0.6c0.3,0,0.6,0,0.9,0c1-0.8,2-0.1,3-0.3c0.4,0.1,0.9,0,1.3-0.1c0.8-0.6,1.7,0.1,2.4-0.2
				c0.3,0,0.6,0,0.9-0.1c0.3-0.3,0.7-0.3,1-0.7c0.7-2.5,1.4-4.9,1.9-7.4c0.8-3.6,1.3-7.3,1.5-11c0.4-7.5-0.9-14.8-3.8-21.7
				c-0.2-0.4-0.3-0.9-0.8-1.1c-0.1,0.1-0.2,0.1-0.2,0.1c0,0.2-0.1,0.3-0.1,0.5c0,6.5-1.6,12.7-4.4,18.6c-1.6,3.5-3.4,7-4.8,10.6
				c-0.2,0.6-0.3,1.3-0.9,1.9c-1.6-3.9-4.1-7.2-6.9-10.1c-3.4-3.6-7.7-7.1-9.4-7.7c0.2,0.4,0.3,0.8,0.4,1.1c1.1,2.7,1.7,5.6,2.1,8.5
				c0.4,3.2,0.2,6.3,0.2,9.5c-0.3,0.7,0.1,1.4-0.2,2.1c0,0.3,0,0.6-0.1,0.9c-0.3,0.5,0,1.2-0.3,1.7c0,0.2,0,0.4-0.1,0.6
				c-0.3,0.4,0,1-0.3,1.4c0,0.2-0.1,0.4-0.1,0.6c-0.1,0.1-0.2,0.3-0.2,0.4c-0.9,4.9-2.3,9.7-3.7,14.5c-0.9,3.1-2,6.2-2.7,9.3
				c-1.2,3.2-2,6.5-2.3,9.9c-0.1,1.1,0,2.2,0.5,3.2c0.3,0.8,0.8,1.3,1.8,1.2c0.7-0.1,1.3,0,2,0c2.6,0,2.8-0.1,3.7-2.6
				c0.1-0.3,0.2-0.5,0.3-0.8C126.8,245.3,127.2,241.5,127.2,237.5z"/>
			<path class="st18" d="M366.4,243.8c0-0.3,0.1-0.6,0-0.8c-0.2-3.8-0.4-7.6-0.7-11.4c-0.3-3-0.7-6.1-1.8-8.9
				c-0.2-0.6-0.4-1.2-1.1-1.6c-0.1,2.8-0.2,5.4-0.4,8.1c-0.2,2.9-0.2,5.8-0.5,8.6c-0.2,2.1-0.5,4.3-0.7,6.4
				c-0.7,3.2-1.3,6.4-2.2,9.5c2.4,0.3,9.2,0.2,10.5-0.2c-1.3-1.9-2-3.9-2.4-6.1C366.8,246.2,366.6,245,366.4,243.8z"/>
			<path class="st18" d="M134.5,246.1c0-0.2-0.1-0.4-0.1-0.6c-0.3-2.3-0.7-4.7-0.9-7c-0.5-4.8-0.6-9.7-0.8-14.6
				c0-0.9-0.1-1.9-0.2-2.9c-0.7,0.3-0.8,0.9-1,1.4c-0.7,1.6-1.1,3.2-1.4,4.9c-1.1,6.2-0.8,12.6-1.6,18.8c-0.5,2.6-1.1,5.2-2.8,7.5
				c3.7,0,7.1,0,10.6,0c-0.5-2.2-1.1-4.4-1.6-6.5C134.6,246.9,134.8,246.5,134.5,246.1z"/>
		</g>
		<path class="st2" d="M267.1,45.7c-0.7-0.9-1.2-1.8-1.2-3c0,0,0,0,0,0c0.6-1.4,1.1-2.9,1.8-4.3c0.7-1.4,1.4-2.8,2-4.2
			c1.1-2.5,1.7-5.1,1.5-7.9c-0.1-1.7-0.4-3.3-1.5-5c-0.7,3.5-2.8,5.7-5.4,7.5c-1.9,1.3-3.8,2.6-5.6,4.2c-0.2,0.2-0.4,0.6-0.8,0.3
			c0.1-1.7,1.2-3,2.3-4.1c0.9-0.9,1.5-1.8,0.8-3.1c-0.4-0.8-0.2-1.8,0-2.6c0.2-0.8,0.5-1.6,0.7-2.4l0,0c0.3-0.5,0.6-1.1,0.8-1.6
			c1.9-4.4,0.5-9.8-3.5-12.9c-0.1,1.4,0,2.8-0.2,4.1c-0.6,3-2.1,5.6-3.9,7.9c-1.6,1.6-3.6,2.8-5.6,3.9c-5.2,2.8-8.6,7.2-10.9,12.5
			l0,0c-0.8,1-1,2.4-1.9,3.8c-0.3-2.3-0.5-4.4-2.3-5.9c-1.1,4.9-1.5,5.9-4.9,9.8c-0.9,1.1-1.9,2.1-2.7,3.1c-2.2,2.7-2.4,5.5-0.5,8.4
			c2.4,3.8,5.3,7.1,8.7,10c0.3,0.3,0.7,0.6,1.2,0.4c1-0.4,2.1-0.3,3.1-0.6c-0.4-0.1-0.8-0.2-1.2-0.5c-2.6-2.4-4.8-5-6.1-8.4
			c-0.9-2.3-0.9-4.6,0-6.9c1.2-3.1,2.5-6.2,2.8-9.6c0.5,0.7,0.8,1.3,1.1,2c0.6,1.4,1.1,2.7,1.5,4.2c0.3,1.1,0.2,1.9-0.7,2.6
			c-1.1,0.9-1.9,2-2.3,3.4c-0.4,1.2-0.5,2.5-0.5,3.7c0,1-0.2,2.2,0.7,3.4c0.1-2.7,0.4-5,2.4-7c0,2.4,0.2,4.5,1.6,6.3
			c0.3-0.8-0.2-1.5-0.1-2.2c0.3-2.7,1-5.2,3-7.2c1.3-1.3,2.7-2.6,4-4c2-1.9,2.8-4.3,3.2-6.9c0.1-0.4,0.1-0.8-0.3-1.4
			c-1.6,4.5-4.3,7.5-8.5,9.2c0.2-2.5,3.7-7.5,7.8-11.3c1.5-1.3,3-2.6,4.4-4c3.4-3.1,5.5-6.8,6.2-11.3c0-0.1,0-0.2,0-0.3
			c0.3-0.3-0.1-0.8,0.4-1c0.4,0.9,0.4,2,0.6,2.9c-0.1,1.5-0.1,3.1-0.5,4.6c-0.7,2.9-2.2,5.4-4.1,7.6c-0.8,0.8-1.5,1.7-2,2.8
			c-0.1,0-0.1,0-0.2-0.1c-2.3,1.8-3.4,5.5-2.4,8.1c0.4,1.1,0.9,2.3,1.2,3.4c0,0.2,0.1,0.3,0.1,0.5c1.2,5.7,0.6,11-3.6,15.5
			c-0.3,0.3-0.6,0.7-0.4,1.2c1.5,0.1,3.1,0.1,4.6,0.2c0.4-0.6,0.9-1,1.4-1.4c4.5-4.7,7.5-10.2,7.5-17c0.4,0.5,0.8,0.8,1.2,1.3
			c2.1,2.7,3,5.5,1.6,8.8c-1.1,2.5-2.8,4.5-4.9,6.2c-0.9,0.7-2,1.2-2.6,2.3c1.4,0.4,2.9,0.3,4.2,1c0.4,0.2,0.7,0,0.9-0.2
			c3.1-2,6-4.4,7.8-7.7c1.2-2.2,1.6-4.5,0.9-6.9C269.1,48.5,268.2,47,267.1,45.7z M267.6,29.7C267.6,29.7,267.6,29.7,267.6,29.7
			C267.4,29.6,267.6,29.6,267.6,29.7z M258.8,40.3c-2.2,1.8-3.5,4-3.8,6.9c-0.1,1.4-0.1,2.7-0.2,4.2c-0.4-1-0.6-1.9-0.9-2.8
			c-1-3.9-0.7-7.6,2.1-10.8c0.2-0.3,0.4-0.6,0.4-0.9c0,0,0,0,0,0c0.3,0.1,0.6-0.1,0.8-0.2c1.9-1.3,4-2.4,6-3.5
			c1.6-0.9,3.3-1.7,4.4-3.4c0,0,0,0,0,0c-1,2.1-2.5,4-4,5.9c-0.5,0.6-1.3,1.2-1.3,2.2c0,0,0,0,0,0C260.7,38.2,259.9,39.4,258.8,40.3
			z"/>
		<path class="st19" d="M247.6,340.3c1.2-0.1,2.4,0.3,3.3,1.2c1.3,1.2,1.3,3,0.1,4.3c-1.7,1.9-5.2,1.8-6.8,0
			c-1.1-1.3-1.1-2.9,0.1-4.2C245.2,340.6,246.3,340.2,247.6,340.3z"/>
		<path class="st20" d="M300.8,341.6c-1,0.1-1.9-0.2-2.7-0.7c-2.2-1.4-2.2-4.1-0.1-5.4c1.7-1.1,3.6-1.1,5.3,0
			c2.1,1.3,2.1,3.9,0.1,5.3C302.6,341.4,301.8,341.7,300.8,341.6z"/>
		<path class="st20" d="M194.5,341.7c-1.2,0-2.2-0.3-3-1.1c-1.5-1.3-1.5-3.3-0.1-4.6c1.7-1.5,4.7-1.6,6.4,0c1.4,1.3,1.4,3.3,0,4.6
			C196.8,341.4,195.7,341.7,194.5,341.7z"/>
		<path class="st17" d="M206.5,68c-8.1-0.9-15.9-0.8-23.7,0c0.5-1.1,0.6-1.2,1.9-1.4c3.6-0.5,7.2-0.6,10.8-0.5
			c2.7,0.1,5.4,0,8.1,0.5C204.5,66.7,205.6,66.7,206.5,68z"/>
		<path class="st17" d="M288.7,68c0.5-1.1,1.3-1.3,2.2-1.4c3.5-0.5,7.1-0.6,10.6-0.5c2.8,0.1,5.5,0,8.3,0.5c0.9,0.2,2,0.1,2.9,1.3
			c-4.2-0.2-8-0.6-11.9-0.6C296.7,67.3,292.8,67.6,288.7,68z"/>
		<path class="st17" d="M235.6,68c0.5-1.2,1.4-1.3,2.2-1.4c3.3-0.5,6.6-0.6,10-0.5c2.9,0,5.9,0,8.8,0.5c0.7,0.1,1.3,0.2,1.9,0.4
			c0.4,0.1,0.7,0.3,0.7,1C251.4,67.1,243.6,67.1,235.6,68z"/>
		<path class="st21" d="M187.1,309.7c1.9,0.5,1.9,0.5,1.9,2.2c0.1,2.9,0.1,5.9,0.2,8.8c0.1,2,0.1,2-1.5,3.7
			C187.3,323.5,186.9,312.8,187.1,309.7z"/>
		<path class="st22" d="M304.3,311.3c0,3.2,0,6.4,0,9.7c-0.8-0.3-1.4-0.5-2.1-0.7c-0.5-0.2-0.7-0.5-0.7-1c0-2.1,0-4.3,0-6.4
			c0-0.5,0.2-0.9,0.7-1C302.9,311.7,303.5,311.2,304.3,311.3z"/>
		<path class="st23" d="M307.7,324.5c-1.5-1.3-1.9-2.5-1.8-4.2c0.2-2.8,0.2-5.5,0.3-8.3c0-1.6,0-1.6,1.9-2.2
			C307.9,314.6,307.8,319.4,307.7,324.5z"/>
		<path class="st24" d="M191.1,321c0-3.3,0-6.5,0-9.6c0.2-0.3,0.4-0.2,0.6-0.1c2.1,0.6,2.1,0.6,2.1,2.8c0,1.6,0,3.2,0,4.8
			c0,0.8-0.1,1.3-1,1.4C192.3,320.5,191.8,320.7,191.1,321z"/>
		<path class="st25" d="M190.2,264.1c1,0.7,1.9,1.3,2.8,1.9c0.4,0.2,0.4,0.6,0.4,1c0,1.9,0,3.8,0,5.9c-1.2-0.3-2-1-2.9-1.5
			c-0.4-0.3-0.4-0.8-0.4-1.2C190.2,268.2,190.2,266.3,190.2,264.1z"/>
		<path class="st26" d="M173.2,146.6c1.7,1.4,3,3.2,4.4,4.8c0.3,0.3,0.2,0.6-0.1,0.9c-1.2,1.1-2.5,2.1-3.9,3.4
			C173,152.4,173.1,149.5,173.2,146.6z"/>
		<path class="st19" d="M301.4,273.4c0-2.3,0-4.3,0-6.2c0-0.4,0.2-0.7,0.6-0.9c0.9-0.6,1.7-1.1,2.6-1.7c0.5,0.3,0.3,0.7,0.3,1.1
			c0,1.4-0.1,2.9,0,4.3c0.1,1.2-0.3,1.9-1.4,2.3C302.9,272.4,302.3,272.8,301.4,273.4z"/>
		<path class="st27" d="M198.1,320.9c-2.6-0.9-2.6-0.9-2.6-3.5c0-1.5,0-3.1,0-4.6c2.9,0.5,2.9,0.5,2.8,3.1c0,1.6,0,3.1-0.1,4.7
			C198.2,320.6,198.2,320.7,198.1,320.9z"/>
		<path class="st20" d="M195.4,267.8c0.2,0,0.3-0.1,0.3-0.1c3.1,1.4,3.1,1.4,3.1,4.8c0,1,0,2,0,3.1c-1.2-0.1-2-0.8-2.9-1.2
			c-0.4-0.2-0.5-0.6-0.5-1c0-0.2,0-0.4,0-0.7C195.4,271.1,195.4,269.5,195.4,267.8z"/>
		<path class="st28" d="M299.6,267.7c0,2.1,0,3.9,0,5.7c0,0.6-0.2,1.1-0.8,1.3c-0.7,0.3-1.4,0.7-2.3,0.9c-0.1-1.9-0.2-3.7-0.3-5.6
			c0-0.5,0.2-0.8,0.7-1C297.7,268.7,298.5,268.3,299.6,267.7z"/>
		<path class="st29" d="M314.6,221.1c1.5-1.3,2.9-2.5,4.6-3.9c0,3,0,5.8-0.4,8.7C317.2,224.3,316,222.7,314.6,221.1z"/>
		<path class="st5" d="M299.9,312.8c0,2.2,0,4.3,0,6.5c0,0.5-0.2,0.8-0.7,1c-0.6,0.2-1.2,0.4-2.1,0.7c0-2.4,0-4.7,0-7
			c0-0.4,0.2-0.6,0.6-0.7C298.4,313.2,299,312.8,299.9,312.8z"/>
		<path class="st30" d="M306.9,269.7c0-2.3,0-4.3,0-6.4c0-0.5,0.1-0.8,0.5-1.2c0.6-0.5,1.2-1,1.7-1.5c0.5,0.3,0.3,0.7,0.3,1
			c0,1.5-0.2,3.1-0.1,4.6C309.4,268.1,308.7,269.1,306.9,269.7z"/>
		<path class="st25" d="M251.7,281.2c0,0.7,0,1.4,0,2.2c0,0.6-0.2,0.8-0.8,0.8c-2.8,0-2.3,0.3-2.5-2.1c0-0.9,0-1.9,0-2.8
			c0-0.5,0.2-0.8,0.8-0.8c2.4-0.3,2.5-0.2,2.5,2.2C251.7,280.8,251.7,281,251.7,281.2C251.7,281.2,251.7,281.2,251.7,281.2z"/>
		<path class="st30" d="M200,314.1c1.7,0.4,1.7,0.4,1.7,1.9c0,2.3-0.1,4.5-0.1,6.8c0,0.5,0.1,1-0.3,1.5c-1-1.1-1.8-2.1-1.6-3.7
			C199.9,318.5,199.8,316.3,200,314.1z"/>
		<path class="st31" d="M293.6,324.3c0-1.3-0.1-2.6-0.1-3.9c-0.1-1.4-0.1-2.8-0.2-4.1c0-1.8,0-1.8,1.9-2.1c0.1,2.6,0.2,5.2,0.2,7.7
			c0,1.1-1,1.6-1.3,2.5C293.9,324.4,293.7,324.4,293.6,324.3z"/>
		<path class="st32" d="M187.9,269.6c-0.5-0.3-0.8-0.6-1.2-0.8c-0.8-0.5-1.1-1.1-1.1-2c0.1-2.1,0-4.2,0-6.3c1.2,0.8,2.3,1.5,2.2,3.3
			C187.9,265.6,187.9,267.5,187.9,269.6z"/>
		<path class="st33" d="M240.6,329.8c-0.1-3-0.2-5.9-0.3-8.9c0-1.1,0.3-1.3,1.4-1.1c0.4,0.1,0.6,0.3,0.6,0.7c0,2.4,0.2,4.7,0.1,7.1
			C242.4,328.5,241.4,329.1,240.6,329.8z"/>
		<path class="st34" d="M254.2,329.5c-1-1-1.8-2-1.6-3.7c0.2-1.7,0.2-3.4,0.2-5.1c0-0.7,0.2-1,1-1c0.8,0,0.9,0.4,0.9,1
			c-0.1,2.8-0.1,5.5-0.2,8.3C254.5,329.2,254.5,329.4,254.2,329.5z"/>
		<path class="st35" d="M243.6,281.2c0-0.3,0-0.5,0-0.8c0-2,0.5-2.4,2.5-2c0.3,0.1,0.5,0.2,0.5,0.5c0,1.5,0,3.1,0,4.6
			c0,0.4-0.2,0.5-0.6,0.6c-2,0.3-2.4,0-2.4-2C243.6,281.8,243.6,281.5,243.6,281.2C243.6,281.2,243.6,281.2,243.6,281.2z"/>
		<path class="st36" d="M244.1,326.5c0-2,0-3.8,0-5.5c0-0.8,0.3-1.1,1.1-1.1c0.3,0,0.7,0,1,0c0.5,0,0.8,0.3,0.8,0.8
			c0,1.4,0,2.8,0,4.1c0,0.4-0.1,0.7-0.6,0.9C245.7,325.9,245.1,326.1,244.1,326.5z"/>
		<path class="st37" d="M251.3,326.2c-0.3,0.1-0.4,0.1-0.4,0.1c-2.3-0.8-2.3-0.8-2.3-3.3c0-0.6,0-1.2,0-1.8c0-1.3,0-1.3,1.4-1.4
			c1.3,0,1.3,0,1.3,1.4C251.3,322.9,251.3,324.6,251.3,326.2z"/>
		<path class="st31" d="M200.7,270.6c0.8-0.2,1.2,0.3,1.7,0.4c0.4,0.1,0.6,0.4,0.6,0.9c-0.1,1.8-0.1,3.6-0.1,5.5
			c-0.7,0-1.2-0.3-1.7-0.5c-0.4-0.1-0.5-0.4-0.5-0.7C200.7,274.3,200.7,272.4,200.7,270.6z"/>
		<path class="st38" d="M255.8,280.9c0,0.7,0,1.3,0,2c-0.1,1.2-0.2,1.3-1.4,1.2c-0.4,0-0.7-0.1-0.7-0.7c0-1.5,0-3,0-4.5
			c0-1.1,0.9-0.8,1.5-0.8c0.8-0.1,0.7,0.4,0.7,1C255.9,279.7,255.9,280.3,255.8,280.9C255.9,280.9,255.9,280.9,255.8,280.9z"/>
		<path class="st21" d="M292.2,277.7c-0.1-2-0.2-3.7-0.3-5.4c0-0.6,0.2-1,0.8-1.2c0.4-0.1,0.8-0.4,1.4-0.4c0,1.8,0.1,3.7,0.1,5.5
			C294.2,277.3,293.1,277.1,292.2,277.7z"/>
		<path class="st39" d="M241.4,281.2c0,0.6,0,1.1,0,1.7c0,1.2-0.1,1.3-1.3,1.2c-0.6,0-0.8-0.3-0.8-0.8c0-1.4-0.1-2.9-0.1-4.3
			c0-0.5,0.1-0.9,0.7-0.8c0.6,0.1,1.5-0.3,1.5,0.8C241.3,279.7,241.3,280.5,241.4,281.2C241.3,281.2,241.4,281.2,241.4,281.2z"/>
		<path class="st40" d="M143.8,216.2c0.5-0.8,1.2-1,2.1-0.6c0.3,0.1,0.6,0.2,0.9,0.3C145.9,216.4,144.9,216.3,143.8,216.2z"/>
		<path class="st41" d="M210.3,204.3c-1.5-0.2-1.5-0.2-1.6-2C209.3,202.9,209.9,203.5,210.3,204.3z"/>
		<path class="st40" d="M148.2,215.9c0.3-0.5,0.6-0.7,1.2-0.5c0.4,0.1,0.8,0.2,1.2,0.3C149.8,216,149,215.9,148.2,215.9z"/>
		<path class="st40" d="M127.5,206.5c0.1,0.7,0.3,1.5-0.2,2.1C127.2,207.9,127.2,207.2,127.5,206.5z"/>
		<path class="st42" d="M281.2,167.4c0.9-0.1,1.2,0.3,1,1.1C281.7,168.2,281.4,167.8,281.2,167.4z"/>
		<path class="st40" d="M151.5,215.6c0.2-0.4,0.5-0.7,1-0.7C152.6,215.9,152,215.6,151.5,215.6z"/>
		<path class="st40" d="M127.2,209.5c0.1,0.6,0.2,1.2-0.3,1.7C126.8,210.7,126.9,210.1,127.2,209.5z"/>
		<path class="st42" d="M283.3,101.8c-0.6,0-1.2,0.2-1.7-0.2C282.2,101.5,282.7,101.5,283.3,101.8z"/>
		<path class="st40" d="M126.8,211.9c0.1,0.5,0.2,1-0.3,1.4C126.5,212.8,126.5,212.3,126.8,211.9z"/>
		<path class="st43" d="M134.8,247.2c-0.4-0.3-0.4-0.6-0.3-1C134.8,246.4,134.9,246.8,134.8,247.2z"/>
		<path class="st44" d="M371,223.2c-0.4-0.3-0.4-0.6-0.3-1C371,222.5,371.1,222.8,371,223.2z"/>
		<path class="st1" d="M308.5,294.2c0,3-1.2,5.1-3.6,6.4c-1.4,0.7-2.8,1.2-4.4,1.2c-1.3,0-2.4-0.4-3.4-1.2c-2.7-2-4.5-7-3.6-10.3
			c0.8-3.1,3.2-4.6,6.1-5.2c2.9-0.6,5.2,0.5,6.8,2.9C307.7,290,308.3,292.2,308.5,294.2z"/>
		<path class="st1" d="M331.4,257.5c0-2.6,0.8-4.4,2.1-6c1.7-2,4-2.4,6.5-1.9c2.1,0.4,4.1,1.4,5.7,2.9c2.1,2,2.7,4.5,1.8,7.3
			c-0.9,2.8-2.6,4.8-5.7,5.3c-3.2,0.4-8.2-2.1-9.7-5C331.7,259.1,331.4,258.1,331.4,257.5z"/>
		<path class="st1" d="M353,237.2c-0.2,1.2-0.5,2.3-0.6,3.4c-0.1,0.6-0.5,0.6-0.9,0.7c-2.1,0.5-4.2,1-6.3,1.7
			c0.7,0.7,1.7,0.5,2.5,0.8c0.6,0.2,1.3,0.2,1.9,0.4c0.6,0.1,1.5-0.2,1.8,0.4c0.3,0.5-0.2,1.3-0.3,1.9c-0.1,0.4,0,0.9-0.3,1.4
			c-5-1.3-10.2-2.2-15.4-3c0.3-2,0.6-4,1-5.9c0.5-2,1.6-3,3.4-3c2.2,0,4.2,1,4.5,2.8c0.2,1,0.7,0.8,1.3,0.6
			C348.1,238.7,350.5,238,353,237.2z"/>
		<path class="st1" d="M155.9,274.1c-0.7-1.1-1.2-2.1-1.9-3c-0.4-0.5,0-0.8,0.2-1.2c1.3-1.7,2.4-3.5,3.6-5.7
			c-2.2,1.1-3.9,2.3-5.8,3.5c-0.6-1-1.2-1.9-1.8-3c4.6-2.5,9.1-5.1,13.6-8.2c1,2.1,2.5,3.7,3.4,5.7c0.7,1.6,0.3,3-1.1,4.1
			c-2,1.6-3.5,1.7-5.8,0.3C158.7,269.1,157.4,271.5,155.9,274.1z"/>
		<path class="st1" d="M307.1,281.6c1.7-0.9,3.1-2.1,4.7-3c3.1-1.8,6.4,0.1,6.5,3.7c0,0.9-0.4,1.7-1,2.5c2.4,1.7,4.9,3,7.5,4.4
			c-1,0.7-2,1.3-2.9,1.9c-0.5,0.4-0.8,0-1.2-0.2c-1.7-1.2-3.5-2.3-5.5-3.2c0.9,1.9,2.1,3.6,3.3,5.4c-1,0.6-1.9,1.2-2.9,1.9
			C313,290.5,310.3,286,307.1,281.6z"/>
		<path class="st1" d="M221.7,298.6c-0.3,3.3-0.7,6.5-1,9.7c-0.7-0.1-1.3-0.2-2-0.3c0.8-5.1,1.3-10.3,1.7-15.4
			c0.1-0.1,0.2-0.2,0.3-0.2c2.3,0.1,2.3,0.1,3.3,2.1c1.5,2.8,3,5.6,4.9,8.6c0.6-3.3,0.7-6.5,1-9.5c0.1-0.1,0.2-0.2,0.3-0.2
			c1.9,0.1,1.9,0.1,1.6,1.9c-0.6,4.3-1.1,8.6-1.4,12.9c0,0.3,0,0.7-0.1,0.9c-0.2,0.1-0.3,0.1-0.4,0.1c-1.7,0.1-2.5-0.9-3.2-2.3
			c-1.3-2.6-2.8-5-4.2-7.5C222.4,299.2,222.3,298.8,221.7,298.6z"/>
		<path class="st1" d="M259.1,309.8c0.5-2,1-3.8,1.4-5.6c0.8-3.3,1.5-6.6,2.2-9.9c0.2-0.9,1.1-1.5,2-1.2c0.5,0.1,0.5,0.7,0.7,1.1
			c1.3,3.1,2.5,6.3,3.8,9.4c0.6,1.5,1.3,2.9,1.9,4.4c0.3,0.6,0.2,0.9-0.6,1c-3,0.4-3,0.4-3.9-2.4c-0.6-1.6-0.6-1.6-2.3-1.5
			c-0.3,0-0.6,0-0.8,0c-1.3,0.1-1.3,0.1-1.6,1.4c-0.1,0.4-0.2,0.9-0.3,1.3C261.3,309.6,261.3,309.6,259.1,309.8z"/>
		<path class="st1" d="M196,286.3c-0.6,0.8-1.3,1.6-2.2,2.7c-0.1-0.8-0.1-1.3-0.1-1.7c-0.1-1.1-0.8-1.8-1.9-2.1
			c-1.2-0.3-2.2,0.6-2.2,1.8c0,0.8,0.4,1.4,0.8,2c0.5,0.8,1.1,1.6,1.7,2.5c1.2,1.8,0.7,3.6-0.3,5.3c-1,1.6-2.5,2.4-4.5,2.3
			c-1.8-0.2-3.3-1-4.5-2.2c-0.2-0.2-0.5-0.5-0.3-0.8c0.7-1,1.2-2.1,2.3-3.2c0,1-0.1,1.7,0,2.4c0.2,1.2,1.2,2,2.5,2
			c1.1,0,1.8-0.7,2-1.8c0.1-0.8-0.3-1.4-0.6-2c-0.6-0.9-1.2-1.8-1.8-2.8c-0.7-1.2-0.8-2.5-0.2-3.8c1.2-3,3.8-4.1,6.7-2.8
			C194.4,284.5,195.4,285.1,196,286.3z"/>
		<path class="st1" d="M177.3,274.4c0.9,0.9,2.3,1.2,2.7,2.1c0.4,1-0.6,2.1-0.9,3.2c-0.6,2.3-1.3,4.5-2.1,7.2
			c2.6-2.2,4.9-4.1,7.2-6.1c1.1-0.9,1-1,2.3-0.2c0.2,0.2,0.5,0.2,0.6,0.6c-2.6,2-5.3,4.1-7.9,6.1c-1.5,1.2-3.1,2.3-4.5,3.7
			c-0.4,0.4-0.8,0.4-1.1,0c-0.4-0.5-1.4-0.4-1.1-1.4c1.7-5,2.9-10.1,4.5-15.1C177,274.5,177.1,274.5,177.3,274.4z"/>
		<path class="st45" d="M205.2,289.2c0.9,0.2,1.8,0.5,2.6,0.5c0.9,0.1,1.1,0.5,1.1,1.3c0.1,3.1,0.5,6.3,0.8,9.5
			c0.7-0.7,0.9-1.4,1.3-2c1.2-2.1,2.3-4.3,3.4-6.5c0.3-0.6,0.5-0.9,1.2-0.6c0.5,0.2,1,0.1,1.4,0.5c-2.2,3.4-4.1,6.9-6.2,10.4
			c-0.6,1.1-1.2,2.1-1.7,3.2c-0.3,0.6-0.7,0.7-1.2,0.4c-0.5-0.2-1.3,0.1-1.4-1c-0.4-5.1-1-10.2-1.5-15.3
			C205.1,289.5,205.2,289.4,205.2,289.2z"/>
		<path class="st1" d="M158,235.5c0.2,1.1,0.4,2,0.6,2.9c0.2,0.7,0,0.9-0.6,1.2c-2.5,1.3-5,2.6-7.5,3.9c-0.3,0.2-0.8,0.2-0.9,0.8
			c1.4,0.2,2.8,0.2,4.2,0.4c1.7,0.2,3.5,0.3,5.3,0.4c0.7,0,1,0.2,1,0.9c0,0.4,0.2,0.8,0.3,1.3c-0.8,0.4-1.5-0.1-2.3-0.2
			c-4.5-0.5-9-1.2-13.5-1.5c-1-0.1-0.8-0.7-0.9-1.2c-0.2-0.5-0.4-1,0.3-1.4C148.7,240.6,153.3,238.1,158,235.5z"/>
		<path class="st1" d="M288.4,289.4c0.3,0.8,0.5,1.4,0.4,2.2c-1,0.2-2,0.4-3,0.5c-0.8,0.1-1.1,0.4-0.9,1.2c0.2,0.8,0.4,1.6,0.5,2.4
			c0.1,0.9,0.6,0.9,1.3,0.7c0.9-0.3,1.9-0.5,2.9-0.8c0.2,0.8,0.3,1.5,0.5,2.2c-1,0.2-1.9,0.3-2.8,0.5c-1.2,0.2-1.2,0.2-0.9,1.4
			c0.4,2,0.9,4,1.3,6c-1.1,0.2-2.2,0.5-3.5,0.7c-0.9-5.1-1.9-10.3-3.4-15.5C283.4,290.5,285.9,290.2,288.4,289.4z"/>
		<path class="st46" d="M168,267.9c0.5-0.6,1-1.1,1.6-1.8c2.3,2.7,4.6,5.1,7.1,7.4c-0.6,0.5-1.1,1-1.7,1.6c-0.4-0.5-0.9-1-1.3-1.5
			c-0.9-1.1-0.9-1.1-1.9-0.2c-2.7,2.6-5.5,5.2-8,8c-0.3,0.3-0.5,0.6-0.9,0.7c-0.8-0.8-1.6-1.6-2.5-2.5c0.1-0.5,0.5-0.7,0.9-0.9
			c2.8-2.4,5.4-5.1,8.1-7.7c1-1,1.2-0.8-0.1-2C168.9,268.7,168.4,268.3,168,267.9z"/>
		<path class="st46" d="M323.9,268.2c0.6,0.6,1.1,1.1,1.7,1.6c-0.8,0.6-1.6,1.3-2.5,2.1c3.1,3.4,6.3,6.7,9.7,9.9
			c-1,0.8-1.8,1.6-2.7,2.6c-3-3.5-6.2-6.8-9.5-10c-0.9,0.7-1.5,1.6-2.2,2.3c-0.5-0.5-1-1-1.6-1.7C319.3,273,321.8,270.7,323.9,268.2
			z"/>
		<path class="st1" d="M246.1,296.4c0-2.4,0-2.4,2.1-2.2c2.2,0.2,4.4,0.1,6.6,0c1.5-0.1,1.5-0.1,1.5,1.5c0,0.2,0,0.4,0,0.7
			c-0.7,0.2-1.3,0-2,0c-1.4,0-1.4,0-1.4,1.3c0,3.9-0.1,7.8,0.1,11.8c0,0.2,0,0.3,0,0.6c-1.2,0-2.4,0-3.7,0c0.1-0.9,0.1-1.8,0.1-2.6
			c0-3.3,0-6.5,0-9.8c0-1.2,0-1.2-1.3-1.2c-0.3,0-0.7,0-1,0.1C246.9,296.4,246.6,296.4,246.1,296.4z"/>
		<path class="st47" d="M241.1,294.1c-0.2,3.7-0.5,7.1-0.5,10.6c0,1.5,0,3,0,4.5c0,0.7-0.2,0.9-0.9,0.8c-0.4-0.1-0.8-0.1-1.2-0.1
			c-1.7,0-1.7,0-1.6-1.8c0.3-4.4,0.4-8.7,0.4-13.1c0-0.8,0.3-1,1-1C239.2,294.2,240,294.1,241.1,294.1z"/>
		<path class="st46" d="M325.7,265.7c0.8-0.9,1.5-1.9,2.2-3c4.2,3.3,8.4,6.4,12.9,9.4c-0.8,0.9-1.5,1.8-2.1,3
			C334.4,271.7,330.2,268.6,325.7,265.7z"/>
		<path class="st46" d="M161.1,249.6c0.5,1.2,0.7,2.3,1.4,3.4c-5,1.7-9.9,3.5-14.8,5.7c-0.5-1.2-0.9-2.2-1.4-3.4
			C151.3,253.6,156.2,251.8,161.1,249.6z"/>
		<path class="st48" d="M250.2,167.8c0.4-1.5,0.4-2.7,0.5-3.8c0-0.6,0.1-1.1,0.1-1.7c0.1-0.7,0.3-1.3,1.2-1.4c0.8,0,1,0.5,1.2,1.1
			c0.4,1.5,0.7,3,0.8,4.6c0.1,1.2,0.3,2.5,0.6,3.7c0.5-1.7,0.9-3.4,1.4-5.1c0.2-0.8,0.3-1.7,1.4-1.8c0.8,0,1.2,0.6,1.2,2
			c0.1,1.3,0,2.7-0.1,4c-0.1,0.6-0.2,1.2,0,2c0.5-1.1,1-2,1.5-2.9c0.2-0.4,0.5-0.9,0.8-1.3c0.7-0.7,1.7-0.4,1.9,0.6
			c0.1,0.9,0.1,1.8-0.1,2.6c-0.3,1.5-0.7,3-1.1,4.8c0.8-0.9,1.3-1.7,1.9-2.4c0.3-0.4,0.7-0.8,1.1-1c0.7-0.5,1.5-0.1,1.6,0.7
			c0.1,0.7-0.1,1.4-0.3,2.1c-0.6,1.8-1.4,3.5-2.2,5.3c0.7-0.5,1.3-1,2-1.6c0.4-0.3,0.8-0.6,1.2-0.8c0.9-0.4,1.5,0.1,1.6,1.1
			c0,0.7-0.2,1.3-0.6,1.9c-0.8,1.4-1.8,2.5-2.8,3.9c0.8,0,1.4-0.4,2-0.6c0.7-0.2,1.3-0.4,1.8,0.2c0.6,0.7,0.1,1.4-0.3,1.9
			c-2.2,2.9-5.1,4.7-8.6,5.6c-1.6,0.4-3.2,0.4-4.8,0.5c-0.5,0-1.1-0.2-1.6,0.4c1.3,1.5,2.7,2.9,4,4.4c1.8,2,3.6,3.9,5.4,5.9
			c1.2,1.3,1.2,1.6-0.3,2.7c-0.2,0.1-0.3,0.3-0.5,0.5c-0.9,0.8-1.3,0.8-2.1-0.1c-0.9-1-1.7-2.1-2.5-3.1c-2-2.5-4-5-6.1-7.5
			c-0.2-0.2-0.4-0.6-0.8-0.6c-0.3,0.5-0.3,1.1-0.5,1.7c-0.9,5-3.3,9-7.6,11.8c-0.7,0.4-1.4,1.1-2.2,0.4c-0.9-0.8-0.2-1.5,0.2-2.2
			c0.2-0.4,0.6-0.8,0.6-1.4c-1.2,0.6-2.3,1.2-3.4,1.8c-0.7,0.4-1.5,0.6-2.4,0.6c-0.5,0-1-0.2-1.2-0.7c-0.2-0.5,0-1,0.3-1.4
			c0.8-0.9,1.6-1.7,2.3-2.6c-0.4,0-0.9,0.2-1.4,0.4c-1.4,0.5-2.8,0.8-4.2,1c-0.4,0.1-0.9,0.1-1.3,0.1c-0.6-0.1-1.1-0.3-1.2-0.9
			c-0.1-0.6,0.2-1,0.6-1.3c0.6-0.4,1.2-0.8,1.8-1.2c0.4-0.2,0.7-0.4,1-0.9c-0.9,0.1-1.8,0.1-2.7,0.2c-1.2,0.1-2.3,0.2-3.5-0.1
			c-0.7-0.1-1.4-0.3-1.5-1.1c-0.1-0.8,0.5-1.1,1.2-1.3c1.2-0.4,2.3-0.8,3.6-1.2c-0.9-0.5-1.7-0.4-2.5-0.4c-1.3,0-2.5-0.3-3.8-0.6
			c-0.7-0.2-1.3-0.4-1.3-1.3c0.1-0.8,0.7-1.1,1.4-1.1c1.8-0.2,3.5-0.4,5.3-0.6c0.2,0,0.4-0.1,0.9-0.2c-2.1-0.6-3.9-1-5.7-1.5
			c-1-0.3-1.9-0.7-2.8-1c-0.6-0.2-0.9-0.6-0.8-1.3c0.1-0.7,0.7-1,1.3-1c1.1,0.1,2.2,0.2,3.3,0.3c0.6,0,1.2,0,2,0
			c-0.6-0.6-1.3-0.7-1.9-1c-1.4-0.6-2.9-1.2-4.2-2c-0.6-0.4-1.1-0.8-0.7-1.6c0.3-0.7,0.9-0.8,1.5-0.6c1.8,0.4,3.5,0.7,5.4,0.9
			c-1.2-0.7-2.4-1.4-3.5-2.1c-0.8-0.5-1.6-1-2.3-1.6c-0.5-0.3-0.6-0.8-0.4-1.3c0.3-0.6,0.8-0.8,1.4-0.6c1.4,0.4,2.7,0.9,4.1,1.3
			c0.5,0.2,1,0.5,1.8,0.5c-1.4-1.1-2.7-2.1-3.9-3.1c-0.5-0.4-1-0.9-1.5-1.3c-0.4-0.4-0.6-0.8-0.3-1.3c0.3-0.6,0.9-0.7,1.4-0.5
			c0.4,0.1,0.7,0.2,1.1,0.4c1.1,0.5,2.2,1.1,3.3,1.6c0.3,0.1,0.5,0.4,1,0.2c-1.1-1.2-2.2-2.3-3.2-3.4c-0.4-0.4-0.7-0.8-1-1.3
			c-0.3-0.5-0.3-1,0.1-1.4c0.4-0.4,0.8-0.5,1.3-0.2c0.7,0.4,1.4,0.8,2.1,1.3c1.3,0.9,2.5,1.8,3.9,2.8c0-0.6-0.4-0.9-0.6-1.2
			c-0.9-1.4-1.9-2.7-2.8-4.1c-0.2-0.3-0.4-0.7-0.5-1c-0.2-0.5-0.2-1,0.3-1.4c0.5-0.4,1-0.3,1.5,0c0.8,0.6,1.6,1.2,2.3,1.9
			c0.9,0.9,1.7,1.9,2.7,2.9c0.5-0.7,0-1.1-0.1-1.4c-0.8-1.6-1.6-3.1-2.3-4.8c-0.3-0.7-0.3-1.3,0.4-1.7c0.7-0.4,1.1,0.1,1.6,0.5
			c1,1,1.8,2.2,2.7,3.4c0.4,0.5,0.7,1,1.3,1.7c0-1.2-0.5-2-0.8-2.8c-0.3-1.1-0.7-2.1-0.9-3.2c-0.1-0.6,0-1.1,0.7-1.4
			c0.6-0.2,1.1,0,1.4,0.5c0.8,1.4,1.6,2.8,2.5,4.1c0.3,0.6,0.5,1.2,1.2,1.8c-0.3-1.7-0.6-3.2-0.9-4.8c-0.1-0.6-0.1-1.2-0.1-1.8
			c0-0.5,0.4-0.8,0.9-0.9c0.4-0.1,0.8,0.1,1,0.4c0.3,0.5,0.6,0.9,0.8,1.5c0.7,1.7,1.4,3.4,2.2,5.4c0.2-1.4-0.1-2.5-0.2-3.6
			c0-0.6,0-1.2,0-1.8c0-1.2,0.3-1.8,1-1.8c0.9,0,1.2,0.7,1.4,1.4c0.3,1,0.6,2,0.9,3C249.6,165.3,249.8,166.4,250.2,167.8z"/>
		<path class="st48" d="M270.8,218.4c-1.1-1.6-2.2-3.2-3.3-4.8c-0.3-0.5-0.6-1-0.8-1.4c-0.3-0.5,0-1,0.4-1.3c0.4-0.3,0.8-0.3,1.2,0
			c0.5,0.4,1.1,0.8,1.6,1.2c1.3,1.2,2.5,2.3,3.8,3.5c0.3-0.5-0.1-0.9-0.3-1.2c-0.7-1.4-1.4-2.8-2-4.2c-0.1-0.3-0.3-0.6-0.4-0.9
			c-0.2-0.6-0.1-1.1,0.5-1.4c0.5-0.3,1-0.1,1.3,0.2c0.5,0.5,1,1,1.4,1.6c0.9,1.2,1.8,2.4,2.9,3.7c-0.1-1.1-0.5-1.9-0.8-2.7
			c-0.3-1.1-0.7-2.2-0.9-3.4c-0.1-0.6,0.1-1.1,0.7-1.4c0.6-0.2,1.1,0,1.4,0.5c0.8,1.3,1.6,2.7,2.4,4c0.3,0.5,0.4,1,1,1.4
			c0.1-1.2-0.4-2.3-0.5-3.5c-0.1-0.8-0.2-1.5-0.2-2.3c0-0.6,0.3-0.9,0.9-1.1c0.5-0.1,0.9,0.1,1.1,0.5c0.4,0.7,0.7,1.4,1,2.1
			c0.6,1.5,1.2,3.1,2,4.6c-0.1-1.5-0.2-2.9-0.3-4.4c0-0.4,0-0.8,0-1.2c0-0.7,0.1-1.4,0.9-1.5c0.9-0.1,1.2,0.5,1.4,1.1
			c0.3,0.8,0.5,1.6,0.7,2.4c0.4,1.4,0.7,2.9,1.3,4.3c0.1-1.5,0.2-2.9,0.4-4.4c0-0.4,0-0.8,0.1-1.2c0.1-0.6,0.3-1.1,1-1.2
			c0.7-0.1,1.1,0.3,1.3,1c0.6,1.9,0.8,3.9,1,5.9c0.1,0.8,0,1.5,0.4,2.5c0.6-1.4,0.8-2.8,1.2-4c0.2-0.6,0.4-1.3,0.6-1.9
			c0.2-0.6,0.7-0.9,1.3-0.8c0.6,0.1,0.8,0.5,0.9,1c0.2,1.2,0.2,2.4,0.1,3.6c-0.1,0.9-0.1,1.8-0.2,2.9c0.7-0.4,0.7-1,1-1.4
			c0.4-0.7,0.7-1.4,1.1-2.1c0.3-0.5,0.7-0.9,1.4-0.7c0.6,0.2,0.9,0.7,0.9,1.3c0.1,1.2-0.2,2.4-0.4,3.6c-0.2,1-0.5,2-0.6,3.2
			c0.5-0.6,0.9-1.1,1.4-1.7c0.4-0.5,0.8-1.1,1.4-1.4c0.7-0.4,1.5-0.1,1.6,0.7c0.1,0.6,0,1.2-0.2,1.8c-0.5,1.9-1.5,3.7-2.2,5.6
			c0.7-0.5,1.3-1,2-1.5c0.4-0.3,0.8-0.6,1.2-0.8c0.8-0.3,1.5,0.2,1.6,1.1c0,0.8-0.4,1.5-0.7,2.2c-0.7,1.2-1.7,2.3-2.7,3.5
			c0.9,0,1.5-0.4,2.1-0.6c0.7-0.2,1.3-0.3,1.8,0.3c0.4,0.6,0.1,1.2-0.3,1.7c-2.1,2.9-4.9,4.7-8.4,5.6c-1.9,0.5-3.9,0.7-5.9,0.7
			c-0.3,0-0.6-0.1-0.8,0.3c0.7,0.8,1.5,1.7,2.3,2.5c2.3,2.6,4.7,5.2,7,7.7c0.3,0.3,0.5,0.6,0.7,0.9c0.2,0.3,0.3,0.8,0,1.1
			c-0.6,0.6-1.3,1.2-2,1.7c-0.4,0.2-0.9,0.2-1.2-0.2c-0.3-0.3-0.6-0.7-0.9-1c-2.4-3-4.9-6-7.3-9.1c-0.4-0.5-0.7-1.1-1.3-1.5
			c-0.5,0.4-0.4,0.9-0.5,1.4c-0.8,4.7-2.8,8.6-6.7,11.5c-0.4,0.3-0.9,0.6-1.4,0.9c-0.6,0.4-1.3,0.8-2,0.1c-0.6-0.6-0.3-1.2,0.1-1.8
			c0.3-0.5,0.6-1.1,1-1.9c-1.2,0.6-2,1.1-2.8,1.5c-0.9,0.5-1.8,0.9-2.8,1c-0.6,0-1.3,0-1.6-0.6c-0.3-0.6,0-1.2,0.5-1.6
			c0.8-0.8,1.6-1.5,2.6-2.5c-2.1,0.5-3.7,1.2-5.5,1.5c-0.6,0.1-1.2,0.1-1.8,0.1c-0.5,0-1-0.2-1.2-0.7c-0.2-0.6,0-1.1,0.5-1.4
			c1-0.6,2-1.2,3.2-2c-0.8-0.2-1.4-0.1-2,0c-1.2,0.2-2.4,0.2-3.6,0.2c-0.4,0-0.9-0.1-1.3-0.2c-0.5-0.1-0.9-0.4-1-1
			c-0.1-0.7,0.3-1,0.9-1.2c0.8-0.3,1.6-0.5,2.4-0.8c0.5-0.2,1.1-0.2,1.6-0.6c-1.9-0.4-3.7-0.3-5.5-0.7c-0.3-0.1-0.6-0.1-1-0.2
			c-0.6-0.2-1.1-0.5-1.1-1.3c0.1-0.8,0.7-1,1.3-1.1c1.4-0.2,2.8-0.3,4.1-0.4c0.6-0.1,1.2,0,1.9-0.4c-1.7-0.4-3.2-0.8-4.7-1.3
			c-1.1-0.3-2.1-0.7-3.1-1.1c-0.7-0.3-1.4-0.6-1.2-1.5c0.2-0.7,0.7-1,1.7-0.9c1.6,0.1,3.2,0.3,4.8,0.5c0.2,0,0.4,0,1,0
			c-1.9-0.8-3.6-1.5-5.2-2.2c-0.7-0.3-1.4-0.7-2.1-1.1c-0.5-0.3-0.9-0.7-0.6-1.4c0.2-0.6,0.8-0.8,1.3-0.7c1.5,0.3,2.9,0.6,4.4,0.9
			c0.4,0.1,0.7,0.2,1.3,0.1c-1.3-0.7-2.4-1.4-3.5-2c-0.7-0.4-1.4-0.9-2.1-1.4c-0.5-0.4-1.2-0.8-0.8-1.6c0.4-0.9,1.2-0.7,1.9-0.5
			c1.3,0.4,2.6,0.9,3.9,1.3c0.4,0.1,0.7,0.4,1.3,0.2c-1-0.8-1.9-1.5-2.8-2.2c-0.8-0.6-1.5-1.3-2.3-1.9c-0.4-0.4-0.7-0.9-0.3-1.5
			c0.4-0.6,1-0.7,1.6-0.4c1.4,0.6,2.7,1.3,4,1.9c0.4,0.2,0.8,0.6,1.4,0.5c-1.1-1.2-2.2-2.2-3.3-3.4c-0.5-0.5-0.9-1.1-1.3-1.7
			c-0.3-0.4-0.2-0.9,0.1-1.2c0.3-0.3,0.7-0.5,1.2-0.3c0.4,0.2,0.9,0.4,1.3,0.7c1.6,1.1,3.2,2.2,4.8,3.3
			C270.7,218.5,270.8,218.4,270.8,218.4z"/>
		<path class="st48" d="M203.4,121.4c-0.3-1.5-0.5-3-0.8-4.6c-0.1-0.4-0.1-0.8-0.2-1.2c0-0.6,0.3-1.1,0.9-1.2c0.5-0.1,1,0.1,1.2,0.6
			c0.4,0.9,0.9,1.8,1.2,2.7c0.5,1.1,0.9,2.2,1.6,3.4c-0.1-1-0.1-2.1-0.2-3.1c0-0.8-0.1-1.5-0.1-2.3c0-0.6,0.3-1.1,0.9-1.2
			c0.7-0.1,1,0.3,1.3,0.8c0.8,1.9,1.2,3.9,1.7,5.9c0.1,0.4,0.1,0.8,0.5,1.2c0.1-1.7,0.3-3.3,0.4-4.9c0-0.3,0.1-0.6,0.1-0.8
			c0.1-0.6,0.4-1.1,1-1.1c0.6,0,1,0.4,1.2,1c0.4,1.3,0.6,2.6,0.8,3.9c0.2,1.5,0.3,3.1,0.5,4.8c0.7-1.3,0.8-2.7,1.2-3.9
			c0.3-0.7,0.4-1.5,0.7-2.2c0.2-0.6,0.5-1,1.2-1c0.7,0.1,1.1,0.6,1.1,1.3c0.2,1.8,0.1,3.5-0.1,5.3c0,0.4-0.1,0.9-0.2,1.6
			c0.8-1.1,1.1-2.1,1.6-3c0.2-0.3,0.4-0.7,0.6-1c0.3-0.5,0.7-0.8,1.4-0.7c0.7,0.2,0.8,0.7,0.8,1.3c0.1,1.5-0.2,3-0.6,4.4
			c-0.2,0.7-0.3,1.4-0.3,2.2c0.4-0.5,0.9-1.1,1.3-1.6c0.3-0.4,0.7-0.7,1-1.1c0.4-0.4,0.8-0.6,1.3-0.3c0.6,0.3,0.8,0.8,0.7,1.4
			c-0.2,1.4-0.7,2.8-1.3,4.1c-0.4,0.8-0.8,1.7-1,2.6c0.8-0.6,1.6-1.3,2.4-1.9c0.5-0.4,1.1-0.8,1.8-0.3c0.7,0.5,0.6,1.2,0.3,2
			c-0.4,1.1-1,2-1.7,2.8c-0.4,0.6-0.9,1.1-1.4,1.7c0.7,0.3,1.2-0.1,1.7-0.3c0.8-0.3,1.5-0.5,2.1,0.3c0.5,0.8-0.1,1.4-0.5,1.9
			c-2.2,3-5.2,4.7-8.8,5.5c-1.4,0.3-2.8,0.4-4.3,0.4c-0.5,0-1.1-0.1-1.6,0.1c-0.2,0.5,0.2,0.7,0.5,1c2.8,3.1,5.6,6.2,8.4,9.2
			c0.2,0.2,0.4,0.4,0.6,0.6c0.1,0.2,0.3,0.3,0.4,0.5c0.4,0.7,0.3,1.4-0.5,1.7c-0.9,0.4-1.3,2.2-2.7,1c-0.3-0.3-0.6-0.7-0.9-1
			c-2.5-3.1-5-6.2-7.5-9.3c-0.3-0.4-0.6-0.9-1.3-1.2c-0.2,0.8-0.3,1.5-0.4,2.1c-0.9,4.7-3.2,8.6-7.3,11.2c-0.3,0.2-0.7,0.4-1,0.6
			c-0.5,0.3-1,0.4-1.5,0c-0.6-0.5-0.4-1.1-0.2-1.7c0.3-0.6,0.6-1.2,0.9-1.8c-0.5-0.4-0.7,0.1-1,0.2c-0.9,0.5-1.8,1-2.8,1.4
			c-0.5,0.2-1.1,0.5-1.8,0.5c-0.6,0-1.1-0.1-1.4-0.6c-0.3-0.6,0-1.1,0.3-1.5c0.3-0.4,0.7-0.7,1.1-1c0.4-0.4,0.9-0.8,1.5-1.4
			c-0.8-0.1-1.3,0.2-1.9,0.4c-1.4,0.4-2.7,0.9-4.2,0.9c-0.4,0-0.9,0-1.3,0c-0.5,0-0.8-0.3-1-0.8c-0.2-0.5,0-0.9,0.4-1.2
			c0.7-0.5,1.5-1,2.2-1.4c0.4-0.3,0.9-0.4,1.2-0.8c-1.5,0.1-3,0.2-4.5,0.3c-0.7,0-1.4-0.1-2.2-0.1c-0.7-0.1-1.3-0.3-1.4-1.1
			c0-0.7,0.5-1,1.1-1.3c1.3-0.5,2.6-0.7,4.1-1.5c-2-0.1-3.7-0.1-5.4-0.5c-0.6-0.1-1.2-0.2-1.8-0.4c-0.5-0.2-0.8-0.6-0.8-1.1
			c0.1-0.6,0.4-0.9,1-1c0.8-0.2,1.6-0.3,2.5-0.3c1.4-0.1,2.8-0.3,4.1-0.6c-1.5-0.4-3-0.8-4.5-1.2c-1.2-0.3-2.4-0.7-3.6-1.2
			c-0.7-0.3-1.4-0.6-1.1-1.6c0.2-0.8,0.9-0.9,1.6-0.8c1,0.1,2.1,0.2,3.1,0.3c0.6,0,1.3,0,1.9-0.2c-1.4-0.6-2.8-1.2-4.2-1.8
			c-0.8-0.4-1.6-0.8-2.3-1.3c-0.5-0.3-0.7-0.8-0.4-1.3c0.2-0.5,0.6-0.8,1.2-0.7c0.8,0.1,1.5,0.3,2.3,0.4c1.2,0.3,2.4,0.5,3.6,0.6
			c-1.2-0.7-2.4-1.4-3.6-2.1c-0.7-0.4-1.4-0.9-2.1-1.3c-0.6-0.4-1.1-0.9-0.7-1.6c0.4-0.7,1-0.8,1.7-0.5c1.5,0.5,2.9,1,4.4,1.5
			c0.3,0.1,0.6,0.4,1.1,0.2c-1.2-0.9-2.3-1.8-3.5-2.7c-0.6-0.5-1.2-1-1.7-1.5c-0.5-0.4-0.6-0.9-0.3-1.5c0.3-0.6,0.9-0.6,1.5-0.4
			c1.1,0.4,2.1,0.9,3.2,1.4c0.8,0.4,1.5,0.8,2.5,1c-1-1-1.9-2-2.9-3c-0.5-0.5-1-1.1-1.4-1.6c-0.4-0.5-0.8-1.1-0.2-1.8
			c0.5-0.6,1.1-0.4,1.7,0c1.5,0.9,3,2,4.4,3c0.4,0.3,0.8,0.7,1.6,0.9c-0.9-1.3-1.8-2.4-2.6-3.6c-0.6-0.8-1.1-1.7-1.6-2.5
			c-0.3-0.5-0.4-1.1,0.1-1.5c0.5-0.5,1.1-0.4,1.7,0.1c0.8,0.7,1.6,1.3,2.4,2.1c0.9,0.9,1.7,1.9,2.8,3.1c0.2-0.9-0.2-1.2-0.3-1.6
			c-0.7-1.4-1.4-2.9-2.1-4.3c-0.2-0.4-0.3-0.9-0.4-1.4c-0.1-0.5,0.2-0.9,0.6-1.1c0.4-0.2,0.8-0.1,1.1,0.2c0.5,0.5,0.9,0.9,1.4,1.5
			c1,1.3,2.1,2.7,3.3,4.2c-0.6-2-1.2-3.7-1.7-5.5c-0.1-0.4-0.2-0.8-0.2-1.1c0-0.6,0.3-0.9,0.8-1.1c0.5-0.2,0.9,0,1.2,0.4
			c0.5,0.7,1,1.5,1.4,2.2c0.7,1.2,1.4,2.4,2,3.6C203.2,121.5,203.3,121.5,203.4,121.4z"/>
		<path class="st49" d="M303.2,30.7c4.5-3.3,6.8-8,7.9-13.5c1.4,4.5,0,9.6-2.2,12.6c-0.5,0.7-1,1.5-1.5,2.2
			c-2.2,2.2-3.7,4.8-4.8,7.7c-0.2,0.6-0.1,1.3-0.2,1.9c-1.1-0.2-2,0.6-3,0.6c0.6-1.5,1.4-3,1.6-4.7c0.1-0.6,0.1-1.1,0.1-1.9
			c-1.3,2.1-2,4.2-3.6,5.8c-1.6,1.6-3.5,2.6-5.7,3.9c0.7-2.2,1.7-3.9,2.8-5.5c1.5-2.4,3.4-4.5,5.6-6.2
			C301.4,32.7,302.4,31.8,303.2,30.7z"/>
		<path class="st50" d="M320.5,29.6c-0.1,1.2-0.6,2-1.1,2.7c-1.5,2-2.9,4.2-4.8,5.9c-0.9,0.9-1.9,1.8-2.9,2.5
			c-2.5,1.8-3.4,4.3-3.5,7.1c-0.1,1.6,0,3.2,0,4.9c-1-0.6-1.1-1.5-1.4-2.3c-0.9-2.4-1.3-4.9-0.9-7.5c0.6-3.8,2.8-6.2,6-8.1
			c2.3-1.3,4.6-2.3,6.7-4C319.2,30.7,319.7,30.2,320.5,29.6z"/>
		<path class="st51" d="M205,24.3c-0.7,1.8-1.3,3.7-2.4,5.3c-1,1.4-2,2.7-3.1,4.1c-0.1,0.1-0.1,0.2-0.2,0.3
			c-1.3,1.4-2.1,3.2-2.9,4.9c-0.4,0.9-0.4,1.8-0.4,2.7c-0.6,0-1.1,0-1.6,0.3c-0.4,0.3-0.9,0.4-1.4,0.3c0.7-1.5,1.4-3,1.6-4.7
			c0.1-0.5,0.2-1.1,0-1.8c-1.2,2-2,4.1-3.5,5.7c-1.6,1.6-3.5,2.7-5.7,3.9c1-2.6,2.2-4.7,3.6-6.7c1.4-1.9,3.1-3.6,4.9-5.1
			c1-0.8,2-1.7,2.8-2.8c4.5-3.3,6.8-8,8.2-13.3c0.1,0.7,0.1,1.4,0.2,2.1c0.1,0.8,0.3,1.6,0.1,2.5C205,22.7,205,23.5,205,24.3z"/>
		<path class="st52" d="M203.8,36c2.1-1.2,4.2-2.3,6.2-3.5c1.5-0.9,3-1.9,4.1-3.3c0,1.1-0.5,2.4-1.4,3.5c-1.2,1.6-2.5,3.2-3.7,4.9
			c-1.4,1.2-2.8,2.3-4.2,3.5c-2.1,1.8-3,4.2-3.1,6.9c-0.1,1.5,0,3.1,0,4.6c-0.3,0.2-0.5,0.1-0.6-0.1c-2-4.3-2.6-8.6-0.3-13
			C201.5,38,202.8,37.2,203.8,36z"/>
		<path class="st53" d="M256.3,37c1.7-1.3,3.6-2.4,5.5-3.4c2.2-1.2,4.3-2.4,6.2-4.5c-0.2,1.5-0.8,2.6-1.6,3.6
			c-1.3,1.8-2.7,3.5-4.1,5.2c-1.4,1.2-2.8,2.3-4.2,3.5c-2.1,1.9-2.7,4.5-2.8,7.2c0,1.3,0,2.6,0,3.9c-0.6,0.1-0.7-0.3-0.8-0.5
			c-1.2-3.1-2-6.2-1.3-9.5c0.4-1.8,1-3.5,2.4-4.8C255.9,37.5,256.1,37.2,256.3,37z"/>
		<path class="st54" d="M257.9,18c0-0.4-0.1-0.8,0.4-1C258.3,17.4,258.3,17.8,257.9,18z"/>
		<path class="st55" d="M184.7,57.6c0.2,0.1,0.4,0.3,0.1,0.5c-0.8,0.3-0.8,0.9-0.6,1.6c0.3,1,0.3,2.2,1,3.1c0.2,0.3,0.1,0.7,0.1,1.1
			c-0.5,0.1-0.9,0-1.2-0.3c-2.7-2.4-5-5-6.2-8.5c-0.8-2.2-0.9-4.4-0.1-6.7c0.8-2.2,1.9-4.3,2.3-6.6c0.2-1.1,0.4-2.2,0.7-3.5
			c1.4,2.4,2.3,4.9,2.9,7.4c0.2,0.7-0.3,1.1-0.8,1.5c-1.3,1.2-2.3,2.5-2.7,4.3c-0.4,1.8-0.8,3.7,0.1,5.6c0.6-1.1,0.2-2.2,0.7-3.2
			c0.5-1,0.8-2.1,1.8-2.9c0.4,0.7,0.2,1.4,0.2,2.1C183.2,54.8,183.6,56.3,184.7,57.6z"/>
		<path class="st56" d="M290.5,56.6c-0.6,0.3-0.6,0.8-0.6,1.4c-0.1,1.3,0.1,2.5,0.4,3.7c0.2,0.5,0.3,1,0.2,1.6c-2.7-2.1-4.7-4.8-6-8
			c-1-2.5-0.9-4.9,0-7.4c0.8-2.1,1.7-4.1,2.2-6.2c0.2-1,0.2-2.1,0.6-3.2c1.4,2.3,2.3,4.8,2.8,7.4c0.1,0.6-0.2,1-0.6,1.3
			c-2.3,1.8-2.9,4.3-3.3,7c-0.1,1,0.3,1.9,0.5,2.9c0.6-1,0.3-2.2,0.8-3.1c0.5-0.9,0.8-2,1.9-3C289.5,53.1,289.6,54.9,290.5,56.6z"/>
		<path class="st56" d="M291.2,57.6c0.2,0.1,0.4,0.3,0.1,0.4c-0.3,0.1-0.4-0.2-0.5-0.5C291,57.6,291.1,57.6,291.2,57.6z"/>
		<path class="st18" d="M305.2,295.8c0,0.7-0.1,1.4-0.4,2.1c-0.7,1.6-2.5,2.2-4,1.5c-0.6-0.3-1.1-0.7-1.5-1.2
			c-1.7-2.2-2.7-4.7-2.8-7.5c0-0.6,0.1-1.2,0.3-1.8c0.7-1.7,2.5-2.3,4.1-1.5c0.6,0.3,1,0.7,1.4,1.1
			C304.1,290.7,305,293.1,305.2,295.8z"/>
		<path class="st18" d="M341.6,261.6c-2.2-0.2-4.6-1.2-6.7-3c-0.3-0.3-0.6-0.6-0.9-1c-1.4-2.1-0.2-4.7,2.3-4.8c3.1-0.2,5.8,1,8.2,3
			c1.4,1.2,1.8,2.7,1.2,4C345.1,261.1,344,261.6,341.6,261.6z"/>
		<path class="st57" d="M342.9,242.8c-1.8-0.3-3.5-0.6-5.3-1.1c0.4-2.1,1-2.6,3.1-2.2C342.6,239.8,343.3,240.7,342.9,242.8z"/>
		<path class="st58" d="M159.5,263.2c1.4-0.8,2.6-1.6,3.9-2.3c0.3-0.2,0.6-0.3,0.9-0.4c1,1.8,0.9,2.6-0.6,3.6
			C161.9,265.2,160.9,265,159.5,263.2z"/>
		<path class="st59" d="M313.8,285.9c-0.9-1.4-1.7-2.8-2.5-4.1c-0.4-0.6-0.2-0.9,0.4-1.1c1-0.4,1.7-0.4,2.4,0.4
			c0.3,0.4,0.6,0.8,0.9,1.2C315.7,283.8,315.5,284.5,313.8,285.9z"/>
		<path class="st60" d="M262.6,302.9c0.2-1.3,0.5-2.7,1-4.1c0.8,1.2,1.1,2.4,1.6,3.5c0.2,0.5-0.1,0.7-0.5,0.7
			C264,303,263.3,303.2,262.6,302.9z"/>
		<path class="st61" d="M241,178.3c-0.4-1.3-1.3-2.4-2-3.6c-1.6-2.8-3.3-5.7-4.7-8.6c-0.2-0.5-0.6-0.9-0.6-1.8
			c3.6,4.2,6.2,8.8,9.4,12.9c-1.8-4.8-3.9-9.5-5.1-14.5c3,4.5,5.1,9.4,7.8,14.1c-1-4.9-2.6-9.7-3.1-14.8c2.3,4.6,3.6,9.6,5.5,14.3
			c-0.1-4.7-0.9-9.3-0.8-14c1.7,4.5,2.2,9.4,3.3,14c0.8-4.4,0.7-8.9,1.3-13.4c1.1,4.6,1.1,9.4,1.6,14.1c1.6-3.7,2.2-7.7,3.7-11.5
			c0,1,0,2.1,0,3.1c0,1.1-0.2,2.2-0.3,3.3c-0.1,1-0.2,2.1-0.4,3.1c-0.2,1.1-0.4,2.1-0.1,3.3c1.6-3.3,3.1-6.6,4.7-9.9
			c0.1,0,0.2,0.1,0.3,0.1c-0.3,4.1-1.9,7.9-3,11.8c2.3-2.3,4-5,6.3-7.2c-0.7,3.8-3,6.8-4.6,10.2c2.6-1,4.5-3.1,6.9-4.6
			c-1.3,3.3-3.9,5.5-6.1,8.1c2.3-0.4,4.3-1.5,6.5-2.1c-1.5,3.2-7.2,6.3-12.5,5.8c1.7-0.7,3.3-1.2,4.6-2.2c0.1-0.1,0.2-0.3,0.2-0.5
			c-1.5,0.6-2.9,1.6-4.9,1.9c1.7-1.7,3.4-2.9,4.4-5.1c-1.4,0.6-1.7,1.8-2.6,2.5c-0.8,0.7-1.5,1.5-2.5,2.1c1.3-2.1,2.8-4.2,3.2-6.7
			c-1.1,1.8-1.9,3.8-3.4,5.4c0.5-2.4,1.6-4.6,1.5-7.1c-1,2.3-1.2,4.7-2.7,7.2c0.2-1.2,0.2-2.1,0.4-3c0.2-0.9,0.2-1.8,0.3-2.6
			c0-0.9,0-1.9,0-2.8c-0.8,0.3-0.6,0.9-0.6,1.3c0,2.2-0.1,4.4-0.8,6.6c0,0.1-0.1,0.2-0.2,0.3c0-2.9,0-5.7-0.9-8.8
			c-0.6,1.1,0,1.9,0,2.6c0,0.8,0.3,1.6,0.3,2.5c0,0.8,0.2,1.6-0.1,2.6c-0.7-2.6-0.9-5.1-2.2-7.3c-0.2,1.2,0.5,2.3,0.7,3.5
			c0.2,1.2,0.7,2.4,0.6,3.7c-1-2.3-1.7-4.7-3.1-6.9c-0.1,1.3,0.7,2.4,1.1,3.5c0.4,1.1,0.9,2.2,1,3.5c-1.4-2-2.4-4.4-4.1-6.2
			c0.9,2.3,2.4,4.2,3.1,6.6c-1.8-1.7-3-4-4.9-5.6c0.4,1.4,1.5,2.4,2.3,3.5c0.8,1.1,1.6,2.2,2.3,3.4c-2.2-1.7-3.9-3.8-5.9-5.7
			c-0.5,0.5-0.1,0.8,0.2,1c1.2,1.3,2.5,2.5,3.7,3.8c0.4,0.4,0.9,0.7,1.1,1.5c-2.4-1.3-4.2-3.1-6.4-4.7c0.3,1.1,0.3,1.1,2.7,3
			c1.1,0.8,2.2,1.6,3.2,2.5c-2.5-0.8-4.6-2.5-7-3.4c2.1,1.9,4.5,3,6.9,4.4c-2.7-0.5-5-1.8-7.6-2.6c2.1,1.6,4.5,2.3,6.8,3.3
			c-2.5,0.1-4.7-1-7.2-1.6c0.7,0.9,0.9,1,3.6,1.7c1.3,0.3,2.6,0.6,4,1c-2.5,0.7-5-0.1-7.7-0.1c1.5,1,1.8,1,8.7,0.9
			c-0.7,0.7-1.7,0.6-2.5,0.8c-0.8,0.2-1.7,0.3-2.6,0.4c-0.9,0.1-1.8-0.1-2.6,0.4c2.6,0.5,5.2-0.3,7.8-0.6c-1.9,1.4-4.3,1.9-6.4,2.7
			c2.6,0.1,4.8-1.1,7.2-1.9c-0.5,0.4-1,0.9-1.5,1.3c-0.6,0.5-1.3,0.9-1.9,1.4c-0.5,0.4-1.3,0.5-1.8,1.3c1.3-0.2,2.2-0.8,3.1-1.5
			c0.9-0.6,1.7-1.3,2.7-2.1c-0.7,1.8-1.7,3.2-2.7,4.5c1.7-0.6,2.1-2.4,3.1-3.6c0.2,3.7-3.8,9.5-7.2,10.8c0.7-2.2,2.1-3.9,2.9-5.8
			c-0.5-0.3-0.7,0.2-1,0.3c-1.7,1.1-3.3,2.3-5,3.2c-0.9,0.5-1.8,1-3.2,1.1c2-2.2,4.3-3.8,5.9-6c-0.7-0.4-1.2,0-1.6,0.2
			c-2.4,0.9-4.8,1.9-7.4,2.4c-0.6,0.1-1.2,0.2-2.1,0.1c2.7-2,5.7-3.1,8.3-5c-4.1,0.4-8.1,1.5-12.3,1c3.4-1.4,7-2.1,10.5-3.3
			c-0.2-0.7-0.7-0.4-1-0.4c-2.3,0-4.7-0.1-7-0.1c-1.4,0-2.7-0.3-4.1-0.4c-0.3,0-0.7-0.1-0.8-0.5c4-0.5,8.1-0.7,12.2-1.5
			c-4.6-1.4-9.4-1.9-13.8-3.8c4.5,0,8.9,0.8,13.4,0.8c-4.4-1.9-9-3.1-13.2-5.4c1.2-0.3,2.3,0.3,3.4,0.5c1.2,0.2,2.4,0.6,3.5,0.9
			c1.1,0.3,2.3,0.5,3.4,0.8c1.2,0.3,2.3,0.6,3.5,0.8c-4.5-2.7-9.3-4.7-13.5-7.7c4.9,1.4,9.5,3.5,14.3,5.3c-2.2-1.5-4.3-3.1-6.5-4.6
			c-2.1-1.6-4.3-3-6.2-5c4.8,2,9.2,4.8,13.6,7.4c-3.7-3.9-7.9-7.2-11.3-11.4c4.7,2.8,8.7,6.4,13,9.7c-3.4-4.5-7-8.8-10.2-13.7
			c0.8,0.2,1.1,0.6,1.4,0.9c3.1,2.9,6,6,8.8,9.1c0.4,0.5,0.8,1.1,1.4,1.4C241.1,178.5,241.2,178.5,241,178.3z"/>
		<path class="st62" d="M262.4,204.1c-0.5,0.4-0.9,0.7-1.4,1.1c-1.2-1.1-2.1-2.5-3.1-3.7c-2.2-2.7-4.3-5.3-6.5-8
			c-0.2-0.3-0.8-0.7-0.4-1.1c0.4-0.4,0.8,0.1,1.1,0.4C255.6,196.6,259,200.3,262.4,204.1z"/>
		<path class="st61" d="M285.2,238.8c-1.6,0.8-3.4,0.9-5.1,1c-0.7,0.1-1.4-0.2-2.3,0.5c3,0.4,5.5-0.4,8.5-0.9
			c-2.3,1.6-4.7,2.1-7,2.9c1.3,0.4,2.5-0.2,3.7-0.6c1.2-0.4,2.3-1,3.7-1.6c-1.6,1.8-3.4,2.9-5.2,4c1.2,0.1,2-0.6,2.8-1.2
			c0.9-0.6,1.7-1.3,2.7-2.1c-0.7,1.8-1.7,3.2-2.7,4.6c1-0.2,1.4-0.9,1.8-1.6c0.5-0.7,0.9-1.5,1.5-2.2c-0.8,4.8-3.1,8.5-7.5,10.8
			c1-1.9,2.1-3.9,3.1-5.8c-3,1.5-5.6,3.8-9,4.6c1.8-2.1,4-3.8,5.7-5.9c-0.8-0.5-1.2,0-1.7,0.2c-2.3,0.9-4.5,1.7-6.9,2.3
			c-0.7,0.2-1.4,0.3-2.5,0.2c2.8-1.9,5.7-3.1,8.2-5c-4.1,0.3-8,1.4-12.2,0.7c3.5-1,7-2.1,10.5-3.1c-4.2-0.8-8.5-0.1-12.6-1.2
			c4-0.7,8-0.8,11.9-1.7c-4.6-1.3-9.4-1.9-13.8-3.8c4.5,0.1,8.9,0.8,13.4,0.8c-4.5-1.9-9.2-3.1-13.5-5.5c4.7,0.7,9.3,2.2,13.9,3.1
			c-4.5-2.6-9.3-4.7-13.5-7.7c4.9,1.3,9.5,3.5,14.2,5.4c-4.2-3.3-8.7-6.1-12.6-9.7c2.5,0.8,4.7,2.2,7,3.5c2.3,1.3,4.5,2.7,6.8,4
			c-3.9-3.9-8.1-7.5-11.7-11.7c4.8,2.9,9,6.7,13.4,10c-3.4-4.5-7.1-8.8-10-13.6c4.3,3.4,7.9,7.7,11.7,11.6
			c-2.5-4.7-5.4-9.2-7.4-14.2c3.7,4.1,6.4,8.8,9.7,13.1c-2-4.9-4.1-9.7-5.4-14.9c3,4.4,5,9.3,7.7,13.9c-1-4.9-2.5-9.6-3-14.5
			c2.3,4.5,3.5,9.5,5.6,14.1c-0.4-4.8-0.9-9.5-1.3-14.3c2,4.6,2.4,9.6,3.7,14.4c0.5-4.5,0.9-9,1.2-13.5c1.3,4.6,1.1,9.4,1.7,14.1
			c1.6-3.8,2.3-7.8,3.6-11.7c0.5,4.4-0.6,8.7-1,13c1.9-3.1,3.1-6.5,5-9.6c-0.1,4.1-1.8,7.7-2.7,11.6c2.3-2.3,4-5,6.2-7.3
			c-0.7,3.8-2.9,6.8-4.8,10.5c1.7-0.4,2.6-1.4,3.7-2.2c1.1-0.8,2.2-1.7,3.4-2.7c0.1,0.9-0.3,1.4-0.6,1.9c-1.2,1.8-2.6,3.3-4.1,4.8
			c-0.4,0.5-1,0.9-1.3,1.7c2.3-0.3,4.1-1.7,6.3-1.8c-2.9,4.1-7.1,5.5-11.9,5.5c1.5-0.9,3.4-1.2,4.8-2.9c-1.2,0.2-1.8,0.9-2.6,1.2
			c-0.8,0.3-1.5,0.7-2.5,0.7c1.5-1.6,3.3-2.8,4.2-5.1c-1.3,0.7-1.6,1.9-2.4,2.5c-0.8,0.7-1.5,1.5-2.5,2.1c1.3-2.1,2.7-4.2,3.2-6.7
			c-0.9,0.8-1.2,2-1.8,3c-0.6,1-1.2,2-2,2.9c0.7-2.5,1.8-4.9,1.8-7.6c-1,2.2-1.2,4.6-2.6,7c0.3-2.9,1-5.5,0.4-8
			c-0.6,1.3-0.2,2.6-0.4,3.9c-0.2,1.3-0.3,2.6-0.9,3.9c-0.1-1.4,0-2.8-0.2-4.1c-0.2-1.4-0.1-2.8-0.9-4.5c-0.5,1.2,0.1,2,0.1,2.8
			c0,0.9,0.2,1.8,0.3,2.6c0.1,0.9,0,1.8-0.1,2.7c-0.6-2.6-1-5.3-2.3-7.7c0.3,2.5,1.3,4.9,1.4,7.8c-1.1-2.8-1.8-5.3-3.3-7.5
			c-0.1,1.3,0.7,2.3,1.1,3.5c0.4,1.2,0.9,2.3,1.1,3.7c-1.3-2.1-2.4-4.4-4-6.3c0.2,1.5,1.2,2.5,1.8,3.8c0.6,1.3,1.4,2.5,1.8,3.8
			c-1.9-2.2-3.4-4.7-5.4-6.8c-0.1,0.1-0.2,0.2-0.4,0.3c1.7,2.3,3.4,4.7,5.2,7c-0.1,0.1-0.1,0.1-0.2,0.2c-1-1-2-2.1-3.1-3.1
			c-1.1-1-1.8-2.3-3.2-3c0.6,1.4,1.8,2.2,2.8,3.3c1,1,2.1,2,3,3.1c-2.5-1.3-4.6-3.2-7-4.8c0.6,1.3,1.9,2,2.9,2.9
			c1.1,0.9,2.3,1.7,3.4,2.6c-2.6-0.9-4.8-2.5-7.4-4c0.5,1.1,0.6,1.2,2.9,2.5c1.1,0.6,2.1,1.2,3.3,1.8c-1,0.1-1.6-0.1-3.4-0.9
			c-1.1-0.5-2.2-1-3.4-1.6c0.6,1,0.6,1.1,3.7,2.3c1.3,0.5,2.6,1,4,1.6c-2.7-0.2-5.3-1-7.8-1.8c-0.3,0.7,0.2,0.7,0.4,0.8
			c1.8,0.7,3.7,1.2,5.6,1.5c0.7,0.1,1.3,0.3,2,0.5c-2.8,0.5-5.4-0.1-8.2-0.2c0.8,0.7,0.8,0.6,1.5,0.7
			C281,238.8,283.1,238.8,285.2,238.8L285.2,238.8z"/>
		<path class="st62" d="M301.1,249.4c-0.3,0.4-0.7,0.8-1.3,1.1c-1.4-1.7-2.9-3.5-4.3-5.2c-1.7-2.1-3.3-4.1-5-6.2
			c-0.2-0.3-0.5-0.6-0.6-1c-0.1-0.1,0-0.3,0.1-0.4c0.1-0.1,0.3-0.1,0.4,0c0.3,0.2,0.5,0.4,0.7,0.7c3.3,3.6,6.5,7.2,9.8,10.8
			C301,249.2,301.1,249.3,301.1,249.4z"/>
		<path class="st61" d="M285.2,238.9c0.3-0.3,0.6-0.4,1.1-0.1C285.8,238.8,285.5,238.8,285.2,238.9
			C285.2,238.8,285.2,238.9,285.2,238.9z"/>
		<path class="st61" d="M199.5,152.5c-4,0.3-8,1.4-12.1,1c3.3-1.5,7-2.1,10.4-3.4c-0.1-0.6-0.5-0.4-0.8-0.4c-2,0-4-0.1-6,0
			c-1.7,0-3.3-0.3-5-0.4c-0.5,0-1-0.1-1.4-0.5c4.1-0.7,8.3-0.6,12.4-1.6c-4.5-1.3-9.2-1.8-13.6-3.6c0-0.1,0-0.2,0.1-0.3
			c4.4,0.4,8.9,0.8,13.3,1.2c0-0.1,0.1-0.2,0.1-0.3c-4.7-1.8-9.6-3.1-14-5.5c4.7,0.8,9.4,2.2,14.1,3.1c-4.5-2.7-9.3-4.7-13.5-7.7
			c4.9,1.4,9.5,3.5,14.2,5.4c-4.1-3.3-8.6-6.2-12.6-9.8c4.8,2,9.2,4.8,13.6,7.4c-3.7-3.9-7.8-7.3-11.3-11.4
			c4.8,2.8,8.9,6.6,13.3,9.9c-3.3-4.5-7-8.6-9.8-13.5c4.2,3.3,7.7,7.5,11.5,11.3c-2.4-4.8-5.4-9.2-7.4-14.2
			c3.6,4.1,6.4,8.8,9.7,13.2c-1.9-4.9-4.1-9.7-5.4-14.9c3,4.4,5,9.3,7.7,13.9c-1.1-4.9-2.5-9.7-3.1-14.7c2.4,4.7,3.7,9.8,5.6,14.7
			c-0.2-4.8-0.9-9.6-0.9-14.4c1.7,4.7,2.2,9.6,3.4,14.4c0.8-4.5,0.6-9,1.3-13.5c1.3,4.6,1,9.4,1.6,14.1c1.6-3.7,2.2-7.7,3.6-11.5
			c0.3,4.3-0.7,8.5-0.9,12.8c1.9-3.1,3.2-6.6,5-9.7c-0.1,4.1-1.8,7.8-2.9,11.7c0.1,0.1,0.2,0.1,0.3,0.2c1.9-2.4,3.8-4.9,5.8-7.3
			c0.1,0.1,0.2,0.1,0.3,0.2c-0.8,3.7-3,6.7-4.9,10.3c1.7-0.5,2.7-1.5,3.8-2.3c1.1-0.8,2-1.8,3.6-2.6c-1.5,3.6-4.3,5.7-6.3,8.6
			c2.1-0.8,4.1-1.5,6.3-2.3c-1.6,3.7-7.2,6.1-12.4,5.9c1.6-1,3.6-1.2,5-2.8c-1.2,0-1.7,0.8-2.5,1c-0.8,0.2-1.5,0.7-2.6,0.8
			c1.6-1.7,3.5-2.9,4.1-5c-1.5,1.5-2.9,3.2-4.7,4.4c1.3-2.1,2.6-4.1,3.3-6.4c0-0.2,0-0.3-0.4-0.4c-1,2.2-1.9,4.4-3.6,6.2
			c0.9-2.5,1.8-5,2-7.8c-0.9,1-0.8,2.3-1.2,3.5c-0.4,1.2-0.8,2.5-1.7,4c0.5-3.1,1.1-5.8,0.6-8.6c-0.5,2.7-0.4,5.4-1.4,8
			c-0.1-2.8-0.1-5.6-1-8.3c-0.1,2.6,0.5,5.1,0.3,7.7c-0.8-2.6-1-5.3-2.4-7.8c0.4,2.6,1.3,5.2,1.5,7.9c-1.1-2.6-1.8-5.2-3.4-7.6
			c0.6,2.6,2,4.9,2.4,7.6c-1.4-2.3-2.5-4.8-4.3-7.3c-0.2,1.3,0.6,1.9,1,2.6c0.4,0.8,0.9,1.5,1.3,2.3c0.4,0.8,0.8,1.6,1,2.4
			c-1.8-1.9-3.2-4.1-5-6.1c0,0.9,0,0.9,1.3,2.5c0.6,0.8,1.2,1.6,1.8,2.4c0.5,0.8,1.2,1.5,1.4,2.6c-2-2-4-4.1-6.1-6.1
			c-0.1,0.1-0.2,0.2-0.3,0.2c0.3,0.9,1.2,1.5,1.8,2.1c0.7,0.7,1.4,1.4,2.1,2.1c0.7,0.7,1.5,1.4,2.1,2.1c-2.6-1.3-4.7-3.3-7.1-5.1
			c0.4,1.1,0.4,1.1,2.6,2.9c1,0.8,2,1.5,2.9,2.4c-2.4-0.7-4.3-2.3-6.7-3.4c0.6,1,0.6,1,2.1,1.9c0.9,0.5,1.7,1,2.6,1.5
			c0.8,0.4,1.7,0.9,2.5,1.4c-1.4-0.2-2.7-0.7-4-1.2c-1.3-0.5-2.5-1.1-3.8-1.5c2,1.6,4.5,2.4,6.8,3.4c-2.5,0-4.7-1.1-7.2-1.4
			c2.5,1.4,5.3,1.9,8.1,2.4c-2.7,0.3-5.4,0.2-8.1,0c2.7,1.1,5.6,0.7,8.4,0.9c-1.2,0.4-2.5,0.8-3.8,0.9c-1.3,0.1-2.5,0.3-4.1,0.5
			c1.5,0.9,2.8,0.2,4,0.1c1.3-0.1,2.6-0.4,3.9-0.6c-1.9,1.4-4.2,1.8-6.3,2.7c2.5,0.1,4.7-1.1,7-2c-1.4,1.6-3.2,2.7-5,3.8
			c1.4,0,1.9-0.2,5.6-3.2c-0.2,1-0.7,1.8-1.2,2.5c-0.4,0.7-1,1.3-1.3,2c1.8-0.7,2.2-2.7,3.5-4.2c-0.9,5-3.2,8.8-7.5,11.2
			c0.7-2,1.9-3.8,2.8-5.7c-0.5-0.3-0.7,0.2-1,0.3c-1.8,1.2-3.5,2.4-5.3,3.4c-0.7,0.4-1.4,0.9-2.5,0.7c0.7-1.3,2-2,2.9-2.9
			c0.9-1,2-1.8,2.8-3.3c-3.8,1.2-7.2,3-11.1,3.2C193.9,155.6,196.9,154.4,199.5,152.5z"/>
		<path class="st62" d="M223.6,158.8c-0.5,0.4-0.9,0.8-1.4,1.2c-1.3-1.6-2.6-3.2-3.9-4.8c-2-2.4-3.9-4.8-5.8-7.2
			c-0.2-0.2-0.5-0.5-0.2-0.8c0.3-0.3,0.6,0,0.9,0.2c1.1,1.2,2.2,2.4,3.3,3.6C218.8,153.5,221.2,156.1,223.6,158.8z"/>
		<path class="st48" d="M241,178.3c0.3,0.1,0.4,0.4,0.6,0.8c-0.5-0.1-0.6-0.4-0.7-0.7C240.9,178.4,241,178.3,241,178.3z"/>
	</g>
</g>
</svg>
