<?xml version="1.0" encoding="utf-8"?>
<!-- Generator: Adobe Illustrator 24.0.2, SVG Export Plug-In . SVG Version: 6.00 Build 0)  -->
<svg version="1.1" id="Layer_1" xmlns="http://www.w3.org/2000/svg" xmlns:xlink="http://www.w3.org/1999/xlink" x="0px" y="0px"
	 viewBox="0 0 1448.9 346.1" style="enable-background:new 0 0 1448.9 346.1;" xml:space="preserve">
<style type="text/css">
	.st0{fill:#1B181C;}
	.st1{fill:#1C191D;}
	.st2{fill:#EF880A;}
	.st3{fill:#E3BF3E;}
	.st4{fill:#0068A5;}
	.st5{fill:#E4C433;}
	.st6{fill:#E4C333;}
	.st7{fill:#E5C333;}
	.st8{fill:#FEED47;}
	.st9{fill:#FEEF6E;}
	.st10{fill:#FEF073;}
	.st11{fill:#FCF191;}
	.st12{fill:#FEF07D;}
	.st13{fill:#FEF07E;}
	.st14{fill:#E1C233;}
	.st15{fill:#E3C233;}
	.st16{fill:#FFFFFF;}
	.st17{fill:#E5C532;}
	.st18{fill:#E6C432;}
	.st19{fill:#E1C032;}
	.st20{fill:#E2C033;}
	.st21{fill:#E1C033;}
	.st22{fill:#E4C334;}
	.st23{fill:#E4C234;}
	.st24{fill:#055E96;}
	.st25{fill:#025D96;}
	.st26{fill:#DCBC34;}
	.st27{fill:#DFBE32;}
	.st28{fill:#DBBC32;}
	.st29{fill:#DFBF32;}
	.st30{fill:#DBBA34;}
	.st31{fill:#E5C334;}
	.st32{fill:#D7B834;}
	.st33{fill:#E5C331;}
	.st34{fill:#D7B835;}
	.st35{fill:#DCBD32;}
	.st36{fill:#E7E6E6;}
	.st37{fill:#03619B;}
	.st38{fill:#01619B;}
	.st39{fill:#AAACAD;}
	.st40{fill:#D2D3D4;}
	.st41{fill:#1D191D;}
	.st42{fill:#1D1A1D;}
	.st43{fill:#1D1A1E;}
	.st44{fill:#1D1C1E;}
	.st45{fill:#FEEA22;}
	.st46{fill:#FEEC30;}
	.st47{fill:#FFE91A;}
	.st48{fill:#FEEC3E;}
	.st49{fill:#EF850B;}
	.st50{fill:#FDEB38;}
	.st51{fill:#FEEB2B;}
	.st52{fill:#FEFEFE;}
	.st53{fill:#FDFEFE;}
	.st54{fill:#FCFCFD;}
	.st55{fill:#F6F6F6;}
	.st56{fill:#038F39;}
	.st57{fill:#078E38;}
</style>
<g>
	<g>
		<path class="st0" d="M710.4,131.7c2.1-5.1,4.1-9.7,6-14.3c5.3-12.7,10.6-25.3,15.4-38c0.5-1.4,1.2-2.8,1.4-4.1
			c0.7-2.5,0-3.2-2.5-3.7c-0.9-0.2-1.8-0.2-3-0.2c-0.5,0-0.9,0-1.4-0.2c-0.5,0-0.9-0.5-0.9-0.9c0-0.5,0.5-0.7,0.9-0.9
			c0.5,0,0.7-0.2,1.2-0.2s0.7,0,1.2,0c10.4,0.7,20.7-0.2,31.1,0.2c12.7,0.5,25.1,0.2,37.8,0.2c2.1,0,4.1-0.5,6.2-0.9
			c1.4-0.2,1.8,0,1.6,1.2c-0.9,4.4-0.9,9-1.4,13.6c0,0.5-0.2,0.7-0.2,1.2c-0.2,0.7-0.5,1.2-1.4,0.9c-0.7,0-0.7-0.7-0.7-1.2
			c-0.2-0.9-0.2-2.1-0.5-3c-0.7-3-2.8-4.6-6.5-5.1c-3.2-0.5-6.7-0.5-9.9-0.5c-2.8,0-5.5-0.2-8.1-0.2c-1.6,0-1.6,0-1.6,1.6
			c0,8.5,0,17.3,0,25.8c0,1.6,0,1.6,1.6,1.6c6.5,0,13.1,0,19.6-0.5c2.1,0,3.9-0.7,5.3-2.3c0.2-0.5,0.7-0.9,1.4-0.7s0.7,0.9,0.7,1.6
			c-0.2,1.8-0.2,3.7-0.5,5.3c-0.5,3.2-0.7,6.2-0.9,9.4c0,0.5,0,1.2-0.2,1.6c-0.2,0.5-0.5,0.9-1.2,0.9s-0.9-0.5-0.9-1.2
			c0-0.9-0.2-1.8-0.2-3c-0.5-2.5-1.6-3.9-4.1-4.6c-0.7-0.2-1.6-0.5-2.5-0.5c-5.3-0.2-10.6-0.5-16.1-0.5c-1.8,0-1.8,0-1.8,1.8
			c0,8.1,0,15.9,0,24c0,0.5,0,1.2,0,1.6c0.2,3.9,2.3,6.2,6.2,6.9c3.7,0.7,7.4,0.9,11.1,0.7c2.1,0,4.1-0.2,6.2-0.7
			c3.5-0.7,5.5-2.5,6.5-5.8c0.2-0.9,0.5-1.8,0.7-2.8c0.2-0.7,0.2-1.8,1.4-1.6s0.9,1.2,0.9,2.1c0,0.7,0,1.4,0,2.1
			c-0.2,3.2-0.7,6.7-1.4,9.9c-0.7,2.8-1.4,3.5-4.4,3.5c-4.4,0-8.5,0-12.9,0c-12-0.5-23.7-0.7-35.7-0.2c-0.9,0-1.6,0-2.5,0
			c-0.7,0-1.2-0.5-1.2-1.2s0.5-1.2,1.2-1.2c1.2,0,2.3-0.2,3.7-0.2c2.3-0.2,3.5-1.6,3.9-3.7c0.7-2.8,0.7-5.3,0.7-8.1
			c0.2-19.6,0.2-39.2,0-58.8c0-0.2,0-0.5,0-0.7c-0.2-4.1-1.8-5.8-6-6.2c-0.7,0-1.2-0.2-1.8-0.2c-3.2-0.2-5.8,0.9-7.6,3.7
			c-1.6,2.5-2.8,5.3-3.9,7.8c-9.7,21.4-19.6,42.6-29.3,64.1c-0.7,1.6-1.4,3.2-2.5,4.6c-1.4,2.1-3,2.1-4.4,0c-0.9-1.4-1.6-3-2.3-4.6
			c-9.4-21.9-18.9-44-28.1-66.1c-0.7-1.6-1.4-3.2-2.3-4.8c-1.2-2.1-3-3.5-5.3-3.9c-3-0.9-5.8-0.9-8.8-0.5c-2.8,0.5-3.7,1.8-4.1,4.6
			c-0.2,1.8-0.2,3.7-0.2,5.5c0,19.6-0.5,39.4,0.2,59c0,1.4,0,2.8,0.5,4.1c0.7,2.5,1.6,3.7,4.4,3.9c1.6,0.2,3.5,0.2,5.1,0.5
			c0.5,0,1.2,0,1.6,0.2s0.7,0.5,0.7,0.9c0,0.5-0.5,0.9-0.9,0.9c-0.7,0.2-1.2,0.2-1.8,0.2c-5.3,0-10.6-0.2-15.9-0.2
			s-10.6,0.2-16.1,0.2c-0.7,0-1.4,0-2.1-0.2c-0.5,0-0.9-0.5-0.9-1.2c0-0.5,0.5-0.9,0.9-0.9c0.5,0,0.9-0.2,1.4,0
			c1.2,0,2.1-0.2,3.2-0.5c1.8-0.2,2.8-1.2,3.2-3c0.5-1.8,0.7-3.7,0.7-5.5c0-8.1,0.2-16.1,0.2-24.2c0-12.4,0-25.1-0.2-37.6
			c0-5.5-1.4-6.9-6.9-7.4c-0.7,0-1.4,0-2.1-0.2c-0.5,0-0.7-0.5-0.7-0.9c0-0.5,0.2-0.7,0.7-0.9c0.9-0.2,1.8-0.2,2.8-0.2
			c5.1,0,10.4,0.5,15.4,0.2c11.3-0.5,22.6,0,33.9,0c3.7,0,7.6-0.2,11.3-0.2c0.7,0,1.6,0,2.3,0.2c0.7,0,1.4,0.2,1.4,1.2
			c0,0.7-0.7,0.9-1.4,0.9c-0.9,0-1.8,0.2-2.8,0.2c-2.8,0.5-3.5,1.4-3,4.1c0.2,1.6,0.9,3,1.4,4.6c6.5,16.6,12.9,33.2,19.4,49.8
			C709.7,130.5,709.9,131,710.4,131.7z"/>
		<path class="st0" d="M434.4,91.6c0-7.8,0-15.9,0-23.7c0-1.8,0-3.7-0.5-5.5c-0.5-2.3-1.8-3.9-4.1-4.6c-1.6-0.5-3.5-0.5-5.1-0.5
			c-0.7,0-1.6,0-2.3-0.2c-0.5-0.2-0.7-0.5-0.7-0.9c0-0.5,0.2-0.9,0.7-0.9s0.9-0.2,1.4-0.2s1.2,0,1.6,0c11.1,0.5,22.1,0.5,33,0
			c0.9,0,1.8,0,2.8,0.2c0.5,0.2,0.9,0.5,0.9,0.9c0,0.7-0.5,0.9-0.9,1.2c-0.5,0-0.9,0.2-1.6,0.2s-1.4,0-2.1,0.2
			c-3.9,0.5-5.5,2.1-5.8,6c-0.2,2.3-0.5,4.6-0.5,6.9c0,14.1,0,27.9,0,41.9c0,5.5,0.5,10.8,1.8,16.1c1.4,5.3,3.9,10.1,8.3,13.6
			c5.3,4.4,11.5,5.5,18.2,5.1c3.5-0.2,6.9-1.4,10.1-3c6.2-3.5,9.7-8.8,11.1-15.7c0.9-3.7,1.2-7.4,1.4-11.3c0.2-16.4,0.2-33,0-49.3
			c0-1.4-0.2-2.8-0.2-4.1c-0.2-4.4-2.8-5.8-6.5-6.2c-1.2-0.2-2.3,0-3.5-0.2c-0.7,0-1.2-0.2-1.8-0.5c-0.9-0.5-0.9-1.4,0-1.6
			c0.5-0.2,0.9-0.2,1.4-0.5c0.7,0,1.2,0,1.8,0c9.2,0.2,18.4,0.5,27.7,0c0.9,0,1.8,0,2.8,0.2c0.5,0.2,0.9,0.5,0.9,1.2
			c0,0.5-0.5,0.7-0.9,0.9c-0.9,0.2-1.6,0.2-2.5,0.2c-5.3,0.2-6.9,1.8-7.4,7.1c-0.2,3.9-0.2,7.8-0.2,11.8c0,11.8,0,23.3,0,35
			c0,5.5-0.7,11.1-2.1,16.6c-3.2,12.9-11.8,21-24.2,24.4c-10.1,2.8-20.3,2.5-30.2-0.9c-10.8-3.7-17.3-11.3-20.3-22.1
			c-1.6-6-2.1-12.2-2.1-18.7C434.6,104,434.6,97.8,434.4,91.6C434.6,91.6,434.6,91.6,434.4,91.6z"/>
		<path class="st0" d="M541.7,92.5c0,1.6,0,2.8,0,3.9c0.5,13.4,0.7,26.7,1.2,40.3c0,2.8,0.2,5.3,0.9,8.1s2.1,4.4,5.1,4.6
			c1.2,0,2.3,0.2,3.7,0.2c0.5,0,0.7,0,1.2,0c0.5,0.2,0.9,0.5,0.9,1.2s-0.5,0.9-0.9,1.2c-0.5,0-0.9,0-1.4,0c-1.4,0-2.8,0-4.4,0
			c-7.4-0.2-14.7,0-22.1,0c-0.7,0-1.6,0-2.3,0c-0.5,0-0.9-0.5-0.9-0.9c0-0.7,0.2-0.9,0.9-1.2c0.5-0.2,0.9-0.2,1.4-0.2
			c1.2-0.2,2.3-0.2,3.5-0.5c2.8-0.5,3.7-1.2,4.1-3.9c0.5-2.3,0.5-4.4,0.7-6.7c0.5-22.4,0.7-44.5,0.9-66.8c0-0.9,0-1.8,0.2-3
			c0.7-1.6,1.6-2.1,3.2-1.2c0.5,0.2,0.9,0.7,1.2,0.9c0.7,0.7,1.4,1.4,2.1,2.1c19.1,19.1,38.3,38.5,57.6,57.6
			c0.7,0.7,0.9,1.4,1.4,1.8c1.2-0.5,0.7-1.2,0.7-1.6c-0.2-10.6-0.5-21.4-0.7-32c0-4.8-0.2-9.7-0.2-14.5c0-1.6-0.2-3.2-0.5-5.1
			c-0.5-3.7-2.1-5.1-5.8-5.5c-1.4-0.2-2.8-0.2-4.1-0.2c-0.7,0-1.4-0.2-1.4-0.9c0-0.9,0.7-1.2,1.4-1.2c0.7-0.2,1.2-0.2,1.8-0.2
			c3,0,6.2,0,9.2,0.2c5.1,0.2,10.1-0.2,15.2-0.2c0.9,0,1.6,0,2.5,0.2c0.5,0.2,0.9,0.5,0.7,0.9c0,0.5-0.2,0.9-0.9,0.9
			c-0.9,0.2-1.8,0.2-3,0.2c-3.7,0.5-5.1,1.8-5.5,5.8c-0.2,2.8-0.2,5.5-0.5,8.1c-0.5,21-0.7,42.2-1.2,63.1c0,0.9,0,2.1-0.2,3
			c-0.5,1.6-1.4,2.1-3,1.6c-1.2-0.5-2.3-1.2-3.2-2.1c-18.9-18-38-35.5-55.8-54.6C544.7,95.1,543.4,93.9,541.7,92.5z"/>
		<path class="st0" d="M1106.3,190c7.4,0.2,15.4,1.2,23.3,2.8c1.4,0.2,3,0.5,4.4,0.7s1.8,0.7,1.6,1.8c-0.9,7.1-0.5,14.1-0.9,21.2
			c0,0.2,0,0.7-0.2,0.9c-0.2,0.7-0.7,1.4-1.6,1.4s-1.2-0.7-1.2-1.4c0-1.8-0.2-3.7-0.9-5.5c-1.4-4.6-4.1-8.3-8.5-10.6
			c-4.6-2.5-9.9-3.9-15-4.4c-4.8-0.5-9.9-0.5-15,0.2c-12,1.8-19.8,8.8-24.4,19.6c-1.8,4.1-2.5,8.5-3,13.1
			c-0.9,9.7-0.5,19.4,3.7,28.3c5.8,12.7,15.4,20.7,28.8,24.2c1.8,0.5,3.7,0.7,5.5,0.7c4.8,0,9.9,0,14.5-0.9
			c7.8-1.6,12.7-6.7,15-14.1c0.2-0.7,0.2-1.4,0.5-2.1c0.2-0.7,0.7-1.2,1.4-1.2c0.7,0.2,0.9,0.7,0.9,1.4c0,0.7,0,1.2,0,1.8
			c-0.7,5.1-1.4,10.4-2.5,15.4c-0.5,2.3-1.8,3.7-4.1,4.6c-3.2,1.2-6.7,1.6-10.1,2.1c-6,0.7-12.2,1.2-18.2,0.7
			c-8.5-0.7-16.8-1.8-24.7-5.3c-15.7-6.9-25.6-18.7-28.8-35.7c-2.1-12-0.9-23.7,5.3-34.6c6.7-12,17.1-19.4,30.2-22.8
			C1090.4,190.2,1098,189.8,1106.3,190z"/>
		<path class="st0" d="M346.8,192.1c8.1,0,16.1,0,24,0c3,0,6,0,8.8-1.2c0.9-0.5,1.6,0,1.6,1.2c0,0.2,0,0.7,0,0.9
			c-0.9,3.9-1.2,7.8-1.2,11.8c0,1.2-0.2,2.3-0.2,3.7c0,0.7-0.2,1.6-1.2,1.6c-1.2,0-1.2-0.9-1.4-1.8c0-0.5,0-0.7,0-1.2
			c0.2-5.1-2.8-7.4-7.8-7.6c-4.1-0.2-8.5-0.2-12.7-0.5c-2.5,0-5.1,0-7.6,0c-1.6,0-1.8,0.2-1.8,1.8c0,0.9,0,1.8,0,2.8
			c0,9.2,0,18.4,0,27.7c0,0.5,0,0.9,0,1.4c0,0.9,0.2,1.6,1.4,1.6c7.4-0.2,15,0.2,22.4-0.2c2.1-0.2,3.7-0.9,5.1-2.5
			c0.2-0.2,0.2-0.5,0.5-0.5c0.5-0.2,0.7-0.5,1.2-0.2s0.7,0.7,0.5,1.2c0,0.9-0.2,1.8-0.2,2.8c-0.9,4.8-0.9,9.7-1.2,14.7
			c0,0.9,0.2,2.3-1.2,2.3c-1.4,0-1.2-1.4-1.2-2.3c-0.5-3.2-1.4-6.2-4.8-7.6c-1.2-0.5-2.1-0.7-3.2-0.7c-5.5-0.2-11.1-0.5-16.8-0.5
			c-2.1,0-2.3,0-2.3,2.1c0,9.9,0,19.6,0.2,29.5c0,3,0.2,6.2,0.7,9.2c0.7,3.7,2.1,5.1,6,5.3c1.8,0.2,3.7,0.2,5.5,0.5
			c0.7,0,1.4,0,1.6,0.9c0,0.9-0.7,1.2-1.4,1.4c-0.7,0-1.2,0-1.8,0c-5.8,0-11.5-0.2-17.3-0.2c-6-0.2-11.8,0.2-17.7,0.2
			c-0.7,0-1.4,0-2.1,0s-1.2-0.5-1.2-1.2s0.7-0.9,1.2-0.9c1.4,0,2.8-0.2,4.1-0.5c2.5-0.2,3.7-1.6,4.4-3.9c0.5-2.1,0.7-4.4,0.9-6.5
			c0.2-5.3,0.5-10.6,0.5-16.1c0-16.4,0-32.7,0-49.1c0-3.2-0.2-6.5-0.5-9.7c-0.2-4.8-2.5-6-6.5-6.7c-1.4-0.2-2.8,0-4.4-0.2
			c-0.7,0-1.8,0-1.8-1.2c0-0.9,1.2-1.2,1.8-1.2c0.7,0,1.6,0,2.3,0C330,191.6,338.5,192.5,346.8,192.1z"/>
		<path class="st0" d="M1305.1,151.7c-8.1-0.5-15.9,0-24,0.2c-0.7,0-1.6,0-2.3-0.2c-0.5,0-0.9-0.5-0.9-0.9c0-0.7,0.2-0.9,0.9-1.2
			c0.5,0,0.9,0,1.4,0c0.9,0,1.8-0.2,2.8-0.2c2.3-0.2,3.2-1.6,3.7-3.7c0.5-2.5,0.7-4.8,0.7-7.4c0.2-2.3,0.2-4.6,0.2-6.9
			c0-16.8,0-33.6,0-50.5c0-1.2,0-2.1,0-3.2c-0.2-3.7-1.2-5.1-5.3-6c-1.2-0.2-2.3-0.2-3.7-0.2c-0.5,0-1.2,0-1.6-0.2
			c-0.5-0.2-0.7-0.5-0.7-0.9c0-0.5,0.2-0.7,0.7-0.7c0.7-0.2,1.6-0.2,2.5-0.2c3.9,0,7.6,0.2,11.5,0.2c11.3,0,22.8,0,34.1,0
			c2.3,0,4.4-0.5,6.7-0.9c1.2-0.2,1.6,0,1.4,1.2c0,1.2-0.5,2.3-0.5,3.5c-0.2,3.2-0.5,6.2-0.9,9.4c0,0.7-0.2,1.4-0.5,2.3
			c-0.2,0.5-0.7,0.9-1.2,0.7c-0.5,0-0.7-0.7-0.7-1.2c0-0.7,0-1.2-0.2-1.8c-0.7-4.1-2.5-5.8-6.5-6.2c-2.3-0.2-4.6-0.5-6.9-0.5
			c-3.7,0-7.4-0.2-11.1-0.2c-1.8,0-1.8,0-1.8,1.6c0,8.5,0,17.1,0,25.6c0,1.6,0,1.8,1.8,1.8c6.5,0,12.9,0,19.4-0.5
			c2.1,0,3.9-0.5,5.3-2.1c0.5-0.5,0.9-0.9,1.6-0.7c0.7,0.2,0.7,0.9,0.5,1.6c-0.2,1.8-0.2,3.9-0.7,5.8c-0.5,2.8-0.5,5.8-0.7,8.5
			c0,0.2,0,0.7,0,0.9c0,0.9-0.2,1.8-1.2,1.8c-1.4,0-0.9-1.2-1.2-1.8c0-0.2,0-0.2,0-0.5c-0.2-4.8-2.1-6.5-6.5-6.7
			c-5.5-0.5-11.1-0.7-16.8-0.5c-1.2,0-1.6,0.5-1.6,1.6c0,8.5,0,16.8,0,25.3c0,4.6,2.1,6.7,6.5,7.6c5.5,0.9,11.1,0.9,16.6,0
			c3.9-0.7,6.2-3,7.1-6.7c0.2-0.9,0.5-1.8,0.7-2.5s0.5-1.2,1.2-1.2s0.9,0.7,0.9,1.4c0,0.5,0,1.2,0,1.6c0,3.7-0.7,7.6-1.4,11.3
			c-0.7,2.8-1.4,3.5-4.1,3.5c-4.8,0-9.4,0-14.3,0C1312.5,152,1308.8,152,1305.1,151.7z"/>
		<path class="st0" d="M580.9,289.1c-6.7-0.5-13.6-0.2-20.7,0c-1.6,0-3,0-4.6,0c-0.9,0-1.6-0.2-1.6-1.2c0-0.7,0.7-1.2,1.4-1.2
			c0.2,0,0.7,0,0.9,0c0.9,0,1.8-0.2,2.8-0.2c1.8-0.2,3-1.4,3.5-3c0.5-1.4,0.7-2.8,0.7-4.1c0.2-3.7,0.5-7.6,0.5-11.3
			c0-15.9,0-31.8,0-47.7c0-1.8,0-3.7-0.2-5.5c-0.2-3.7-1.8-5.3-5.5-5.8c-1.2-0.2-2.3-0.2-3.5-0.2c-0.5,0-1.2,0-1.6-0.2
			c-0.5,0-0.7-0.5-0.7-0.9c0-0.5,0.2-0.7,0.7-0.9c0.7-0.2,1.4-0.2,2.1-0.2c2.1,0,4.1,0,6.2,0c13.4,0.5,26.5,0.2,39.9,0.2
			c2.3,0,4.6-0.5,6.9-0.9c1.2-0.2,1.8,0,1.6,1.4c-0.9,4.1-0.9,8.5-1.4,12.9c0,0.7-0.2,1.4-0.5,2.1c-0.2,0.5-0.7,0.9-1.2,0.7
			c-0.7,0-0.7-0.5-0.7-0.9c0-0.5,0-0.7,0-1.2c-0.5-4.6-2.3-6.5-6.9-6.9c-2.5-0.2-5.1-0.5-7.6-0.5c-3.5,0-6.7-0.2-10.1-0.2
			c-1.6,0-1.6,0-1.6,1.6s0,3,0,4.6c0,6.7,0,13.4,0,19.8c0,0.5,0,1.2,0,1.6c0,1.2,0.5,1.6,1.6,1.4c0.2,0,0.7,0,0.9,0
			c5.8,0,11.5-0.2,17.5-0.2c2.5,0,5.1-0.2,6.9-2.5c0.2-0.2,0.7-0.7,1.2-0.5s0.7,0.7,0.7,1.4c-0.2,1.4-0.2,2.8-0.5,4.4
			c-0.5,3.7-0.9,7.1-0.9,10.8c0,0.5,0,0.9-0.2,1.4c-0.2,0.7-0.5,1.2-1.2,0.9c-0.7,0-0.7-0.5-0.9-1.2c0-0.9-0.2-1.6-0.2-2.5
			c-0.2-2.8-1.6-4.4-4.4-5.1c-0.7-0.2-1.4-0.5-2.3-0.5c-5.5-0.2-11.1-0.5-16.6-0.5c-1.6,0-1.6,0-1.6,1.6c0,7.4,0,14.7,0,22.1
			c0,0.7,0,1.4,0,2.1c0.2,6,2.1,8.1,7.8,8.8c5.1,0.7,10.1,0.7,15.2-0.2c3.9-0.7,6.2-2.8,7.1-6.7c0.2-0.9,0.5-1.8,0.7-2.5
			s0.5-1.2,1.2-1.2c0.9,0,0.9,0.9,1.2,1.4c0,0.7,0.2,1.6,0,2.3c-0.2,3.2-0.7,6.7-1.4,9.9c-0.7,3.2-1.4,3.9-4.6,3.9
			c-7.1,0.2-14.3-0.2-21.2-0.5C583.7,288.8,582.5,289.1,580.9,289.1z"/>
		<path class="st0" d="M415,288.8c-6.5-0.7-14.5,0-22.6,0c-0.7,0-1.4,0-2.1,0c-0.5,0-1.2-0.5-1.2-0.9c0-0.7,0.5-1.2,1.2-1.2
			c1.2-0.2,2.3-0.2,3.7-0.2c2.5-0.2,3.7-1.6,3.9-3.9c0.2-1.4,0.5-3,0.5-4.4c0.5-20.7,0.5-41.7,0.2-62.4c0-4.8-1.6-6.5-6.5-6.9
			c-1.2-0.2-2.3-0.2-3.7-0.2c-0.7,0-1.2-0.5-1.2-1.2s0.7-0.7,1.2-0.9c0.9-0.2,1.8-0.2,3-0.2c14.3,0.5,28.8,0.2,43.3,0.5
			c2.8,0,5.3-0.2,8.1-0.9c1.6-0.5,2.1,0,1.6,1.4c-0.7,3.7-0.9,7.6-1.2,11.5c0,0.9-0.2,1.8-0.5,2.8c-0.2,0.7-0.5,1.4-1.4,1.2
			c-0.7,0-0.7-0.7-0.9-1.4c0-0.9,0-1.8-0.2-2.8c-0.9-3.2-2.8-4.6-6.5-5.1c-3.5-0.5-7.1-0.5-10.6-0.5c-2.3,0-4.8-0.2-7.1-0.2
			c-1.8,0-2.1,0-2.1,2.1c0,6.7,0,13.6,0,20.3c0,1.6,0,3.2,0,5.1c0,1.6,0.2,1.6,1.6,1.6c6.5,0,13.1,0,19.6-0.5c2.1,0,3.9-0.7,5.3-2.3
			c0.5-0.5,0.9-0.9,1.6-0.5c0.7,0.5,0.7,0.9,0.5,1.6c-0.7,5.1-1.4,9.9-1.4,15c0,0.5-0.2,0.9-0.2,1.4c-0.2,0.5-0.5,0.7-1.2,0.7
			c-0.5,0-0.9-0.2-0.9-0.9c0-0.9-0.2-1.8-0.2-2.8c-0.2-2.8-1.6-4.4-4.1-5.1c-0.7-0.2-1.4-0.5-2.3-0.5c-5.5-0.2-11.1-0.7-16.6-0.5
			c-1.6,0-1.8,0-1.8,1.8c0,7.8,0,15.9,0,23.7c0,0.7,0.2,1.6,0.2,2.3c0.5,3.9,2.3,6,6,6.7c5.8,0.9,11.3,0.9,17.1,0
			c3.7-0.7,6-2.8,6.9-6.5c0.2-0.9,0.5-1.8,0.7-2.8c0.2-0.7,0.5-1.2,1.2-1.2c0.9,0,0.9,0.7,0.9,1.4c0,0.7,0.2,1.6,0,2.3
			c-0.2,3.2-0.5,6.2-1.2,9.4c-0.2,0.7-0.2,1.4-0.5,2.3c-0.5,1.4-1.2,2.1-2.5,2.1c-0.9,0-1.8,0.2-3,0.2
			C432.3,289.5,424.2,289.1,415,288.8z"/>
		<path class="st0" d="M974.9,152c-5.1,0-9.9,0-15,0c-0.7,0-1.2,0-1.8,0c-0.9,0-1.6-0.2-1.6-1.2s0.7-1.2,1.6-1.2
			c1.2,0,2.3-0.2,3.7-0.2c2.1-0.2,3.2-1.6,3.5-3.5c0.2-1.6,0.5-3.2,0.5-4.6c0.7-20.3,0.2-40.3,0.2-60.6c0-1.2,0-2.3-0.2-3.7
			c-0.5-3.2-1.8-4.6-5.1-5.1c-1.2-0.2-2.3-0.2-3.5-0.5c-0.7,0-1.2-0.2-1.2-1.2c0-0.7,0.7-0.9,1.2-0.9c0.7,0,1.4-0.2,2.3-0.2
			c9.4,0.2,18.9,0.5,28.3,0c0.9,0,1.6,0,2.5,0.2c0.5,0.2,0.7,0.5,0.7,0.7c0,0.5-0.2,0.9-0.7,0.9c-0.5,0.2-1.2,0.2-1.6,0.2
			c-1.2,0.2-2.5,0.2-3.7,0.7c-1.6,0.5-2.5,1.4-2.8,3c-0.2,1.2-0.5,2.3-0.5,3.7c0,3.9-0.2,7.6-0.2,11.5c0,15.9-0.2,31.6,0.2,47.5
			c0,2.3,0,4.6,0.5,6.7c0.5,3.2,1.6,4.4,4.8,4.8c1.6,0.2,3.2,0.2,5.1,0.5c0.2,0,0.5,0,0.7,0c0.7,0,1.4,0.2,1.4,1.2
			c0,0.7-0.7,0.9-1.2,1.2c-0.7,0-1.2,0-1.8,0C985.5,151.7,980.2,152,974.9,152z"/>
		<path class="st1" d="M1421,187.7c-4.1,0-7.8,1.2-11.8,2.3c-4.6,1.4-8.8,3.2-13.1,5.5c-0.7,0.5-1.8,1.6-2.5,0.5
			c-0.7-0.9,0.7-1.6,1.4-2.3c5.1-4.6,10.6-8.8,16.4-12.9c1.6-1.2,3.2-2.3,4.8-3.2c2.1-1.2,2.8-0.9,3.7,0.9c1.2,2.3,2.5,4.8,3.5,7.4
			c0.9,1.8,0.7,2.1-1.6,2.1C1421.5,187.7,1421.3,187.7,1421,187.7z"/>
		<path class="st0" d="M1446.4,286.8c-4.1,0-6.9-1.8-9.2-5.3c-0.9-1.6-2.1-3.2-2.8-4.8c-1.6-3.5-3.2-7.1-4.6-10.8
			c-8.1-19.1-16.4-38.3-24.4-57.4c-0.5-0.9-0.9-1.8-1.2-2.8c-0.5-1.2-1.2-2.1-2.5-2.1c-1.6,0-2.1,1.2-2.5,2.1
			c-0.5,0.7-0.7,1.4-0.9,2.1c-9.9,23-19.8,46.1-29.7,69.4c-0.7,1.6-1.4,3.2-2.3,4.8c-0.5,0.7-0.9,0.9-1.6,0.2
			c-1.2-1.2-2.5-2.1-3.7-3.5c-8.8-9-16.6-18.9-24.7-28.8c1.4-1.4,3-2.5,4.4-3.7c3.5-3,6.5-6.5,8.8-10.4c2.3-4.1,3.2-8.5,2.3-13.4
			c-1.6-7.8-6.7-12.7-14.3-14.7c-4.6-1.4-9.2-1.6-13.8-1.6s-9,0.2-13.6,0.2c-6.5,0.2-13.1-0.2-19.6-0.2c-0.9,0-1.6,0-2.5,0.2
			c-0.5,0.2-1.2,0.5-0.9,0.9c0,0.5,0.5,0.9,1.2,0.9c1.2,0,2.3,0.2,3.7,0.2c5.1,0.5,6.5,2.1,6.5,7.1c0.2,15.4,0.2,30.9,0,46.3
			c0,5.1,0,10.1-0.2,15.2c0,2.1-0.2,4.1-0.9,6.2c-0.5,1.2-1.2,2.3-2.3,2.5c-5.5,1.2-10.8,0.9-14.3-4.6c-1.6-2.5-3-5.3-4.1-8.1
			c-5.1-11.5-9.9-23.3-15-34.8c-4.4-10.1-8.8-20.3-13.1-30.4c-0.5-1.2-0.9-2.3-1.6-3.2c-1.2-1.6-2.8-1.6-3.9,0
			c-0.7,0.9-1.2,2.1-1.6,3.2c-7.1,16.6-14.3,33.2-21.4,49.8c-3,6.7-5.8,13.4-8.8,20c-0.9,2.1-1.8,4.1-3.7,6c-1.4,1.4-3,2.3-5.3,2.3
			c0.7-2.3,0.7-4.6,1.2-6.9c0.2-1.8,0.5-3.9,0.2-5.8c0-0.7,0-1.6-0.9-1.8c-1.2-0.2-1.2,0.9-1.4,1.6c-0.2,0.7-0.2,1.4-0.5,2.3
			c-0.9,3.7-3.2,5.8-6.9,6.5c-2.1,0.5-4.1,0.5-6,0.5c-3.7,0.2-7.4,0-11.1-0.7s-5.3-2.5-6-6.2c0-0.7-0.2-1.2-0.2-1.8
			c0-8.3,0-16.6,0-24.9c0-1.6,0-1.6,1.6-1.6c5.5,0,11.1,0.2,16.6,0.5c0.7,0,1.4,0.2,2.3,0.5c2.5,0.7,3.9,2.3,4.4,4.8
			c0,0.9,0,1.6,0.2,2.5c0,0.7,0.2,1.2,0.9,1.4c0.9,0,1.2-0.5,1.4-1.2c0-0.2,0-0.7,0-0.9c0.2-3.2,0.5-6.7,0.9-9.9
			c0.2-1.6,0.5-3.5,0.5-5.1c0-0.7,0-1.4-0.7-1.6c-0.7-0.2-0.9,0.2-1.4,0.7c-1.4,1.6-3.2,2.1-5.3,2.3c-6.5,0.5-13.1,0.5-19.6,0.5
			c-1.6,0-1.6-0.2-1.6-1.6c0-8.5,0-17.3,0-25.8c0-1.4,0.2-1.6,1.8-1.6c3.9,0,7.6,0.2,11.5,0.2c2.3,0,4.6,0.2,6.7,0.5
			c4.1,0.5,6.2,2.5,6.5,6.7c0,0.2,0,0.7,0,0.9c0,0.7,0,1.4,0.7,1.4c0.9,0.2,1.2-0.5,1.4-1.2c0-0.2,0.2-0.7,0.2-0.9
			c0.7-4.4,0.7-9,1.4-13.6c0.2-1.4-0.2-1.6-1.6-1.4c-3,0.7-6,0.9-9,0.9c-14.3,0-28.3,0-42.6-0.5c-0.9,0-2.1-0.2-3,0.2
			c-0.5,0.2-1.2,0.2-1.2,0.9s0.5,0.9,1.2,1.2c1.4,0.2,2.5,0.2,3.9,0.2c4.6,0.5,6.2,2.3,6.2,6.7c0,3,0,6,0,8.8c0,13.6,0,27.2,0,40.8
			c0,3.9,0,8.1-0.2,12c0,2.1-0.2,4.1-0.7,6.2c-0.5,1.8-1.4,3-3.5,3c-0.9,0-1.8,0.2-2.8,0.2c-0.5,0-0.9,0-1.4,0
			c-0.7,0-0.9,0.5-1.2,0.9c0,0.7,0.5,1.2,1.2,1.2s1.2,0,1.8,0c5.5,0,11.1-0.5,16.6-0.2c13.6,0.2,27.2,1.2,40.8,0.2
			c5.3-0.2,10.6-0.2,16.1,0c1.4,0,2.5,0,3.9,0c0.9,0,1.6-0.2,1.6-1.2c0-0.9-0.7-1.2-1.6-1.2c-1.2,0-2.3,0-3.7-0.2
			c-2.1-0.5-2.8-1.4-2.5-3.5c0.2-1.6,0.5-3.2,1.2-4.6c2.1-5.1,4.1-10.4,6.2-15.4c0.5-0.9,0.9-1.4,2.1-1.4c8.3,0,16.6,0,24.9,0
			c1.2,0,1.8,0.5,2.3,1.6c2.8,6.9,5.5,13.6,8.1,20.5c0.7,1.8,0.5,2.1-1.4,3c-0.5,0.2-0.7,0.5-0.7,0.9c0,0.7,0.5,0.7,1.2,0.9
			c1.4,0.2,2.5,0.2,3.9,0.2c18.4,0.5,36.6-0.5,55.1,0c0.2,0,0.5,0,0.7,0s0.5,0,0.7,0c0.7-0.2,1.2-0.5,1.2-1.2s-0.5-1.2-1.2-1.2
			c-0.2,0-0.7,0-0.9,0c-1.6-0.2-3.2-0.2-4.8-0.5c-2.3-0.2-3.5-1.4-4.1-3.7c-0.2-0.7-0.2-1.4-0.5-2.1c-0.7-8.1-0.5-16.1-0.7-24.2
			c0-1.2,0.5-1.6,1.6-1.6c2.5,0,5.3,0.2,7.8,0c2.1,0,3.5,0.7,4.6,2.3c3.9,5.5,7.6,11.1,11.8,16.6c2.5,3.2,5.1,6.2,7.8,9.2
			c2.5,2.5,5.8,3.9,8.8,5.8c1.6,0.9,3.9,0.2,5.8,0.2c1.2,0,2.1,0,3.2,0c6.2,0,12.2,0,18.4,0c0.9,0,1.6,0,1.6-1.2
			c0-0.9-0.7-1.2-1.6-1.2c-1.4,0-2.5,0-3.9-0.2c-1.8-0.5-2.3-1.2-2.3-3c0-2.3,0.7-4.4,1.6-6.2c1.8-4.6,3.9-9.2,5.8-13.8
			c0.5-1.4,1.2-1.8,2.5-1.8c8.1,0,16.1,0,24.2,0c1.6,0,2.3,0.5,2.8,2.1c2.5,6.5,5.1,12.9,7.8,19.6c0.2,0.5,0.5,0.9,0.5,1.4
			c0.5,1.2,0,1.8-0.9,2.1c-0.2,0.2-0.7,0.2-0.9,0.2c-0.5,0.2-0.5,0.5-0.5,0.9c0,0.5,0.5,0.7,0.7,0.7c1.2,0.2,2.1,0.2,3.2,0.5
			c7.8,0,15.4,0,23.3,0.2c0.9,0,1.8,0,2.5-0.5c0-0.5,0-0.9,0-1.4C1448,286.5,1447.3,286.8,1446.4,286.8z M1229.6,255.2
			c1.6-5.1,3.7-9.9,5.8-14.7c1.8-4.8,3.7-9.7,5.8-14.5c1.4,2.8,10.8,27.4,11.3,29.3C1244.8,255.2,1237.2,255.2,1229.6,255.2z
			 M1332.8,244.8c-2.5,2.8-5.3,4.6-9.2,4.4c-0.7,0-1.6,0-2.3,0c-2.1,0-4.4,0-6.5-0.5s-2.5-0.7-2.5-3c0-10.4,0-20.7,0-30.9
			c0-2.1,0-2.1,2.1-2.5c3.2-0.5,6.7-0.5,9.9,0.2c5.3,1.4,9.2,4.4,11.3,9.7c2.3,6,2.3,12,0,18.2
			C1334.9,242.1,1333.9,243.4,1332.8,244.8z M1386.7,255.4c3.9-9.9,7.6-19.6,11.8-29.7c3.9,10.1,7.6,19.8,11.3,29.7
			C1401.9,255.4,1394.5,255.4,1386.7,255.4z"/>
		<path class="st0" d="M837.1,272c-0.2-0.9-1.4-0.9-1.8,0c-0.2,0.5-0.2,1.2-0.5,1.8c-1.2,5.5-3.9,8.1-9.7,8.8
			c-5.1,0.5-10.1,0.2-15.2-0.2c-1.2,0-2.3-0.5-3.2-0.7c-2.5-0.5-4.1-2.3-4.4-4.8c-0.2-1.6-0.5-3.2-0.5-4.6
			c-0.2-6.5-0.2-13.1-0.2-19.6c0-12.4-0.2-24.7,0.2-37.1c0-1.2,0.2-2.1,0.5-3.2c0.5-1.6,1.4-2.5,3-3c1.4-0.5,3-0.5,4.4-0.7
			c0.5,0,0.9,0,1.4,0c0.7,0,1.2-0.2,1.4-0.9c0-0.9-0.7-1.2-1.4-1.2c-0.5,0-1.2,0-1.6,0c-10.4,0.2-20.5,0.5-30.9,0
			c-0.7,0-1.4,0-2.1,0.2c-0.5,0-1.2,0.2-0.9,0.9c0,0.7,0.5,0.9,1.2,0.9c0.9,0,1.8,0.2,3,0.2c5.1,0.7,6.5,2.1,6.5,7.1
			c0.5,14.3,0.2,28.6,0.2,43.1c0,6-0.2,12-0.2,18.2c0,2.1-0.2,4.4-0.9,6.5c-0.5,1.6-1.6,2.5-3.2,3c-2.1,0.5-4.4,0.2-6.5,0
			s-3.5-1.2-4.8-2.5c-1.2-1.2-2.1-2.5-3-3.9c-1.4-2.1-2.3-4.4-3.2-6.7c-5.1-12-10.1-23.7-15.2-35.7c-4.1-9.9-8.3-19.6-12.7-29.5
			c-0.5-0.9-0.7-1.6-1.2-2.5c-1.4-2.5-3.2-2.5-4.8-0.2c-0.5,0.9-0.9,1.8-1.4,2.5c-7.1,16.6-14.3,33.4-21.4,50
			c-2.8,6.7-5.5,13.1-8.5,19.6c-0.7,1.8-1.6,3.7-3,5.3c-11.1-9.7-19.6-21.7-29-33c2.8-2.1,5.1-4.1,7.4-6.5c2.8-3,5.3-6,6.9-9.7
			c3.2-7.4,1.6-15.2-3.9-21c-3.7-3.7-8.3-5.1-13.1-6c-5.8-0.9-11.8-0.9-17.5-0.7c-6.2,0.2-12.4,0.2-18.7,0c-2.3,0-4.8,0-7.1-0.2
			c-0.7,0-1.4,0-2.1,0.2c-0.5,0.2-0.9,0.5-0.7,0.9c0,0.5,0.5,0.9,0.9,0.9c0.5,0,1.2,0.2,1.6,0.2c1.2,0,2.3,0.2,3.5,0.2
			c3.7,0.5,5.3,2.3,5.5,6c0,1.2,0,2.1,0,3.2c0,17.3,0,34.8,0,52.1c0,3.5,0,7.1-0.5,10.6c-0.7,5.3-1.8,5.5-6.2,6
			c-0.7,0-1.4,0-2.1,0.2c-0.5,0-0.7,0.5-0.7,0.9c0,0.5,0.2,0.9,0.7,0.9c0.7,0.2,1.4,0.2,2.3,0.2c9.7-0.2,19.1-0.2,28.8,0
			c0.7,0,1.4,0,2.1,0c0.5,0,0.7,0,1.2,0c0.7-0.2,1.2-0.5,1.2-1.2c0-0.5-0.5-0.9-1.2-0.9c-0.5,0-0.7,0-1.2,0
			c-1.6-0.2-3.2-0.2-4.8-0.5c-2.1-0.2-3.5-1.4-3.9-3.5c-0.2-0.7-0.2-1.2-0.2-1.8c-0.7-4.6-0.5-9.2-0.7-14.1c-0.2-3.5,0-6.7,0-10.1
			c0-1.8,0-1.8,1.8-1.8c2.1,0,3.9,0,6,0c5.1,0,4.4-0.5,7.4,3.9c4.4,6.5,9,12.9,14.1,18.9c3.5,4.1,6.9,8.1,12,9.9
			c0.2,0,0.5,0.2,0.5,0.2c0.7,0.9,1.6,0.9,2.3,0.9c3.2,0,6.2,0,9.4,0c5.3,0,10.6,0,16.1,0c0.9,0,1.8,0,1.8-1.2
			c0-0.9-0.9-1.2-1.6-1.2c-1.2,0-2.3,0-3.7-0.2c-2.1-0.5-2.8-1.6-2.5-3.7c0.2-1.8,0.7-3.5,1.4-5.3c2.1-4.8,3.9-9.7,6-14.5
			c0.5-1.2,1.2-1.8,2.5-1.8c8.1,0,16.4,0,24.4,0c1.4,0,2.1,0.5,2.8,1.8c2.5,6.7,5.3,13.4,8.1,20c0.7,2.1,0.7,2.3-1.2,3.2
			c-0.5,0.2-0.7,0.5-0.7,0.9c0,0.5,0.5,0.7,0.9,0.7c1.2,0,2.3,0.2,3.7,0.2c7.1,0,14.3,0,21.2,0.2c8.8,0.2,17.5-0.5,26.3-0.2
			c8.5,0.5,17.1,0.5,25.6,0.5c1.4,0,2.8,0,4.4-0.2c2.1,0,3.5-1.2,3.9-3.5c0.9-3.9,1.2-7.8,1.6-12C837.6,273.2,837.4,272.5,837.1,272
			z M663.9,245.1c-2.3,2.8-5.3,4.4-9,4.1c-2.8,0-5.8,0-8.5-0.5c-2.5-0.5-2.8-0.7-2.8-3.2c0-5.1,0-10.1,0-15.4c0-5.1,0-10.1,0-15.2
			c0-2.3,0-2.5,2.3-2.8c3.2-0.5,6.5-0.5,9.7,0.2c5.3,1.4,9.2,4.6,11.3,9.7c2.3,5.8,2.3,11.8,0,17.7
			C666.4,241.8,665.2,243.4,663.9,245.1z M718.2,255.4c0.2-1.8,9.9-26.5,11.5-29.3c3.7,9.9,7.4,19.4,11.3,29.5
			C733.2,255.4,725.8,255.4,718.2,255.4z"/>
		<path class="st0" d="M1264.8,88.1c-5.8-9.2-14.3-14.3-24.4-16.8c-7.1-1.8-14.5-2.1-21.9-2.1c-12.7,0-25.6,0.5-38.3,0
			c-0.7,0-1.4,0-2.1,0.2c-0.5,0-1.2,0.2-1.2,0.9s0.5,1.2,1.2,1.2c1.2,0,2.1,0.2,3.2,0.2c5.3,0.5,6.9,2.1,6.9,7.4c0,10.1,0,20,0,30.2
			l0,0c0,9.2,0,18.2,0,27.4c0,2.5-0.2,5.3-0.5,7.8c-0.5,3.7-1.6,4.8-5.1,5.1c-5.3,0.7-9.9-0.7-12.7-5.8c-1.2-2.3-2.5-4.4-3.5-6.9
			c-4.4-10.4-8.8-20.5-13.1-30.9c-4.8-11.5-9.9-23-14.7-34.6c-0.5-0.9-0.9-1.8-1.4-2.8c-1.4-2.3-3.2-2.3-4.6-0.2
			c-0.5,0.9-0.9,1.8-1.4,2.8c-9.7,22.6-19.4,45.2-29,67.7c-0.9,2.1-1.6,3.9-2.8,6c-1.8,3-4.4,4.6-8.1,4.8c-0.7,0-1.4,0-2.1,0
			c-0.9,0-1.6,0.2-1.6,1.2s0.9,1.2,1.6,1.2s1.4,0,2.1,0c5.8,0.2,11.3-0.5,17.1-0.2c2.1,0.2,4.1,0.2,6,0c0.9,0,2.5,0.7,2.8-1.2
			c0.2-0.9-0.5-1.2-2.5-1.2c-0.7,0-1.4,0-2.1-0.2c-2.5-0.5-3.5-1.6-3-4.1c0.2-1.6,0.7-3.5,1.4-5.1c2.1-4.8,3.9-9.7,6-14.5
			c0.5-1.2,1.2-1.6,2.3-1.6c8.3,0,16.4,0,24.7,0c1.4,0,2.1,0.5,2.5,1.8c2.5,6.7,5.3,13.4,8.1,20c0.9,2.1,0.9,2.3-1.4,3.5
			c-0.5,0.2-0.7,0.7-0.7,1.2s0.5,0.7,0.9,0.7c1.2,0.2,2.3,0.2,3.5,0.2c10.6,0,21.4,0.5,32,0c7.8-0.2,15.9,0.5,23.7,0.9
			c9.4,0.7,18.9,0.2,27.9-2.5c9.7-3,17.7-8.3,23.5-17.1c3.9-6,6-12.7,6.5-19.8C1271,104.3,1269.4,95.7,1264.8,88.1z M1120.3,118.3
			c-0.5-0.5-0.2-0.9,0-1.4c3.7-9,7.1-18.2,10.8-27.2c0-0.2,0.2-0.2,0.5-0.5c3.7,9.7,7.4,19.4,11.3,29.3
			C1135.1,118.3,1127.7,118.3,1120.3,118.3z M1252.4,126.6c-2.8,10.8-10.4,16.8-21,19.4c-3.5,0.9-7.1,1.2-10.8,1.2
			c-3.2,0-6.7,0-9.9-1.2c-0.9-0.2-1.6-0.5-2.5-0.9c-2.3-0.9-3.7-2.5-3.9-5.3c-0.5-3.5-0.5-6.9-0.5-10.4c-0.2-16.6-0.2-33,0-49.5
			c0-4.1,0-4.4,4.1-4.6c9.9-0.9,19.4,0.2,28.3,4.8c8.5,4.4,14.1,11.3,16.4,20.5C1254.7,109.3,1254.7,118.1,1252.4,126.6z"/>
		<path class="st0" d="M946.4,119.5c-1.8-5.3-5.8-9.2-10.4-12.7c-3.5-2.8-7.4-4.8-11.3-6.9c-3.2-1.8-6.2-3.7-9-6
			c-5.8-5.1-5.5-15.2,3.2-18.9c4.1-1.8,8.5-2.1,12.9-1.2c6.5,1.4,9.9,5.5,10.8,12.2c0,0.2,0,0.2,0,0.5c0,0.5,0.5,0.9,0.9,1.2
			c0.7,0,0.9-0.2,1.2-0.9c0.5-0.9,0.5-1.8,0.5-3c0-3.7,0-7.4,0.2-11.1c0.2-2.5,0-3-2.5-3.5c-7.1-1.4-14.5-2.1-21.9-0.9
			c-5.1,0.7-9.9,2.5-14.1,5.8c-3.5,2.8-6.2,6.2-7.1,10.6c-1.8,8.1,0.2,15.4,6,21.4c3,3,6.5,5.5,9.9,7.6c2.8,1.6,5.5,3.2,8.1,4.8
			c2.5,1.4,4.8,3.2,6.9,5.3c6.5,6.2,5.3,19.8-6.5,23c-4.1,1.2-8.3,0.9-12.2-0.2c-7.1-1.8-11.1-6.5-11.8-14.1c0-0.7-0.2-1.4-0.2-2.3
			c0-0.7-0.5-0.9-0.9-1.2c-0.7,0-1.2,0.2-1.2,0.9c-0.2,0.9-0.5,1.8-0.5,2.8c-0.2,4.4-0.7,9-0.7,13.4c0,0.7,0.2,1.4-0.2,1.8
			c-0.7,0-1.4-0.5-1.8-0.7c-3-1.6-5.3-3.9-7.8-6.2c-6.9-6.9-12.9-14.5-19.1-22.1c-1.6-2.1-3.2-3.9-4.8-6c0.9-0.7,1.6-1.4,2.3-2.1
			c4.1-3.5,8.1-7.4,10.6-12.2c2.3-4.1,3.2-8.5,2.3-13.4c-1.6-7.8-6.7-12.7-14.3-14.7c-4.6-1.4-9.4-1.8-14.1-1.6
			c-11.1,0.2-22.1,0.5-33.2,0c-0.7,0-1.4,0-2.1,0.2c-0.5,0-1.2,0.2-1.2,0.9s0.5,1.2,1.2,1.2c1.4,0.2,2.5,0.2,3.9,0.2
			c4.6,0.5,6.2,2.1,6.2,6.7c0,0.9,0,1.6,0,2.5c0,14.5,0,29,0,43.8c0,5.3,0,10.4-0.2,15.7c0,2.1-0.2,4.4-0.9,6.5
			c-0.5,1.4-1.4,2.5-3,2.8c-0.9,0.2-1.8,0.2-3,0.5c-0.5,0-0.9,0-1.4,0c-0.7,0-1.2,0.5-1.2,1.2s0.5,0.9,1.2,0.9s1.4,0,2.1,0
			c4.8,0,9.9-0.2,14.7-0.2c5.3,0,10.4,0.2,15.7,0.2c0.7,0,1.2,0,1.8-0.2c0.5,0,0.9-0.5,0.9-0.9c0-0.7-0.5-0.9-0.9-1.2
			c-0.5,0-0.9,0-1.4,0c-1.6-0.2-3.2-0.2-4.8-0.5c-2.1-0.2-3.5-1.4-3.7-3.2c-0.2-0.7-0.2-1.4-0.5-2.1c-0.7-8.1-0.5-16.4-0.7-24.4
			c0-1.6,0-1.6,1.8-1.6c2.8,0,5.5,0.2,8.3,0c1.6,0,2.8,0.7,3.7,2.1c1.8,2.8,3.9,5.5,5.8,8.3c4.4,6,8.5,12,13.8,17.3
			c4.1,4.1,9.2,6.2,15,6.2c4.6,0,9,0,13.6,0c0.7,0,1.2,0,1.8,0c5.5,1.4,11.3,1.4,17.1,1.4c2.8,0,5.3-0.5,7.8-0.9
			C941.1,149.4,952.4,136.5,946.4,119.5z M859.7,108.2c-2.3,2.5-5.1,3.9-8.5,3.9c-3,0-6.2,0-9.2-0.7c-1.8-0.5-2.3-0.7-2.3-2.8
			c0-5.3,0-10.4,0-15.7l0,0c0-5.1,0-10.1,0-15.4c0-2.3,0-2.3,2.3-2.8c3.2-0.5,6.2-0.5,9.4,0.2c5.3,1.4,9.4,4.4,11.5,9.7
			c2.3,6,2.3,12,0,18.2C862.3,105,861.1,106.8,859.7,108.2z"/>
		<path class="st0" d="M545.7,238.8c-2.3-13.4-9.7-22.8-22.1-28.1c-6-2.5-12.7-3.7-19.1-4.1c-8.1-0.7-16.1-0.5-24.2-0.2
			c-4.4,0.2-8.5,0.2-12.9,0c-3.7,0-7.4-0.2-11.1-0.2c-0.7,0-1.6,0-2.3,0.2c-0.5,0-1.2,0.2-1.2,0.9s0.5,0.9,1.2,1.2
			c0.5,0,0.9,0,1.4,0c1.2,0,2.1,0.2,3.2,0.2c3.7,0.5,5.3,2.3,5.5,6c0,1.2,0,2.3,0,3.7c0,12.2,0,24.2,0,36.4c0,6.5,0,12.9-0.2,19.1
			c0,3-0.2,6-0.7,8.8c-0.5,2.1-1.6,3.5-3.7,3.5c-0.9,0-1.6,0.2-2.5,0.2c-0.5,0-0.9,0-1.4,0c-0.7,0-0.9,0.5-0.9,0.9
			c0,0.7,0.5,0.9,0.9,1.2c0.5,0,1.2,0,1.6,0c1.8,0,3.7,0,5.5,0c8.8-0.7,17.5,0.2,26.3,0.7c8.8,0.5,17.5,0.2,26-2.1
			c9.9-2.8,18.4-7.8,24.2-16.6C545.7,261.2,547.7,250.4,545.7,238.8z M528.4,264.2c-3,10.4-10.1,16.4-20.3,18.9
			c-6.5,1.6-12.9,1.6-19.4,0.7c-1.8-0.2-3.9-0.9-5.5-1.8s-2.5-2.1-3-4.1c-0.2-2.3-0.7-4.8-0.7-7.1c0-9,0-18,0-27l0,0
			c0-9.2,0-18.4,0-27.9c0-2.3,0.5-3,2.8-3.2c9.7-1.2,19.1-0.2,28.1,4.1c10.8,5.1,17.1,13.6,18.7,25.3
			C530.7,249.4,530.4,256.8,528.4,264.2z"/>
		<path class="st0" d="M1093.8,102.2c-2.1-13.4-9.2-23-21.7-28.3c-6.5-2.8-13.1-3.9-20-4.4c-8.1-0.5-15.9-0.5-24-0.2
			c-6,0.2-12,0.2-18.2,0c-2.1,0-4.1,0-6.2,0c-0.7,0-1.4,0-2.1,0.2c-0.5,0.2-0.7,0.5-0.7,0.9c0,0.5,0.5,0.9,0.9,0.9
			c0.5,0,1.2,0.2,1.6,0.2c1.2,0,2.1,0.2,3.2,0.2c3.7,0.5,5.3,2.1,5.5,5.5c0.2,1.6,0.2,3.5,0.2,5.3c0,16.1,0,32.3,0,48.4
			c0,3.7-0.2,7.6-0.5,11.3c0,1.4-0.2,2.5-0.7,3.7c-0.5,1.8-1.6,3-3.5,3.2c-1.2,0.2-2.3,0.2-3.5,0.2c-0.9,0-1.6,0.2-1.6,1.2
			s0.9,1.2,1.6,1.2c0.5,0,0.9,0,1.4,0c1.6,0,3,0,4.6,0c8.8-0.5,17.5,0.2,26.5,0.7c8.8,0.5,17.5,0.2,26-2.1
			c12.4-3.5,22.4-10.4,27.9-22.6C1094.3,119.7,1095.4,111.2,1093.8,102.2z M1076.8,125.7c-2.8,11.1-10.1,17.5-21,20
			c-6.2,1.6-12.7,1.6-19.1,0.5c-1.6-0.2-3.2-0.7-4.8-1.4c-2.3-1.2-3.7-2.8-3.9-5.3c-0.2-3-0.5-6-0.5-9c0-7.8,0-15.7,0-23.5l0,0
			c0-9.4,0-18.9,0-28.6c0-2.3,0.5-3,2.8-3.2c9.7-1.2,19.1,0,28.1,3.9c11.3,5.3,17.3,14.1,19.1,26.3
			C1078.6,112.3,1078.4,119,1076.8,125.7z"/>
		<path class="st0" d="M938.8,250.4c-1.6-10.8-7.4-18.7-17.3-23c-5.1-2.3-10.4-3-15.9-3.5c-6.2-0.5-12.4-0.5-18.7-0.2
			c-6.2,0.2-12.2,0-18.4-0.2c-0.9,0-1.8,0-2.8,0.2c-0.5,0-0.7,0.2-0.7,0.7s0.2,0.7,0.7,0.7c0.7,0,1.4,0.2,2.1,0.2
			c4.8,0.2,6,1.4,6,6.2c0.2,15.9,0.2,32,0,47.9c0,1.4-0.2,2.8-0.5,4.4c-0.2,1.8-1.2,3-3.2,3c-0.9,0-1.8,0.2-3,0.2
			c-0.5,0-0.7,0.2-0.7,0.7s0.2,0.9,0.7,0.9c0.7,0,1.6,0.2,2.3,0c8.8-0.7,17.5,0,26.3,0.7c6.5,0.5,12.9-0.2,18.9-2.1
			c7.1-2.1,13.4-5.8,17.7-11.8C938.1,268.1,939.9,259.6,938.8,250.4z M925.2,267.6c-2.1,9.9-9.4,15.2-17.7,16.6
			c-4.8,0.9-9.7,0.9-14.5,0c-0.5,0-0.9-0.2-1.6-0.5c-3.5-1.2-4.4-2.3-4.6-6c-0.2-5.5-0.5-11.1-0.5-16.8c0-2.3,0-4.6,0-6.9l0,0
			c0-7.6,0-15.4,0-23c0-2.3,0.5-2.8,2.5-3c7.1-0.5,14.3,0,21,3c9.7,4.4,15,12,15.9,22.4C926.3,258.2,926.1,263,925.2,267.6z"/>
		<path class="st0" d="M1017.6,248.7c-1.8-12.2-9.2-20-20.7-24c-7.8-2.8-15.9-3-24.2-1.6c-7.1,1.2-13.4,3.9-18.7,9
			c-8.8,8.8-12,19.4-9.4,31.3c2.3,11.1,8.8,19.1,19.4,23.7c5.3,2.3,10.6,3,16.4,3c3.5,0,6.9-0.2,10.4-1.2
			C1010.2,284.7,1020.6,267.6,1017.6,248.7z M1002.4,272.7c-2.5,6.5-6.9,10.8-13.6,12.2c-9.9,1.8-18.2-1.2-24.4-9
			c-3.7-4.6-5.5-9.9-6.5-15.7c-0.9-6.5-0.7-12.7,1.4-18.9c2.3-7.1,7.1-12,14.7-13.6c10.6-2.1,20.5,2.3,26,11.3
			c3.7,6,4.8,12.4,4.8,19.4C1004.7,263,1004.2,267.9,1002.4,272.7z"/>
	</g>
	<g>
		<path class="st0" d="M266,241.9c-0.7-4.3-2.1-8.4-3.4-12.5c-2.5-8.1-5-16.2-5.9-24.6c-0.7-6.6-0.5-13.2,2.2-19.4
			c0.2-0.4,0.3-0.8,0.4-1.3c0.3-1.3-0.2-2.3-1.2-3c-1.2-0.9-2.5-0.9-4,0.3c-4.9,3.7-9.6,7.7-13.4,12.6c-0.2,0.3-0.3,0.7-0.9,0.8
			c-1.2-2.5-2.4-5.1-3.5-7.7c-2.1-4.9-3.4-9.9-3.5-15.3c0-0.7-0.1-1.4-0.2-2.1c-0.2-1.3-1-2.1-2.2-2.5c-1.2-0.3-2.3-0.1-3.2,0.8
			c-0.6,0.6-1.1,1.4-1.4,2.2c-2.6,6.2-4,12.7-4.1,19.4c-0.1,6.9,1.1,13.6,2.8,20.2c0.1,0.4,0.3,0.7-0.1,1.1c-0.2,0-0.5-0.1-0.8-0.1
			c-2.2-0.2-4.3-0.4-6.5-0.5c-1.7-0.1-2.9,1-3.3,2.7c-0.1,0.4-0.2,0.9-0.2,1.3c-0.2,3.8-0.3,7.6-0.5,11.5c-0.2,3.3-0.3,6.5-0.9,9.8
			c-1.7,9.8-6,18.3-13.1,25.4c-0.3,0.3-0.5,0.7-0.9,0.8c0-2.4,0-4.7,0-7.1c0-0.9,0.3-1.7,0.8-2.4c4-5.4,6.4-11.4,7.5-18
			c0.7-4,0.7-8.1,0.9-12.1c0.5-10,0.9-20,1.3-30.1c0.5-11.4,1-22.7,1.4-34.1c0.4-9.8,0.9-19.6,1.3-29.4c0.3-6.8,0.6-13.5,0.9-20.3
			c0.1-2.5,0.2-5,0.3-7.5c0-0.7-0.1-1.1-0.8-1.1c-0.3,0-0.7-0.1-1-0.1c-2.4-0.3-4.8-0.7-7.2-0.9c-0.9-0.1-0.9-0.5-0.9-1.2
			c0.1-4.2,0.3-8.3,0.4-12.5c0-0.6,0.2-1,0.7-1.3c0.8-0.4,1.4-1.2,1.5-2.1s0.6-1.2,1.3-1.5c3.2-1.8,4.8-5.5,4-9.1
			c-0.8-3.8-3.3-6.1-7.1-6.6c-1-0.1-2-0.3-3-0.4c0-0.1,0-0.2,0-0.3c0.4-0.3,0.8-0.6,1.2-0.9c2.7-1.9,5.1-4.1,6.9-6.9
			c1.5-2.5,2.3-5.2,1.9-8.1c-0.3-2.5-1.4-4.8-3-6.7c-0.7-0.8-0.8-1.5-0.3-2.4c0.4-0.9,0.8-1.8,1.3-2.7c0.8-1.6,1.6-3.3,2.3-5
			c1.1-2.9,1.6-5.9,1.2-9c-0.2-1.8-0.8-3.5-1.4-5.1c-0.4-1.1-1.2-1.7-2.4-1.7c-1.1,0-1.9,0.7-2.4,2c-0.2,0.5-0.3,1-0.4,1.4
			c-0.6,1.8-1.7,3.1-3.3,4.2c-0.5-0.8-0.4-1.5-0.2-2.3c0.3-1.2,0.9-2.3,1.3-3.4c0.6-1.5,1.2-3.1,1.1-4.8c-0.1-5.1-2.9-8.8-6.3-12.1
			c-0.6,0-1.1,0-1.7,0c-1.7,0.7-2.3,1.5-2,3.3s-0.1,3.4-0.6,5.1c-1.2,3.9-4,6.3-7.4,8.1c-2.8,1.5-5.3,3.4-7.3,5.9
			c-1.1,1.4-2.1,2.7-3.1,4.1c-0.4,0.6-0.7,0.9-1.5,0.5c-2.8-1.4-4.4-0.7-5,2.4c-0.5,2.7-1.6,4.9-3.3,7c-1.2,1.4-2.4,2.7-3.6,4.1
			c-2.9,3.5-3.2,7.9-0.8,11.7c2.1,3.2,4.5,6.2,7.2,8.9c0.6,0.6,1.8,1.2,1.6,2c-0.2,0.9-1.5,0.6-2.4,0.7c-6.4,1.2-9.5,8.5-5.7,13.8
			c1.5,2.1,3.8,3.7,5,6.1l0.1,0.1c0.7,0.6,0.9,1.3,0.9,2.2c0,2.3-0.1,4.7,0,7c0,1.4-0.6,1.8-1.8,1.7c-1.7-0.2-3.3-0.3-5-0.4
			c-3.1-0.2-6.2-0.3-9.3-0.3c-1.9,0-2-0.3-2-2.2c0-0.9,0-1.9,0-2.8c0-2.2-0.5-4.6,1.8-6.2c0.1-0.1,0.1-0.2,0.2-0.3
			c0.3-1.4,1.3-2.1,2.4-2.8c2.8-2.1,4-6,3.1-9.6c-0.9-3.4-3.5-5.7-7.2-6.3c-0.7-0.1-1.4-0.1-2.1-0.5c2.1-1.5,3.9-3,5.5-4.8
			c2.5-2.8,4.1-5.9,4-9.7c0-2.8-1-5.2-2.6-7.4c-1-1.3-1.1-2.6-0.3-4c0.7-1.3,1.4-2.7,2-4c2.4-5,3.3-10.1,1.3-15.4
			c-0.6-1.6-1.2-3.3-3.2-3.3s-2.7,1.6-3.2,3.3c-0.5,1.4-1.1,2.8-2.5,3.8c-0.5-0.8-0.1-1.3,0.1-1.9c0.4-1.2,0.9-2.4,1.4-3.6
			c1.4-3.6,1-7.1-0.8-10.4c-0.8-1.5-1.8-2.8-2.8-4.1c-0.6-0.8-1.4-1.4-2.4-1.7c-0.6,0-1.1,0-1.7,0c-1.7,0.7-2.2,1.4-1.9,3.3
			c0.1,0.9,0.1,1.8,0,2.6c-0.7,4.5-3,7.9-7,9.9c-4.8,2.4-8.5,6-11.2,10.5c-0.6,1-1.1,0.9-2,0.4c-1.9-1.2-3.8-0.4-4.4,1.8
			c-0.1,0.3-0.2,0.6-0.2,1c-0.3,2.6-1.5,4.8-3.2,6.8c-1.1,1.3-2.2,2.6-3.4,3.9c-2.9,3.3-3.5,7.2-1.4,11.1c1.9,3.8,4.7,6.9,7.8,9.9
			c0.6,0.5,1.6,1,1.3,1.9c-0.3,0.8-1.4,0.5-2.1,0.7c-3.7,0.6-6.3,2.7-7.3,6.4c-0.9,3.5,0.3,7.5,3.1,9.5c1.7,1.3,2.2,3.4,3.7,4.8
			c0.2,0.1,0.2,0.4,0.2,0.6c-0.1,2.2,0.3,4.4,0.4,6.6c0,1.3-0.4,2-1.7,2c-5.1,0.3-10.3,0.3-15.4,0.8c-0.8,0.1-1.3-0.3-1.3-1.2
			c0.3-3.8-0.9-7.9,2.2-11.2c0.1-0.2,0.2-0.4,0.3-0.6c0.2-0.7,0.7-1.2,1.4-1.6c3.1-2.1,4.7-5.8,3.9-9.4c-0.8-3.8-3.4-6.2-7.4-6.9
			c-0.8-0.1-1.6-0.2-2.5-0.6c1.9-1.3,3.4-2.6,4.8-4.1c5.2-5.4,6.3-12.1,1.7-18.2c-0.8-1-0.8-2-0.2-3.1c0.6-1.2,1.2-2.4,1.8-3.6
			c2-3.8,3-7.8,2.7-12.2c-0.2-2.1-0.7-4.2-1.8-6c-1.3-2.2-3.9-2-5,0.2c-0.4,0.8-0.6,1.7-1,2.5c-0.5,1.1-1.1,2-2.4,2.7
			c0.1-1.8,0.8-3.2,1.4-4.6c1.4-3.2,1.5-6.4,0.1-9.7c-0.9-2-2.1-3.9-3.5-5.6c-0.6-0.8-1.3-1.3-2.2-1.6c-0.6,0-1.1,0-1.7,0
			c-1.4,0.8-1.9,2-1.5,3.6c0.2,0.7,0.1,1.4,0,2.1c-0.6,4.7-3,8.3-7.2,10.5c-5,2.6-8.7,6.3-11.6,11.1c-0.2,0.4-0.3,0.9-0.6,0.9
			c-0.5-0.4-0.9-0.7-1.3-1c-1.6-1.3-3.7-0.5-4.1,1.4c0,0.2,0,0.3-0.1,0.5c-0.3,3-1.6,5.5-3.6,7.7c-1,1.1-2,2.3-3,3.4
			c-0.8,0.9-1.5,1.9-2,3c-1.5,3.5-0.7,6.6,1.3,9.6c2.3,3.5,5.1,6.6,8.2,9.4c0.3,0.3,0.7,0.6,1,0.9s0.2,0.6-0.2,0.7
			c-0.9,0.2-1.9,0.3-2.8,0.4c-3.5,0.6-6.1,2.9-6.8,6.2c-0.8,3.7,0.5,7.3,3.5,9.2c0.9,0.5,1.4,1.1,1.5,2.1c0.1,0.8,0.8,1.5,1.5,1.9
			c0.5,0.3,0.7,0.6,0.7,1.2c0.1,4.2,0.2,8.4,0.4,12.6c0,0.7-0.1,1-0.9,1.1c-2.5,0.3-4.9,0.6-7.4,1c-1.4,0.2-1.5,0.2-1.4,1.6
			c0.2,6,0.5,12.1,0.8,18.1c0.2,5.9,0.5,11.8,0.7,17.8c0.5,11.1,1,22.3,1.5,33.4c0.3,6.7,0.5,13.4,0.8,20.1
			c0.5,12.3,1.1,24.7,1.6,37c0.4,9,2.7,17.2,8.1,24.5c0.4,0.5,0.6,1,0.6,1.7c0.1,2.2,0.2,4.4,0.2,6.6c0,0.3,0.3,0.8-0.3,1
			c-8.1-7.8-12.6-17.4-14-28.5c-0.5-4.1-0.6-8.2-0.7-12.3c-0.1-2.3-0.2-4.7-0.3-7c-0.1-2.2-1.5-3.4-3.7-3.4c-0.8,0-1.7,0.1-2.5,0.2
			c-0.8,0.1-1.5,0.2-2.3,0.2s-1.6,0.3-2.5,0.1c0.1-0.3,0.1-0.5,0.1-0.7c1.4-5.4,2.5-10.9,2.8-16.5c0.5-8-0.9-15.7-3.9-23.1
			c-0.2-0.6-0.5-1.1-0.8-1.6c-1-1.5-2.5-2.2-4-1.7c-1.3,0.4-2.2,1.6-2.3,3.3c0,0.2,0,0.4,0,0.7c-0.2,3.5-0.6,7.1-1.6,10.5
			c-1.4,4.5-3.5,8.7-5.5,13c0,0.1-0.2,0-0.3,0.1c-3.7-5.1-8.4-9.2-13.4-13c-0.4-0.3-0.9-0.7-1.4-0.9c-2.2-1-4.5,0.6-4.3,3.1
			c0,0.7,0.3,1.3,0.5,1.9c2.1,4.9,2.6,10,2.4,15.3c-0.3,6.4-1.6,12.6-3.4,18.7c-1.7,5.9-3.5,11.9-5.2,17.8c-0.8,2.9-1.4,5.9-1.2,9
			c0.3,3.6,2.6,6.1,6.1,6.5c4.7,0.5,9.5,1,14.2,1.3c1.4,0.1,1.9,0.6,2.3,1.8c5.6,15.5,15.2,28,28.3,37.9c5.2,3.9,10.8,7.3,16.8,10
			c1.1,0.5,1.4,1.1,1.4,2.2c0,2.9,0.2,5.8,0.2,8.6c0,1.5,0,3,0.1,4.5c0,0.8-0.2,0.9-0.9,0.9c-1.4,0-2.8,0-4.2,0
			c-0.4,0-0.8,0-0.9,0.5c-0.6,2.8,0.8,5.7,3.4,7.1c2.7,1.4,2.7,0.9,2.7,4c0,2.2,0.9,3.9,3.2,4.6c0.5,0.2,0.8,0.5,1.1,1
			c3,4.5,9.4,4.5,12.4,0c0.3-0.5,0.7-0.8,1.2-1c2.1-0.8,3.2-2.3,2.9-4.5c-0.2-2.1,0.6-3.4,2.6-4c0.3-0.1,0.6-0.3,0.9-0.5
			c1.5-0.9,2.4-2.3,2.6-4.1c0.1-0.8,0-1.6,0.1-2.3c0-0.6-0.2-0.9-0.9-0.9c-1.5,0-3,0-4.5,0c-0.4,0-0.9,0.1-0.9-0.6
			c0.1-2.5,0.2-5.1,0.3-7.7c0.3,0,0.5,0.1,0.7,0.1c7.6,1.8,15.2,2.9,22.9,3.5c2.5,0.2,5,0.4,7.5,0.6c0.4,0,0.8,0,0.8,0.6
			c0.1,2.8,0.2,5.5,0.3,8.3c0,0.6-0.3,0.7-0.8,0.7c-1,0-2,0-3,0c-2.3,0.1-2.3,0.1-2.2,2.4c0.1,2.4,1.1,4.3,3.3,5.1
			c2.1,0.8,3,2.1,2.8,4.4c-0.2,1.9,0.9,3.4,2.7,4.1c0.7,0.3,1.2,0.7,1.6,1.3c2.7,4.2,9.3,4.2,12,0.1c0.4-0.7,0.9-1.1,1.7-1.4
			c1.7-0.7,2.8-2,2.6-3.8c-0.3-2.5,0.7-3.9,3-4.8c1.9-0.8,2.9-2.4,3-4.6c0-0.5,0.1-1,0.1-1.5c0.1-1.3,0.1-1.3-1.2-1.3
			c-1.4,0-2.9-0.1-4.3-0.1c-0.8,0-1-0.2-0.9-0.9c0.1-2.5,0.2-5.1,0.2-7.6c0-0.7,0.2-1,0.9-1c2.7-0.2,5.3-0.4,8-0.6
			c5.6-0.4,11.1-1.2,16.6-2.2c2.1-0.4,4.3-0.8,6.5-1.3c0.2,2.5,0.2,4.9,0.3,7.3c0,0.8-0.2,0.9-0.9,0.9c-1.4,0-2.8,0-4.2,0
			c-0.4,0-0.8,0-0.9,0.5c-0.6,2.9,0.7,5.7,3.4,7.1c3,1.5,2.6,1.1,2.6,4c0,2.2,1,3.8,3.2,4.5c0.5,0.2,0.8,0.5,1.1,1
			c3,4.5,9.4,4.5,12.4,0c0.3-0.4,0.5-0.8,1.1-1c2.3-0.7,3.3-2.4,3.1-4.7c-0.2-2,0.6-3.1,2.4-3.7c0.4-0.1,0.7-0.3,1-0.6
			c1.2-0.8,2-1.8,2.4-3.3c0.3-1,0.2-2.1,0.3-3.1c0.1-0.7-0.2-0.9-0.9-0.9c-1.4,0-2.9,0-4.3,0c-1.1,0-1.1,0-1-1.1
			c0.1-1.6,0.1-3.2,0.2-4.8c0.1-2.7,0.2-5.4,0.2-8.1c0-1,0.3-1.6,1.3-2c1.1-0.4,2.2-1,3.3-1.6c13.1-6.7,24.2-15.8,32.6-27.9
			c4.1-5.9,7.3-12.2,9.8-19c0.3-0.7,0.4-1.3,1.4-1.4c4.9-0.4,9.8-0.9,14.7-1.3c3.6-0.3,6-2.7,6.3-6.3
			C266.4,245.2,266.3,243.5,266,241.9z M121.4,280.4c-2.2,0.2-4.2-0.2-6.3-0.4c-7.1-0.7-14.1-1.8-21-3.9c-3.1-0.9-2.5-0.2-2.4-3.4
			c0-1.1,0.1-2.2,0.2-3.5c3.8,1.2,7.4,2.3,11.2,3c5.4,1.1,10.8,1.9,16.2,2.2c0.1,0,0.1,0,0.2,0c1.9,0.1,2,0.1,2,2.1
			C121.4,277.9,121.4,279.1,121.4,280.4z M173.4,275.8c-4,1.2-8,2.2-12.1,2.9c-4.8,0.9-9.6,1.4-14.5,1.7c-0.5,0-1,0-1.5,0
			s-0.8-0.1-0.8-0.7c0.1-1.5,0.1-3,0.2-4.5c0-0.6,0.4-0.6,0.8-0.6c1.7-0.3,3.4-0.3,5.1-0.5c7.7-0.8,15.3-2.2,22.7-4.6
			c0.3-0.1,0.5-0.2,1.1,0c0,1.6-0.1,3.2,0,4.8C174.5,275.3,174.1,275.6,173.4,275.8z"/>
		<path class="st2" d="M97.9,39.1c0.8-2.2,1.9-4.2,2.9-6.3s1.9-4.2,2.2-6.6c0.4-2.8,0-5.5-1.2-8.1c-1.7,4.3-2.2,4.9-6.1,7.7
			c-1.5,1.1-2.9,2.2-4.4,3.3c-0.5,0.3-0.8,0.9-1.4,1.1c0-1.6,1-3.4,2.3-4.6c1.1-1.1,1.1-1.1,0.6-2.5c-0.3-2.4,0.5-4.5,1.4-6.7
			c2-4.7,0.7-9.8-3.4-13.1c0,0.3,0,0.6,0,0.8c0,6.4-2.9,11.2-8.5,14.3c-0.7,0.4-1.4,0.8-2.2,1.2c-3.6,2.2-6.4,5.3-8.4,8.9l0,0
			c-1.6,1.9-2.2,4.4-3.5,6.8c-0.3-2.4-0.6-4.4-2.3-6c-0.6,3.9-1.4,5.9-3.9,8.8c-1.2,1.4-2.4,2.7-3.6,4.1c-2.3,2.8-2.5,5.5-0.6,8.6
			c2.4,3.9,5.5,7.2,8.9,10.2c0.3,0.2,0.5,0.6,1,0.3c0.9-0.5,2-0.4,3-0.8c0-0.2-0.1-0.3-0.3-0.4c-1.5-1.1-2.8-2.4-3.9-3.8
			c-3.1-4-4.5-8.3-2.2-13.3c1-2.2,1.8-4.5,2-7.2c0.6,1.6,1.2,3,1.7,4.5s0.4,2.7-0.8,3.9c-2.3,2.3-2.8,5.3-2.3,8.5
			c0.1,0.5,0.2,1.1,0.8,1.1c0.8,0,0.7-0.7,0.8-1.2c0.1-1.4,0.5-2.7,1.5-4c0,1.3,0,2.4,0.4,3.3c0.4,0.8,0.3,2.1,1.7,2.2
			c0.4-0.3,0.4-0.8,0.3-1.2c-0.4-3.5,0.9-6.3,3.4-8.8c1.7-1.7,3.5-3.2,4.8-5.2c0.9-1.5,1.5-3.1,1.7-4.8c0.1-0.7,0.4-1.7-0.4-1.9
			C79.2,32,79,33,78.7,33.6c-1.5,3.3-3.9,5.7-7.2,7.3c1.9-4.2,4.5-7.8,8.1-10.6c0.8-0.6,1.5-1.3,2.1-2.1c0.2-0.3,0.6-0.7,0.4-1l0,0
			c0.6,0.1,1-0.3,1.4-0.7c3.7-3.3,6-7.3,6.5-12.3c0-0.1,0-0.1,0-0.1c-0.2,0,0.1-0.1,0,0.1c0.2,2.2,0,4.5-0.1,6.7
			c-0.2,0.1-0.3,0.4-0.3,0.6c-0.8,2.8-2.4,5-4.2,7.2c-0.4,0.5-0.9,0.9-0.7,1.7l0,0c-2.5,2-3.6,4.6-3.7,7.8c0.2,1.3,0.9,2.5,1.3,3.8
			c1.8,6.1,1.5,11.8-3,16.8c-0.3,0.4-0.7,0.7-0.5,1.3c1.6,0.1,3.3,0.1,4.9,0.2c0.2-0.7,0.7-1.1,1.2-1.6c4.4-4.7,7.2-10.1,7.3-16.7
			c3.4,3.2,4.3,6.7,2.5,10.5c-1.3,2.7-3.4,4.8-5.8,6.5c-0.5,0.3-1.3,0.5-1.1,1.4c1.3,0.5,2.8,0.3,4,0.9c0.3,0.2,0.6,0,0.9-0.2
			c3.1-2.1,6-4.4,7.7-7.8c1-2,1.4-4.2,0.9-6.4c-0.4-1.8-1.3-3.3-2.4-4.7C98.3,41.4,97.7,40.4,97.9,39.1L97.9,39.1z M90.3,37.2
			c-1.8,1.3-2.8,3.2-3.3,5.4c-0.4,1.8-0.2,3.6-0.3,5.7c-0.5-1.1-0.7-2.1-1-3.1c-1-4.2-0.4-8,2.9-11.2c0.4-0.3,0.8-0.7,0.6-1.3l0,0
			c1.6,0,2.6-1.2,3.9-1.8c2.2-1,4.3-2.3,5.9-3.8c-0.8,1.9-2.4,3.6-3.7,5.5c-0.4,0.5-0.9,1-0.9,1.7l0,0
			C92.8,34.8,91.7,36.2,90.3,37.2z"/>
		<path class="st3" d="M115,108c4,4.7,8,9.3,12,14c-2.4,2.1-4.7,4.1-7,6c-0.1,0.3,0.1,0.5,0.2,0.7c4.1,4.8,8.1,9.5,12.2,14.3
			c0.9,1,0.9,1,1.9,0.1c1.8-1.5,3.6-3.1,5.4-4.7c0.5-0.5,0.9-0.5,1.3,0.1c3.6,4.2,7.2,8.4,10.8,12.6c0.5,0.6,0.4,0.9-0.2,1.3
			c-1.9,1.6-3.8,3.3-5.7,4.9c-0.6,0.5-0.7,0.8-0.1,1.5c4.1,4.7,8.1,9.4,12.1,14.1c0.7,0.9,0.8,0.8,1.7,0.1c1.9-1.6,3.7-3.1,5.6-4.8
			c0.6-0.5,0.9-0.4,1.3,0.1c3.7,4.4,7.5,8.8,11.3,13.3c-0.8,0.7-1.6,1.5-2.5,2.2c-1.3,1.1-2.5,2.2-3.8,3.2c-0.9,0.8-0.9,0.8-0.1,1.7
			c2.7,3.2,5.5,6.4,8.2,9.6c1.3,1.5,2.6,2.9,3.8,4.4c0.5,0.7,0.9,0.8,1.6,0.2c1.9-1.7,3.8-3.3,5.7-4.9c0.2-0.2,0.4-0.3,0.7-0.5
			c2.8,3.3,5.7,6.6,8.5,9.9c0.9,1.1,1.8,2.1,2.7,3.2c0.8,0.9,0.8,0.9-0.1,1.7c-1.8,1.6-3.6,3.1-5.4,4.6c-0.3,0.2-0.5,0.5-0.7,0.7
			c0.2,0.7,0.7,1,1.1,1.5c2,2.3,4,4.6,5.9,6.9c0.4,0.5,0.8,1,0.7,1.8c-0.3,5.9-1.4,11.6-4.1,17c-3.8,7.6-9.6,13.2-17,17.3
			c-4.1,2.3-8.4,4-12.8,5.4c-1,0.3-1.6,0.1-2.3-0.7c-3.8-4.5-7.6-8.9-11.4-13.4c-0.9-1-0.9-1-1.9-0.2c-2,1.7-4,3.4-6.2,5.3
			c-4-4.7-8-9.3-12-14c2.4-2.1,4.8-4.1,7.2-6.2c-3.4-4-6.7-7.9-10-11.7c-0.9-1.1-1.9-2.2-2.8-3.3c-0.5-0.6-0.9-0.6-1.5-0.1
			c-1.8,1.6-3.6,3.1-5.4,4.7c-0.9,0.8-1,0.8-1.8-0.2c-3.5-4-6.9-8.1-10.4-12.1c-0.7-0.9-0.7-0.9,0.2-1.7c1.9-1.6,3.8-3.2,5.7-4.9
			c0.2-0.1,0.3-0.3,0.5-0.6c-4.5-5.2-8.9-10.4-13.4-15.7c-2.4,2.1-4.7,4-7.2,6.1c-4-4.6-7.9-9.2-11.9-13.8c0.2-0.6,0.7-0.9,1.1-1.2
			c1.6-1.4,3.2-2.7,4.8-4.1c1.1-0.9,1.1-1,0.2-2c-3.2-3.7-6.3-7.4-9.5-11.1c-0.8-0.9-1.5-1.8-2.3-2.7s-0.8-0.9-1.8-0.1
			c-1.6,1.4-3.2,2.7-4.8,4.1c-0.4,0.4-0.8,0.8-1.5,1.1c-3.9-4.6-7.9-9.2-11.9-13.9c1.9-1.6,3.7-3.2,5.5-4.7c0.3-0.3,0.6-0.5,0.9-0.8
			c0.7-0.5,0.7-0.8,0.1-1.5c-1.9-2.2-3.7-4.6-5.8-6.7c-1.8-1.9-2.8-3.9-2.8-6.6c0-4-0.3-8-0.5-12c-0.3-6.3-0.6-12.6-0.8-18.9
			c-0.1-1.2-0.1-1.3,1.1-1.5c3.1-0.4,6.1-0.8,9.2-1.2c3.6-0.4,7.1-0.8,10.7-1.2c2.8-0.3,5.5-0.5,8.3-0.8c2.3-0.2,4.5-0.3,6.8-0.6
			c1.1-0.1,1.8,0.1,2.6,1c3.6,4.3,7.3,8.5,10.9,12.8c0.3,0.3,0.6,0.7,0.9,1c0.4,0.6,0.9,0.5,1.4,0.1c1.3-1.1,2.6-2.2,3.9-3.4
			C113.3,109.4,114.1,108.7,115,108z"/>
		<g>
			<path class="st4" d="M207.2,102.2c-3.1-0.3-6.3-0.8-9.4-1.1c-3.6-0.4-7.3-0.8-10.9-1.2c-3.2-0.3-6.4-0.7-9.6-0.9
				c-2.4-0.1-4.8-0.6-7.3-0.4c-0.4,0-0.9,0-1.3,0c-0.5-0.3-1.2,0-1.7-0.2c-19.2-1.4-65.2-1.2-68.8,0.3c0,0.1,0,0.1,0,0.2
				c3,3.8,6.2,7.3,9.3,11c0.5,0.6,0.8,0.3,1.2-0.1c1.8-1.6,3.7-3.2,5.5-4.8c0.9-0.8,0.9-0.8,1.7,0.1c4.6,5.3,9.2,10.7,13.7,16
				c0.9,1.1,0.9,1.1-0.1,2.1c-1.8,1.5-3.5,3.1-5.3,4.5c-0.6,0.5-0.7,0.9-0.1,1.5c0.9,0.9,1.7,1.9,2.5,2.9c2.3,2.6,4.5,5.3,6.8,8
				c0.3-0.3,0.6-0.4,0.8-0.7c1.8-1.5,3.6-3.1,5.4-4.6c0.9-0.8,1-0.8,1.8,0.2c0.5,0.5,0.9,1.1,1.4,1.6c4.1,4.8,8.2,9.6,12.3,14.4
				c0.9,1,0.9,1-0.1,1.9c-1.2,1-2.5,2.1-3.7,3.1c-0.8,0.7-1.8,1.3-2.4,2.2c3.1,3.6,6.2,7.2,9.2,10.8c0.6,0.7,0.9,0.7,1.6,0.1
				c1.8-1.6,3.6-3.1,5.4-4.6c0.4-0.3,0.7-0.8,1.3-0.4c0.5,0.2,0.9,0.5,1,1.1c0,0.4,0.3,0.7,0.7,0.9c3.4,4.1,6.9,8.1,10.3,12.2
				c1,1.2,2,2.4,3.1,3.6c-2.1,1.8-4.1,3.5-6.2,5.3c-1,0.9-1,0.9-0.1,1.9c2.8,3.2,5.6,6.5,8.3,9.7c0.7,0.8,0.8,1,1.8,0.1
				c1.8-1.6,3.6-3.1,5.4-4.7c0.6-0.6,1-0.5,1.5,0.1c0.2,0.2,0.4,0.4,0.5,0.6c3.6,4.2,7.1,8.3,10.7,12.5c0.3,0.4,0.6,0.9,1.2,1
				c0.5-4.1,0.4-8.2,0.7-12.2c0.3-5,0.4-10,0.7-14.9c0.4-7.7,0.7-15.5,1-23.2c0.2-5,0.4-10,0.7-14.9c0.4-8.4,0.7-16.7,1.1-25.1
				c0.2-4.4,0.4-8.9,0.6-13.3C209.7,102.4,209.7,102.4,207.2,102.2z"/>
			<path class="st4" d="M156.2,256.8c-0.7-0.8-0.8-0.8-1.7,0c-1.8,1.5-3.7,3.1-5.4,4.6c-0.6,0.5-1,0.5-1.5-0.1
				c-0.9-1.1-1.9-2.2-2.8-3.3c-4-4.6-7.9-9.3-11.9-13.9c0.2-0.2,0.4-0.4,0.6-0.6c1.8-1.6,3.7-3.2,5.6-4.8c1-0.8,1-0.9,0.2-1.8
				c-2.8-3.3-5.6-6.6-8.4-9.8c-0.8-0.9-0.8-0.9-1.7-0.2c-1.8,1.5-3.6,3.1-5.4,4.7c-0.6,0.5-1,0.7-1.6,0c-4.6-5.5-9.3-10.9-13.9-16.3
				c-0.8-1-0.8-1,0.1-1.8c1.7-1.5,3.4-3,5.2-4.4c1.2-1,1.1-0.8,0.1-2c-2.8-3.3-5.5-6.5-8.3-9.7c-0.2-0.3-0.4-0.6-0.9-0.7
				c-1.8,1.5-3.7,3.1-5.5,4.7c-1.5,1.3-1.5,1.3-2.9-0.1l-0.1-0.1c-0.9-0.3-1.4-1.1-1.6-2l0,0c-0.1-0.2-0.2-0.4-0.3-0.6
				c-2.8-3.3-5.7-6.6-8.5-10c-1.1-1.3-2.3-2.7-3.4-4c2.3-2.3,4.9-4,7.1-6.3c-3.2-3.7-6.2-7.3-9.3-10.9c-0.6-0.7-1-0.6-1.6,0
				c-0.8,0.8-1.6,1.5-2.5,2.2c-1.3,1-2.4,2.2-3.9,3.1c-4-4.7-7.9-9.2-11.9-13.8c-0.1-0.1-0.2-0.1-0.3-0.2h-0.1
				c-0.2,0.1,0.1,0.2-0.2,0.1c0,0.5,0,0.9,0,1.3c0.2,4.7,0.4,9.4,0.6,14.1c0.3,6.1,0.5,12.2,0.7,18.3c0.3,7.7,0.7,15.5,1,23.2
				c0.1,3.3,0.2,6.6,0.4,10c0.2,3.1,0.3,6.2,0.9,9.2c1.5,7.4,4.6,13.8,9.9,19.2c5.8,6,12.9,9.8,20.7,12.4c1.8,0.8,3.6,1.3,5.5,1.7
				c8.5,2.2,17.3,3.3,26.1,3.6c6.4,0.2,12.7,0.2,19.1-0.2c6.2-0.4,12.4-1.2,18.6-2.4c1.1-0.2,1.9-0.7,2.6-1.6
				c-0.1-0.2-0.2-0.3-0.3-0.5C162.1,263.7,159.2,260.3,156.2,256.8z"/>
		</g>
		<path class="st5" d="M79.9,65.6c5.8,0.1,11.4,0.5,16.9,1.3c2.7,0.4,4.4,1.9,4.9,4.2c0.5,2.4-0.3,4.9-2.2,6.2
			c-0.8,0.5-1.6,0.8-2.6,0.6C88.6,76.7,80.4,76.5,72,77c-3.2,0.2-6.3,0.5-9.4,1c-1.5,0.2-3.6-1.6-3.6-3.2c0-1.3,0-2.5,0-3.8
			c0-2.1,1-3.5,3.1-3.9s4.1-0.7,6.2-0.9C72.3,65.9,76.2,65.7,79.9,65.6z"/>
		<path class="st6" d="M186.2,65.6c5.7,0.1,11.3,0.5,16.8,1.3c2.3,0.3,4,1.4,4.7,3.7c0.7,2.2,0.4,4.3-1.2,6c-1,1.1-2.1,1.6-3.7,1.3
			c-8.2-1.2-16.5-1.3-24.9-0.9c-3,0.2-6.1,0.5-9.1,1c-1.6,0.3-3.7-1.5-3.7-3.2c0-1.2,0-2.4,0-3.7c0-2.3,1-3.6,3.3-4
			c2-0.4,4-0.7,6.1-0.9C178.4,65.9,182.4,65.7,186.2,65.6z"/>
		<path class="st5" d="M112.9,72.7c0-1.1,0.1-2.1,0-3.2c-0.1-1,0.4-1.5,1.2-1.9s1.6-0.5,2.4-0.6c8.2-1.3,16.5-1.6,24.8-1
			c3.1,0.2,6.3,0.5,9.4,1.2c2.5,0.5,4,2.3,4.3,4.9c0.3,2.4-1,4.8-3.1,5.8c-0.6,0.3-1.1,0.3-1.8,0.2c-8.4-1.3-16.7-1.4-25.2-0.9
			c-3.1,0.2-6.2,0.5-9.2,1c-1.5,0.2-2.8-0.9-2.9-2.4C112.9,74.7,112.9,73.7,112.9,72.7z"/>
		<path class="st5" d="M179.7,86.9c-0.6-1.1-1.3-1.5-2.3-1.4c-1,0.2-1.8,0.9-1.9,2c-0.1,0.9,0,1.9,0,2.8c0,1.4,0.1,2.9,0.1,4.3
			c0,0.3,0,0.7-0.1,0.8c-0.8,0.3-1.7,0-2.6,0c-0.5,0-0.5-0.5-0.5-0.9c-0.1-3.5-0.2-7-0.3-10.5c0-0.9,0.3-1.2,1.1-1.2
			c7.8-0.6,15.6-0.9,23.4-0.1c0.6,0.1,1.2,0.1,1.8,0.1c1.5,0.1,1.5,0.1,1.5,1.5c0,1.1,0,2.2-0.1,3.3c-0.1,2.9-0.2,5.9-0.3,8.8
			c0,0.4,0,0.9,0,1.4c-1.8,0.1-3.4-0.3-5-0.4c-0.4,0-0.5-0.3-0.5-0.7c0-2.5,0-5.1,0.1-7.6c0.1-1.3,0.7-1.8,2.5-2.1
			c-0.5-1.1-1.2-1.6-2.2-1.5s-1.8,0.8-2,1.7c-0.1,0.5-0.1,1-0.1,1.5c0,2.4,0,4.9-0.1,7.3c0,1.1,0,1.1-1.1,1.1
			c-1.4-0.1-2.9-0.2-4.3-0.4c-1.2-0.1-1.2-0.2-1.2-1.5c0-1.7,0-3.3,0-5c0-2.3,0.3-2.8,2.5-3.3c-0.6-1.2-1.4-1.6-2.4-1.4
			c-1.1,0.2-1.8,1-1.8,2.3c0,2.4,0,4.9,0,7.3c0,1.3,0,1.3-1.2,1.2c-1.4-0.1-2.9-0.3-4.3-0.4c-0.8,0-1.2-0.3-1.1-1.2
			c0-1.7-0.1-3.4-0.1-5.2c0-1.6,0.4-2.1,2.1-2.5C179.5,87.1,179.6,87.1,179.7,86.9z"/>
		<path class="st7" d="M82.2,87c-0.9-1.4-1.7-1.7-2.8-1.3c-1,0.4-1.5,1.1-1.5,2.5c0,2.5,0,5,0,7.5c0,0.9-0.2,1.3-1.1,1.3
			c-1.5,0.1-3,0.3-4.4,0.5c-0.6,0.1-1.1,0-1.1-0.8c0-2.4-0.1-4.9-0.1-7.3c0-1.5,0.6-1.9,2.5-2.3c-0.5-1.2-1.3-1.7-2.4-1.5
			c-1,0.2-1.8,1-1.9,2c-0.1,0.6,0,1.2,0,1.8c0.1,2.4,0.1,4.8,0.2,7.1c0,1.1,0,1.1-1.2,1.2c-0.5,0.1-1.1,0.1-1.7,0.1
			c-0.4-0.7-0.3-1.4-0.3-2.1c-0.1-3.9-0.2-7.9-0.4-11.8c0-0.8,0.2-1.1,1-1.2c5.6-0.4,11.3-0.8,16.9-0.5c2.8,0.2,5.6,0.3,8.5,0.5
			c1.4,0.1,1.5,0.1,1.4,1.6c-0.1,3.3-0.2,6.6-0.3,10c0,0.7-0.2,1.1-1,1.1c-1.2,0-2.4,0.2-3.6,0.3c-0.7,0.1-1-0.2-1-1
			c0.1-1.7,0.1-3.3,0.1-5c0.1-2,0.4-2.5,2.5-2.8c-0.3-1.1-0.8-1.4-1.8-1.5s-1.9,0.5-2.3,1.4c-0.2,0.5-0.2,1.1-0.2,1.6
			c0,2.2-0.1,4.3,0,6.5c0,0.7-0.2,1.1-1,1.1c-1.4,0.1-2.9,0.3-4.3,0.3c-1.3,0.1-1.3,0-1.3-1.2c0-1.7,0-3.4,0-5.2
			C79.6,88,80,87.5,82.2,87z"/>
		<path class="st8" d="M137.8,31.7c-1.1,1.1-1.6,2.6-2.3,4c-0.6,1.3-0.5,2.5,0,3.8c0.5,1.1,1,2.3,1.2,3.6c-0.9,0.7-2.1,0.6-3.1,1.1
			c-6.5,3-8.6,10.7-4.1,16.2c-1.7,0.5-3.4,0.2-5.1,0.4c-0.5,0.2-1,0.1-1.4-0.2c-3.8-3.2-6.6-7-7-12.2c-0.1-1.6,0.4-3.1,1-4.5
			c0.9-2.5,1.9-5,2.3-7.6c0.1-0.4,0.1-1,0.6-1.1c0.6-0.1,0.8,0.5,1,0.9c0.9,1.8,1.7,3.6,2.1,5.6c0.2,0.9,0.1,1.7-0.5,2.5
			c-3,3.8-3.1,4-3.1,8.7c0-1.5,0.4-2.8,1.2-4c0.3-0.5,0.6-1.2,1.3-1c0.6,0.2,0.5,0.9,0.5,1.5c0,1.4,0.3,2.7,0.7,3.6
			c-0.3-2.8,0.6-5.6,2.7-8c0.9-1.1,2-2.1,3-3.1c2.4-2.1,3.9-4.6,4.3-7.9c-1.3,3.4-3.6,5.8-6.7,7.5c-0.6,0.3-1.2,0.9-1.8,0.3
			c-0.5-0.5-0.2-1.2,0.1-1.7c1.9-3.7,4.2-7.2,7.6-9.8c1.8-1.6,3.6-3.2,5.3-4.9c2.8-2.8,4.4-6.3,5.3-10.1c0-0.2,0.1-0.3,0.1-0.5
			c0.2-0.4,0.2-0.9,0.8-0.9c0.9,0.8,0.8,1.9,0.9,2.9c0.1,4.8-1.6,9-4.8,12.5C139.3,30,138.9,31.2,137.8,31.7z"/>
		<path class="st5" d="M143.8,87c-1-1.4-1.8-1.7-2.8-1.3c-1,0.4-1.5,1.1-1.5,2.5c0,1.6-0.1,3.2,0,4.8c0,0.8-0.2,1.2-1.1,1.2
			c-1.5-0.1-3.1-0.1-4.7-0.1c-0.6,0-0.9-0.2-0.9-0.9c0-1.1,0-2.1,0-3.2c0-2.1,0.4-2.6,2.5-3c-0.5-1.1-1-1.5-2-1.5s-1.8,0.6-2.1,1.6
			c-0.2,0.5-0.1,1-0.1,1.5c0,1.5,0,3,0,4.5c0,0.6-0.1,1-0.8,1c-1.7,0-3.4,0-5.1,0c-0.5,0-0.7-0.2-0.7-0.7c0-1.4-0.1-2.9-0.1-4.3
			c0-0.9,0.6-1.5,1.4-1.9c0.3-0.2,0.8,0,1.1-0.3c-0.7-1.2-1.4-1.6-2.5-1.4s-1.8,1-1.8,2.3c0,1.7,0,3.4,0.1,5.1
			c0,0.8-0.1,1.2-1.1,1.2c-2,0-2,0.1-2.1-2c-0.1-2.7-0.2-5.3-0.2-8c0-1.2,0-1.2,1.2-1.3c7.2-0.6,14.4-0.8,21.6-0.3
			c1.3,0.1,2.6,0.2,4,0.3c0.8,0,1.1,0.3,1,1.1c-0.1,3.1-0.2,6.2-0.2,9.3c0,0.7-0.3,0.9-0.9,0.9c-1.3,0-2.5,0-3.8,0
			c-0.6,0-0.9-0.2-0.9-0.9c0-1.1,0-2.1,0-3.2C141.1,88,141.5,87.5,143.8,87z"/>
		<path class="st9" d="M176.7,54.3c0-1.3-0.3-2.5-0.1-3.8c0.4-2.1,1.2-4,2.6-5.6c0.8-0.9,1.7-1.7,2.6-2.6c1.1-1.1,2.2-2.2,3.1-3.4
			c0.9-0.7,1.8-1.4,3-0.6c0.5,1.5,1.2,2.9,1.6,4.5c1,3.7,1,7.4-0.1,11.1c-0.6,1.9-1.7,3.6-3,5.1c-0.4,0.5-0.9,0.8-1.2,1.4
			c-2.7,0.1-5.3,0.3-8,0.4c-0.5-0.1-1.1-0.1-1.3-0.7c-0.9-1.6-1.3-3.3-1.1-5.2c0.1-0.7,0.1-1.5,1.1-1.5c0.1,0.3,0.3,0.6,0.4,0.9
			C176.5,54.3,176.6,54.6,176.7,54.3z"/>
		<path class="st10" d="M70.2,54.3c0-1.4-0.4-2.7,0-4.1c0.5-2,1.2-3.8,2.6-5.3c0.8-0.9,1.7-1.7,2.6-2.6c1.1-1.1,2.2-2.1,3.1-3.4
			c0.9-0.5,1.8-1.4,3-0.6c0.5,1.8,1.4,3.6,1.8,5.4c0.9,3.9,0.7,7.6-0.8,11.3c-0.6,1.4-1.5,2.7-2.5,3.8c-0.4,0.5-0.9,0.8-1.2,1.4
			c-2.7,0.1-5.3,0.3-8,0.4v-0.2c-0.8-1.2-1.2-2.4-1.5-3.8C69.2,55.7,69.4,54.9,70.2,54.3z"/>
		<path class="st2" d="M205.2,37c0.2-0.4,0.4-0.8,0.5-1.2c0.8-1.6,1.6-3.2,2.3-4.8c1.1-2.5,1.7-5,1.6-7.7c-0.1-1.8-0.5-3.5-1.4-5.3
			c-0.8,3.5-2.9,5.7-5.6,7.6c-2.1,1.5-4.3,3-6.2,4.7c-0.3-1,0.3-1.8,0.7-2.6c0.6-1,1.3-1.8,2.1-2.6c0.5-0.5,0.6-0.9,0.4-1.6
			c-0.6-1.4-0.5-2.8,0-4.2c0.4-1,0.8-2.1,1.2-3.1c0.6-1.4,1.1-2.9,1-4.5c-0.3-3.4-2.1-6-4.3-8.5c-0.1,0.2-0.2,0.2-0.2,0.2
			c0,0.2,0,0.4,0,0.7c0,6.5-2.8,11.2-8.5,14.4c-0.7,0.4-1.4,0.8-2,1.2c-3.7,2.2-6.5,5.3-8.6,9l0,0c-1.5,1.9-2.1,4.4-3.3,6.6
			c-1.1-4.5-1.1-4.5-2.5-5.8c-0.2,4.1-2.3,7.1-4.8,9.9c-1,1.1-1.9,2.1-2.8,3.3c-2,2.5-2.2,5.2-0.6,7.9c2.4,4,5.5,7.4,9,10.5
			c0.3,0.3,0.6,0.5,1,0.3c1-0.5,2.1-0.3,3.1-0.6c-0.3-0.5-0.9-0.7-1.2-1.1c-0.9-0.9-1.8-1.7-2.6-2.6c-3.2-3.9-4.9-8.1-2.7-13.2
			c1.1-2.5,2-5.1,2.1-7.8c0.6,1.6,1.3,3.1,1.8,4.7c0.5,1.5,0.2,2.7-0.9,3.9c-2.3,2.4-2.8,5.4-2.2,8.6c0.1,0.4,0.2,0.9,0.8,0.9
			s0.7-0.5,0.7-1c0.1-1.6,0.7-3,1.5-4.6c-0.1,1.8,0.2,3.4,0.9,4.9c0.2,0.4,0.4,0.8,0.8,1c0.2,0,0.3,0,0.5-0.1
			c0.2-0.3,0.3-0.7,0.2-1.1c-0.4-3.5,0.9-6.4,3.4-8.8c1.7-1.7,3.5-3.2,4.8-5.2c0.8-1.4,1.4-2.9,1.6-4.5c0.1-0.8,0.5-1.8-0.2-2.1
			c-0.9-0.4-1.1,0.8-1.4,1.5c-1.4,3.3-3.9,5.5-7.1,7.1c1.9-4.2,4.5-7.9,8.2-10.7c0.8-0.6,1.5-1.3,2.1-2.1c0.2-0.3,0.5-0.6,0.3-0.8
			l0,0c0.9,0,1.5-0.6,2.1-1.2c3.2-3.1,5.2-6.9,5.9-11.3c-0.1,0.3-0.1,0.5-0.1,0.8c0.5,4.2-0.6,7.8-3.1,11.2c-0.4,0.5-0.8,1-0.7,1.6
			c-1.7,0.7-2.3,2.3-3.2,3.7c-1.2,1.9-2.4,3.9-2.1,6.3c0.2,0.9,0.6,1.7,0.9,2.5c2.2,6.5,2.2,12.7-2.8,18.2c-0.3,0.3-0.6,0.7-0.4,1.2
			c1.5,0.1,3,0.1,4.6,0.2c0.3-0.5,0.8-0.9,1.3-1.3c4.6-4.7,7.5-10.2,7.6-16.9c3.3,3,4.2,6.4,2.7,10.1c-0.9,2.2-2.5,4-4.3,5.6
			c-1,0.8-2.3,1.3-2.8,2.7c1.3,0.4,2.7,0.4,4,1c0.4,0.2,0.7-0.1,1.1-0.3c2.6-1.7,4.9-3.6,6.7-6.1c2.9-4.1,2.9-8.4-0.2-12.3
			C204.3,40.9,204.1,39.1,205.2,37z"/>
		<path class="st6" d="M192.4,334.2c-0.3-0.6-0.5-1.3-0.9-1.9c-1.5-2-3.5-2.8-5.9-2.6c-2.3,0.3-4.2,1.3-5.1,3.6
			c-0.4,0.9-0.8,1-1.5,0.3c-0.3-0.3-0.4-0.8-0.5-1.2c0-0.4-0.1-0.8,0-1.2c0.3-2.6-1-4.2-3.3-5.2c-0.4-0.2-0.8-0.4-1.2-0.6
			c-0.5-0.3-0.9-1.7-0.6-2.2c0.1-0.2,0.3-0.3,0.6-0.3c2.4-0.1,4.7,0.1,6.2,2.4c0.5,0.8,1.2,1.4,1.9,2.1c0.3,0.3,0.5,0.5,1,0.2
			s0.6-0.6,0.3-1.1c-0.6-1.1-0.9-2.3-1.2-3.4c-0.2-0.7,0-1.3,0.4-1.8c1.3-1.5,3.4-2.9,5.8-1.3c1.8,1.2,2.2,2.1,1.6,4.1
			c-0.2,0.8-0.6,1.7-0.9,2.5c-0.2,0.4-0.1,0.7,0.3,1s0.7,0.2,1-0.1c0.7-0.8,1.4-1.5,2.1-2.4c1.1-1.4,2.6-2.1,4.3-2.1
			c1,0,2.1,0,3.1,0c0.1,1.3-0.6,2-1.5,2.5c-0.7,0.4-1.4,0.7-2.1,1c-1.5,0.8-2.4,2.1-2.3,3.9c0,0.6,0,1.2,0,1.8
			C193.9,333.4,193.6,333.7,192.4,334.2z"/>
		<path class="st7" d="M74,334.2c-1.1-0.1-1.6-0.9-1.7-1.8c-0.1-0.7-0.1-1.3,0-2c0.1-1.7-0.7-2.8-2.1-3.7c-0.6-0.3-1.2-0.6-1.8-0.9
			c-1.2-0.6-1.3-0.8-1.2-2.1c0-0.5,0.1-0.7,0.7-0.7c2.4-0.1,4.7,0.2,6.2,2.4c0.5,0.8,1.2,1.4,1.9,2.1c0.3,0.3,0.5,0.5,1,0.2
			s0.5-0.6,0.3-1.1c-0.5-1-0.8-2.2-1.1-3.3c-0.3-0.9,0-1.5,0.5-2.1c2.3-2.4,4.6-2.5,6.9-0.2c0.7,0.7,0.9,1.5,0.7,2.4
			c-0.3,1.1-0.6,2.1-1.1,3.1c-0.2,0.5-0.3,0.8,0.2,1.1c0.5,0.4,0.8,0,1.1-0.3c0.7-0.7,1.4-1.5,2-2.3c1-1.4,2.5-2,4.1-2.1
			c1,0,2.1,0,3.2,0c0.2,1.1-0.4,1.8-1.2,2.4c-0.7,0.4-1.4,0.7-2.1,1.1c-1.7,0.9-2.7,2.2-2.6,4.3c0,0.4,0,0.9,0,1.3
			c0,1-0.4,1.8-1.6,2.2c-1.1-3.2-3.4-4.8-6.8-4.5C76.7,329.9,74.8,331.4,74,334.2z"/>
		<path class="st7" d="M126.8,339.7c-0.9-0.2-1.4-0.8-1.4-1.8c0-0.7,0-1.3,0-2c0-1.7-0.8-3-2.3-3.8c-0.7-0.4-1.5-0.7-2.2-1.1
			c-0.8-0.5-1.5-1.1-1.4-2.3c1.5-0.2,3-0.1,4.5,0c1,0.1,1.8,0.7,2.5,1.5c0.8,0.9,1.5,1.8,2.3,2.6c0.3,0.3,0.6,0.7,1.1,0.3
			c0.6-0.4,0.4-0.8,0.2-1.3c-0.5-1.1-0.9-2.3-1.1-3.5c-0.1-0.6,0-1.1,0.4-1.5c0.8-1.1,2-1.8,3.3-2.1c1.4-0.4,4.4,1.5,4.6,3
			c0.1,0.5-0.1,1-0.2,1.5c-0.2,1-0.5,1.9-1,2.8c-0.2,0.4-0.3,0.8,0.2,1.1c0.5,0.4,0.8,0.1,1.1-0.3c0.6-0.7,1.2-1.3,1.7-2
			c1.2-1.6,2.7-2.4,4.7-2.3c0.7,0,1.3,0,2,0c1,0,1.1,0.4,0.7,1.2c-0.2,0.5-0.6,0.8-1,1.1c-0.3,0.2-0.7,0.4-1,0.5
			c-2.6,1-3.9,2.8-3.6,5.6c0,0.4,0,0.9-0.1,1.3c-0.1,0.5-0.3,0.8-0.7,1c-0.4,0.3-0.8,0.4-1-0.3c-0.3-1-0.8-1.8-1.6-2.5
			c-3.7-3.1-9.2-1.2-10.2,2.4C127.2,339.3,127.1,339.5,126.8,339.7z"/>
		<path class="st11" d="M129.5,60.3c-0.4-0.1-0.8-0.1-1.1-0.6c-1.9-3-1.9-6.2-1.3-9.6c0.2-0.8,0.9-1.2,1.2-1.9
			c1.2-2.4,3.3-3.8,5.6-4.9c0.9-0.4,1.8-0.5,2.8-0.4c1.1,4,1.1,8-0.5,12c-0.6,1.5-1.5,2.8-2.6,4c-0.4,0.4-0.9,0.8-1.2,1.4
			C131.5,60.4,130.5,60.4,129.5,60.3z"/>
		<path class="st12" d="M83.8,60.5c-0.1-0.3-0.5-0.1-0.6-0.4c5.4-5.1,9-11,8.6-18.7c3.3,2,5.9,6.9,3.3,11.8
			c-1.4,2.6-3.5,4.7-5.9,6.4c-0.4,0.3-0.9,0.7-1.3,1C86.5,60.6,85.1,60.6,83.8,60.5z"/>
		<path class="st12" d="M189.9,60.5c-0.1-0.2-0.6-0.4-0.1-0.8c2.4-1.8,4.1-4.2,5.6-6.7c1.7-2.9,2.7-6,3-9.4c0.1-0.8-0.2-1.6-0.2-2.6
			c2.5,2,4.1,4.3,4.5,7.3c0.2,2-0.4,3.9-1.5,5.7c-1.4,2.3-3.2,4-5.3,5.6c-0.5,0.4-1,0.7-1.5,1.1C192.8,60.6,191.4,60.6,189.9,60.5z"
			/>
		<path class="st13" d="M137,60.5c-0.2-0.2-0.5-0.3-0.1-0.7c2.2-1.9,4.1-4.2,5.5-6.7c1.7-3,2.8-6.2,2.9-9.7c0-0.7,0.1-1.3-0.2-2
			c2.1,1.3,3.4,3.2,4.1,5.4c0.8,2.5,0.2,4.8-1,7c-1.7,3-4.2,5.2-7.2,6.9C139.8,60.6,138.4,60.6,137,60.5z"/>
		<path class="st14" d="M80,78.6c5.4,0,10.5,0.2,15.6,1c0.6,0.1,1.1,0.1,1,0.9c-0.1,0.9-0.4,1.2-1.3,1.1c-1.6-0.1-3.2-0.3-4.8-0.4
			c-4.7-0.4-9.5-0.6-14.3-0.4c-3.8,0.2-7.5,0.3-11.3,0.8c-0.3,0-0.6,0-0.8,0c-0.7-0.1-0.9-0.5-1-1.1c0-0.7,0.4-0.8,0.9-0.9
			C69.5,78.8,74.9,78.5,80,78.6z"/>
		<path class="st15" d="M132.8,78.6c5.6,0,10.7,0.2,15.8,1c0.6,0.1,1.3,0,1.1,1c-0.1,0.8-0.4,1.1-1.4,1.1c-1.6-0.1-3.2-0.3-4.8-0.4
			c-4.8-0.4-9.6-0.6-14.4-0.4c-3.7,0.2-7.4,0.3-11.1,0.8c-0.5,0.1-1.1,0.2-1.5-0.4c-0.5-0.8-0.2-1.4,0.8-1.6
			C122.6,78.8,127.9,78.5,132.8,78.6z"/>
		<path class="st14" d="M186.3,78.6c5.2-0.1,10.3,0.2,15.4,0.9c0.6,0.1,1.1,0,1.1,0.9c-0.1,0.9-0.3,1.2-1.3,1.1
			c-1.5-0.1-3.1-0.3-4.6-0.4c-5-0.4-10-0.6-15.1-0.4c-3.5,0.2-7.1,0.3-10.6,0.8c-0.3,0-0.7,0-1,0c-0.7-0.1-0.8-0.6-0.8-1.2
			s0.4-0.6,0.9-0.7c4-0.6,8-0.9,12.1-1C183.7,78.5,185,78.6,186.3,78.6z"/>
		<g>
			<path class="st16" d="M246.2,217.5c0.1-1.6,0.1-1.7-1.6-1.8c-4.1-0.4-8.2-0.7-12.2-1c-4.8-0.4-9.6-0.8-14.4-1.2
				c-0.8-0.1-1.1,0.1-1.1,0.9c-0.1,1.9-0.1,3.9-0.3,5.8c-0.3,5.5-0.2,11.1-1.3,16.6c-2.1,11.3-7.4,20.8-16,28.4
				c-7.3,6.5-15.9,10.8-25.2,13.7c-9.5,3-19.2,4.3-29,4.9c-10,0.6-20,0.5-30.1-0.5c-5.7-0.6-11.3-1.4-16.8-2.7
				c-8.6-2-16.7-5.1-24.1-9.9c-8.6-5.6-15.3-12.8-19.6-22.3c-3.1-7-4.4-14.4-4.6-22c-0.1-3.9-0.3-7.9-0.5-11.8
				c-0.1-1.1-0.1-1.2-1.3-1.1c-2.9,0.3-5.8,0.5-8.8,0.8c-4.6,0.4-9.2,0.7-13.7,1.1c-1.3,0.1-2.6,0.2-4,0.3c-1.7,0.1-1.7,0.2-1.6,1.8
				c0.1,1.4,0.1,2.9,0.2,4.3c0.3,7.2,0.5,14.5,2,21.7c3.1,15.1,9.9,28.2,20.5,39.3c8.4,8.7,18.4,15.2,29.5,20
				c13.5,5.8,27.8,8.6,42.4,9.9c6.1,0.5,12.3,0.8,18.4,0.7c3.6-0.1,7.2-0.1,10.8-0.2c7.5-0.4,15-1.1,22.4-2.4
				c9-1.6,17.8-3.9,26.2-7.4c13.9-5.8,26-14,35.5-25.8c9.9-12.2,15.4-26.3,17.1-41.8C245.9,229.7,245.8,223.5,246.2,217.5z"/>
			<path class="st16" d="M262.7,241c-1-4.7-2.5-9.3-4-13.9c-0.7-2.3-1.2-4.7-2.2-6.9l0,0l0,0c0-0.1,0-0.2-0.1-0.3
				c-0.3-0.3,0-0.7-0.3-1c-0.4-0.7-0.3-1.5-0.5-2.2c-1.2-4.7-2.1-9.5-2.4-14.4c-0.3-4.1-0.1-8.1,0.8-12.1c0.5-2.2,1.2-4.3,2.1-6.7
				c-6.8,5.2-13.1,10.5-16.5,18.3c-0.1-0.1-0.3-0.2-0.3-0.3c-1.5-4.2-3.5-8.1-5.4-12.1c-2.3-5.1-3.9-10.3-4.3-15.9
				c-0.1-1.1-0.1-2.2-0.2-3.3c-0.6,0.2-0.7,0.7-0.9,1c-3.3,8-4.5,16.3-3.6,24.9c0.5,4.9,1.5,9.6,2.8,14.3c0.4,1.7,0.4,1.7,2.1,1.8
				c0.5,0.1,1.1,0.2,1.6,0.2c4.5,0.4,9,0.8,13.6,1.1c2.6,0.2,4.3,1.4,5.5,3.7c0.5,1,0.9,2.1,1.3,3.2c0.6,2.8,1.1,5.6,1.3,8.5
				c0.3,4.3,0.3,8.6,0.9,12.9c0.3,2.1,0.7,4.1,1.7,6c0.4,0.8,1,1.3,2,1.2c0.9-0.1,1.9,0,2.8,0c1.3,0,1.7-0.3,2.2-1.6
				c0.2-0.6,0.3-1.3,0.3-2C263.3,244.1,263,242.6,262.7,241z"/>
			<path class="st16" d="M12.7,234.2c0.1-1.9,0.2-3.8,0.4-5.6c0.3-3.5,0.8-7,2.2-10.3c1.2-2.9,3.3-4.7,6.6-4.6c0.3,0,0.7,0,1,0
				c1.8-0.3,3.8-0.1,5.6-0.6c0.3,0,0.6,0,0.9,0c1-0.8,2-0.1,3-0.3c0.4,0.1,0.9,0,1.3-0.1c0.8-0.6,1.7,0.1,2.4-0.2
				c0.3,0,0.6,0,0.9-0.1c0.3-0.3,0.7-0.3,1-0.7c0.7-2.5,1.4-4.9,1.9-7.4c0.8-3.6,1.3-7.3,1.5-11c0.4-7.5-0.9-14.8-3.8-21.7
				c-0.2-0.4-0.3-0.9-0.8-1.1c-0.1,0.1-0.2,0.1-0.2,0.1c0,0.2-0.1,0.3-0.1,0.5c0,6.5-1.6,12.7-4.4,18.6c-1.6,3.5-3.4,7-4.8,10.6
				c-0.2,0.6-0.3,1.3-0.9,1.9c-1.6-3.9-4.1-7.2-6.9-10.1c-3.4-3.6-7.7-7.1-9.4-7.7c0.2,0.4,0.3,0.8,0.4,1.1c1.1,2.7,1.7,5.6,2.1,8.5
				c0.4,3.2,0.2,6.3,0.2,9.5c-0.3,0.7,0.1,1.4-0.2,2.1c0,0.3,0,0.6-0.1,0.9c-0.3,0.5,0,1.2-0.3,1.7c0,0.2,0,0.4-0.1,0.6
				c-0.3,0.4,0,1-0.3,1.4c0,0.2-0.1,0.4-0.1,0.6c-0.1,0.1-0.2,0.3-0.2,0.4c-0.9,4.9-2.3,9.7-3.7,14.5c-0.9,3.1-2,6.2-2.7,9.3
				c-1.2,3.2-2,6.5-2.3,9.9c-0.1,1.1,0,2.2,0.5,3.2c0.3,0.8,0.8,1.3,1.8,1.2c0.7-0.1,1.3,0,2,0c2.6,0,2.8-0.1,3.7-2.6
				c0.1-0.3,0.2-0.5,0.3-0.8C12.3,242,12.7,238.2,12.7,234.2z"/>
			<path class="st16" d="M251.9,240.5c0-0.3,0.1-0.6,0-0.8c-0.2-3.8-0.4-7.6-0.7-11.4c-0.3-3-0.7-6.1-1.8-8.9
				c-0.2-0.6-0.4-1.2-1.1-1.6c-0.1,2.8-0.2,5.4-0.4,8.1c-0.2,2.9-0.2,5.8-0.5,8.6c-0.2,2.1-0.5,4.3-0.7,6.4
				c-0.7,3.2-1.3,6.4-2.2,9.5c2.4,0.3,9.2,0.2,10.5-0.2c-1.3-1.9-2-3.9-2.4-6.1C252.3,242.9,252.1,241.7,251.9,240.5z"/>
			<path class="st16" d="M20,242.8c0-0.2-0.1-0.4-0.1-0.6c-0.3-2.3-0.7-4.7-0.9-7c-0.5-4.8-0.6-9.7-0.8-14.6c0-0.9-0.1-1.9-0.2-2.9
				c-0.7,0.3-0.8,0.9-1,1.4c-0.7,1.6-1.1,3.2-1.4,4.9c-1.1,6.2-0.8,12.6-1.6,18.8c-0.5,2.6-1.1,5.2-2.8,7.5c3.7,0,7.1,0,10.6,0
				c-0.5-2.2-1.1-4.4-1.6-6.5C20.1,243.6,20.3,243.2,20,242.8z"/>
		</g>
		<path class="st2" d="M152.6,42.4c-0.7-0.9-1.2-1.8-1.2-3l0,0c0.6-1.4,1.1-2.9,1.8-4.3c0.7-1.4,1.4-2.8,2-4.2
			c1.1-2.5,1.7-5.1,1.5-7.9c-0.1-1.7-0.4-3.3-1.5-5c-0.7,3.5-2.8,5.7-5.4,7.5c-1.9,1.3-3.8,2.6-5.6,4.2c-0.2,0.2-0.4,0.6-0.8,0.3
			c0.1-1.7,1.2-3,2.3-4.1c0.9-0.9,1.5-1.8,0.8-3.1c-0.4-0.8-0.2-1.8,0-2.6s0.5-1.6,0.7-2.4l0,0c0.3-0.5,0.6-1.1,0.8-1.6
			c1.9-4.4,0.5-9.8-3.5-12.9c-0.1,1.4,0,2.8-0.2,4.1c-0.6,3-2.1,5.6-3.9,7.9c-1.6,1.6-3.6,2.8-5.6,3.9c-5.2,2.8-8.6,7.2-10.9,12.5
			l0,0c-0.8,1-1,2.4-1.9,3.8c-0.3-2.3-0.5-4.4-2.3-5.9c-1.1,4.9-1.5,5.9-4.9,9.8c-0.9,1.1-1.9,2.1-2.7,3.1c-2.2,2.7-2.4,5.5-0.5,8.4
			c2.4,3.8,5.3,7.1,8.7,10c0.3,0.3,0.7,0.6,1.2,0.4c1-0.4,2.1-0.3,3.1-0.6c-0.4-0.1-0.8-0.2-1.2-0.5c-2.6-2.4-4.8-5-6.1-8.4
			c-0.9-2.3-0.9-4.6,0-6.9c1.2-3.1,2.5-6.2,2.8-9.6c0.5,0.7,0.8,1.3,1.1,2c0.6,1.4,1.1,2.7,1.5,4.2c0.3,1.1,0.2,1.9-0.7,2.6
			c-1.1,0.9-1.9,2-2.3,3.4c-0.4,1.2-0.5,2.5-0.5,3.7c0,1-0.2,2.2,0.7,3.4c0.1-2.7,0.4-5,2.4-7c0,2.4,0.2,4.5,1.6,6.3
			c0.3-0.8-0.2-1.5-0.1-2.2c0.3-2.7,1-5.2,3-7.2c1.3-1.3,2.7-2.6,4-4c2-1.9,2.8-4.3,3.2-6.9c0.1-0.4,0.1-0.8-0.3-1.4
			c-1.6,4.5-4.3,7.5-8.5,9.2c0.2-2.5,3.7-7.5,7.8-11.3c1.5-1.3,3-2.6,4.4-4c3.4-3.1,5.5-6.8,6.2-11.3c0-0.1,0-0.2,0-0.3
			c0.3-0.3-0.1-0.8,0.4-1c0.4,0.9,0.4,2,0.6,2.9c-0.1,1.5-0.1,3.1-0.5,4.6c-0.7,2.9-2.2,5.4-4.1,7.6c-0.8,0.8-1.5,1.7-2,2.8
			c-0.1,0-0.1,0-0.2-0.1c-2.3,1.8-3.4,5.5-2.4,8.1c0.4,1.1,0.9,2.3,1.2,3.4c0,0.2,0.1,0.3,0.1,0.5c1.2,5.7,0.6,11-3.6,15.5
			c-0.3,0.3-0.6,0.7-0.4,1.2c1.5,0.1,3.1,0.1,4.6,0.2c0.4-0.6,0.9-1,1.4-1.4c4.5-4.7,7.5-10.2,7.5-17c0.4,0.5,0.8,0.8,1.2,1.3
			c2.1,2.7,3,5.5,1.6,8.8c-1.1,2.5-2.8,4.5-4.9,6.2c-0.9,0.7-2,1.2-2.6,2.3c1.4,0.4,2.9,0.3,4.2,1c0.4,0.2,0.7,0,0.9-0.2
			c3.1-2,6-4.4,7.8-7.7c1.2-2.2,1.6-4.5,0.9-6.9C154.6,45.2,153.7,43.7,152.6,42.4z M153.1,26.4L153.1,26.4
			C152.9,26.3,153.1,26.3,153.1,26.4z M144.3,37c-2.2,1.8-3.5,4-3.8,6.9c-0.1,1.4-0.1,2.7-0.2,4.2c-0.4-1-0.6-1.9-0.9-2.8
			c-1-3.9-0.7-7.6,2.1-10.8c0.2-0.3,0.4-0.6,0.4-0.9l0,0c0.3,0.1,0.6-0.1,0.8-0.2c1.9-1.3,4-2.4,6-3.5c1.6-0.9,3.3-1.7,4.4-3.4l0,0
			c-1,2.1-2.5,4-4,5.9c-0.5,0.6-1.3,1.2-1.3,2.2l0,0C146.2,34.9,145.4,36.1,144.3,37z"/>
		<path class="st17" d="M133.1,337c1.2-0.1,2.4,0.3,3.3,1.2c1.3,1.2,1.3,3,0.1,4.3c-1.7,1.9-5.2,1.8-6.8,0c-1.1-1.3-1.1-2.9,0.1-4.2
			C130.7,337.3,131.8,336.9,133.1,337z"/>
		<path class="st18" d="M186.3,338.3c-1,0.1-1.9-0.2-2.7-0.7c-2.2-1.4-2.2-4.1-0.1-5.4c1.7-1.1,3.6-1.1,5.3,0
			c2.1,1.3,2.1,3.9,0.1,5.3C188.1,338.1,187.3,338.4,186.3,338.3z"/>
		<path class="st18" d="M80,338.4c-1.2,0-2.2-0.3-3-1.1c-1.5-1.3-1.5-3.3-0.1-4.6c1.7-1.5,4.7-1.6,6.4,0c1.4,1.3,1.4,3.3,0,4.6
			C82.3,338.1,81.2,338.4,80,338.4z"/>
		<path class="st15" d="M92,64.7c-8.1-0.9-15.9-0.8-23.7,0c0.5-1.1,0.6-1.2,1.9-1.4c3.6-0.5,7.2-0.6,10.8-0.5c2.7,0.1,5.4,0,8.1,0.5
			C90,63.4,91.1,63.4,92,64.7z"/>
		<path class="st15" d="M174.2,64.7c0.5-1.1,1.3-1.3,2.2-1.4c3.5-0.5,7.1-0.6,10.6-0.5c2.8,0.1,5.5,0,8.3,0.5c0.9,0.2,2,0.1,2.9,1.3
			c-4.2-0.2-8-0.6-11.9-0.6C182.2,64,178.3,64.3,174.2,64.7z"/>
		<path class="st15" d="M121.1,64.7c0.5-1.2,1.4-1.3,2.2-1.4c3.3-0.5,6.6-0.6,10-0.5c2.9,0,5.9,0,8.8,0.5c0.7,0.1,1.3,0.2,1.9,0.4
			c0.4,0.1,0.7,0.3,0.7,1C136.9,63.8,129.1,63.8,121.1,64.7z"/>
		<path class="st19" d="M72.6,306.4c1.9,0.5,1.9,0.5,1.9,2.2c0.1,2.9,0.1,5.9,0.2,8.8c0.1,2,0.1,2-1.5,3.7
			C72.8,320.2,72.4,309.5,72.6,306.4z"/>
		<path class="st20" d="M189.8,308c0,3.2,0,6.4,0,9.7c-0.8-0.3-1.4-0.5-2.1-0.7c-0.5-0.2-0.7-0.5-0.7-1c0-2.1,0-4.3,0-6.4
			c0-0.5,0.2-0.9,0.7-1C188.4,308.4,189,307.9,189.8,308z"/>
		<path class="st21" d="M193.2,321.2c-1.5-1.3-1.9-2.5-1.8-4.2c0.2-2.8,0.2-5.5,0.3-8.3c0-1.6,0-1.6,1.9-2.2
			C193.4,311.3,193.3,316.1,193.2,321.2z"/>
		<path class="st22" d="M76.6,317.7c0-3.3,0-6.5,0-9.6c0.2-0.3,0.4-0.2,0.6-0.1c2.1,0.6,2.1,0.6,2.1,2.8c0,1.6,0,3.2,0,4.8
			c0,0.8-0.1,1.3-1,1.4C77.8,317.2,77.3,317.4,76.6,317.7z"/>
		<path class="st23" d="M75.7,260.8c1,0.7,1.9,1.3,2.8,1.9c0.4,0.2,0.4,0.6,0.4,1c0,1.9,0,3.8,0,5.9c-1.2-0.3-2-1-2.9-1.5
			c-0.4-0.3-0.4-0.8-0.4-1.2C75.7,264.9,75.7,263,75.7,260.8z"/>
		<path class="st24" d="M58.7,143.3c1.7,1.4,3,3.2,4.4,4.8c0.3,0.3,0.2,0.6-0.1,0.9c-1.2,1.1-2.5,2.1-3.9,3.4
			C58.5,149.1,58.6,146.2,58.7,143.3z"/>
		<path class="st17" d="M186.9,270.1c0-2.3,0-4.3,0-6.2c0-0.4,0.2-0.7,0.6-0.9c0.9-0.6,1.7-1.1,2.6-1.7c0.5,0.3,0.3,0.7,0.3,1.1
			c0,1.4-0.1,2.9,0,4.3c0.1,1.2-0.3,1.9-1.4,2.3C188.4,269.1,187.8,269.5,186.9,270.1z"/>
		<path class="st21" d="M83.6,317.6c-2.6-0.9-2.6-0.9-2.6-3.5c0-1.5,0-3.1,0-4.6c2.9,0.5,2.9,0.5,2.8,3.1c0,1.6,0,3.1-0.1,4.7
			C83.7,317.3,83.7,317.4,83.6,317.6z"/>
		<path class="st18" d="M80.9,264.5c0.2,0,0.3-0.1,0.3-0.1c3.1,1.4,3.1,1.4,3.1,4.8c0,1,0,2,0,3.1c-1.2-0.1-2-0.8-2.9-1.2
			c-0.4-0.2-0.5-0.6-0.5-1c0-0.2,0-0.4,0-0.7C80.9,267.8,80.9,266.2,80.9,264.5z"/>
		<path class="st15" d="M185.1,264.4c0,2.1,0,3.9,0,5.7c0,0.6-0.2,1.1-0.8,1.3c-0.7,0.3-1.4,0.7-2.3,0.9c-0.1-1.9-0.2-3.7-0.3-5.6
			c0-0.5,0.2-0.8,0.7-1C183.2,265.4,184,265,185.1,264.4z"/>
		<path class="st25" d="M200.1,217.8c1.5-1.3,2.9-2.5,4.6-3.9c0,3,0,5.8-0.4,8.7C202.7,221,201.5,219.4,200.1,217.8z"/>
		<path class="st5" d="M185.4,309.5c0,2.2,0,4.3,0,6.5c0,0.5-0.2,0.8-0.7,1c-0.6,0.2-1.2,0.4-2.1,0.7c0-2.4,0-4.7,0-7
			c0-0.4,0.2-0.6,0.6-0.7C183.9,309.9,184.5,309.5,185.4,309.5z"/>
		<path class="st26" d="M192.4,266.4c0-2.3,0-4.3,0-6.4c0-0.5,0.1-0.8,0.5-1.2c0.6-0.5,1.2-1,1.7-1.5c0.5,0.3,0.3,0.7,0.3,1
			c0,1.5-0.2,3.1-0.1,4.6C194.9,264.8,194.2,265.8,192.4,266.4z"/>
		<path class="st23" d="M137.2,277.9c0,0.7,0,1.4,0,2.2c0,0.6-0.2,0.8-0.8,0.8c-2.8,0-2.3,0.3-2.5-2.1c0-0.9,0-1.9,0-2.8
			c0-0.5,0.2-0.8,0.8-0.8c2.4-0.3,2.5-0.2,2.5,2.2C137.2,277.5,137.2,277.7,137.2,277.9L137.2,277.9z"/>
		<path class="st26" d="M85.5,310.8c1.7,0.4,1.7,0.4,1.7,1.9c0,2.3-0.1,4.5-0.1,6.8c0,0.5,0.1,1-0.3,1.5c-1-1.1-1.8-2.1-1.6-3.7
			C85.4,315.2,85.3,313,85.5,310.8z"/>
		<path class="st27" d="M179.1,321c0-1.3-0.1-2.6-0.1-3.9c-0.1-1.4-0.1-2.8-0.2-4.1c0-1.8,0-1.8,1.9-2.1c0.1,2.6,0.2,5.2,0.2,7.7
			c0,1.1-1,1.6-1.3,2.5C179.4,321.1,179.2,321.1,179.1,321z"/>
		<path class="st28" d="M73.4,266.3c-0.5-0.3-0.8-0.6-1.2-0.8c-0.8-0.5-1.1-1.1-1.1-2c0.1-2.1,0-4.2,0-6.3c1.2,0.8,2.3,1.5,2.2,3.3
			C73.4,262.3,73.4,264.2,73.4,266.3z"/>
		<path class="st29" d="M126.1,326.5c-0.1-3-0.2-5.9-0.3-8.9c0-1.1,0.3-1.3,1.4-1.1c0.4,0.1,0.6,0.3,0.6,0.7c0,2.4,0.2,4.7,0.1,7.1
			C127.9,325.2,126.9,325.8,126.1,326.5z"/>
		<path class="st30" d="M139.7,326.2c-1-1-1.8-2-1.6-3.7s0.2-3.4,0.2-5.1c0-0.7,0.2-1,1-1s0.9,0.4,0.9,1c-0.1,2.8-0.1,5.5-0.2,8.3
			C140,325.9,140,326.1,139.7,326.2z"/>
		<path class="st31" d="M129.1,277.9c0-0.3,0-0.5,0-0.8c0-2,0.5-2.4,2.5-2c0.3,0.1,0.5,0.2,0.5,0.5c0,1.5,0,3.1,0,4.6
			c0,0.4-0.2,0.5-0.6,0.6c-2,0.3-2.4,0-2.4-2C129.1,278.5,129.1,278.2,129.1,277.9L129.1,277.9z"/>
		<path class="st32" d="M129.6,323.2c0-2,0-3.8,0-5.5c0-0.8,0.3-1.1,1.1-1.1c0.3,0,0.7,0,1,0c0.5,0,0.8,0.3,0.8,0.8
			c0,1.4,0,2.8,0,4.1c0,0.4-0.1,0.7-0.6,0.9C131.2,322.6,130.6,322.8,129.6,323.2z"/>
		<path class="st33" d="M136.8,322.9c-0.3,0.1-0.4,0.1-0.4,0.1c-2.3-0.8-2.3-0.8-2.3-3.3c0-0.6,0-1.2,0-1.8c0-1.3,0-1.3,1.4-1.4
			c1.3,0,1.3,0,1.3,1.4C136.8,319.6,136.8,321.3,136.8,322.9z"/>
		<path class="st27" d="M86.2,267.3c0.8-0.2,1.2,0.3,1.7,0.4c0.4,0.1,0.6,0.4,0.6,0.9c-0.1,1.8-0.1,3.6-0.1,5.5
			c-0.7,0-1.2-0.3-1.7-0.5c-0.4-0.1-0.5-0.4-0.5-0.7C86.2,271,86.2,269.1,86.2,267.3z"/>
		<path class="st34" d="M141.3,277.6c0,0.7,0,1.3,0,2c-0.1,1.2-0.2,1.3-1.4,1.2c-0.4,0-0.7-0.1-0.7-0.7c0-1.5,0-3,0-4.5
			c0-1.1,0.9-0.8,1.5-0.8c0.8-0.1,0.7,0.4,0.7,1C141.4,276.4,141.4,277,141.3,277.6C141.4,277.6,141.4,277.6,141.3,277.6z"/>
		<path class="st19" d="M177.7,274.4c-0.1-2-0.2-3.7-0.3-5.4c0-0.6,0.2-1,0.8-1.2c0.4-0.1,0.8-0.4,1.4-0.4c0,1.8,0.1,3.7,0.1,5.5
			C179.7,274,178.6,273.8,177.7,274.4z"/>
		<path class="st35" d="M126.9,277.9c0,0.6,0,1.1,0,1.7c0,1.2-0.1,1.3-1.3,1.2c-0.6,0-0.8-0.3-0.8-0.8c0-1.4-0.1-2.9-0.1-4.3
			c0-0.5,0.1-0.9,0.7-0.8c0.6,0.1,1.5-0.3,1.5,0.8C126.8,276.4,126.8,277.2,126.9,277.9C126.8,277.9,126.9,277.9,126.9,277.9z"/>
		<path class="st36" d="M29.3,212.9c0.5-0.8,1.2-1,2.1-0.6c0.3,0.1,0.6,0.2,0.9,0.3C31.4,213.1,30.4,213,29.3,212.9z"/>
		<path class="st37" d="M95.8,201c-1.5-0.2-1.5-0.2-1.6-2C94.8,199.6,95.4,200.2,95.8,201z"/>
		<path class="st36" d="M33.7,212.6c0.3-0.5,0.6-0.7,1.2-0.5c0.4,0.1,0.8,0.2,1.2,0.3C35.3,212.7,34.5,212.6,33.7,212.6z"/>
		<path class="st36" d="M13,203.2c0.1,0.7,0.3,1.5-0.2,2.1C12.7,204.6,12.7,203.9,13,203.2z"/>
		<path class="st38" d="M166.7,164.1c0.9-0.1,1.2,0.3,1,1.1C167.2,164.9,166.9,164.5,166.7,164.1z"/>
		<path class="st36" d="M37,212.3c0.2-0.4,0.5-0.7,1-0.7C38.1,212.6,37.5,212.3,37,212.3z"/>
		<path class="st36" d="M12.7,206.2c0.1,0.6,0.2,1.2-0.3,1.7C12.3,207.4,12.4,206.8,12.7,206.2z"/>
		<path class="st38" d="M168.8,98.5c-0.6,0-1.2,0.2-1.7-0.2C167.7,98.2,168.2,98.2,168.8,98.5z"/>
		<path class="st36" d="M12.3,208.6c0.1,0.5,0.2,1-0.3,1.4C12,209.5,12,209,12.3,208.6z"/>
		<path class="st39" d="M20.3,243.9c-0.4-0.3-0.4-0.6-0.3-1C20.3,243.1,20.4,243.5,20.3,243.9z"/>
		<path class="st40" d="M256.5,219.9c-0.4-0.3-0.4-0.6-0.3-1C256.5,219.2,256.6,219.5,256.5,219.9z"/>
		<path class="st1" d="M194,290.9c0,3-1.2,5.1-3.6,6.4c-1.4,0.7-2.8,1.2-4.4,1.2c-1.3,0-2.4-0.4-3.4-1.2c-2.7-2-4.5-7-3.6-10.3
			c0.8-3.1,3.2-4.6,6.1-5.2s5.2,0.5,6.8,2.9C193.2,286.7,193.8,288.9,194,290.9z"/>
		<path class="st1" d="M216.9,254.2c0-2.6,0.8-4.4,2.1-6c1.7-2,4-2.4,6.5-1.9c2.1,0.4,4.1,1.4,5.7,2.9c2.1,2,2.7,4.5,1.8,7.3
			s-2.6,4.8-5.7,5.3c-3.2,0.4-8.2-2.1-9.7-5C217.2,255.8,216.9,254.8,216.9,254.2z"/>
		<path class="st1" d="M238.5,233.9c-0.2,1.2-0.5,2.3-0.6,3.4c-0.1,0.6-0.5,0.6-0.9,0.7c-2.1,0.5-4.2,1-6.3,1.7
			c0.7,0.7,1.7,0.5,2.5,0.8c0.6,0.2,1.3,0.2,1.9,0.4c0.6,0.1,1.5-0.2,1.8,0.4c0.3,0.5-0.2,1.3-0.3,1.9c-0.1,0.4,0,0.9-0.3,1.4
			c-5-1.3-10.2-2.2-15.4-3c0.3-2,0.6-4,1-5.9c0.5-2,1.6-3,3.4-3c2.2,0,4.2,1,4.5,2.8c0.2,1,0.7,0.8,1.3,0.6
			C233.6,235.4,236,234.7,238.5,233.9z"/>
		<path class="st1" d="M41.4,270.8c-0.7-1.1-1.2-2.1-1.9-3c-0.4-0.5,0-0.8,0.2-1.2c1.3-1.7,2.4-3.5,3.6-5.7
			c-2.2,1.1-3.9,2.3-5.8,3.5c-0.6-1-1.2-1.9-1.8-3c4.6-2.5,9.1-5.1,13.6-8.2c1,2.1,2.5,3.7,3.4,5.7c0.7,1.6,0.3,3-1.1,4.1
			c-2,1.6-3.5,1.7-5.8,0.3C44.2,265.8,42.9,268.2,41.4,270.8z"/>
		<path class="st1" d="M192.6,278.3c1.7-0.9,3.1-2.1,4.7-3c3.1-1.8,6.4,0.1,6.5,3.7c0,0.9-0.4,1.7-1,2.5c2.4,1.7,4.9,3,7.5,4.4
			c-1,0.7-2,1.3-2.9,1.9c-0.5,0.4-0.8,0-1.2-0.2c-1.7-1.2-3.5-2.3-5.5-3.2c0.9,1.9,2.1,3.6,3.3,5.4c-1,0.6-1.9,1.2-2.9,1.9
			C198.5,287.2,195.8,282.7,192.6,278.3z"/>
		<path class="st1" d="M107.2,295.3c-0.3,3.3-0.7,6.5-1,9.7c-0.7-0.1-1.3-0.2-2-0.3c0.8-5.1,1.3-10.3,1.7-15.4
			c0.1-0.1,0.2-0.2,0.3-0.2c2.3,0.1,2.3,0.1,3.3,2.1c1.5,2.8,3,5.6,4.9,8.6c0.6-3.3,0.7-6.5,1-9.5c0.1-0.1,0.2-0.2,0.3-0.2
			c1.9,0.1,1.9,0.1,1.6,1.9c-0.6,4.3-1.1,8.6-1.4,12.9c0,0.3,0,0.7-0.1,0.9c-0.2,0.1-0.3,0.1-0.4,0.1c-1.7,0.1-2.5-0.9-3.2-2.3
			c-1.3-2.6-2.8-5-4.2-7.5C107.9,295.9,107.8,295.5,107.2,295.3z"/>
		<path class="st1" d="M144.6,306.5c0.5-2,1-3.8,1.4-5.6c0.8-3.3,1.5-6.6,2.2-9.9c0.2-0.9,1.1-1.5,2-1.2c0.5,0.1,0.5,0.7,0.7,1.1
			c1.3,3.1,2.5,6.3,3.8,9.4c0.6,1.5,1.3,2.9,1.9,4.4c0.3,0.6,0.2,0.9-0.6,1c-3,0.4-3,0.4-3.9-2.4c-0.6-1.6-0.6-1.6-2.3-1.5
			c-0.3,0-0.6,0-0.8,0c-1.3,0.1-1.3,0.1-1.6,1.4c-0.1,0.4-0.2,0.9-0.3,1.3C146.8,306.3,146.8,306.3,144.6,306.5z"/>
		<path class="st1" d="M81.5,283c-0.6,0.8-1.3,1.6-2.2,2.7c-0.1-0.8-0.1-1.3-0.1-1.7c-0.1-1.1-0.8-1.8-1.9-2.1
			c-1.2-0.3-2.2,0.6-2.2,1.8c0,0.8,0.4,1.4,0.8,2c0.5,0.8,1.1,1.6,1.7,2.5c1.2,1.8,0.7,3.6-0.3,5.3c-1,1.6-2.5,2.4-4.5,2.3
			c-1.8-0.2-3.3-1-4.5-2.2c-0.2-0.2-0.5-0.5-0.3-0.8c0.7-1,1.2-2.1,2.3-3.2c0,1-0.1,1.7,0,2.4c0.2,1.2,1.2,2,2.5,2
			c1.1,0,1.8-0.7,2-1.8c0.1-0.8-0.3-1.4-0.6-2c-0.6-0.9-1.2-1.8-1.8-2.8c-0.7-1.2-0.8-2.5-0.2-3.8c1.2-3,3.8-4.1,6.7-2.8
			C79.9,281.2,80.9,281.8,81.5,283z"/>
		<path class="st1" d="M62.8,271.1c0.9,0.9,2.3,1.2,2.7,2.1c0.4,1-0.6,2.1-0.9,3.2c-0.6,2.3-1.3,4.5-2.1,7.2
			c2.6-2.2,4.9-4.1,7.2-6.1c1.1-0.9,1-1,2.3-0.2c0.2,0.2,0.5,0.2,0.6,0.6c-2.6,2-5.3,4.1-7.9,6.1c-1.5,1.2-3.1,2.3-4.5,3.7
			c-0.4,0.4-0.8,0.4-1.1,0c-0.4-0.5-1.4-0.4-1.1-1.4c1.7-5,2.9-10.1,4.5-15.1C62.5,271.2,62.6,271.2,62.8,271.1z"/>
		<path class="st41" d="M90.7,285.9c0.9,0.2,1.8,0.5,2.6,0.5c0.9,0.1,1.1,0.5,1.1,1.3c0.1,3.1,0.5,6.3,0.8,9.5
			c0.7-0.7,0.9-1.4,1.3-2c1.2-2.1,2.3-4.3,3.4-6.5c0.3-0.6,0.5-0.9,1.2-0.6c0.5,0.2,1,0.1,1.4,0.5c-2.2,3.4-4.1,6.9-6.2,10.4
			c-0.6,1.1-1.2,2.1-1.7,3.2c-0.3,0.6-0.7,0.7-1.2,0.4c-0.5-0.2-1.3,0.1-1.4-1c-0.4-5.1-1-10.2-1.5-15.3
			C90.6,286.2,90.7,286.1,90.7,285.9z"/>
		<path class="st1" d="M43.5,232.2c0.2,1.1,0.4,2,0.6,2.9c0.2,0.7,0,0.9-0.6,1.2c-2.5,1.3-5,2.6-7.5,3.9c-0.3,0.2-0.8,0.2-0.9,0.8
			c1.4,0.2,2.8,0.2,4.2,0.4c1.7,0.2,3.5,0.3,5.3,0.4c0.7,0,1,0.2,1,0.9c0,0.4,0.2,0.8,0.3,1.3c-0.8,0.4-1.5-0.1-2.3-0.2
			c-4.5-0.5-9-1.2-13.5-1.5c-1-0.1-0.8-0.7-0.9-1.2c-0.2-0.5-0.4-1,0.3-1.4C34.2,237.3,38.8,234.8,43.5,232.2z"/>
		<path class="st1" d="M173.9,286.1c0.3,0.8,0.5,1.4,0.4,2.2c-1,0.2-2,0.4-3,0.5c-0.8,0.1-1.1,0.4-0.9,1.2c0.2,0.8,0.4,1.6,0.5,2.4
			c0.1,0.9,0.6,0.9,1.3,0.7c0.9-0.3,1.9-0.5,2.9-0.8c0.2,0.8,0.3,1.5,0.5,2.2c-1,0.2-1.9,0.3-2.8,0.5c-1.2,0.2-1.2,0.2-0.9,1.4
			c0.4,2,0.9,4,1.3,6c-1.1,0.2-2.2,0.5-3.5,0.7c-0.9-5.1-1.9-10.3-3.4-15.5C168.9,287.2,171.4,286.9,173.9,286.1z"/>
		<path class="st42" d="M53.5,264.6c0.5-0.6,1-1.1,1.6-1.8c2.3,2.7,4.6,5.1,7.1,7.4c-0.6,0.5-1.1,1-1.7,1.6c-0.4-0.5-0.9-1-1.3-1.5
			c-0.9-1.1-0.9-1.1-1.9-0.2c-2.7,2.6-5.5,5.2-8,8c-0.3,0.3-0.5,0.6-0.9,0.7c-0.8-0.8-1.6-1.6-2.5-2.5c0.1-0.5,0.5-0.7,0.9-0.9
			c2.8-2.4,5.4-5.1,8.1-7.7c1-1,1.2-0.8-0.1-2C54.4,265.4,53.9,265,53.5,264.6z"/>
		<path class="st42" d="M209.4,264.9c0.6,0.6,1.1,1.1,1.7,1.6c-0.8,0.6-1.6,1.3-2.5,2.1c3.1,3.4,6.3,6.7,9.7,9.9
			c-1,0.8-1.8,1.6-2.7,2.6c-3-3.5-6.2-6.8-9.5-10c-0.9,0.7-1.5,1.6-2.2,2.3c-0.5-0.5-1-1-1.6-1.7
			C204.8,269.7,207.3,267.4,209.4,264.9z"/>
		<path class="st1" d="M131.6,293.1c0-2.4,0-2.4,2.1-2.2c2.2,0.2,4.4,0.1,6.6,0c1.5-0.1,1.5-0.1,1.5,1.5c0,0.2,0,0.4,0,0.7
			c-0.7,0.2-1.3,0-2,0c-1.4,0-1.4,0-1.4,1.3c0,3.9-0.1,7.8,0.1,11.8c0,0.2,0,0.3,0,0.6c-1.2,0-2.4,0-3.7,0c0.1-0.9,0.1-1.8,0.1-2.6
			c0-3.3,0-6.5,0-9.8c0-1.2,0-1.2-1.3-1.2c-0.3,0-0.7,0-1,0.1C132.4,293.1,132.1,293.1,131.6,293.1z"/>
		<path class="st43" d="M126.6,290.8c-0.2,3.7-0.5,7.1-0.5,10.6c0,1.5,0,3,0,4.5c0,0.7-0.2,0.9-0.9,0.8c-0.4-0.1-0.8-0.1-1.2-0.1
			c-1.7,0-1.7,0-1.6-1.8c0.3-4.4,0.4-8.7,0.4-13.1c0-0.8,0.3-1,1-1C124.7,290.9,125.5,290.8,126.6,290.8z"/>
		<path class="st42" d="M211.2,262.4c0.8-0.9,1.5-1.9,2.2-3c4.2,3.3,8.4,6.4,12.9,9.4c-0.8,0.9-1.5,1.8-2.1,3
			C219.9,268.4,215.7,265.3,211.2,262.4z"/>
		<path class="st42" d="M46.6,246.3c0.5,1.2,0.7,2.3,1.4,3.4c-5,1.7-9.9,3.5-14.8,5.7c-0.5-1.2-0.9-2.2-1.4-3.4
			C36.8,250.3,41.7,248.5,46.6,246.3z"/>
		<path class="st44" d="M135.7,164.5c0.4-1.5,0.4-2.7,0.5-3.8c0-0.6,0.1-1.1,0.1-1.7c0.1-0.7,0.3-1.3,1.2-1.4c0.8,0,1,0.5,1.2,1.1
			c0.4,1.5,0.7,3,0.8,4.6c0.1,1.2,0.3,2.5,0.6,3.7c0.5-1.7,0.9-3.4,1.4-5.1c0.2-0.8,0.3-1.7,1.4-1.8c0.8,0,1.2,0.6,1.2,2
			c0.1,1.3,0,2.7-0.1,4c-0.1,0.6-0.2,1.2,0,2c0.5-1.1,1-2,1.5-2.9c0.2-0.4,0.5-0.9,0.8-1.3c0.7-0.7,1.7-0.4,1.9,0.6
			c0.1,0.9,0.1,1.8-0.1,2.6c-0.3,1.5-0.7,3-1.1,4.8c0.8-0.9,1.3-1.7,1.9-2.4c0.3-0.4,0.7-0.8,1.1-1c0.7-0.5,1.5-0.1,1.6,0.7
			c0.1,0.7-0.1,1.4-0.3,2.1c-0.6,1.8-1.4,3.5-2.2,5.3c0.7-0.5,1.3-1,2-1.6c0.4-0.3,0.8-0.6,1.2-0.8c0.9-0.4,1.5,0.1,1.6,1.1
			c0,0.7-0.2,1.3-0.6,1.9c-0.8,1.4-1.8,2.5-2.8,3.9c0.8,0,1.4-0.4,2-0.6c0.7-0.2,1.3-0.4,1.8,0.2c0.6,0.7,0.1,1.4-0.3,1.9
			c-2.2,2.9-5.1,4.7-8.6,5.6c-1.6,0.4-3.2,0.4-4.8,0.5c-0.5,0-1.1-0.2-1.6,0.4c1.3,1.5,2.7,2.9,4,4.4c1.8,2,3.6,3.9,5.4,5.9
			c1.2,1.3,1.2,1.6-0.3,2.7c-0.2,0.1-0.3,0.3-0.5,0.5c-0.9,0.8-1.3,0.8-2.1-0.1c-0.9-1-1.7-2.1-2.5-3.1c-2-2.5-4-5-6.1-7.5
			c-0.2-0.2-0.4-0.6-0.8-0.6c-0.3,0.5-0.3,1.1-0.5,1.7c-0.9,5-3.3,9-7.6,11.8c-0.7,0.4-1.4,1.1-2.2,0.4c-0.9-0.8-0.2-1.5,0.2-2.2
			c0.2-0.4,0.6-0.8,0.6-1.4c-1.2,0.6-2.3,1.2-3.4,1.8c-0.7,0.4-1.5,0.6-2.4,0.6c-0.5,0-1-0.2-1.2-0.7s0-1,0.3-1.4
			c0.8-0.9,1.6-1.7,2.3-2.6c-0.4,0-0.9,0.2-1.4,0.4c-1.4,0.5-2.8,0.8-4.2,1c-0.4,0.1-0.9,0.1-1.3,0.1c-0.6-0.1-1.1-0.3-1.2-0.9
			c-0.1-0.6,0.2-1,0.6-1.3c0.6-0.4,1.2-0.8,1.8-1.2c0.4-0.2,0.7-0.4,1-0.9c-0.9,0.1-1.8,0.1-2.7,0.2c-1.2,0.1-2.3,0.2-3.5-0.1
			c-0.7-0.1-1.4-0.3-1.5-1.1s0.5-1.1,1.2-1.3c1.2-0.4,2.3-0.8,3.6-1.2c-0.9-0.5-1.7-0.4-2.5-0.4c-1.3,0-2.5-0.3-3.8-0.6
			c-0.7-0.2-1.3-0.4-1.3-1.3c0.1-0.8,0.7-1.1,1.4-1.1c1.8-0.2,3.5-0.4,5.3-0.6c0.2,0,0.4-0.1,0.9-0.2c-2.1-0.6-3.9-1-5.7-1.5
			c-1-0.3-1.9-0.7-2.8-1c-0.6-0.2-0.9-0.6-0.8-1.3s0.7-1,1.3-1c1.1,0.1,2.2,0.2,3.3,0.3c0.6,0,1.2,0,2,0c-0.6-0.6-1.3-0.7-1.9-1
			c-1.4-0.6-2.9-1.2-4.2-2c-0.6-0.4-1.1-0.8-0.7-1.6c0.3-0.7,0.9-0.8,1.5-0.6c1.8,0.4,3.5,0.7,5.4,0.9c-1.2-0.7-2.4-1.4-3.5-2.1
			c-0.8-0.5-1.6-1-2.3-1.6c-0.5-0.3-0.6-0.8-0.4-1.3c0.3-0.6,0.8-0.8,1.4-0.6c1.4,0.4,2.7,0.9,4.1,1.3c0.5,0.2,1,0.5,1.8,0.5
			c-1.4-1.1-2.7-2.1-3.9-3.1c-0.5-0.4-1-0.9-1.5-1.3c-0.4-0.4-0.6-0.8-0.3-1.3c0.3-0.6,0.9-0.7,1.4-0.5c0.4,0.1,0.7,0.2,1.1,0.4
			c1.1,0.5,2.2,1.1,3.3,1.6c0.3,0.1,0.5,0.4,1,0.2c-1.1-1.2-2.2-2.3-3.2-3.4c-0.4-0.4-0.7-0.8-1-1.3s-0.3-1,0.1-1.4
			c0.4-0.4,0.8-0.5,1.3-0.2c0.7,0.4,1.4,0.8,2.1,1.3c1.3,0.9,2.5,1.8,3.9,2.8c0-0.6-0.4-0.9-0.6-1.2c-0.9-1.4-1.9-2.7-2.8-4.1
			c-0.2-0.3-0.4-0.7-0.5-1c-0.2-0.5-0.2-1,0.3-1.4s1-0.3,1.5,0c0.8,0.6,1.6,1.2,2.3,1.9c0.9,0.9,1.7,1.9,2.7,2.9
			c0.5-0.7,0-1.1-0.1-1.4c-0.8-1.6-1.6-3.1-2.3-4.8c-0.3-0.7-0.3-1.3,0.4-1.7s1.1,0.1,1.6,0.5c1,1,1.8,2.2,2.7,3.4
			c0.4,0.5,0.7,1,1.3,1.7c0-1.2-0.5-2-0.8-2.8c-0.3-1.1-0.7-2.1-0.9-3.2c-0.1-0.6,0-1.1,0.7-1.4c0.6-0.2,1.1,0,1.4,0.5
			c0.8,1.4,1.6,2.8,2.5,4.1c0.3,0.6,0.5,1.2,1.2,1.8c-0.3-1.7-0.6-3.2-0.9-4.8c-0.1-0.6-0.1-1.2-0.1-1.8c0-0.5,0.4-0.8,0.9-0.9
			c0.4-0.1,0.8,0.1,1,0.4c0.3,0.5,0.6,0.9,0.8,1.5c0.7,1.7,1.4,3.4,2.2,5.4c0.2-1.4-0.1-2.5-0.2-3.6c0-0.6,0-1.2,0-1.8
			c0-1.2,0.3-1.8,1-1.8c0.9,0,1.2,0.7,1.4,1.4c0.3,1,0.6,2,0.9,3C135.1,162,135.3,163.1,135.7,164.5z"/>
		<path class="st44" d="M156.3,215.1c-1.1-1.6-2.2-3.2-3.3-4.8c-0.3-0.5-0.6-1-0.8-1.4c-0.3-0.5,0-1,0.4-1.3s0.8-0.3,1.2,0
			c0.5,0.4,1.1,0.8,1.6,1.2c1.3,1.2,2.5,2.3,3.8,3.5c0.3-0.5-0.1-0.9-0.3-1.2c-0.7-1.4-1.4-2.8-2-4.2c-0.1-0.3-0.3-0.6-0.4-0.9
			c-0.2-0.6-0.1-1.1,0.5-1.4c0.5-0.3,1-0.1,1.3,0.2c0.5,0.5,1,1,1.4,1.6c0.9,1.2,1.8,2.4,2.9,3.7c-0.1-1.1-0.5-1.9-0.8-2.7
			c-0.3-1.1-0.7-2.2-0.9-3.4c-0.1-0.6,0.1-1.1,0.7-1.4c0.6-0.2,1.1,0,1.4,0.5c0.8,1.3,1.6,2.7,2.4,4c0.3,0.5,0.4,1,1,1.4
			c0.1-1.2-0.4-2.3-0.5-3.5c-0.1-0.8-0.2-1.5-0.2-2.3c0-0.6,0.3-0.9,0.9-1.1c0.5-0.1,0.9,0.1,1.1,0.5c0.4,0.7,0.7,1.4,1,2.1
			c0.6,1.5,1.2,3.1,2,4.6c-0.1-1.5-0.2-2.9-0.3-4.4c0-0.4,0-0.8,0-1.2c0-0.7,0.1-1.4,0.9-1.5c0.9-0.1,1.2,0.5,1.4,1.1
			c0.3,0.8,0.5,1.6,0.7,2.4c0.4,1.4,0.7,2.9,1.3,4.3c0.1-1.5,0.2-2.9,0.4-4.4c0-0.4,0-0.8,0.1-1.2c0.1-0.6,0.3-1.1,1-1.2
			c0.7-0.1,1.1,0.3,1.3,1c0.6,1.9,0.8,3.9,1,5.9c0.1,0.8,0,1.5,0.4,2.5c0.6-1.4,0.8-2.8,1.2-4c0.2-0.6,0.4-1.3,0.6-1.9
			c0.2-0.6,0.7-0.9,1.3-0.8c0.6,0.1,0.8,0.5,0.9,1c0.2,1.2,0.2,2.4,0.1,3.6c-0.1,0.9-0.1,1.8-0.2,2.9c0.7-0.4,0.7-1,1-1.4
			c0.4-0.7,0.7-1.4,1.1-2.1c0.3-0.5,0.7-0.9,1.4-0.7c0.6,0.2,0.9,0.7,0.9,1.3c0.1,1.2-0.2,2.4-0.4,3.6c-0.2,1-0.5,2-0.6,3.2
			c0.5-0.6,0.9-1.1,1.4-1.7c0.4-0.5,0.8-1.1,1.4-1.4c0.7-0.4,1.5-0.1,1.6,0.7c0.1,0.6,0,1.2-0.2,1.8c-0.5,1.9-1.5,3.7-2.2,5.6
			c0.7-0.5,1.3-1,2-1.5c0.4-0.3,0.8-0.6,1.2-0.8c0.8-0.3,1.5,0.2,1.6,1.1c0,0.8-0.4,1.5-0.7,2.2c-0.7,1.2-1.7,2.3-2.7,3.5
			c0.9,0,1.5-0.4,2.1-0.6c0.7-0.2,1.3-0.3,1.8,0.3c0.4,0.6,0.1,1.2-0.3,1.7c-2.1,2.9-4.9,4.7-8.4,5.6c-1.9,0.5-3.9,0.7-5.9,0.7
			c-0.3,0-0.6-0.1-0.8,0.3c0.7,0.8,1.5,1.7,2.3,2.5c2.3,2.6,4.7,5.2,7,7.7c0.3,0.3,0.5,0.6,0.7,0.9s0.3,0.8,0,1.1
			c-0.6,0.6-1.3,1.2-2,1.7c-0.4,0.2-0.9,0.2-1.2-0.2c-0.3-0.3-0.6-0.7-0.9-1c-2.4-3-4.9-6-7.3-9.1c-0.4-0.5-0.7-1.1-1.3-1.5
			c-0.5,0.4-0.4,0.9-0.5,1.4c-0.8,4.7-2.8,8.6-6.7,11.5c-0.4,0.3-0.9,0.6-1.4,0.9c-0.6,0.4-1.3,0.8-2,0.1c-0.6-0.6-0.3-1.2,0.1-1.8
			c0.3-0.5,0.6-1.1,1-1.9c-1.2,0.6-2,1.1-2.8,1.5c-0.9,0.5-1.8,0.9-2.8,1c-0.6,0-1.3,0-1.6-0.6s0-1.2,0.5-1.6
			c0.8-0.8,1.6-1.5,2.6-2.5c-2.1,0.5-3.7,1.2-5.5,1.5c-0.6,0.1-1.2,0.1-1.8,0.1c-0.5,0-1-0.2-1.2-0.7c-0.2-0.6,0-1.1,0.5-1.4
			c1-0.6,2-1.2,3.2-2c-0.8-0.2-1.4-0.1-2,0c-1.2,0.2-2.4,0.2-3.6,0.2c-0.4,0-0.9-0.1-1.3-0.2c-0.5-0.1-0.9-0.4-1-1
			c-0.1-0.7,0.3-1,0.9-1.2c0.8-0.3,1.6-0.5,2.4-0.8c0.5-0.2,1.1-0.2,1.6-0.6c-1.9-0.4-3.7-0.3-5.5-0.7c-0.3-0.1-0.6-0.1-1-0.2
			c-0.6-0.2-1.1-0.5-1.1-1.3c0.1-0.8,0.7-1,1.3-1.1c1.4-0.2,2.8-0.3,4.1-0.4c0.6-0.1,1.2,0,1.9-0.4c-1.7-0.4-3.2-0.8-4.7-1.3
			c-1.1-0.3-2.1-0.7-3.1-1.1c-0.7-0.3-1.4-0.6-1.2-1.5c0.2-0.7,0.7-1,1.7-0.9c1.6,0.1,3.2,0.3,4.8,0.5c0.2,0,0.4,0,1,0
			c-1.9-0.8-3.6-1.5-5.2-2.2c-0.7-0.3-1.4-0.7-2.1-1.1c-0.5-0.3-0.9-0.7-0.6-1.4c0.2-0.6,0.8-0.8,1.3-0.7c1.5,0.3,2.9,0.6,4.4,0.9
			c0.4,0.1,0.7,0.2,1.3,0.1c-1.3-0.7-2.4-1.4-3.5-2c-0.7-0.4-1.4-0.9-2.1-1.4c-0.5-0.4-1.2-0.8-0.8-1.6c0.4-0.9,1.2-0.7,1.9-0.5
			c1.3,0.4,2.6,0.9,3.9,1.3c0.4,0.1,0.7,0.4,1.3,0.2c-1-0.8-1.9-1.5-2.8-2.2c-0.8-0.6-1.5-1.3-2.3-1.9c-0.4-0.4-0.7-0.9-0.3-1.5
			s1-0.7,1.6-0.4c1.4,0.6,2.7,1.3,4,1.9c0.4,0.2,0.8,0.6,1.4,0.5c-1.1-1.2-2.2-2.2-3.3-3.4c-0.5-0.5-0.9-1.1-1.3-1.7
			c-0.3-0.4-0.2-0.9,0.1-1.2s0.7-0.5,1.2-0.3c0.4,0.2,0.9,0.4,1.3,0.7c1.6,1.1,3.2,2.2,4.8,3.3C156.2,215.2,156.3,215.1,156.3,215.1
			z"/>
		<path class="st44" d="M88.9,118.1c-0.3-1.5-0.5-3-0.8-4.6c-0.1-0.4-0.1-0.8-0.2-1.2c0-0.6,0.3-1.1,0.9-1.2c0.5-0.1,1,0.1,1.2,0.6
			c0.4,0.9,0.9,1.8,1.2,2.7c0.5,1.1,0.9,2.2,1.6,3.4c-0.1-1-0.1-2.1-0.2-3.1c0-0.8-0.1-1.5-0.1-2.3c0-0.6,0.3-1.1,0.9-1.2
			c0.7-0.1,1,0.3,1.3,0.8c0.8,1.9,1.2,3.9,1.7,5.9c0.1,0.4,0.1,0.8,0.5,1.2c0.1-1.7,0.3-3.3,0.4-4.9c0-0.3,0.1-0.6,0.1-0.8
			c0.1-0.6,0.4-1.1,1-1.1s1,0.4,1.2,1c0.4,1.3,0.6,2.6,0.8,3.9c0.2,1.5,0.3,3.1,0.5,4.8c0.7-1.3,0.8-2.7,1.2-3.9
			c0.3-0.7,0.4-1.5,0.7-2.2c0.2-0.6,0.5-1,1.2-1c0.7,0.1,1.1,0.6,1.1,1.3c0.2,1.8,0.1,3.5-0.1,5.3c0,0.4-0.1,0.9-0.2,1.6
			c0.8-1.1,1.1-2.1,1.6-3c0.2-0.3,0.4-0.7,0.6-1c0.3-0.5,0.7-0.8,1.4-0.7c0.7,0.2,0.8,0.7,0.8,1.3c0.1,1.5-0.2,3-0.6,4.4
			c-0.2,0.7-0.3,1.4-0.3,2.2c0.4-0.5,0.9-1.1,1.3-1.6c0.3-0.4,0.7-0.7,1-1.1c0.4-0.4,0.8-0.6,1.3-0.3c0.6,0.3,0.8,0.8,0.7,1.4
			c-0.2,1.4-0.7,2.8-1.3,4.1c-0.4,0.8-0.8,1.7-1,2.6c0.8-0.6,1.6-1.3,2.4-1.9c0.5-0.4,1.1-0.8,1.8-0.3s0.6,1.2,0.3,2
			c-0.4,1.1-1,2-1.7,2.8c-0.4,0.6-0.9,1.1-1.4,1.7c0.7,0.3,1.2-0.1,1.7-0.3c0.8-0.3,1.5-0.5,2.1,0.3c0.5,0.8-0.1,1.4-0.5,1.9
			c-2.2,3-5.2,4.7-8.8,5.5c-1.4,0.3-2.8,0.4-4.3,0.4c-0.5,0-1.1-0.1-1.6,0.1c-0.2,0.5,0.2,0.7,0.5,1c2.8,3.1,5.6,6.2,8.4,9.2
			c0.2,0.2,0.4,0.4,0.6,0.6c0.1,0.2,0.3,0.3,0.4,0.5c0.4,0.7,0.3,1.4-0.5,1.7c-0.9,0.4-1.3,2.2-2.7,1c-0.3-0.3-0.6-0.7-0.9-1
			c-2.5-3.1-5-6.2-7.5-9.3c-0.3-0.4-0.6-0.9-1.3-1.2c-0.2,0.8-0.3,1.5-0.4,2.1c-0.9,4.7-3.2,8.6-7.3,11.2c-0.3,0.2-0.7,0.4-1,0.6
			c-0.5,0.3-1,0.4-1.5,0c-0.6-0.5-0.4-1.1-0.2-1.7c0.3-0.6,0.6-1.2,0.9-1.8c-0.5-0.4-0.7,0.1-1,0.2c-0.9,0.5-1.8,1-2.8,1.4
			c-0.5,0.2-1.1,0.5-1.8,0.5c-0.6,0-1.1-0.1-1.4-0.6c-0.3-0.6,0-1.1,0.3-1.5s0.7-0.7,1.1-1c0.4-0.4,0.9-0.8,1.5-1.4
			c-0.8-0.1-1.3,0.2-1.9,0.4c-1.4,0.4-2.7,0.9-4.2,0.9c-0.4,0-0.9,0-1.3,0c-0.5,0-0.8-0.3-1-0.8s0-0.9,0.4-1.2
			c0.7-0.5,1.5-1,2.2-1.4c0.4-0.3,0.9-0.4,1.2-0.8c-1.5,0.1-3,0.2-4.5,0.3c-0.7,0-1.4-0.1-2.2-0.1c-0.7-0.1-1.3-0.3-1.4-1.1
			c0-0.7,0.5-1,1.1-1.3c1.3-0.5,2.6-0.7,4.1-1.5c-2-0.1-3.7-0.1-5.4-0.5c-0.6-0.1-1.2-0.2-1.8-0.4c-0.5-0.2-0.8-0.6-0.8-1.1
			c0.1-0.6,0.4-0.9,1-1c0.8-0.2,1.6-0.3,2.5-0.3c1.4-0.1,2.8-0.3,4.1-0.6c-1.5-0.4-3-0.8-4.5-1.2c-1.2-0.3-2.4-0.7-3.6-1.2
			c-0.7-0.3-1.4-0.6-1.1-1.6c0.2-0.8,0.9-0.9,1.6-0.8c1,0.1,2.1,0.2,3.1,0.3c0.6,0,1.3,0,1.9-0.2c-1.4-0.6-2.8-1.2-4.2-1.8
			c-0.8-0.4-1.6-0.8-2.3-1.3c-0.5-0.3-0.7-0.8-0.4-1.3c0.2-0.5,0.6-0.8,1.2-0.7c0.8,0.1,1.5,0.3,2.3,0.4c1.2,0.3,2.4,0.5,3.6,0.6
			c-1.2-0.7-2.4-1.4-3.6-2.1c-0.7-0.4-1.4-0.9-2.1-1.3c-0.6-0.4-1.1-0.9-0.7-1.6c0.4-0.7,1-0.8,1.7-0.5c1.5,0.5,2.9,1,4.4,1.5
			c0.3,0.1,0.6,0.4,1.1,0.2c-1.2-0.9-2.3-1.8-3.5-2.7c-0.6-0.5-1.2-1-1.7-1.5c-0.5-0.4-0.6-0.9-0.3-1.5s0.9-0.6,1.5-0.4
			c1.1,0.4,2.1,0.9,3.2,1.4c0.8,0.4,1.5,0.8,2.5,1c-1-1-1.9-2-2.9-3c-0.5-0.5-1-1.1-1.4-1.6s-0.8-1.1-0.2-1.8c0.5-0.6,1.1-0.4,1.7,0
			c1.5,0.9,3,2,4.4,3c0.4,0.3,0.8,0.7,1.6,0.9c-0.9-1.3-1.8-2.4-2.6-3.6c-0.6-0.8-1.1-1.7-1.6-2.5c-0.3-0.5-0.4-1.1,0.1-1.5
			c0.5-0.5,1.1-0.4,1.7,0.1c0.8,0.7,1.6,1.3,2.4,2.1c0.9,0.9,1.7,1.9,2.8,3.1c0.2-0.9-0.2-1.2-0.3-1.6c-0.7-1.4-1.4-2.9-2.1-4.3
			c-0.2-0.4-0.3-0.9-0.4-1.4s0.2-0.9,0.6-1.1c0.4-0.2,0.8-0.1,1.1,0.2c0.5,0.5,0.9,0.9,1.4,1.5c1,1.3,2.1,2.7,3.3,4.2
			c-0.6-2-1.2-3.7-1.7-5.5c-0.1-0.4-0.2-0.8-0.2-1.1c0-0.6,0.3-0.9,0.8-1.1s0.9,0,1.2,0.4c0.5,0.7,1,1.5,1.4,2.2
			c0.7,1.2,1.4,2.4,2,3.6C88.7,118.2,88.8,118.2,88.9,118.1z"/>
		<path class="st45" d="M188.7,27.4c4.5-3.3,6.8-8,7.9-13.5c1.4,4.5,0,9.6-2.2,12.6c-0.5,0.7-1,1.5-1.5,2.2
			c-2.2,2.2-3.7,4.8-4.8,7.7c-0.2,0.6-0.1,1.3-0.2,1.9c-1.1-0.2-2,0.6-3,0.6c0.6-1.5,1.4-3,1.6-4.7c0.1-0.6,0.1-1.1,0.1-1.9
			c-1.3,2.1-2,4.2-3.6,5.8s-3.5,2.6-5.7,3.9c0.7-2.2,1.7-3.9,2.8-5.5c1.5-2.4,3.4-4.5,5.6-6.2C186.9,29.4,187.9,28.5,188.7,27.4z"/>
		<path class="st46" d="M206,26.3c-0.1,1.2-0.6,2-1.1,2.7c-1.5,2-2.9,4.2-4.8,5.9c-0.9,0.9-1.9,1.8-2.9,2.5
			c-2.5,1.8-3.4,4.3-3.5,7.1c-0.1,1.6,0,3.2,0,4.9c-1-0.6-1.1-1.5-1.4-2.3c-0.9-2.4-1.3-4.9-0.9-7.5c0.6-3.8,2.8-6.2,6-8.1
			c2.3-1.3,4.6-2.3,6.7-4C204.7,27.4,205.2,26.9,206,26.3z"/>
		<path class="st47" d="M90.5,21c-0.7,1.8-1.3,3.7-2.4,5.3c-1,1.4-2,2.7-3.1,4.1c-0.1,0.1-0.1,0.2-0.2,0.3c-1.3,1.4-2.1,3.2-2.9,4.9
			c-0.4,0.9-0.4,1.8-0.4,2.7c-0.6,0-1.1,0-1.6,0.3c-0.4,0.3-0.9,0.4-1.4,0.3c0.7-1.5,1.4-3,1.6-4.7c0.1-0.5,0.2-1.1,0-1.8
			c-1.2,2-2,4.1-3.5,5.7c-1.6,1.6-3.5,2.7-5.7,3.9c1-2.6,2.2-4.7,3.6-6.7c1.4-1.9,3.1-3.6,4.9-5.1c1-0.8,2-1.7,2.8-2.8
			c4.5-3.3,6.8-8,8.2-13.3c0.1,0.7,0.1,1.4,0.2,2.1c0.1,0.8,0.3,1.6,0.1,2.5C90.5,19.4,90.5,20.2,90.5,21z"/>
		<path class="st48" d="M89.3,32.7c2.1-1.2,4.2-2.3,6.2-3.5c1.5-0.9,3-1.9,4.1-3.3c0,1.1-0.5,2.4-1.4,3.5c-1.2,1.6-2.5,3.2-3.7,4.9
			c-1.4,1.2-2.8,2.3-4.2,3.5c-2.1,1.8-3,4.2-3.1,6.9c-0.1,1.5,0,3.1,0,4.6c-0.3,0.2-0.5,0.1-0.6-0.1c-2-4.3-2.6-8.6-0.3-13
			C87,34.7,88.3,33.9,89.3,32.7z"/>
		<path class="st46" d="M141.8,33.7c1.7-1.3,3.6-2.4,5.5-3.4c2.2-1.2,4.3-2.4,6.2-4.5c-0.2,1.5-0.8,2.6-1.6,3.6
			c-1.3,1.8-2.7,3.5-4.1,5.2c-1.4,1.2-2.8,2.3-4.2,3.5c-2.1,1.9-2.7,4.5-2.8,7.2c0,1.3,0,2.6,0,3.9c-0.6,0.1-0.7-0.3-0.8-0.5
			c-1.2-3.1-2-6.2-1.3-9.5c0.4-1.8,1-3.5,2.4-4.8C141.4,34.2,141.6,33.9,141.8,33.7z"/>
		<path class="st49" d="M143.4,14.7c0-0.4-0.1-0.8,0.4-1C143.8,14.1,143.8,14.5,143.4,14.7z"/>
		<path class="st50" d="M70.2,54.3c0.2,0.1,0.4,0.3,0.1,0.5c-0.8,0.3-0.8,0.9-0.6,1.6c0.3,1,0.3,2.2,1,3.1c0.2,0.3,0.1,0.7,0.1,1.1
			c-0.5,0.1-0.9,0-1.2-0.3c-2.7-2.4-5-5-6.2-8.5c-0.8-2.2-0.9-4.4-0.1-6.7c0.8-2.2,1.9-4.3,2.3-6.6c0.2-1.1,0.4-2.2,0.7-3.5
			c1.4,2.4,2.3,4.9,2.9,7.4c0.2,0.7-0.3,1.1-0.8,1.5c-1.3,1.2-2.3,2.5-2.7,4.3c-0.4,1.8-0.8,3.7,0.1,5.6c0.6-1.1,0.2-2.2,0.7-3.2
			s0.8-2.1,1.8-2.9c0.4,0.7,0.2,1.4,0.2,2.1C68.7,51.5,69.1,53,70.2,54.3z"/>
		<path class="st51" d="M176,53.3c-0.6,0.3-0.6,0.8-0.6,1.4c-0.1,1.3,0.1,2.5,0.4,3.7c0.2,0.5,0.3,1,0.2,1.6c-2.7-2.1-4.7-4.8-6-8
			c-1-2.5-0.9-4.9,0-7.4c0.8-2.1,1.7-4.1,2.2-6.2c0.2-1,0.2-2.1,0.6-3.2c1.4,2.3,2.3,4.8,2.8,7.4c0.1,0.6-0.2,1-0.6,1.3
			c-2.3,1.8-2.9,4.3-3.3,7c-0.1,1,0.3,1.9,0.5,2.9c0.6-1,0.3-2.2,0.8-3.1s0.8-2,1.9-3C175,49.8,175.1,51.6,176,53.3z"/>
		<path class="st51" d="M176.7,54.3c0.2,0.1,0.4,0.3,0.1,0.4s-0.4-0.2-0.5-0.5C176.5,54.3,176.6,54.3,176.7,54.3z"/>
		<path class="st16" d="M190.7,292.5c0,0.7-0.1,1.4-0.4,2.1c-0.7,1.6-2.5,2.2-4,1.5c-0.6-0.3-1.1-0.7-1.5-1.2
			c-1.7-2.2-2.7-4.7-2.8-7.5c0-0.6,0.1-1.2,0.3-1.8c0.7-1.7,2.5-2.3,4.1-1.5c0.6,0.3,1,0.7,1.4,1.1
			C189.6,287.4,190.5,289.8,190.7,292.5z"/>
		<path class="st16" d="M227.1,258.3c-2.2-0.2-4.6-1.2-6.7-3c-0.3-0.3-0.6-0.6-0.9-1c-1.4-2.1-0.2-4.7,2.3-4.8c3.1-0.2,5.8,1,8.2,3
			c1.4,1.2,1.8,2.7,1.2,4S229.5,258.3,227.1,258.3z"/>
		<path class="st52" d="M228.4,239.5c-1.8-0.3-3.5-0.6-5.3-1.1c0.4-2.1,1-2.6,3.1-2.2C228.1,236.5,228.8,237.4,228.4,239.5z"/>
		<path class="st53" d="M45,259.9c1.4-0.8,2.6-1.6,3.9-2.3c0.3-0.2,0.6-0.3,0.9-0.4c1,1.8,0.9,2.6-0.6,3.6
			C47.4,261.9,46.4,261.7,45,259.9z"/>
		<path class="st54" d="M199.3,282.6c-0.9-1.4-1.7-2.8-2.5-4.1c-0.4-0.6-0.2-0.9,0.4-1.1c1-0.4,1.7-0.4,2.4,0.4
			c0.3,0.4,0.6,0.8,0.9,1.2C201.2,280.5,201,281.2,199.3,282.6z"/>
		<path class="st55" d="M148.1,299.6c0.2-1.3,0.5-2.7,1-4.1c0.8,1.2,1.1,2.4,1.6,3.5c0.2,0.5-0.1,0.7-0.5,0.7
			C149.5,299.7,148.8,299.9,148.1,299.6z"/>
		<path class="st56" d="M126.5,175c-0.4-1.3-1.3-2.4-2-3.6c-1.6-2.8-3.3-5.7-4.7-8.6c-0.2-0.5-0.6-0.9-0.6-1.8
			c3.6,4.2,6.2,8.8,9.4,12.9c-1.8-4.8-3.9-9.5-5.1-14.5c3,4.5,5.1,9.4,7.8,14.1c-1-4.9-2.6-9.7-3.1-14.8c2.3,4.6,3.6,9.6,5.5,14.3
			c-0.1-4.7-0.9-9.3-0.8-14c1.7,4.5,2.2,9.4,3.3,14c0.8-4.4,0.7-8.9,1.3-13.4c1.1,4.6,1.1,9.4,1.6,14.1c1.6-3.7,2.2-7.7,3.7-11.5
			c0,1,0,2.1,0,3.1c0,1.1-0.2,2.2-0.3,3.3c-0.1,1-0.2,2.1-0.4,3.1c-0.2,1.1-0.4,2.1-0.1,3.3c1.6-3.3,3.1-6.6,4.7-9.9
			c0.1,0,0.2,0.1,0.3,0.1c-0.3,4.1-1.9,7.9-3,11.8c2.3-2.3,4-5,6.3-7.2c-0.7,3.8-3,6.8-4.6,10.2c2.6-1,4.5-3.1,6.9-4.6
			c-1.3,3.3-3.9,5.5-6.1,8.1c2.3-0.4,4.3-1.5,6.5-2.1c-1.5,3.2-7.2,6.3-12.5,5.8c1.7-0.7,3.3-1.2,4.6-2.2c0.1-0.1,0.2-0.3,0.2-0.5
			c-1.5,0.6-2.9,1.6-4.9,1.9c1.7-1.7,3.4-2.9,4.4-5.1c-1.4,0.6-1.7,1.8-2.6,2.5c-0.8,0.7-1.5,1.5-2.5,2.1c1.3-2.1,2.8-4.2,3.2-6.7
			c-1.1,1.8-1.9,3.8-3.4,5.4c0.5-2.4,1.6-4.6,1.5-7.1c-1,2.3-1.2,4.7-2.7,7.2c0.2-1.2,0.2-2.1,0.4-3s0.2-1.8,0.3-2.6
			c0-0.9,0-1.9,0-2.8c-0.8,0.3-0.6,0.9-0.6,1.3c0,2.2-0.1,4.4-0.8,6.6c0,0.1-0.1,0.2-0.2,0.3c0-2.9,0-5.7-0.9-8.8
			c-0.6,1.1,0,1.9,0,2.6c0,0.8,0.3,1.6,0.3,2.5c0,0.8,0.2,1.6-0.1,2.6c-0.7-2.6-0.9-5.1-2.2-7.3c-0.2,1.2,0.5,2.3,0.7,3.5
			s0.7,2.4,0.6,3.7c-1-2.3-1.7-4.7-3.1-6.9c-0.1,1.3,0.7,2.4,1.1,3.5c0.4,1.1,0.9,2.2,1,3.5c-1.4-2-2.4-4.4-4.1-6.2
			c0.9,2.3,2.4,4.2,3.1,6.6c-1.8-1.7-3-4-4.9-5.6c0.4,1.4,1.5,2.4,2.3,3.5s1.6,2.2,2.3,3.4c-2.2-1.7-3.9-3.8-5.9-5.7
			c-0.5,0.5-0.1,0.8,0.2,1c1.2,1.3,2.5,2.5,3.7,3.8c0.4,0.4,0.9,0.7,1.1,1.5c-2.4-1.3-4.2-3.1-6.4-4.7c0.3,1.1,0.3,1.1,2.7,3
			c1.1,0.8,2.2,1.6,3.2,2.5c-2.5-0.8-4.6-2.5-7-3.4c2.1,1.9,4.5,3,6.9,4.4c-2.7-0.5-5-1.8-7.6-2.6c2.1,1.6,4.5,2.3,6.8,3.3
			c-2.5,0.1-4.7-1-7.2-1.6c0.7,0.9,0.9,1,3.6,1.7c1.3,0.3,2.6,0.6,4,1c-2.5,0.7-5-0.1-7.7-0.1c1.5,1,1.8,1,8.7,0.9
			c-0.7,0.7-1.7,0.6-2.5,0.8s-1.7,0.3-2.6,0.4c-0.9,0.1-1.8-0.1-2.6,0.4c2.6,0.5,5.2-0.3,7.8-0.6c-1.9,1.4-4.3,1.9-6.4,2.7
			c2.6,0.1,4.8-1.1,7.2-1.9c-0.5,0.4-1,0.9-1.5,1.3c-0.6,0.5-1.3,0.9-1.9,1.4c-0.5,0.4-1.3,0.5-1.8,1.3c1.3-0.2,2.2-0.8,3.1-1.5
			c0.9-0.6,1.7-1.3,2.7-2.1c-0.7,1.8-1.7,3.2-2.7,4.5c1.7-0.6,2.1-2.4,3.1-3.6c0.2,3.7-3.8,9.5-7.2,10.8c0.7-2.2,2.1-3.9,2.9-5.8
			c-0.5-0.3-0.7,0.2-1,0.3c-1.7,1.1-3.3,2.3-5,3.2c-0.9,0.5-1.8,1-3.2,1.1c2-2.2,4.3-3.8,5.9-6c-0.7-0.4-1.2,0-1.6,0.2
			c-2.4,0.9-4.8,1.9-7.4,2.4c-0.6,0.1-1.2,0.2-2.1,0.1c2.7-2,5.7-3.1,8.3-5c-4.1,0.4-8.1,1.5-12.3,1c3.4-1.4,7-2.1,10.5-3.3
			c-0.2-0.7-0.7-0.4-1-0.4c-2.3,0-4.7-0.1-7-0.1c-1.4,0-2.7-0.3-4.1-0.4c-0.3,0-0.7-0.1-0.8-0.5c4-0.5,8.1-0.7,12.2-1.5
			c-4.6-1.4-9.4-1.9-13.8-3.8c4.5,0,8.9,0.8,13.4,0.8c-4.4-1.9-9-3.1-13.2-5.4c1.2-0.3,2.3,0.3,3.4,0.5c1.2,0.2,2.4,0.6,3.5,0.9
			c1.1,0.3,2.3,0.5,3.4,0.8c1.2,0.3,2.3,0.6,3.5,0.8c-4.5-2.7-9.3-4.7-13.5-7.7c4.9,1.4,9.5,3.5,14.3,5.3c-2.2-1.5-4.3-3.1-6.5-4.6
			c-2.1-1.6-4.3-3-6.2-5c4.8,2,9.2,4.8,13.6,7.4c-3.7-3.9-7.9-7.2-11.3-11.4c4.7,2.8,8.7,6.4,13,9.7c-3.4-4.5-7-8.8-10.2-13.7
			c0.8,0.2,1.1,0.6,1.4,0.9c3.1,2.9,6,6,8.8,9.1c0.4,0.5,0.8,1.1,1.4,1.4C126.6,175.2,126.7,175.2,126.5,175z"/>
		<path class="st57" d="M147.9,200.8c-0.5,0.4-0.9,0.7-1.4,1.1c-1.2-1.1-2.1-2.5-3.1-3.7c-2.2-2.7-4.3-5.3-6.5-8
			c-0.2-0.3-0.8-0.7-0.4-1.1c0.4-0.4,0.8,0.1,1.1,0.4C141.1,193.3,144.5,197,147.9,200.8z"/>
		<path class="st56" d="M170.7,235.5c-1.6,0.8-3.4,0.9-5.1,1c-0.7,0.1-1.4-0.2-2.3,0.5c3,0.4,5.5-0.4,8.5-0.9
			c-2.3,1.6-4.7,2.1-7,2.9c1.3,0.4,2.5-0.2,3.7-0.6c1.2-0.4,2.3-1,3.7-1.6c-1.6,1.8-3.4,2.9-5.2,4c1.2,0.1,2-0.6,2.8-1.2
			c0.9-0.6,1.7-1.3,2.7-2.1c-0.7,1.8-1.7,3.2-2.7,4.6c1-0.2,1.4-0.9,1.8-1.6c0.5-0.7,0.9-1.5,1.5-2.2c-0.8,4.8-3.1,8.5-7.5,10.8
			c1-1.9,2.1-3.9,3.1-5.8c-3,1.5-5.6,3.8-9,4.6c1.8-2.1,4-3.8,5.7-5.9c-0.8-0.5-1.2,0-1.7,0.2c-2.3,0.9-4.5,1.7-6.9,2.3
			c-0.7,0.2-1.4,0.3-2.5,0.2c2.8-1.9,5.7-3.1,8.2-5c-4.1,0.3-8,1.4-12.2,0.7c3.5-1,7-2.1,10.5-3.1c-4.2-0.8-8.5-0.1-12.6-1.2
			c4-0.7,8-0.8,11.9-1.7c-4.6-1.3-9.4-1.9-13.8-3.8c4.5,0.1,8.9,0.8,13.4,0.8c-4.5-1.9-9.2-3.1-13.5-5.5c4.7,0.7,9.3,2.2,13.9,3.1
			c-4.5-2.6-9.3-4.7-13.5-7.7c4.9,1.3,9.5,3.5,14.2,5.4c-4.2-3.3-8.7-6.1-12.6-9.7c2.5,0.8,4.7,2.2,7,3.5s4.5,2.7,6.8,4
			c-3.9-3.9-8.1-7.5-11.7-11.7c4.8,2.9,9,6.7,13.4,10c-3.4-4.5-7.1-8.8-10-13.6c4.3,3.4,7.9,7.7,11.7,11.6
			c-2.5-4.7-5.4-9.2-7.4-14.2c3.7,4.1,6.4,8.8,9.7,13.1c-2-4.9-4.1-9.7-5.4-14.9c3,4.4,5,9.3,7.7,13.9c-1-4.9-2.5-9.6-3-14.5
			c2.3,4.5,3.5,9.5,5.6,14.1c-0.4-4.8-0.9-9.5-1.3-14.3c2,4.6,2.4,9.6,3.7,14.4c0.5-4.5,0.9-9,1.2-13.5c1.3,4.6,1.1,9.4,1.7,14.1
			c1.6-3.8,2.3-7.8,3.6-11.7c0.5,4.4-0.6,8.7-1,13c1.9-3.1,3.1-6.5,5-9.6c-0.1,4.1-1.8,7.7-2.7,11.6c2.3-2.3,4-5,6.2-7.3
			c-0.7,3.8-2.9,6.8-4.8,10.5c1.7-0.4,2.6-1.4,3.7-2.2s2.2-1.7,3.4-2.7c0.1,0.9-0.3,1.4-0.6,1.9c-1.2,1.8-2.6,3.3-4.1,4.8
			c-0.4,0.5-1,0.9-1.3,1.7c2.3-0.3,4.1-1.7,6.3-1.8c-2.9,4.1-7.1,5.5-11.9,5.5c1.5-0.9,3.4-1.2,4.8-2.9c-1.2,0.2-1.8,0.9-2.6,1.2
			s-1.5,0.7-2.5,0.7c1.5-1.6,3.3-2.8,4.2-5.1c-1.3,0.7-1.6,1.9-2.4,2.5c-0.8,0.7-1.5,1.5-2.5,2.1c1.3-2.1,2.7-4.2,3.2-6.7
			c-0.9,0.8-1.2,2-1.8,3s-1.2,2-2,2.9c0.7-2.5,1.8-4.9,1.8-7.6c-1,2.2-1.2,4.6-2.6,7c0.3-2.9,1-5.5,0.4-8c-0.6,1.3-0.2,2.6-0.4,3.9
			c-0.2,1.3-0.3,2.6-0.9,3.9c-0.1-1.4,0-2.8-0.2-4.1c-0.2-1.4-0.1-2.8-0.9-4.5c-0.5,1.2,0.1,2,0.1,2.8c0,0.9,0.2,1.8,0.3,2.6
			c0.1,0.9,0,1.8-0.1,2.7c-0.6-2.6-1-5.3-2.3-7.7c0.3,2.5,1.3,4.9,1.4,7.8c-1.1-2.8-1.8-5.3-3.3-7.5c-0.1,1.3,0.7,2.3,1.1,3.5
			s0.9,2.3,1.1,3.7c-1.3-2.1-2.4-4.4-4-6.3c0.2,1.5,1.2,2.5,1.8,3.8s1.4,2.5,1.8,3.8c-1.9-2.2-3.4-4.7-5.4-6.8
			c-0.1,0.1-0.2,0.2-0.4,0.3c1.7,2.3,3.4,4.7,5.2,7c-0.1,0.1-0.1,0.1-0.2,0.2c-1-1-2-2.1-3.1-3.1s-1.8-2.3-3.2-3
			c0.6,1.4,1.8,2.2,2.8,3.3c1,1,2.1,2,3,3.1c-2.5-1.3-4.6-3.2-7-4.8c0.6,1.3,1.9,2,2.9,2.9c1.1,0.9,2.3,1.7,3.4,2.6
			c-2.6-0.9-4.8-2.5-7.4-4c0.5,1.1,0.6,1.2,2.9,2.5c1.1,0.6,2.1,1.2,3.3,1.8c-1,0.1-1.6-0.1-3.4-0.9c-1.1-0.5-2.2-1-3.4-1.6
			c0.6,1,0.6,1.1,3.7,2.3c1.3,0.5,2.6,1,4,1.6c-2.7-0.2-5.3-1-7.8-1.8c-0.3,0.7,0.2,0.7,0.4,0.8c1.8,0.7,3.7,1.2,5.6,1.5
			c0.7,0.1,1.3,0.3,2,0.5c-2.8,0.5-5.4-0.1-8.2-0.2c0.8,0.7,0.8,0.6,1.5,0.7C166.5,235.5,168.6,235.5,170.7,235.5L170.7,235.5z"/>
		<path class="st57" d="M186.6,246.1c-0.3,0.4-0.7,0.8-1.3,1.1c-1.4-1.7-2.9-3.5-4.3-5.2c-1.7-2.1-3.3-4.1-5-6.2
			c-0.2-0.3-0.5-0.6-0.6-1c-0.1-0.1,0-0.3,0.1-0.4c0.1-0.1,0.3-0.1,0.4,0c0.3,0.2,0.5,0.4,0.7,0.7c3.3,3.6,6.5,7.2,9.8,10.8
			C186.5,245.9,186.6,246,186.6,246.1z"/>
		<path class="st56" d="M170.7,235.6c0.3-0.3,0.6-0.4,1.1-0.1C171.3,235.5,171,235.5,170.7,235.6
			C170.7,235.5,170.7,235.6,170.7,235.6z"/>
		<path class="st56" d="M85,149.2c-4,0.3-8,1.4-12.1,1c3.3-1.5,7-2.1,10.4-3.4c-0.1-0.6-0.5-0.4-0.8-0.4c-2,0-4-0.1-6,0
			c-1.7,0-3.3-0.3-5-0.4c-0.5,0-1-0.1-1.4-0.5c4.1-0.7,8.3-0.6,12.4-1.6c-4.5-1.3-9.2-1.8-13.6-3.6c0-0.1,0-0.2,0.1-0.3
			c4.4,0.4,8.9,0.8,13.3,1.2c0-0.1,0.1-0.2,0.1-0.3c-4.7-1.8-9.6-3.1-14-5.5c4.7,0.8,9.4,2.2,14.1,3.1c-4.5-2.7-9.3-4.7-13.5-7.7
			c4.9,1.4,9.5,3.5,14.2,5.4c-4.1-3.3-8.6-6.2-12.6-9.8c4.8,2,9.2,4.8,13.6,7.4c-3.7-3.9-7.8-7.3-11.3-11.4
			c4.8,2.8,8.9,6.6,13.3,9.9c-3.3-4.5-7-8.6-9.8-13.5c4.2,3.3,7.7,7.5,11.5,11.3c-2.4-4.8-5.4-9.2-7.4-14.2
			c3.6,4.1,6.4,8.8,9.7,13.2c-1.9-4.9-4.1-9.7-5.4-14.9c3,4.4,5,9.3,7.7,13.9c-1.1-4.9-2.5-9.7-3.1-14.7c2.4,4.7,3.7,9.8,5.6,14.7
			c-0.2-4.8-0.9-9.6-0.9-14.4c1.7,4.7,2.2,9.6,3.4,14.4c0.8-4.5,0.6-9,1.3-13.5c1.3,4.6,1,9.4,1.6,14.1c1.6-3.7,2.2-7.7,3.6-11.5
			c0.3,4.3-0.7,8.5-0.9,12.8c1.9-3.1,3.2-6.6,5-9.7c-0.1,4.1-1.8,7.8-2.9,11.7c0.1,0.1,0.2,0.1,0.3,0.2c1.9-2.4,3.8-4.9,5.8-7.3
			c0.1,0.1,0.2,0.1,0.3,0.2c-0.8,3.7-3,6.7-4.9,10.3c1.7-0.5,2.7-1.5,3.8-2.3s2-1.8,3.6-2.6c-1.5,3.6-4.3,5.7-6.3,8.6
			c2.1-0.8,4.1-1.5,6.3-2.3c-1.6,3.7-7.2,6.1-12.4,5.9c1.6-1,3.6-1.2,5-2.8c-1.2,0-1.7,0.8-2.5,1s-1.5,0.7-2.6,0.8
			c1.6-1.7,3.5-2.9,4.1-5c-1.5,1.5-2.9,3.2-4.7,4.4c1.3-2.1,2.6-4.1,3.3-6.4c0-0.2,0-0.3-0.4-0.4c-1,2.2-1.9,4.4-3.6,6.2
			c0.9-2.5,1.8-5,2-7.8c-0.9,1-0.8,2.3-1.2,3.5s-0.8,2.5-1.7,4c0.5-3.1,1.1-5.8,0.6-8.6c-0.5,2.7-0.4,5.4-1.4,8
			c-0.1-2.8-0.1-5.6-1-8.3c-0.1,2.6,0.5,5.1,0.3,7.7c-0.8-2.6-1-5.3-2.4-7.8c0.4,2.6,1.3,5.2,1.5,7.9c-1.1-2.6-1.8-5.2-3.4-7.6
			c0.6,2.6,2,4.9,2.4,7.6c-1.4-2.3-2.5-4.8-4.3-7.3c-0.2,1.3,0.6,1.9,1,2.6c0.4,0.8,0.9,1.5,1.3,2.3s0.8,1.6,1,2.4
			c-1.8-1.9-3.2-4.1-5-6.1c0,0.9,0,0.9,1.3,2.5c0.6,0.8,1.2,1.6,1.8,2.4c0.5,0.8,1.2,1.5,1.4,2.6c-2-2-4-4.1-6.1-6.1
			c-0.1,0.1-0.2,0.2-0.3,0.2c0.3,0.9,1.2,1.5,1.8,2.1c0.7,0.7,1.4,1.4,2.1,2.1c0.7,0.7,1.5,1.4,2.1,2.1c-2.6-1.3-4.7-3.3-7.1-5.1
			c0.4,1.1,0.4,1.1,2.6,2.9c1,0.8,2,1.5,2.9,2.4c-2.4-0.7-4.3-2.3-6.7-3.4c0.6,1,0.6,1,2.1,1.9c0.9,0.5,1.7,1,2.6,1.5
			c0.8,0.4,1.7,0.9,2.5,1.4c-1.4-0.2-2.7-0.7-4-1.2s-2.5-1.1-3.8-1.5c2,1.6,4.5,2.4,6.8,3.4c-2.5,0-4.7-1.1-7.2-1.4
			c2.5,1.4,5.3,1.9,8.1,2.4c-2.7,0.3-5.4,0.2-8.1,0c2.7,1.1,5.6,0.7,8.4,0.9c-1.2,0.4-2.5,0.8-3.8,0.9c-1.3,0.1-2.5,0.3-4.1,0.5
			c1.5,0.9,2.8,0.2,4,0.1c1.3-0.1,2.6-0.4,3.9-0.6c-1.9,1.4-4.2,1.8-6.3,2.7c2.5,0.1,4.7-1.1,7-2c-1.4,1.6-3.2,2.7-5,3.8
			c1.4,0,1.9-0.2,5.6-3.2c-0.2,1-0.7,1.8-1.2,2.5c-0.4,0.7-1,1.3-1.3,2c1.8-0.7,2.2-2.7,3.5-4.2c-0.9,5-3.2,8.8-7.5,11.2
			c0.7-2,1.9-3.8,2.8-5.7c-0.5-0.3-0.7,0.2-1,0.3c-1.8,1.2-3.5,2.4-5.3,3.4c-0.7,0.4-1.4,0.9-2.5,0.7c0.7-1.3,2-2,2.9-2.9
			c0.9-1,2-1.8,2.8-3.3c-3.8,1.2-7.2,3-11.1,3.2C79.4,152.3,82.4,151.1,85,149.2z"/>
		<path class="st57" d="M109.1,155.5c-0.5,0.4-0.9,0.8-1.4,1.2c-1.3-1.6-2.6-3.2-3.9-4.8c-2-2.4-3.9-4.8-5.8-7.2
			c-0.2-0.2-0.5-0.5-0.2-0.8s0.6,0,0.9,0.2c1.1,1.2,2.2,2.4,3.3,3.6C104.3,150.2,106.7,152.8,109.1,155.5z"/>
		<path class="st44" d="M126.5,175c0.3,0.1,0.4,0.4,0.6,0.8c-0.5-0.1-0.6-0.4-0.7-0.7C126.4,175.1,126.5,175,126.5,175z"/>
	</g>
</g>
</svg>
