<?xml version="1.0" encoding="utf-8"?>
<!-- Generator: Adobe Illustrator 24.0.2, SVG Export Plug-In . SVG Version: 6.00 Build 0)  -->
<svg version="1.1" id="Layer_1" xmlns="http://www.w3.org/2000/svg" xmlns:xlink="http://www.w3.org/1999/xlink" x="0px" y="0px"
	 viewBox="0 0 150 150" style="enable-background:new 0 0 150 150;" xml:space="preserve">
<path d="M74,6c9.9,0,18.2,3,24,8.8c6.1,6,9.2,14.8,9.2,26.2v68c0,11.3-3.1,20.2-9.2,26.2c-5.8,5.8-14.1,8.8-24,8.8s-18.2-3-24-8.8
	c-6.1-6-9.2-14.8-9.2-26.2V41c0-11.3,3.1-20.2,9.2-26.2C55.8,9,64.1,6,74,6 M74,0L74,0C52.4,0,34.9,12.8,34.9,41v68
	c0,28.1,17.5,41,39.1,41l0,0c21.6,0,39.1-12.8,39.1-41V41C113.1,12.8,95.6,0,74,0L74,0z"/>
<path d="M111.4,37.9c0-0.1,0-0.2,0-0.3H38.2c0.2,0.9,0.3,1.9,0.1,2.9c-0.1,0.4-0.2,0.6-0.2,0.9c0,0.8,0,1.5,0,2.3h73.4
	C111.4,41.7,111.4,39.8,111.4,37.9z"/>
<path d="M109.2,113.3c0-1.5,0.1-3.3,0.3-5.3H37v5c0,0.4,0,0.7-0.1,1h72.3C109.2,113.7,109.2,113.5,109.2,113.3z"/>
<path d="M110.5,105.5L38.6,40c-0.5,2-1.2,4-1.5,6l71.2,64.9C108.9,108.9,109.7,107.2,110.5,105.5z"/>
</svg>
