<?xml version="1.0" encoding="utf-8"?>
<!-- Generator: Adobe Illustrator 24.0.2, SVG Export Plug-In . SVG Version: 6.00 Build 0)  -->
<svg version="1.1" id="Layer_1" xmlns="http://www.w3.org/2000/svg" xmlns:xlink="http://www.w3.org/1999/xlink" x="0px" y="0px"
	 viewBox="0 0 150 150" style="enable-background:new 0 0 150 150;" xml:space="preserve">
<style type="text/css">
	.st0{fill:#000000;}
</style>
<path class="st0" d="M75,150.3c-0.9,0-1.7-0.4-2.3-1.1L0.8,82.4c-0.4-0.5-0.7-1.2-0.7-1.9V3.3c0-1.7,1.3-3,3-3h143.8
	c1.7,0,3,1.4,3,3v77.2c0,0.7-0.2,1.4-0.7,1.9l-71.9,66.8C76.7,149.9,75.9,150.3,75,150.3z M6.1,79.4L75,142.5l68.9-63.2v-73H6.1
	V79.4z M146.9,80.5L146.9,80.5L146.9,80.5z"/>
<path class="st0" d="M92.2,100.8L75,116.5l-17.2-15.8c-1.2-1.1-3.1-1.1-4.3,0l0,0c-1.4,1.2-1.4,3.4,0,4.6l19.1,17.8
	c0.6,0.7,1.4,1.1,2.3,1.1s1.7-0.4,2.3-1.1l19.1-17.8c1.3-1.3,1.3-3.4,0-4.6l0,0C95.2,99.7,93.4,99.7,92.2,100.8z"/>
<g>
	<line class="st0" x1="75" y1="116" x2="75" y2="19.5"/>
	<path class="st0" d="M75,119c-1.7,0-3-1.3-3-3V19.5c0-1.7,1.3-3,3-3c1.7,0,3,1.3,3,3V116C78,117.7,76.7,119,75,119z"/>
</g>
<path class="st0" d="M133.1,19.3v8.8h11.7v6h-14.7c-1.7,0-3-1.3-3-3V19.3c0-1.7,1.3-3,3-3l0,0C131.8,16.3,133.1,17.6,133.1,19.3z"/>
<path class="st0" d="M16.8,19.3v8.8H5.1v6h14.7c1.7,0,3-1.3,3-3V19.3c0-1.7-1.3-3-3-3h0C18.1,16.3,16.8,17.6,16.8,19.3z"/>
</svg>
