<?xml version="1.0" encoding="utf-8"?>
<!-- Generator: Adobe Illustrator 24.0.2, SVG Export Plug-In . SVG Version: 6.00 Build 0)  -->
<svg version="1.1" id="Layer_1" xmlns="http://www.w3.org/2000/svg" xmlns:xlink="http://www.w3.org/1999/xlink" x="0px" y="0px"
	 viewBox="0 0 150 150" style="enable-background:new 0 0 150 150;" xml:space="preserve">
<style type="text/css">
	.st0{fill:#000000;}
</style>
<path class="st0" d="M75.1,150c-0.9,0-1.7-0.4-2.3-1.1L0.9,82.1c-0.4-0.5-0.7-1.2-0.7-1.9V3c0-1.7,1.3-3,3-3H147c1.7,0,3,1.4,3,3
	v77.2c0,0.7-0.2,1.4-0.7,1.9l-71.9,66.8C76.9,149.6,76,150,75.1,150z M6.2,79.1l68.9,63.2L144,79.1V6H6.2V79.1z M147,80.2L147,80.2
	L147,80.2z"/>
<g>
	<path class="st0" d="M59.8,86.5c-0.5,0-0.9,0-1.4,0c-0.8,0-1.5-0.7-1.5-1.5c0-0.8,0.7-1.5,1.5-1.5c0,0,0,0,0,0
		c19.8,0.1,32.7-2.7,38.3-8.4c2.2-2.2,3.2-4.9,3.2-8c-0.1-3.8-3.3-7.5-9.1-10.6c-5,2.6-11.3,4.3-17.5,5.2
		c-11.7,1.5-24.4-0.1-26.3-7.2c-0.5-2,0-3.8,1.6-5.1c6.3-5.4,27.6-2.8,40.7,3c0.5,0.2,1,0.4,1.4,0.7c4.9-2.8,8.2-6.5,8.2-11
		c0-3-1.1-5.5-3.4-7.7c-9.2-8.5-33.4-6.9-33.6-6.8c-0.8,0-1.5-0.6-1.6-1.4c-0.1-0.8,0.6-1.5,1.4-1.6c1-0.1,25.8-1.8,35.9,7.6
		c2.9,2.7,4.3,6,4.3,9.9c0,5.2-3.2,9.4-8.2,12.7c5.9,3.5,9,7.7,9.1,12.2c0.1,4-1.3,7.4-4,10.2C92.8,83.5,80,86.5,59.8,86.5z
		 M61.3,49.6c-5,0-8.9,0.7-10.6,2.2c-0.7,0.6-0.9,1.2-0.7,2c1.2,4.4,11.1,6.5,23,5c4.9-0.6,10-2,14.4-3.9
		C79.1,51.3,68.9,49.6,61.3,49.6z"/>
	<g>
		<polygon class="st0" points="68.3,72.6 70.4,74.8 59.6,84.9 70.6,94.9 68.5,97.1 55.2,85 		"/>
	</g>
</g>
</svg>
